<svg width="717.906" height="372.582" viewBox="0 0 189.946 98.579" xmlns="http://www.w3.org/2000/svg"><g transform="translate(-1.686 -67.61)"><path style="fill:#cdde87;fill-opacity:1;stroke:#000;stroke-width:0;stroke-linecap:round;stroke-linejoin:round;stroke-miterlimit:4;stroke-dasharray:none;stroke-opacity:1" d="M1.686 98.775A130.262 98.579 0 0 1 96.628 67.61a130.262 98.579 0 0 1 95.004 31.056l-94.905 67.523Z"/><path style="fill:#cdde87;fill-opacity:1;stroke:#000;stroke-width:0;stroke-linecap:round;stroke-linejoin:round;stroke-miterlimit:4;stroke-dasharray:none;stroke-opacity:1" d="M21.54 100.188a102.292 76.237 0 0 1 74.556-24.101 102.292 76.237 0 0 1 74.605 24.016l-74.527 52.22z"/><path style="fill:#deaa87;fill-opacity:1;stroke:#000;stroke-width:0;stroke-linecap:round;stroke-linejoin:round;stroke-miterlimit:4;stroke-dasharray:none;stroke-opacity:1" d="M44.012 115.867a71.385 53.4 0 0 1 52.126-16.944 71.385 53.4 0 0 1 52.148 16.904l-52.112 36.496z"/><path style="fill:#cdde87;fill-opacity:1;stroke:#000;stroke-width:0;stroke-linecap:round;stroke-linejoin:round;stroke-miterlimit:4;stroke-dasharray:none;stroke-opacity:1" transform="scale(1.15508 .81596) rotate(45)" d="M152.354 34.604h38.523v38.523h-38.523z"/><path style="fill:#deaa87;fill-opacity:1;stroke:#000;stroke-width:0;stroke-linecap:round;stroke-linejoin:round;stroke-miterlimit:4;stroke-dasharray:none;stroke-opacity:1" d="M71.923 125.009a9.914 7.416 0 0 1-.133 10.28l-7.08-5.192z"/><path style="fill:#deaa87;fill-opacity:1;stroke:#000;stroke-width:0;stroke-linecap:round;stroke-linejoin:round;stroke-miterlimit:4;stroke-dasharray:none;stroke-opacity:1" transform="scale(-1 1)" d="M-120.425 125.009a9.914 7.416 0 0 1-.133 10.28l-7.08-5.192zM-88.97 112.965a9.914 7.416 0 0 1-7.192 2.321 9.914 7.416 0 0 1-7.2-2.308l7.188-5.108z"/><path style="fill:#fff;fill-opacity:1;stroke:#000;stroke-width:0;stroke-linecap:round;stroke-linejoin:round;stroke-miterlimit:4;stroke-dasharray:none;stroke-opacity:1" transform="scale(1.15508 .81596) rotate(45)" d="M152.354 68.836h4.291v4.291h-4.291zM152.354 34.604h4.291v4.291h-4.291zM186.586 34.604h4.291v4.291h-4.291z"/><ellipse style="fill:#deaa87;fill-opacity:1;stroke:#000;stroke-width:0;stroke-linecap:round;stroke-linejoin:round;stroke-miterlimit:4;stroke-dasharray:none;stroke-opacity:1" cx="96.519" cy="150.678" rx="6.55" ry="4.9"/><ellipse style="fill:#deaa87;fill-opacity:1;stroke:#000;stroke-width:0;stroke-linecap:round;stroke-linejoin:round;stroke-miterlimit:4;stroke-dasharray:none;stroke-opacity:1" cx="95.902" cy="130.42" rx="6.55" ry="4.9"/><g style="stroke-width:.5;stroke-miterlimit:4;stroke-dasharray:none" fill="none"><path style="opacity:1;fill:#fff;fill-opacity:0;stroke:#fff;stroke-width:.5;stroke-linecap:round;stroke-linejoin:round;stroke-miterlimit:4;stroke-dasharray:none;stroke-opacity:1" d="M88.34 218.067h2.287v3.563H88.34z" transform="translate(5.21 -69.142)"/><path style="fill:#fff;fill-opacity:0;stroke:#fff;stroke-width:.5;stroke-linecap:round;stroke-linejoin:round;stroke-miterlimit:4;stroke-dasharray:none;stroke-opacity:1" d="M92.129 218.067h2.287v3.563h-2.287z" transform="translate(5.21 -69.142)"/></g><path style="fill:none;stroke:#fff;stroke-width:.450809;stroke-linecap:butt;stroke-linejoin:miter;stroke-miterlimit:4;stroke-dasharray:none;stroke-opacity:1" d="m182.384 91.921-82.758 57.954.017.024M10.79 92.534 93.55 150.49l-.017.024"/></g></svg>