<svg xmlns="http://www.w3.org/2000/svg" width="355.117" height="300.43701" version="1.1" viewBox="0 0 93.958039 79.490628" id="svg1522">
  <g>
    <path d="m 86.586797,39.745355 c 0,21.950543 -17.794463,39.745353 -39.745354,39.745353 -21.950892,0 -39.745708,-17.79481 -39.745708,-39.745353 C 7.095735,17.793758 24.890551,0 46.841443,0 68.792334,0 86.586797,17.793758 86.586797,39.745355" fill="#FFFFFF" id="path94"></path>
    <path d="m 85.488847,39.712264 c 0,21.344824 -17.303044,38.646804 -38.648216,38.646804 -21.344113,0 -38.646452,-17.30198 -38.646452,-38.646804 0,-21.344466 17.302339,-38.647157 38.646452,-38.647157 21.345172,0 38.648216,17.302691 38.648216,38.647157" fill="#131230" id="path98"></path>
    <path d="m 77.050438,39.678856 c 0,16.659932 -13.504686,30.166032 -30.164969,30.166032 -16.65993,0 -30.165321,-13.5061 -30.165321,-30.166032 0,-16.660283 13.505391,-30.165674 30.165321,-30.165674 16.660283,0 30.164969,13.505391 30.164969,30.165674" fill="#FFFFFF" id="path102"></path>
    <path d="m 39.305122,39.435651 c 0,-0.06491 -0.0039,-0.128411 -0.0042,-0.193322 l 2.163586,1.208264 0.35313,-0.632178 -2.535061,-1.416403 c -0.02505,-0.951089 -0.0822,-1.894416 -0.174981,-2.827161 l 2.284236,1.116189 0.318558,-0.650169 -2.696986,-1.319037 c -0.113241,-0.930627 -0.261408,-1.849613 -0.439561,-2.758722 l 2.461331,0.802217 0.224366,-0.688269 -2.84868,-0.929217 C 38.232002,30.33081 38.022452,29.526476 37.792793,28.729551 l 2.402417,0.491067 0.144286,-0.710142 -2.776008,-0.567266 c -0.216959,-0.696736 -0.456495,-1.383242 -0.7112,-2.062339 l 2.504722,0.511528 0.144992,-0.710142 -2.960864,-0.605014 c -0.319294,-0.795867 -0.665369,-1.577622 -1.034727,-2.346325 l 2.551641,0.270581 0.07514,-0.721078 -3.002491,-0.3175 c -0.410987,-0.808214 -0.852664,-1.597378 -1.317625,-2.371372 l 2.476147,-7.06e-4 -3.53e-4,-0.724605 -2.914297,7.05e-4 C 32.896559,18.109529 32.38997,17.372224 31.861862,16.651499 l 2.346325,-0.196145 -0.06068,-0.72143 -2.798234,0.233186 c -0.242001,-0.315736 -0.483654,-0.631472 -0.735185,-0.939447 l -0.934508,0.511175 c 0.269522,0.326672 0.529167,0.660752 0.787753,0.996244 l -1.023408,2.776008 0.679802,0.250473 0.861484,-2.334331 c 0.532341,0.725664 1.043869,1.46685 1.524705,2.230614 l -1.206147,2.582686 0.656872,0.306917 0.999772,-2.143125 c 0.458964,0.769055 0.891823,1.555044 1.296459,2.357966 l -1.415345,2.348795 0.620889,0.374297 1.175456,-1.950861 c 0.351014,0.738717 0.675216,1.49225 0.978252,2.256719 l -1.635125,2.20345 0.583495,0.430742 1.36278,-1.837972 c 0.229659,0.619477 0.441678,1.247069 0.638881,1.881364 l -1.746956,2.35338 0.583142,0.432153 1.419931,-1.915231 c 0.224014,0.788811 0.424391,1.587147 0.597253,2.395714 l -1.883481,2.013656 0.530225,0.4953 1.528939,-1.636184 c 0.159808,0.843139 0.289278,1.696509 0.391583,2.558345 l -2.149828,1.737783 0.456495,0.563033 1.788583,-1.44533 c 0.08396,0.879122 0.132997,1.768122 0.155222,2.663825 l -2.320219,1.672166 0.424744,0.588434 1.914878,-1.38042 c 0,0.02328 0.0014,0.04692 0.0014,0.0702 0,0.724606 -0.02787,1.442508 -0.06844,2.156883 l -2.433108,1.416756 0.364067,0.626886 2.011186,-1.170517 c -0.05609,0.704145 -0.128059,1.403703 -0.222956,2.096206 l -2.576336,1.317626 0.330553,0.64594 2.107847,-1.0788 c -0.117474,0.7299 -0.24906,1.45521 -0.40781,2.17029 l -2.561519,1.15359 0.297391,0.66075 2.046464,-0.9211 c -0.16898,0.6805 -0.35313,1.35466 -0.558447,2.02035 l -2.621139,1.03223 0.264936,0.67416 2.064808,-0.81245 c -0.242358,0.71932 -0.503061,1.43016 -0.786694,2.12937 l -2.671939,0.74895 0.196145,0.69744 2.113844,-0.59267 c -0.273756,0.62936 -0.563739,1.24919 -0.870303,1.8602 l -2.730147,0.49283 0.12947,0.71508 2.181224,-0.39476 c -0.308327,0.5782 -0.632883,1.14618 -0.970138,1.70603 l -2.80035,0.20356 0.05186,0.72284 2.286,-0.16545 c -0.33655,0.52987 -0.689328,1.04739 -1.051278,1.55927 l -2.669822,0.0466 0.0127,0.72496 2.125133,-0.0374 c -0.376414,0.50554 -0.760942,1.00436 -1.161697,1.49014 l 0.582083,0.93662 c 0.576792,-0.68615 1.123244,-1.397 1.652058,-2.12266 l 1.178278,2.41476 0.651228,-0.31926 -1.349022,-2.7626 c 0.35313,-0.50695 0.69215,-1.02447 1.021291,-1.5487 l 1.239309,2.22039 0.633236,-0.35278 -1.437922,-2.57599 c 0.376061,-0.629 0.737658,-1.26788 1.078441,-1.91911 l 1.495425,2.11667 0.591609,-0.41734 -1.719087,-2.43381 c 0.334434,-0.67486 0.655814,-1.35678 0.951442,-2.05317 l 1.695803,1.97379 0.549628,-0.47378 -1.940278,-2.25918 c 0.303742,-0.75954 0.589139,-1.52859 0.844903,-2.31176 l 1.869369,1.77518 0.499181,-0.52529 -2.130425,-2.02282 c 0.218016,-0.71826 0.416983,-1.44463 0.593725,-2.17982 l 1.94698,1.67852 0.473428,-0.54857 -2.236258,-1.92793 c 0.158044,-0.72566 0.292452,-1.45979 0.409222,-2.200275 l 1.948391,1.516595 0.445559,-0.57186 -2.264834,-1.762122 c 0.1016,-0.748594 0.17392,-1.505655 0.231775,-2.266949 l 2.063751,1.433658 0.413455,-0.594783 -2.420408,-1.682044 c 0.03845,-0.705556 0.06421,-1.414286 0.06421,-2.129367" fill="#C7C6C6" id="path106"></path>
    <path d="m 65.07014,61.153528 -2.669116,-0.0466 c -0.36195,-0.51153 -0.714728,-1.02941 -1.051278,-1.55928 l 2.286,0.16581 0.05115,-0.7232 -2.799292,-0.20355 c -0.337608,-0.55951 -0.661811,-1.12713 -0.970139,-1.70568 l 2.180167,0.3944 0.129116,-0.71472 -2.728736,-0.49319 c -0.306916,-0.6103 -0.596547,-1.23049 -0.870302,-1.85949 l 2.113491,0.59231 0.195439,-0.69779 -2.67088,-0.74859 c -0.283986,-0.69886 -0.544336,-1.4097 -0.786695,-2.12867 l 2.063397,0.81175 0.265995,-0.67451 -2.620786,-1.03153 c -0.20567,-0.66569 -0.389467,-1.3402 -0.5588,-2.02106 l 2.045405,0.9211 0.298097,-0.66075 -2.560461,-1.15288 c -0.15875,-0.71508 -0.290688,-1.44004 -0.408163,-2.169935 l 2.106436,1.077735 0.330905,-0.64593 -2.575278,-1.316571 c -0.09454,-0.692856 -0.166511,-1.392767 -0.222955,-2.096911 l 2.010128,1.170516 0.364066,-0.627239 -2.432402,-1.415697 c -0.04022,-0.71508 -0.06809,-1.432983 -0.06809,-2.157941 0,-0.02328 0.0014,-0.04621 0.0014,-0.06985 l 1.913819,1.380066 0.424039,-0.588433 -2.318103,-1.670756 c 0.02222,-0.896055 0.07126,-1.785408 0.155222,-2.665236 l 1.787878,1.445331 0.455083,-0.563033 -2.148416,-1.736725 c 0.102658,-0.862189 0.232128,-1.715911 0.391936,-2.558698 l 1.528939,1.635478 0.529519,-0.494947 -1.882775,-2.013655 c 0.172861,-0.808567 0.373239,-1.606903 0.5969,-2.395009 l 1.419578,1.914525 0.582789,-0.432505 -1.745897,-2.353028 c 0.19685,-0.633942 0.408869,-1.261181 0.637822,-1.880306 l 1.36278,1.836561 0.582789,-0.430741 -1.633714,-2.203097 c 0.303389,-0.764117 0.627239,-1.517298 0.978253,-2.256014 l 1.174397,1.949803 0.621595,-0.373945 -1.415345,-2.347736 c 0.404284,-0.803628 0.837495,-1.589617 1.296811,-2.358672 l 0.998362,2.142419 0.656872,-0.306564 -1.204736,-2.582333 c 0.480483,-0.763764 0.992011,-1.505303 1.524705,-2.230614 l 0.860778,2.333978 0.680508,-0.250472 -1.024114,-2.775303 c 0.258586,-0.335844 0.518936,-0.67063 0.788459,-0.997303 l -0.934843,-0.511135 c -0.251531,0.307975 -0.493184,0.623711 -0.735189,0.939448 l -2.798234,-0.232834 -0.06103,0.721431 2.346678,0.196144 c -0.528109,0.720725 -1.03505,1.457678 -1.512711,2.215445 l -2.914298,-7.06e-4 -7.05e-4,0.724606 2.4765,7.05e-4 c -0.464961,0.773995 -0.906992,1.562806 -1.317978,2.371019 l -3.002844,0.317853 0.0762,0.721078 2.550936,-0.270581 c -0.369359,0.768703 -0.715434,1.550106 -1.034345,2.345973 l -2.960864,0.605014 0.145345,0.710494 2.503664,-0.511175 c -0.254353,0.678744 -0.493889,1.36525 -0.710495,2.061986 l -2.776361,0.567267 0.144286,0.709789 2.402417,-0.490714 c -0.229306,0.796219 -0.439208,1.600905 -0.618067,2.417586 l -2.849386,0.929569 0.224367,0.68827 2.462036,-0.802217 c -0.1778,0.909108 -0.325967,1.828094 -0.439561,2.758722 l -2.695928,1.319036 0.317147,0.65017 2.284942,-1.116542 c -0.09278,0.93345 -0.149931,1.876778 -0.174978,2.828219 l -2.535766,1.415698 0.352777,0.632177 2.164292,-1.207911 c -3.53e-4,0.06456 -0.0042,0.128411 -0.0042,0.19297 0,0.715433 0.02575,1.424516 0.06421,2.130072 l -2.420408,1.681339 0.413456,0.595136 2.063749,-1.434042 c 0.05821,0.761295 0.130175,1.518708 0.231775,2.26695 l -2.263774,1.762128 0.444852,0.57185 1.948039,-1.516945 c 0.117122,0.740835 0.251178,1.475315 0.409575,2.201335 l -2.235905,1.92758 0.472722,0.54821 1.947333,-1.67887 c 0.176389,0.73519 0.375708,1.46156 0.593725,2.17982 l -2.130425,2.02353 0.499181,0.52529 1.869016,-1.77448 c 0.256117,0.78247 0.541514,1.55152 0.844903,2.31105 l -1.940278,2.25919 0.549628,0.47343 1.695803,-1.97379 c 0.295628,0.69638 0.617008,1.37901 0.951794,2.05352 l -1.719791,2.43346 0.591608,0.41733 1.495778,-2.11666 c 0.340783,0.65193 0.702733,1.29046 1.079147,1.91981 l -1.43757,2.57528 0.632884,0.35278 1.238955,-2.22003 c 0.329142,0.52458 0.668161,1.04175 1.021292,1.54869 l -1.349022,2.76261 0.650522,0.31891 1.178983,-2.41406 c 0.528461,0.72531 1.075267,1.43651 1.651706,2.12196 l 0.582789,-0.93628 c -0.400403,-0.48577 -0.785284,-0.9846 -1.161697,-1.49048 l 2.123722,0.0378 z" fill="#C7C6C6" id="path110"></path>
    <path d="m 30.790054,22.925722 0.400756,3.53e-4 c 0.776816,-0.0035 0.948972,-0.193322 1.384652,-1.449917 0.445911,-1.246011 0.418042,-1.444272 -0.360891,-1.442155 l -0.400756,7.05e-4 z m -0.677333,-3.761669 2.917472,0.0018 c 2.325864,0.0028 2.051403,1.101372 1.621719,2.30893 -0.433564,1.217083 -0.943328,2.315986 -3.258255,2.315986 l -2.921,-7.05e-4 z" fill="#000000" id="path114"></path>
    <path d="m 37.132822,23.070043 c 0.616655,-0.0018 0.799042,-0.337608 1.242836,-1.594202 0.441325,-1.245306 0.498122,-1.587853 -0.115358,-1.584678 -0.617009,0.0011 -0.803981,0.339019 -1.240367,1.58503 -0.450144,1.254831 -0.503767,1.591028 0.112889,1.59385 m 1.41605,-3.997325 c 2.050697,0.0014 2.513541,0.673806 1.904647,2.403123 -0.615244,1.736019 -1.556808,2.409825 -3.61068,2.409825 -2.05352,-0.0021 -2.512836,-0.675923 -1.902531,-2.409825 0.610306,-1.726848 1.552928,-2.4003 3.608564,-2.403123" fill="#000000" id="path118"></path>
    <path d="m 42.94159,23.068315 c 0.61207,0.0039 0.800453,-0.334434 1.242131,-1.592086 0.440972,-1.244248 0.497416,-1.58362 -0.124884,-1.586442 -0.609952,0.0014 -0.790927,0.339019 -1.23825,1.589617 -0.43815,1.255183 -0.493183,1.588911 0.121003,1.588911 m 1.413581,-3.99415 c 2.051755,0 2.517422,0.674511 1.904647,2.402064 -0.61595,1.734608 -1.552928,2.408061 -3.607858,2.406297 -2.055284,0 -2.516717,-0.671689 -1.905706,-2.406297 0.616303,-1.726142 1.55575,-2.398889 3.608917,-2.402064" fill="#000000" id="path122"></path>
    <path d="m 49.990584,20.503126 0.0441,-0.108655 c 0.09066,-0.275167 -0.01199,-0.500592 -0.40005,-0.50165 -0.428978,0.0011 -0.696383,0.202142 -0.773994,0.404989 -0.317148,0.917575 3.119614,0.471664 2.521655,2.162528 -0.347486,0.983897 -1.46438,1.424163 -3.233914,1.425222 -1.665816,0 -2.472266,-0.3429 -2.132894,-1.303514 l 0.05609,-0.159456 1.939572,0.0014 -0.03457,0.10795 c -0.141464,0.394053 0.07832,0.536223 0.471663,0.534459 0.406753,0.0056 0.710848,-0.19297 0.800453,-0.447322 0.329495,-0.912637 -2.990849,-0.457906 -2.409472,-2.10185 0.33267,-0.926748 1.341967,-1.441803 3.040944,-1.443567 1.751895,0.0035 2.343503,0.43568 1.988609,1.427692 z" fill="#000000" id="path126"></path>
    <path d="m 55.246444,20.113131 h -0.02152 l -1.248128,1.967088 h 1.125361 z m -0.940153,-0.944739 2.523066,0.0018 0.238125,4.623858 -2.138186,-0.0018 0.08573,-0.809272 -1.600905,-0.0035 -0.486834,0.813153 -2.141713,-0.0018 z" fill="#000000" id="path130"></path>
    <path d="m 58.962993,19.168815 2.239786,0.0011 0.288219,2.850445 0.02364,3.53e-4 1.011061,-2.853973 h 1.879247 l -1.639358,4.628445 -2.205566,-0.0032 -0.325614,-2.853267 -0.02152,-0.0032 -1.015647,2.859617 -1.874308,-0.0039 z" fill="#000000" id="path134"></path>
    <path d="m 40.263548,58.433968 v 1.91735 l -1.018822,1.00153 h -2.071864 l -0.949325,-0.96767 v -1.04457 h 1.652059 v 0.51364 h 0.693208 v -0.8128 h -1.626658 l -0.761648,-0.7874 v -1.63477 l 0.992364,-0.97649 h 2.12337 l 0.898525,0.91687 v 0.94086 h -1.58362 v -0.36759 h -0.735541 v 0.54751 h 1.659819 z" fill="#000000" id="path138"></path>
    <path d="m 39.767296,58.638928 -0.505178,-0.50482 h -1.694744 l -0.19685,-0.19685 v -0.96767 l 0.325261,-0.31609 h 1.078089 l 0.299508,0.31609 v 0.0857 h 0.693914 v -0.21344 l -0.693914,-0.7094 h -1.659467 l -0.719314,0.70943 v 1.21497 l 0.522112,0.53058 h 1.677458 l 0.179211,0.19755 v 1.23226 l -0.341489,0.33408 h -1.036108 l -0.325261,-0.33408 v -0.23954 h -0.675923 v 0.35066 l 0.719314,0.72743 h 1.591381 l 0.762,-0.72743 z" fill="#000000" id="path142"></path>
    <path d="m 44.758184,55.642758 v 1.83197 h -1.531408 v -0.34184 h -0.736953 v 0.60784 h 1.353255 v 1.45415 h -1.353255 v 0.65934 h 0.736953 v -0.41028 h 1.531408 v 1.90923 h -4.373033 v -1.49895 h 0.3937 v -2.72133 h -0.3937 v -1.49013 z" fill="#000000" id="path146"></path>
    <path d="m 44.244681,56.132308 h -3.34645 v 0.5214 h 0.393347 v 3.69747 h -0.393347 v 0.50482 h 3.34645 v -0.90805 h -0.512939 v 0.40323 h -1.763536 v -1.66088 h 1.369483 v -0.46179 h -1.369483 v -1.5748 h 1.763536 v 0.33373 h 0.512939 z" fill="#000000" id="path150"></path>
    <path d="m 49.037696,56.653538 v 3.69746 l -1.010003,1.00189 h -2.164997 l -0.98425,-1.00189 v -3.72357 l 1.009297,-0.9846 h 2.13995 z" fill="#000000" id="path154"></path>
    <path d="m 48.524722,56.858538 -0.728134,-0.72637 h -1.668639 l -0.753533,0.72637 v 3.26037 l 0.693914,0.73695 h 1.728258 l 0.728134,-0.7112 z" fill="#000000" id="path158"></path>
    <path d="m 47.839839,56.987368 v 3.02119 l -0.333728,0.34255 h -1.1303 l -0.307269,-0.34255 v -3.02119 l 0.341489,-0.33373 h 1.09608 z" fill="#000000" id="path162"></path>
    <path d="m 47.334414,57.132678 h -0.770819 v 2.72168 h 0.770819 z" fill="#FFFFFF" id="path164"></path>
    <path d="m 54.104749,55.642758 v 1.49013 h -0.453672 v 3.21839 l -1.001536,1.00189 h -2.096912 l -0.993069,-1.00189 v -3.21839 h -0.444853 v -1.49013 h 2.379134 v 1.43933 h -0.221545 v 2.77213 h 0.683331 v -2.77213 h -0.221192 v -1.43933 z" fill="#000000" id="path168"></path>
    <path d="m 53.599677,56.132308 h -1.41217 v 0.5214 h 0.274109 v 3.37185 l -0.325261,0.32562 h -1.061509 l -0.307622,-0.32562 v -3.37185 h 0.273403 v -0.5214 h -1.412522 v 0.5214 h 0.445911 v 3.48333 l 0.693208,0.71896 h 1.65982 l 0.718608,-0.68509 v -3.5172 h 0.454025 z" fill="#000000" id="path172"></path>
    <path d="m 56.894586,55.642758 v 1.49013 h -0.470253 v 2.72133 h 0.632531 v -0.91546 h 1.523647 v 2.41441 h -4.245328 v -1.49895 h 0.394406 v -2.72133 h -0.394406 v -1.49013 z" fill="#000000" id="path176"></path>
    <path d="m 56.389514,56.132308 h -1.54058 v 0.5214 h 0.3937 v 3.69747 h -0.3937 v 0.50482 h 3.226505 v -1.42945 h -0.513292 v 0.92463 h -1.643239 v -3.69747 h 0.470606 z" fill="#000000" id="path180"></path>
    <path d="m 46.88554,11.189652 c 10.873316,0 20.320705,6.093178 25.121658,15.050205 h 1.885244 C 68.948614,16.326802 58.714884,9.514663 46.88554,9.514663 c -11.829697,0 -22.064486,6.812139 -27.00655,16.725194 h 1.884892 C 26.564835,17.28283 36.011165,11.189652 46.88554,11.189652" fill="#ED1C24" id="path184"></path>
    <path d="m 46.88554,68.168768 c -10.950575,0 -20.451233,-6.17996 -25.220436,-15.2393 H 19.78374 c 4.906786,10.01642 15.196608,16.91534 27.1018,16.91534 11.904133,0 22.195013,-6.89892 27.101446,-16.91534 H 72.10527 c -4.76885,9.05934 -14.270214,15.2393 -25.21973,15.2393" fill="#ED1C24" id="path188"></path>
    <path d="m 18.007892,31.064411 v 6.210653 l -1.034697,1.145469 1.034697,1.104194 v 6.546851 l -4.224866,4.1028 H 0 v -6.601526 h 1.565979 v -9.710913 l -1.558924,-0.01199 v -6.597297 h 14.206007 z" fill="#FFFFFF" id="path192"></path>
    <path d="m 35.583034,27.251024 v 7.494411 h -6.690078 v -1.28905 h -2.142772 v 1.654528 h 5.22605 v 6.323894 h -5.22605 v 1.8288 h 2.142772 v -1.281641 h 6.654095 l 0.03598,7.865882 H 17.865476 V 43.36803 h 1.412875 v -9.928931 h -1.292225 v -6.198658 z" fill="#FFFFFF" id="path196"></path>
    <path d="m 49.545837,27.251024 4.996392,16.328672 h 2.045758 v 6.594472 H 46.584268 v -6.241341 h 1.393119 L 47.76819,43.240324 h -3.72745 l -0.1397,0.692503 h 1.219905 v 6.241341 h -9.606138 l 0.03246,-8.192202 1.781175,1.88983 5.494514,-16.620772 z" fill="#FFFFFF" id="path200"></path>
    <path d="m 76.206382,43.579732 v 6.594476 H 66.555793 V 44.006945 H 66.88176 L 65.998052,41.91709 h -0.940506 v 2.089855 h 1.324328 v 6.167263 h -9.998781 v -6.598004 h 1.743075 v -9.725025 h -1.559983 v -6.603647 h 14.025033 l 3.866797,3.944055 -0.06279,6.753225 -1.847145,1.881717 1.67252,3.753203 z" fill="#FFFFFF" id="path204"></path>
    <path d="m 92.350128,38.212288 -0.07655,7.91739 -4.193469,4.0446 h -8.240536 l -3.876323,-3.82588 -0.0014,-4.759321 h 7.038975 v 2.032706 h 2.020006 V 41.25288 h -6.036042 l -3.170767,-3.16865 -0.02469,-6.78815 4.093633,-4.043891 8.593667,-0.0046 3.524955,3.598686 v 4.468636 H 85.125596 V 33.797262 H 82.96589 v 1.377949 l 6.648097,0.164042 z" fill="#FFFFFF" id="path208"></path>
    <path d="m 19.802967,33.200022 v 5.899855 l -0.03351,1.210733 0.03351,1.038931 -0.376414,6.546847 -3.931003,3.86539 -13.945305,-0.007 -1.541637,-1.59421 3.39619,-4.748033 V 35.693808 H 1.80107 v -6.616347 h 14.015155 z" fill="#FFFFFF" id="path212"></path>
    <path d="m 37.261656,29.036609 v 7.697964 h -6.689372 v -1.243895 h -2.142772 v 0.944034 h 5.276144 v 7.034741 h -5.276144 v 1.8288 h 2.142772 V 43.78272 l 6.689372,0.05539 -0.0078,7.923738 H 19.690148 l -2.070099,-2.16041 3.336572,-4.198759 v -9.929988 h -1.411464 l 15.998472,-8.195733 z" fill="#FFFFFF" id="path216"></path>
    <path d="m 51.258397,29.018018 5.05213,16.500122 h 2.046111 v 6.236758 l -13.920258,0.007 v -6.004575 h 5.309306 L 49.536841,45.06482 h -3.727803 l -0.1397,0.692503 h 1.219906 v 6.004635 H 37.253825 V 45.51814 h 1.904647 L 49.546013,27.250954 Z" fill="#FFFFFF" id="path220"></path>
    <path d="m 77.890367,45.607851 v 6.147157 H 66.280803 l 2.068336,-5.83283 h 0.327025 L 67.792809,43.830909 H 66.85195 v 2.091269 h 1.324681 v 5.83283 h -9.999133 v -6.147157 h 1.706738 v -9.894358 h -1.603375 v -6.529917 h 14.201775 l 3.594806,3.649134 0.01658,6.638572 -1.913819,1.903941 1.820686,3.961695 z" fill="#FFFFFF" id="path224"></path>
    <path d="m 93.957948,39.86283 v 7.771698 l -4.181475,4.13773 -8.326261,0.0102 -3.610681,-3.60363 -0.152752,-4.648903 h 7.107766 v 1.916994 h 2.021064 v -2.369931 l -6.051197,0.01376 -3.059642,-3.16865 -0.218016,-6.904566 4.063294,-3.994856 8.561564,-0.104775 3.580341,3.649134 -0.006,4.260497 h -6.765922 v -1.205444 h -2.159705 v 1.377597 h 6.41103 z" fill="#FFFFFF" id="path228"></path>
    <path d="m 93.554864,40.027506 v 7.434792 l -3.9497,3.88338 h -8.033103 l -3.683,-3.75144 V 43.544701 H 84.2948 v 1.99143 h 2.688167 V 42.383709 H 80.676711 L 77.72255,39.33077 v -6.339416 l 3.849511,-3.783895 h 8.231364 l 3.485444,3.551414 v 3.65125 H 87.148772 V 34.982431 H 84.2948 v 2.124075 h 6.439253 z" fill="#FFFFFF" id="path232"></path>
    <path d="m 19.33924,33.124563 v 5.742163 l -1.076325,1.160639 1.076325,1.074561 v 6.327072 l -4.016375,3.91759 H 1.913782 l -1.478138,-1.53211 3.038827,-4.27743 V 34.982996 l 0.185209,-0.0949 -1.745898,-5.680075 h 13.641211 z" fill="#131230" id="path236"></path>
    <path d="M 0.835976,49.669628 3.634209,45.698762 V 34.619423 H 2.045298 v -5.295547 l 13.204119,0.03422 3.893608,3.834342 v 5.562953 l -1.208616,1.285169 1.204736,1.191683 v 2.909359 l -0.220839,-0.03563 -0.09031,3.535186 -3.509786,3.39301 -13.152261,0.002 z" fill="#131230" id="path240"></path>
    <path d="m 17.858879,31.591496 v 5.742164 l -1.028347,1.095728 1.028347,1.093611 v 6.373639 l -4.016375,3.91689 H 0.433068 v -5.80884 H 1.993404 V 33.450282 H 0.433068 V 27.67531 h 13.641564 z" fill="#ED1C24" id="path244"></path>
    <path d="M 16.351671,32.620196 12.879632,29.178849 H 1.941052 v 2.759428 H 3.497508 V 45.507874 H 1.937172 v 2.798234 h 10.776302 l 3.638197,-3.504848 v -4.546953 l -2.243314,-1.759303 2.243314,-1.75895 z" fill="#FFFFFF" id="path248"></path>
    <path d="m 11.501647,31.938418 1.228372,0.915105 v 3.517548 l -1.161344,0.776111 H 7.09122 v -5.208764 z" fill="#ED1C24" id="path252"></path>
    <path d="m 11.432221,39.87179 1.293988,0.947209 v 3.716513 l -1.393472,0.969081 H 7.08741 V 39.87179 Z" fill="#ED1C24" id="path256"></path>
    <path d="M 11.220907,33.45 H 8.598004 v 2.190397 h 2.622903 z" fill="#131230" id="path258"></path>
    <path d="M 11.220907,41.383619 H 8.598004 v 2.621139 h 2.622903 z" fill="#131230" id="path260"></path>
    <path d="m 36.842909,29.208165 -0.0074,7.108825 h -5.972528 l 0.03881,-1.334206 h -2.853266 l 2.323747,-0.735894 2.918883,3.106914 v 5.628216 h -5.24263 v 2.554817 h 2.853266 l 4.46017,-3.124906 1.480961,1.532114 v 7.402693 H 19.883118 l -1.481314,-1.53318 3.631494,-1.44427 -0.624416,-13.386504 0.903111,0.286809 13.052425,-7.596717 z" fill="#131230" id="path264"></path>
    <path d="m 31.681629,36.091494 1.2954,1.386064 v 5.195711 h -5.225344 v 3.169708 h 3.41383 l 4.18077,-3.00108 1.184628,1.219553 v 6.973358 H 20.006449 l -1.347611,-1.39559 3.031067,-3.83046 V 34.729066 h -1.508478 l 14.974358,-6.813197 1.375128,1.428398 3.52e-4,6.659386 h -4.854222 z" fill="#131230" id="path268"></path>
    <path d="m 35.362019,27.675451 v 7.102122 h -5.940425 v -1.327502 h -2.854678 v 2.357613 h 5.244042 v 5.640564 h -5.244042 v 2.556228 h 2.854678 v -1.592792 h 5.940425 v 7.401984 H 18.401875 v -5.809192 h 1.526822 V 33.450071 h -1.526822 v -5.77462 z" fill="#ED1C24" id="path272"></path>
    <path d="m 33.854811,29.175462 h -13.94848 v 2.762956 h 1.528233 v 13.569597 h -1.528233 v 2.793643 h 13.94848 v -4.385376 h -2.928056 v 1.591733 h -5.866694 v -5.570361 h 5.242983 v -2.625372 h -5.247216 v -5.373864 h 5.870927 v 1.328561 h 2.928056 z" fill="#FFFFFF" id="path276"></path>
    <path d="m 50.324206,40.35633 h -6.546145 v 7.455958 h 6.546145 z" fill="#FFFFFF" id="path278"></path>
    <path d="m 70.461467,40.35633 h -6.546145 v 7.455958 h 6.546145 z" fill="#FFFFFF" id="path280"></path>
    <path d="m 88.090124,41.121858 h -6.545791 v 7.45596 h 6.545791 z" fill="#FFFFFF" id="path282"></path>
    <path d="m 70.442769,40.35633 h -6.545791 v 7.455958 h 6.545791 z" fill="#FFFFFF" id="path284"></path>
    <path d="m 88.072838,41.121858 h -6.546497 v 7.45596 h 6.546497 z" fill="#FFFFFF" id="path286"></path>
    <path d="m 50.877714,29.211269 4.760031,15.510228 0.762352,-0.714728 1.481314,1.533525 v 5.808834 H 48.586775 L 47.191186,49.835368 50.01482,45.772069 49.616886,44.5123 h -4.2164 l -0.39758,1.259769 h 1.360311 l 2.569986,5.577059 H 37.368089 l -1.480608,-1.53317 3.305528,-4.275664 10.204802,-17.862197 z" fill="#131230" id="path290"></path>
    <path d="m 50.600043,29.37838 5.040489,16.435916 0.626533,-1.492602 1.302103,1.354314 v 5.35764 h -10.033 l -1.460147,-2.87091 4.464402,-2.12478 -0.631825,-1.863725 h -4.803422 l -0.561975,1.863725 h 1.467908 l 2.567517,4.99569 H 37.49576 l -1.353961,-1.40935 3.447344,-3.74297 9.722555,-17.839976 z" fill="#131230" id="path294"></path>
    <path d="m 50.326323,40.357742 h -6.545792 v 7.457016 h 6.545792 z" fill="#131230" id="path296"></path>
    <path d="m 49.397706,27.678203 5.011208,16.328672 h 1.99143 v 5.809193 h -9.293577 v -5.576713 h 1.426986 L 48.135819,42.979586 H 43.91942 l -0.398287,1.259769 h 1.360664 v 5.576713 h -8.994422 v -5.809193 h 1.825272 l 5.411259,-16.328672 z" fill="#ED1C24" id="path300"></path>
    <path d="M 48.274955,29.187175 H 44.21025 l -5.402086,16.320558 h -1.415698 v 2.800345 h 5.983111 v -2.800345 h -1.916641 l 1.40723,-4.035073 h 6.342239 l 1.33985,4.031192 h -1.939219 v 2.803526 h 6.283677 v -2.799645 h -1.605844 z" fill="#FFFFFF" id="path304"></path>
    <path d="m 46.276786,31.593895 2.555523,8.235244 h -5.609167 l 2.689225,-8.235244 z" fill="#ED1C24" id="path308"></path>
    <path d="m 46.077643,36.040835 -0.762352,2.290586 h 1.492602 z" fill="#131230" id="path312"></path>
    <path d="m 75.759236,44.33009 1.503186,1.505655 v 5.215823 h -8.361539 l -2.756958,-3.02789 3.488267,-1.86338 -1.567392,-3.378903 h -1.916641 v 3.378903 h 1.185333 l 2.105025,4.89127 H 58.741942 l -1.493661,-1.52683 3.116792,-3.678057 V 34.767343 H 58.741942 V 29.45451 l 13.038314,0.07444 3.60045,3.64878 v 5.944658 l -2.089503,2.135717 1.77165,3.55988 z" fill="#FFFFFF" id="path316"></path>
    <path d="m 70.464642,40.357742 h -6.546498 v 7.457016 h 6.546498 z" fill="#FFFFFF" id="path318"></path>
    <path d="m 88.093652,41.12468 h -6.546497 v 7.455958 h 6.546497 z" fill="#FFFFFF" id="path320"></path>
    <path d="m 75.982827,44.005887 1.488369,1.508125 0.01023,5.831416 -8.839553,-0.004 -2.928408,-3.12667 3.426883,-2.29094 -1.295047,-2.821165 H 66.41902 v 2.821165 h 1.160286 l 2.106436,5.41761 -11.144249,0.004 -1.538464,-1.52788 3.042355,-4.225925 V 35.037571 l -0.6731,-0.131939 -0.886883,-5.643033 13.435189,-0.08043 3.751086,3.81635 0.0014,6.314369 -1.994253,1.97732 1.608667,3.474861 z" fill="#131230" id="path324"></path>
    <path d="m 93.5404,40.030611 v 7.434787 l -3.950053,3.88373 -8.006644,0.005 -3.683353,-3.75249 -0.02681,-4.053067 h 6.406092 v 1.991783 h 2.688872 v -3.153893 h -6.307315 l -2.954514,-3.052234 v -6.339416 l 3.85057,-3.783542 h 8.231011 l 3.484738,3.550709 v 3.650544 h -6.139038 v -1.426986 h -2.854325 v 2.123369 h 6.4389 z" fill="#131230" id="path328"></path>
    <path d="m 93.5404,40.030611 v 7.434787 l -3.950053,3.88373 -8.006644,0.005 -3.683353,-3.75249 -0.02681,-4.053067 h 6.406092 v 1.991783 h 2.688872 v -3.153893 h -6.307315 l -2.954514,-3.052234 v -6.339416 l 3.85057,-3.783542 8.23348,-0.02081 3.484033,3.540125 -0.0018,3.681942 H 87.13392 V 34.98554 h -2.854325 l -0.7874,1.337733 H 89.9318 Z" fill="#131230" id="path332"></path>
    <path d="m 75.732002,44.25396 1.410758,1.46297 0.02258,5.317418 -8.323439,7.1e-4 -2.766836,-3.00144 3.488619,-1.86337 -1.567744,-3.379257 h -1.916642 v 3.379257 h 1.186039 l 2.114197,4.86481 -10.750902,0.004 -1.529997,-1.51729 3.196872,-3.664305 V 34.777644 h -1.62172 v -5.312481 l 13.0302,0.02293 3.601156,3.649133 0.0067,6.028267 -2.052814,2.064455 1.677812,3.64737 c 0.05292,0.05468 0.795161,-0.623359 0.795161,-0.623359" fill="#131230" id="path336"></path>
    <path d="m 93.227592,40.151543 -0.0011,7.189255 -3.756378,3.69429 -7.755114,0.004 -3.576108,-3.6262 0.02752,-3.554592 h 5.873749 v 1.951214 h 3.24097 v -3.728861 h -6.514747 l -2.76225,-2.856442 v -6.078008 l 3.759905,-3.69323 7.830961,-0.02152 3.37185,3.443111 -0.0049,3.2258 h -5.506508 v -1.405114 h -3.483681 v 2.68217 l 6.511925,-0.06456 z" fill="#131230" id="path340"></path>
    <path d="m 70.445592,40.357742 h -6.545086 v 7.457016 h 6.545086 z" fill="#131230" id="path342"></path>
    <path d="m 88.075308,41.12468 h -6.547556 v 7.455958 h 6.547556 z" fill="#131230" id="path344"></path>
    <path d="m 89.258877,30.255245 h -6.545086 v 7.456663 h 6.545086 z" fill="#131230" id="path346"></path>
    <path d="m 75.984873,44.006945 v 5.809193 h -8.828969 v -5.476523 h 0.498475 l -1.295048,-2.821517 h -1.427339 v 2.821517 h 1.162756 v 5.476523 H 57.00049 v -5.809193 h 1.559278 V 33.452893 H 57.00049 v -5.774619 h 13.440833 l 3.751791,3.815644 v 6.207125 l -2.057752,2.057752 1.956858,4.24815 z" fill="#ED1C24" id="path350"></path>
    <path d="M 74.475584,45.500042 H 73.139967 L 70.3248,39.446728 72.688764,37.040431 72.681664,32.078965 69.79453,29.162198 H 58.502159 v 2.772128 h 1.559631 v 13.566422 h -1.556809 v 2.8007 h 6.085417 v -2.8007 h -1.161697 v -5.494514 l 3.936294,0.0092 2.560461,5.485342 h -1.272822 v 2.800702 h 5.82295 z" fill="#FFFFFF" id="path354"></path>
    <path d="m 69.287281,33.155925 v 2.682169 l -1.394531,1.393825 h -4.244269 v -5.303661 h 4.376914 z" fill="#ED1C24" id="path358"></path>
    <path d="m 67.782825,33.439064 h -2.621492 v 2.290586 h 2.621492 z" fill="#131230" id="path360"></path>
    <path d="m 92.059015,38.498215 v 7.434083 l -3.950052,3.88373 h -8.03275 l -3.683,-3.75144 v -4.048826 h 6.405033 v 1.991078 h 2.688167 V 40.854417 H 79.18051 L 76.226702,37.80042 v -6.339063 l 3.849511,-3.783189 h 8.231716 l 3.485445,3.551414 v 3.649838 h -6.140803 v -1.426633 h -2.854325 v 2.123369 h 6.439958 z" fill="#ED1C24" id="path364"></path>
    <path d="m 90.552125,39.111801 -1.965678,-2.02953 -6.530269,-0.0056 -0.763411,-0.765175 v -3.139722 l 1.261181,-1.226608 h 3.440994 l 1.16205,1.226608 v 0.198967 h 3.403953 l -0.0011,-1.254478 -2.896658,-2.940756 h -6.979355 l -2.955572,2.940756 0.0035,5.071533 2.073981,2.156178 h 6.489347 l 0.696736,0.763411 v 4.109861 l -1.327856,1.293989 h -3.113969 l -1.26118,-1.293989 V 43.516982 H 77.89686 v 1.935692 l 2.835628,2.863144 6.741583,-0.0166 3.076575,-2.967557 z" fill="#FFFFFF" id="path368"></path>
  </g>
</svg>