
<svg xmlns="http://www.w3.org/2000/svg" width="970.74402" height="723.96899" viewBox="0 0 256.84268 191.55014">
  <defs id="defs1514"></defs>
  <g id="layer1">
    <g id="layer1-5" transform="translate(0,0.93679505)">
      <g id="layer1-2" transform="translate(1.9971986)">
        <path d="m 62.735261,127.98793 -0.88477,2.1e-4 -9e-4,5.84993 1.7363,0.004 -9e-5,-2.64759 -7e-5,-2.64757 v -0.27942 -0.27943 z" style="fill:#ffffff;fill-opacity:1;fill-rule:nonzero;stroke:none;stroke-width:0.352779" id="path12-9-30"></path>
        <path d="m 61.725591,129.35098 -0.88477,2.1e-4 -9e-4,5.84993 1.7363,0.004 -9e-5,-2.64759 -7e-5,-2.64757 v -0.27942 -0.27943 z" style="fill:#ffffff;fill-opacity:1;fill-rule:nonzero;stroke:none;stroke-width:0.352779" id="path12-9-34"></path>
        <path d="m 129.20826,3.79463 -68.539733,0.44557 3.87e-4,128.24929 65.727086,51.75074 65.72532,-51.75074 0.43797,-105.229214 -0.0992,2.4474 L 192.12131,4.2402 Z" style="fill:#ffffff;fill-opacity:1;fill-rule:nonzero;stroke:none;stroke-width:0.352779" id="path12-2"></path>
        <path d="M 126.396,169.81303 60.668911,132.48949 v 4.93925 l 65.727089,46.81149 65.72532,-46.81149 v -4.93925 z" style="fill:#002d74;fill-opacity:1;fill-rule:nonzero;stroke:#ffffff;stroke-width:10.354;stroke-miterlimit:0;stroke-dasharray:none;stroke-opacity:1" id="path12-1"></path>
        <path d="m 114.88282,140.47942 h 23.03886 l 5.53367,11.56441 48.66605,-25.06733 -0.007,0.009 0.007,-0.009 V 98.572596 c -43.30065,-9.46679 -88.15318,-9.46679 -131.452766,0.005 v 28.399314 l 48.665346,25.06733 z" style="fill:#b51123;fill-opacity:1;fill-rule:nonzero;stroke:#ffffff;stroke-width:10.354;stroke-miterlimit:0;stroke-dasharray:none;stroke-opacity:1" id="path24"></path>
        <path d="M 68.607791,37.517376 V 12.179821 H 86.929657 L 98.557213,37.517376 H 154.2319 l 11.62791,-25.337555 h 18.32186 v 25.337555 h 7.93962 V 4.240205 H 60.668527 v 33.277171 z" style="fill:none;fill-opacity:1;fill-rule:nonzero;stroke:#ffffff;stroke-width:10.354;stroke-linecap:butt;stroke-linejoin:miter;stroke-miterlimit:0;stroke-dasharray:none;stroke-opacity:1" id="path28"></path>
        <path d="M 109.05355,46.277906 H 76.619863 c 0.507648,0.22507 4.633031,1.65065 4.633031,5.79932 l -0.0254,28.176 c -0.06385,4.02308 2.902655,5.95736 8.631766,5.37105 9.344025,-0.92287 18.54624,-1.48026 27.93753,-1.67782 v -20.33128 c -6.1221,0.0589 -11.38343,0.19085 -17.50095,0.40075 v 6.82943 c 1.9812,-0.0924 3.03777,-0.16757 5.02461,-0.24483 v 7.07002 c -3.4678,0.15593 -6.388451,0.35948 -9.865781,0.59866 -0.908403,0.06 -1.325739,-0.23918 -1.325739,-0.95991 v -23.23359 c 0,-0.60713 0.436033,-0.91158 1.330325,-0.92181 2.85115,-0.0473 5.425725,-0.0836 8.275465,-0.11465 0.89005,-0.007 1.25341,0.31433 1.25341,0.9973 v 4.06753 c 4.29296,-0.0769 8.60249,-0.13264 12.89227,-0.16192 l 0.0208,-5.70019 c 0.007,-3.72745 -3.18947,-5.96406 -8.84767,-5.96406" style="fill:#b51123;fill-opacity:1;fill-rule:nonzero;stroke:none;stroke-width:1;stroke-miterlimit:0;stroke-dasharray:none;stroke-opacity:1" id="path32"></path>
        <path d="m 183.95201,55.067936 v 9.93669 c 0,0.73589 -0.41204,1.1624 -1.30069,1.09467 -3.23885,-0.24166 -5.82754,-0.46461 -9.07838,-0.67769 v -11.89708 c 3.24626,0.0794 5.79966,0.17216 9.03922,0.25294 0.89711,0.0342 1.33985,0.42863 1.33985,1.29047 m 12.90038,13.10322 v -14.79797 c -0.0857,-4.44465 -3.74686,-7.09224 -9.40471,-7.09542 h -31.40004 c 0.54928,0.23037 4.79531,1.59879 4.79531,5.64833 l 0.0134,33.68922 c 4.1649,0.40216 8.57039,0.89111 12.71659,1.43792 v -14.6805 c 2.08562,0.17428 4.29471,0.36478 6.38104,0.56798 2.21262,5.20982 3.86115,10.36425 6.06848,15.85383 4.18359,0.71049 8.73901,1.67181 12.90073,2.53188 -2.31881,-5.9316 -4.63902,-11.69387 -6.96736,-17.28152 3.17571,-0.58843 4.94771,-2.70439 4.89656,-5.87375" style="fill:#b51123;fill-opacity:1;fill-rule:nonzero;stroke:#ffffff;stroke-width:8.46667;stroke-miterlimit:0;stroke-dasharray:none;stroke-opacity:1" id="path36"></path>
        <path d="m 16.086801,56.029606 c 5.045427,-0.27764 9.84638,-0.54434 14.906272,-0.78211 v 41.27958 c 4.153252,-1.12536 8.703733,-2.17946 12.889794,-3.16441 v -38.69055 c 3.026833,-0.127 6.556727,-0.24624 9.578622,-0.35348 v -8.04087 H 8.6481285 c 2.4902585,3.39302 5.5602775,7.65072 8.0311325,10.76011" style="fill-opacity:1;fill-rule:nonzero;stroke:#ffffff;stroke-width:10.567;stroke-miterlimit:0;stroke-dasharray:none;stroke-opacity:1" id="path40"></path>
        <path d="m 231.29828,69.175056 c -3.87032,-1.73461 -12.74939,-5.77215 -15.49012,-7.04427 -1.0033,-0.47237 -1.37619,-1.27776 -1.37619,-1.82844 v -4.06189 c -0.0134,-0.86219 0.43145,-1.28411 1.31516,-1.23931 6.58707,0.29704 14.28891,0.62901 20.85093,0.99413 l 7.53569,-9.71726 h -47.15581 c 0.64841,0.34995 4.88456,1.80516 4.88456,6.58742 0,0 0.0349,5.12939 0.0349,7.86518 0,2.74285 1.4164,4.94735 4.84258,6.5151 3.4163,1.56563 14.5348,6.33589 15.38428,6.79661 1.10914,0.58808 1.2954,1.16488 1.2954,2.79894 v 10.08486 c 0.005,1.37054 -0.98319,1.14935 -1.30492,1.07633 -2.25954,-0.51188 -4.13561,-0.89535 -6.40821,-1.37513 -0.32138,-0.0681 -1.12924,-0.28646 -1.14512,-1.58821 v -6.67173 c -4.09716,-0.68368 -8.27158,-1.32468 -12.38426,-1.90676 v 7.6835 c 0.079,4.93465 3.64702,8.59931 9.29323,10.00583 5.30613,1.29822 10.40623,2.71251 15.65204,4.25591 4.50548,3.487074 8.65276,-0.312621 8.82438,-6.60012 0.0399,-0.15028 -0.01,-15.05867 -0.01,-15.05867 -0.0102,-3.4798 -0.76835,-5.82224 -4.63867,-7.57202" style="fill:none;fill-opacity:1;fill-rule:nonzero;stroke:#ffffff;stroke-width:10.5;stroke-miterlimit:0;stroke-dasharray:none;stroke-opacity:1" id="path44"></path>
        <path d="m 60.160421,52.551286 v 37.36693 c 4.265789,-0.78105 8.602839,-1.50037 12.897202,-2.13572 V 46.277836 H 55.550674 c 1.162403,0.34043 4.609747,2.26589 4.609747,6.27345" style="fill-opacity:1;fill-rule:nonzero;stroke:#ffffff;stroke-width:10.5;stroke-miterlimit:0;stroke-dasharray:none;stroke-opacity:1" id="path48"></path>
        <path d="m 119.23917,46.277906 c 0.64135,0.29387 4.90185,1.64536 4.90185,5.40138 -0.0116,10.73468 -0.0116,21.46406 -0.0176,32.19239 10.05487,-0.0508 19.93829,0.33161 29.96283,1.11654 v -6.86612 c -5.83072,-0.38241 -11.58523,-0.64487 -17.42828,-0.78175 v -8.61801 c 5.18054,0.10336 10.34309,0.21802 15.51446,0.44238 v -7.06543 c -5.16255,-0.15663 -10.35297,-0.27517 -15.51446,-0.33091 0.0137,-8.5672 0,-8.5672 0,-8.7831 5.78449,0.0413 11.21233,0.0942 16.99154,0.17427 v -6.88164 z" style="fill:#b51123;fill-opacity:1;fill-rule:nonzero;stroke:none;stroke-width:1;stroke-miterlimit:0;stroke-dasharray:none;stroke-opacity:1" id="path52"></path>
        <path d="m 83.251666,112.18692 c 0.414867,-0.054 0.710847,-0.19403 0.883708,-0.42086 0.168981,-0.21908 0.255059,-0.50659 0.255059,-0.85196 0,-0.39405 -0.09737,-0.67345 -0.309386,-0.82056 -0.200731,-0.14111 -0.475898,-0.19368 -0.829381,-0.1517 -0.592667,0.0825 -1.188156,0.16369 -1.78435,0.24483 v 2.23449 c 0.596194,-0.0797 1.191683,-0.15769 1.78435,-0.23424 m -0.230011,-3.53871 c 0.413455,-0.0572 0.708378,-0.19403 0.878417,-0.40887 0.17533,-0.21343 0.261761,-0.48825 0.261761,-0.8248 -0.006,-0.39546 -0.09843,-0.66287 -0.29457,-0.80292 -0.197203,-0.14111 -0.478719,-0.1845 -0.845608,-0.13511 -0.519995,0.0663 -1.0287,0.13511 -1.554339,0.2106 v 2.17276 c 0.525639,-0.0705 1.034344,-0.14605 1.554339,-0.21166 m 0.03316,-3.50309 c 0.490008,-0.066 0.89535,-0.0734 1.23825,-0.0212 0.343606,0.0529 0.612422,0.16227 0.834672,0.3309 0.209903,0.17569 0.375709,0.40287 0.464256,0.69109 0.09207,0.28681 0.144286,0.63994 0.144286,1.0594 0,0.3683 -0.05891,0.69708 -0.164747,0.97648 -0.109714,0.27235 -0.278695,0.514 -0.502003,0.73378 0.279047,0.11254 0.502003,0.30657 0.660753,0.58279 0.155927,0.27658 0.23495,0.68227 0.23495,1.21885 0,0.4505 -0.05786,0.82973 -0.1905,1.15676 -0.117828,0.32455 -0.312914,0.59831 -0.547159,0.82373 -0.242358,0.22543 -0.536222,0.40746 -0.881239,0.53799 -0.341136,0.1337 -0.733425,0.23142 -1.165577,0.28857 -1.078089,0.1397 -2.155825,0.28963 -3.234267,0.43709 v -8.39082 c 1.031875,-0.14428 2.072569,-0.28716 3.108325,-0.42545" style="fill:#ffffff;fill-opacity:1;fill-rule:nonzero;stroke:none;stroke-width:1;stroke-miterlimit:0;stroke-dasharray:none;stroke-opacity:1" id="path56"></path>
        <path d="m 89.886922,109.35884 c 0.6731,-0.0751 1.358194,-0.15205 2.032353,-0.22578 -0.335139,-1.03963 -0.667103,-2.08103 -1.008239,-3.12067 -0.337961,1.11196 -0.693561,2.22673 -1.024114,3.34645 m 2.467328,1.0608 c -0.966259,0.10054 -1.934986,0.20602 -2.893836,0.31539 -0.215195,0.69426 -0.42545,1.38888 -0.633589,2.08738 -0.542925,0.0631 -1.077384,0.12771 -1.614664,0.18909 0.901347,-2.90618 1.815747,-5.80637 2.713919,-8.70761 0.652992,-0.0723 1.313745,-0.14147 1.965325,-0.21202 0.900995,2.69875 1.80587,5.41267 2.707217,8.11883 -0.536575,0.0526 -1.071386,0.10548 -1.606903,0.16545 -0.221897,-0.65546 -0.425803,-1.30704 -0.637469,-1.95651" style="fill:#ffffff;fill-opacity:1;fill-rule:nonzero;stroke:none;stroke-width:1;stroke-miterlimit:0;stroke-dasharray:none;stroke-opacity:1" id="path60"></path>
        <path d="m 101.14653,104.80716 c -0.44485,-0.0797 -0.87383,-0.12347 -1.274232,-0.13088 -0.400756,-0.0166 -0.77082,0 -1.12007,0.0208 -0.195086,0.0215 -0.383822,0.0427 -0.560211,0.0829 -0.182386,0.0303 -0.331611,0.0917 -0.471311,0.17744 -0.138289,0.0751 -0.242005,0.18451 -0.319969,0.30974 -0.08643,0.13194 -0.122414,0.30022 -0.122414,0.50906 -0.0078,0.19544 0.02575,0.34713 0.0889,0.46743 0.05468,0.11853 0.151341,0.21343 0.283633,0.28716 0.136172,0.0808 0.305153,0.14111 0.522464,0.18768 0.208139,0.0508 0.469547,0.0935 0.7747,0.1457 0.427214,0.0765 0.799394,0.16227 1.12536,0.25823 0.33267,0.0917 0.6036,0.22719 0.82444,0.39546 0.2159,0.16828 0.38488,0.3743 0.50236,0.62195 0.11042,0.25259 0.17674,0.56057 0.17674,0.92745 0,0.88512 -0.2734,1.55822 -0.81562,2.03624 -0.53658,0.47766 -1.289758,0.74189 -2.239083,0.81103 -0.414866,0.0229 -0.85478,0.0229 -1.322564,-0.009 -0.463902,-0.03 -0.921808,-0.0871 -1.366308,-0.18027 v -1.23542 c 0.513997,0.0561 0.986719,0.0903 1.418167,0.10371 0.423686,0.0258 0.841375,0.0166 1.26118,-0.0166 0.508353,-0.0448 0.889353,-0.17568 1.116895,-0.38417 0.242711,-0.21061 0.35313,-0.53693 0.35313,-0.97402 0,-0.16228 -0.03951,-0.29316 -0.106892,-0.39829 -0.06174,-0.10971 -0.161925,-0.19685 -0.298802,-0.26917 -0.129823,-0.0705 -0.307623,-0.12453 -0.509059,-0.16369 -0.200377,-0.042 -0.457905,-0.0857 -0.727075,-0.1277 -0.424391,-0.0674 -0.796925,-0.1517 -1.133827,-0.26282 -0.334786,-0.10689 -0.609953,-0.254 -0.837848,-0.43145 -0.230363,-0.17568 -0.390877,-0.39828 -0.517172,-0.66251 -0.107597,-0.25859 -0.179564,-0.58456 -0.179564,-0.97226 0,-0.71967 0.233539,-1.30598 0.710495,-1.75507 0.4699,-0.45085 1.214261,-0.71261 2.259894,-0.80398 0.366536,-0.0332 0.77082,-0.0346 1.194858,-0.0106 0.434975,0.024 0.871365,0.10195 1.308805,0.20143 z" style="fill:#ffffff;fill-opacity:1;fill-rule:nonzero;stroke:none;stroke-width:1;stroke-miterlimit:0;stroke-dasharray:none;stroke-opacity:1" id="path64"></path>
        <path d="m 103.33968,103.08945 c 1.89089,-0.13229 3.78636,-0.24624 5.68008,-0.35313 -0.005,0.44803 -0.005,0.89429 0,1.33914 -1.35855,0.0751 -2.72486,0.1517 -4.08306,0.24307 v 2.14594 c 1.3134,-0.0811 2.62644,-0.16086 3.94159,-0.23142 -0.17074,0.45544 -0.34889,0.9137 -0.52317,1.36737 -1.1363,0.0663 -2.28035,0.1277 -3.41842,0.20743 v 2.22427 c 1.3582,-0.0889 2.72451,-0.16687 4.08306,-0.23742 -0.005,0.44309 -0.005,0.89252 0,1.3402 -1.89372,0.0945 -3.78919,0.21484 -5.68008,0.34713 z" style="fill:#ffffff;fill-opacity:1;fill-rule:nonzero;stroke:none;stroke-width:1;stroke-miterlimit:0;stroke-dasharray:none;stroke-opacity:1" id="path68"></path>
        <path d="m 114.23635,109.57072 c 0.41839,-0.0106 0.7112,-0.12771 0.88053,-0.33055 0.17286,-0.21202 0.26353,-0.47943 0.26353,-0.83115 0,-0.39969 -0.0981,-0.68333 -0.3108,-0.85054 -0.20038,-0.16052 -0.48789,-0.2406 -0.83326,-0.22402 -0.60254,0.0229 -1.19662,0.0452 -1.79917,0.0649 v 2.24014 c 0.60255,-0.0222 1.19663,-0.0466 1.79917,-0.0688 m -0.23742,-3.55706 c 0.41875,-0.0166 0.71296,-0.12488 0.88935,-0.32914 0.16898,-0.19226 0.25541,-0.46567 0.25541,-0.79763 0,-0.39088 -0.0903,-0.67028 -0.29457,-0.82656 -0.19438,-0.16228 -0.47519,-0.23283 -0.85019,-0.22084 -0.5214,0.0208 -1.03681,0.0388 -1.56175,0.0632 v 2.16958 c 0.52494,-0.0212 1.04035,-0.0434 1.56175,-0.0586 m 0.0423,-3.5059 c 0.48155,-0.0162 0.89324,0.0212 1.24108,0.10265 0.33831,0.0808 0.62688,0.22367 0.84208,0.41275 0.20955,0.18839 0.37182,0.43004 0.46531,0.72779 0.0967,0.30021 0.14076,0.65475 0.14076,1.07103 0,0.37571 -0.0504,0.69885 -0.16157,0.96485 -0.11078,0.26423 -0.28223,0.49142 -0.50271,0.68368 0.28681,0.14111 0.50271,0.36512 0.65934,0.65229 0.15981,0.2868 0.24059,0.70026 0.24059,1.23507 0,0.45261 -0.0639,0.82338 -0.18908,1.14053 -0.12877,0.31433 -0.31398,0.56656 -0.55528,0.76976 -0.24765,0.20708 -0.54116,0.35737 -0.89076,0.46249 -0.34537,0.0977 -0.73519,0.15628 -1.16134,0.17004 -1.09079,0.042 -2.18264,0.0885 -3.26637,0.13794 v -8.394 c 1.04598,-0.0554 2.08562,-0.0945 3.13795,-0.13687" style="fill:#ffffff;fill-opacity:1;fill-rule:nonzero;stroke:none;stroke-width:1;stroke-miterlimit:0;stroke-dasharray:none;stroke-opacity:1" id="path72"></path>
        <path d="m 120.90675,107.37203 c 0.6798,-0.0116 1.35925,-0.0222 2.04717,-0.0332 -0.34643,-1.0728 -0.67839,-2.14418 -1.02553,-3.22016 -0.34184,1.08515 -0.68791,2.16712 -1.02164,3.25332 m 2.4705,1.29081 c -0.96555,0.0106 -1.93181,0.0286 -2.90689,0.0378 -0.21096,0.68051 -0.42333,1.36137 -0.63394,2.03765 -0.54257,0.009 -1.08514,0.0222 -1.61995,0.0332 0.90628,-2.81623 1.82386,-5.62928 2.73085,-8.45114 0.65475,-0.008 1.31445,-0.0152 1.96603,-0.0243 0.90981,2.79046 1.80904,5.58129 2.72486,8.37917 -0.54117,0 -1.08374,0 -1.62666,0.006 -0.20849,-0.67452 -0.41663,-1.34515 -0.6343,-2.01825" style="fill:#ffffff;fill-opacity:1;fill-rule:nonzero;stroke:none;stroke-width:1;stroke-miterlimit:0;stroke-dasharray:none;stroke-opacity:1" id="path76"></path>
        <path d="m 126.95188,110.6752 v -8.40316 c 0.53164,0 1.06574,0.012 1.60302,0.012 v 7.0552 c 1.27459,0.006 2.54177,0.0272 3.822,0.0497 -0.17886,0.43886 -0.35172,0.88477 -0.52282,1.32821 -1.63336,-0.0254 -3.26461,-0.042 -4.9022,-0.042" style="fill:#ffffff;fill-opacity:1;fill-rule:nonzero;stroke:none;stroke-width:1;stroke-miterlimit:0;stroke-dasharray:none;stroke-opacity:1" id="path80"></path>
        <path d="m 133.78864,110.7472 v -8.39399 c 0.53022,0.018 1.05551,0.03 1.59138,0.048 v 7.0492 c 1.27811,0.0346 2.54917,0.0797 3.81882,0.12629 -0.17004,0.4445 -0.34043,0.88054 -0.51611,1.31939 -1.63195,-0.054 -3.2692,-0.1083 -4.89409,-0.14887" style="fill:#ffffff;fill-opacity:1;fill-rule:nonzero;stroke:none;stroke-width:1;stroke-miterlimit:0;stroke-dasharray:none;stroke-opacity:1" id="path84"></path>
        <path d="m 150.05882,111.14545 c -0.43356,0.10231 -0.87454,0.17286 -1.2954,0.21943 -0.42898,0.0526 -0.84737,0.06 -1.24566,0.0377 -0.60713,-0.0423 -1.11478,-0.17462 -1.54164,-0.41345 -0.42615,-0.24342 -0.76552,-0.55633 -1.03258,-0.94968 -0.26211,-0.40005 -0.45755,-0.85795 -0.57679,-1.3843 -0.12135,-0.52246 -0.18344,-1.09502 -0.18344,-1.72332 0,-0.65369 0.0621,-1.24742 0.18344,-1.76389 0.11924,-0.52317 0.30939,-0.95567 0.57679,-1.31515 0.26706,-0.34996 0.60643,-0.61772 1.03258,-0.78564 0.42686,-0.17145 0.94792,-0.23918 1.54164,-0.20179 0.44556,0.0303 0.8703,0.0935 1.2693,0.18345 0.39193,0.0903 0.82444,0.22683 1.27176,0.40428 v 1.2065 c -0.248,-0.0628 -0.46814,-0.12594 -0.66992,-0.18133 -0.20462,-0.0469 -0.39829,-0.0949 -0.58174,-0.13229 -0.17885,-0.0318 -0.36053,-0.0575 -0.53798,-0.0797 -0.17815,-0.0166 -0.37042,-0.0391 -0.56727,-0.0497 -0.67627,-0.0406 -1.1691,0.18345 -1.45626,0.67028 -0.29457,0.49742 -0.43886,1.20685 -0.43886,2.13677 0,0.44627 0.0272,0.85337 0.10548,1.21568 0.0639,0.36653 0.17321,0.6865 0.33338,0.94227 0.15733,0.26881 0.35701,0.47448 0.59972,0.63112 0.23601,0.1531 0.52211,0.24165 0.86642,0.25999 0.18697,0.0134 0.37077,0.0134 0.53693,0.0134 0.18062,0 0.35489,0 0.54469,-0.0134 0.18132,-0.0183 0.37147,-0.0363 0.58173,-0.0603 0.20214,-0.0222 0.43568,-0.0522 0.68368,-0.10231 z" style="fill:#ffffff;fill-opacity:1;fill-rule:nonzero;stroke:none;stroke-width:1;stroke-miterlimit:0;stroke-dasharray:none;stroke-opacity:1" id="path88"></path>
        <path d="m 151.72968,111.63983 v -8.39541 c 0.52176,0.0388 1.04775,0.0825 1.59244,0.12736 v 7.05414 c 1.26506,0.10619 2.53788,0.21625 3.81141,0.3302 -0.18098,0.43004 -0.35101,0.86395 -0.52211,1.29082 -1.63195,-0.1517 -3.26567,-0.28364 -4.88174,-0.40711" style="fill:#ffffff;fill-opacity:1;fill-rule:nonzero;stroke:none;stroke-width:1;stroke-miterlimit:0;stroke-dasharray:none;stroke-opacity:1" id="path92"></path>
        <path d="m 160.19084,109.65027 c 0,0.53058 0.14252,0.91687 0.4258,1.15852 0.28434,0.25259 0.64629,0.39829 1.10984,0.44027 0.48331,0.0554 0.86184,-0.009 1.14265,-0.19403 0.28116,-0.1845 0.42086,-0.54222 0.42086,-1.07421 v -5.6455 c 0.53481,0.0572 1.06786,0.12136 1.61467,0.18803 v 5.65432 c 0,0.50342 -0.0825,0.93028 -0.21026,1.27 -0.14393,0.33796 -0.3489,0.60078 -0.6163,0.79481 -0.2734,0.19509 -0.61242,0.31397 -0.99977,0.36971 -0.39194,0.0628 -0.84244,0.0628 -1.35185,0.003 -0.50341,-0.0511 -0.95567,-0.14887 -1.34585,-0.2868 -0.37853,-0.14147 -0.71366,-0.33514 -0.97437,-0.58597 -0.2607,-0.25259 -0.47201,-0.56233 -0.60043,-0.93345 -0.12982,-0.36054 -0.20425,-0.80221 -0.20425,-1.31057 v -5.65291 c 0.52952,0.0526 1.06539,0.10231 1.58926,0.15487 z" style="fill:#ffffff;fill-opacity:1;fill-rule:nonzero;stroke:none;stroke-width:1;stroke-miterlimit:0;stroke-dasharray:none;stroke-opacity:1" id="path96"></path>
        <path d="m 170.30011,112.2634 c 0.40993,0.0526 0.70626,-0.006 0.87489,-0.18344 0.17392,-0.17428 0.26352,-0.43886 0.26352,-0.78282 0,-0.40111 -0.10301,-0.70308 -0.30797,-0.9017 -0.21132,-0.19967 -0.48542,-0.32279 -0.83044,-0.37112 -0.59514,-0.0825 -1.19627,-0.1591 -1.79211,-0.23601 v 2.23908 c 0.59584,0.0737 1.19697,0.15946 1.79211,0.23601 m -0.23389,-3.60045 c 0.40957,0.0572 0.70943,0 0.87595,-0.17251 0.17427,-0.16404 0.26035,-0.41486 0.26035,-0.762 0.006,-0.38946 -0.0924,-0.68086 -0.28787,-0.8763 -0.19756,-0.18626 -0.47696,-0.30938 -0.84843,-0.3563 -0.52282,-0.072 -1.03823,-0.13935 -1.55822,-0.2025 v 2.171 c 0.51999,0.0663 1.0354,0.13405 1.55822,0.19861 m 0.036,-3.49497 c 0.48613,0.0706 0.89041,0.17251 1.23755,0.31538 0.33866,0.1397 0.6223,0.33056 0.83043,0.54998 0.20814,0.22543 0.37113,0.49742 0.46497,0.80998 0.097,0.3168 0.14146,0.68369 0.14781,1.09538 0,0.37853 -0.0649,0.68968 -0.16757,0.93627 -0.11642,0.24624 -0.27799,0.44909 -0.50236,0.59478 0.28611,0.20144 0.50236,0.45226 0.66358,0.768 0.14993,0.31715 0.22648,0.73942 0.22648,1.28199 0,0.4445 -0.06,0.80963 -0.18168,1.10138 -0.12841,0.28998 -0.31256,0.51258 -0.55139,0.67909 -0.24483,0.16687 -0.5394,0.27058 -0.88582,0.30516 -0.33902,0.042 -0.73096,0.0346 -1.1557,-0.0258 -1.0788,-0.14252 -2.16077,-0.28363 -3.24944,-0.41592 v -8.394 c 1.0414,0.12771 2.08492,0.26282 3.12314,0.39829" style="fill:#ffffff;fill-opacity:1;fill-rule:nonzero;stroke:none;stroke-width:1;stroke-miterlimit:0;stroke-dasharray:none;stroke-opacity:1" id="path100"></path>
        <path d="m 131.86526,31.244386 4.60269,-13.72517 c 0.0208,-0.0635 0.0356,-0.11959 0.0356,-0.15945 0,-0.16969 -0.12735,-0.27588 -0.29633,-0.27588 h -0.42968 c -0.0508,0 -0.0783,-0.0434 -0.0783,-0.0727 v -0.78211 c 0,-0.0469 0.0275,-0.0815 0.0783,-0.0815 h 5.71147 c 0.17427,0 0.36583,0.0311 0.42968,0.21097 l 4.98616,14.88581 c 0.0307,0.0646 0.0159,0.1912 -0.0596,0.28645 -0.0268,0.0437 -0.10513,0.0974 -0.22683,0.0974 h -3.58458 c -0.17039,0 -0.36371,-0.12982 -0.43568,-0.31644 l -3.08257,-9.6012 c 0,0 -0.0462,-0.14323 -0.13617,-0.14323 -0.12348,0 -0.15946,0.14323 -0.15946,0.14323 l -3.03847,9.6012 c -0.0879,0.18662 -0.26,0.31644 -0.43039,0.31644 h -3.59163 c 0,0 -0.0395,0 -0.0653,-0.009 h -0.007 c -0.0617,-0.0169 -0.12418,-0.0441 -0.16298,-0.10759 -0.0593,-0.0755 -0.0889,-0.16616 -0.0593,-0.2667" style="fill:#ffffff;fill-opacity:1;fill-rule:nonzero;stroke:none;stroke-width:1;stroke-miterlimit:0;stroke-dasharray:none;stroke-opacity:1" id="path104"></path>
        <path d="m 123.89329,16.229106 c 0,-0.0289 0,-0.0811 0.0572,-0.0811 h 4.75615 c 0.1778,0 0.33196,0.14994 0.33196,0.31151 v 14.84947 c 0,0.18027 -0.14816,0.31927 -0.33196,0.31927 h -3.65478 c -0.16298,0 -0.31538,-0.139 -0.31538,-0.31927 v -13.92202 c 0,-0.16651 -0.13159,-0.30303 -0.3041,-0.30303 h -0.48189 c -0.0572,0 -0.0572,-0.0434 -0.0572,-0.0727 z" style="fill:#ffffff;fill-opacity:1;fill-rule:nonzero;stroke:none;stroke-width:1;stroke-miterlimit:0;stroke-dasharray:none;stroke-opacity:1" id="path108"></path>
        <path d="m 107.2354,16.229106 c 0,-0.0469 0.0437,-0.0811 0.0861,-0.0811 h 4.6616 c 0.1778,0 0.31503,0.14994 0.31503,0.31151 v 4.96464 c 0,0.0956 0.0624,0.14922 0.18768,0.14922 0,0 0.1143,0 0.22437,-0.16157 l 3.46921,-4.91349 c 0.13265,-0.19685 0.38171,-0.35031 0.5715,-0.35031 h 3.99803 c 0.10584,0 0.20603,0.0561 0.25153,0.15346 0.0628,0.1009 0.0628,0.22366 0,0.33232 l -4.4591,6.58424 v 0.0145 c -0.0208,0.0621 -0.0589,0.12489 -0.0589,0.18345 0,0.0705 0.0127,0.10336 0.0589,0.18097 0.0649,0.0709 5.32801,7.51347 5.34459,7.53075 0.0702,0.11712 0.0903,0.22966 0.0342,0.3362 -0.0508,0.096 -0.17251,0.16439 -0.25154,0.16439 h -4.22028 c -0.20002,0 -0.4318,-0.13899 -0.55527,-0.34572 l -4.18288,-5.85646 -0.0254,-0.0162 c -0.0469,-0.0653 -0.0917,-0.16405 -0.20955,-0.16405 -0.11466,0 -0.1771,0.0871 -0.1771,0.20462 v 5.85858 c 0,0.18026 -0.13723,0.31926 -0.31503,0.31926 h -3.55035 c -0.18274,0 -0.32597,-0.139 -0.32597,-0.31926 v -13.92202 c 0,-0.16651 -0.11959,-0.30303 -0.28646,-0.30303 h -0.49882 c -0.0423,0 -0.0861,-0.0434 -0.0861,-0.0727 z" style="fill:#ffffff;fill-opacity:1;fill-rule:nonzero;stroke:none;stroke-width:1;stroke-miterlimit:0;stroke-dasharray:none;stroke-opacity:1" id="path112"></path>
        <path d="M 126.396,169.81303 60.668911,132.48949 v 4.93925 l 65.727089,46.81149 65.72532,-46.81149 v -4.93925 z" style="fill:#06141f;fill-opacity:1;fill-rule:nonzero;stroke:none;stroke-width:0.352778" id="path12-3"></path>
        <path d="m 114.88282,140.47942 h 23.03886 l 5.53367,11.56441 48.66605,-25.06733 -0.007,0.009 0.007,-0.009 V 98.572596 c -43.30065,-9.46679 -88.15318,-9.46679 -131.452766,0.005 v 28.399314 l 48.665346,25.06733 z" style="fill:#06141f;fill-opacity:1;fill-rule:nonzero;stroke:none;stroke-width:0.352778" id="path24-4"></path>
        <path d="M 68.607791,37.517376 V 12.179821 l 16.014043,-4e-6 11.312821,25.33754 60.447595,0 11.81936,-25.33754 15.98006,4e-6 v 25.337555 h 7.93962 V 4.240205 H 60.668527 v 33.277171 z" style="fill:#06141f;fill-opacity:1;fill-rule:nonzero;stroke:none;stroke-width:0.352778" id="path28-7"></path>
        <path d="M 109.05355,46.277906 H 76.619863 c 0.507648,0.22507 4.633031,1.65065 4.633031,5.79932 l -0.0254,28.176 c -0.06385,4.02308 2.902655,5.95736 8.631766,5.37105 9.344025,-0.92287 18.54624,-1.48026 27.93753,-1.67782 v -20.33128 c -6.1221,0.0589 -11.38343,0.19085 -17.50095,0.40075 v 6.82943 c 1.9812,-0.0924 3.03777,-0.16757 5.02461,-0.24483 v 7.07002 c -3.4678,0.15593 -6.388451,0.35948 -9.865781,0.59866 -0.908403,0.06 -1.325739,-0.23918 -1.325739,-0.95991 v -23.23359 c 0,-0.60713 0.436033,-0.91158 1.330325,-0.92181 2.85115,-0.0473 5.425725,-0.0836 8.275465,-0.11465 0.89005,-0.007 1.25341,0.31433 1.25341,0.9973 v 4.06753 c 4.29296,-0.0769 8.60249,-0.13264 12.89227,-0.16192 l 0.0208,-5.70019 c 0.007,-3.72745 -3.18947,-5.96406 -8.84767,-5.96406" style="fill:#ea0029;fill-opacity:1;fill-rule:nonzero;stroke:none;stroke-width:0.352778" id="path32-4"></path>
        <path d="m 183.95201,55.067936 v 9.93669 c 0,0.73589 -0.41204,1.1624 -1.30069,1.09467 -3.23885,-0.24166 -5.82754,-0.46461 -9.07838,-0.67769 v -11.89708 c 3.24626,0.0794 5.79966,0.17216 9.03922,0.25294 0.89711,0.0342 1.33985,0.42863 1.33985,1.29047 m 12.90038,13.10322 v -14.79797 c -0.0857,-4.44465 -3.74686,-7.09224 -9.40471,-7.09542 h -31.40004 c 0.54928,0.23037 4.79531,1.59879 4.79531,5.64833 l 0.0134,33.68922 c 4.1649,0.40216 8.57039,0.89111 12.71659,1.43792 v -14.6805 c 2.08562,0.17428 4.29471,0.36478 6.38104,0.56798 2.21262,5.20982 3.86115,10.36425 6.06848,15.85383 4.18359,0.71049 8.73901,1.67181 12.90073,2.53188 -2.31881,-5.9316 -4.63902,-11.69387 -6.96736,-17.28152 3.17571,-0.58843 4.94771,-2.70439 4.89656,-5.87375" style="fill:#ea0029;fill-opacity:1;fill-rule:nonzero;stroke:none;stroke-width:0.35269;stroke-miterlimit:0;stroke-dasharray:none" id="path36-2"></path>
        <path d="m 16.086801,56.029606 c 5.045427,-0.27764 9.84638,-0.54434 14.906272,-0.78211 v 41.27958 c 4.153252,-1.12536 8.703733,-2.17946 12.889794,-3.16441 v -38.69055 c 3.026833,-0.127 6.556727,-0.24624 9.578622,-0.35348 v -8.04087 H 8.6481285 c 2.4902585,3.39302 4.9678165,6.64245 7.4386725,9.75184" style="fill:#ea0029;fill-opacity:1;fill-rule:nonzero;stroke:none;stroke-width:0.352778" id="path40-4"></path>
        <path d="m 231.29828,69.175056 c -3.87032,-1.73461 -12.74939,-5.77215 -15.49012,-7.04427 -1.0033,-0.47237 -1.37619,-1.27776 -1.37619,-1.82844 v -4.06189 c -0.0134,-0.86219 0.43145,-1.28411 1.31516,-1.23931 6.58707,0.29704 14.28891,0.62901 20.85093,0.99413 l 7.53569,-9.71726 h -47.15581 c 0.64841,0.34995 4.88456,1.80516 4.88456,6.58742 0,0 0.0349,5.12939 0.0349,7.86518 0,2.74285 1.4164,4.94735 4.84258,6.5151 3.4163,1.56563 14.5348,6.33589 15.38428,6.79661 1.10914,0.58808 1.2954,1.16488 1.2954,2.79894 v 10.08486 c 0.005,1.37054 -0.98319,1.14935 -1.30492,1.07633 -2.25954,-0.51188 -4.13561,-0.89535 -6.40821,-1.37513 -0.32138,-0.0681 -1.12924,-0.28646 -1.14512,-1.58821 v -6.67173 c -4.09716,-0.68368 -8.27158,-1.32468 -12.38426,-1.90676 v 7.6835 c 0.079,4.93465 3.64702,8.59931 9.29323,10.00583 5.30613,1.29822 10.40623,2.71251 15.65204,4.25591 5.58447,1.688754 8.83497,-0.6163 8.82438,-6.60012 0.0399,-0.15028 -0.01,-15.05867 -0.01,-15.05867 -0.0102,-3.4798 -0.76835,-5.82224 -4.63867,-7.57202" style="fill:#ea0029;fill-opacity:1;fill-rule:nonzero;stroke:none;stroke-width:0.352778" id="path44-5"></path>
        <path d="m 60.160421,52.551286 v 37.36693 c 4.265789,-0.78105 8.602839,-1.50037 12.897202,-2.13572 V 46.277836 H 55.550674 c 1.162403,0.34043 4.609747,2.26589 4.609747,6.27345" style="fill:#ea0029;fill-opacity:1;fill-rule:nonzero;stroke:none;stroke-width:0.352778" id="path48-4"></path>
        <path d="m 119.23917,46.277906 c 0.64135,0.29387 4.90185,1.64536 4.90185,5.40138 -0.0116,10.73468 -0.0116,21.46406 -0.0176,32.19239 10.05487,-0.0508 19.93829,0.33161 29.96283,1.11654 v -6.86612 c -5.83072,-0.38241 -11.58523,-0.64487 -17.42828,-0.78175 v -8.61801 c 5.18054,0.10336 10.34309,0.21802 15.51446,0.44238 v -7.06543 c -5.16255,-0.15663 -10.35297,-0.27517 -15.51446,-0.33091 0.0137,-8.5672 0,-8.5672 0,-8.7831 5.78449,0.0413 11.21233,0.0942 16.99154,0.17427 v -6.88164 z" style="fill:#ea0029;fill-opacity:1;fill-rule:nonzero;stroke:none;stroke-width:0.352778" id="path52-9"></path>
        <path d="m 83.251666,112.18692 c 0.414867,-0.054 0.710847,-0.19403 0.883708,-0.42086 0.168981,-0.21908 0.255059,-0.50659 0.255059,-0.85196 0,-0.39405 -0.09737,-0.67345 -0.309386,-0.82056 -0.200731,-0.14111 -0.475898,-0.19368 -0.829381,-0.1517 -0.592667,0.0825 -1.188156,0.16369 -1.78435,0.24483 v 2.23449 c 0.596194,-0.0797 1.191683,-0.15769 1.78435,-0.23424 m -0.230011,-3.53871 c 0.413455,-0.0572 0.708378,-0.19403 0.878417,-0.40887 0.17533,-0.21343 0.261761,-0.48825 0.261761,-0.8248 -0.006,-0.39546 -0.09843,-0.66287 -0.29457,-0.80292 -0.197203,-0.14111 -0.478719,-0.1845 -0.845608,-0.13511 -0.519995,0.0663 -1.0287,0.13511 -1.554339,0.2106 v 2.17276 c 0.525639,-0.0705 1.034344,-0.14605 1.554339,-0.21166 m 0.03316,-3.50309 c 0.490008,-0.066 0.89535,-0.0734 1.23825,-0.0212 0.343606,0.0529 0.612422,0.16227 0.834672,0.3309 0.209903,0.17569 0.375709,0.40287 0.464256,0.69109 0.09207,0.28681 0.144286,0.63994 0.144286,1.0594 0,0.3683 -0.05891,0.69708 -0.164747,0.97648 -0.109714,0.27235 -0.278695,0.514 -0.502003,0.73378 0.279047,0.11254 0.502003,0.30657 0.660753,0.58279 0.155927,0.27658 0.23495,0.68227 0.23495,1.21885 0,0.4505 -0.05786,0.82973 -0.1905,1.15676 -0.117828,0.32455 -0.312914,0.59831 -0.547159,0.82373 -0.242358,0.22543 -0.536222,0.40746 -0.881239,0.53799 -0.341136,0.1337 -0.733425,0.23142 -1.165577,0.28857 -1.078089,0.1397 -2.155825,0.28963 -3.234267,0.43709 v -8.39082 c 1.031875,-0.14428 2.072569,-0.28716 3.108325,-0.42545" style="fill:#ffffff;fill-opacity:1;fill-rule:nonzero;stroke:none;stroke-width:0.352778" id="path56-2"></path>
        <path d="m 89.886922,109.35884 c 0.6731,-0.0751 1.358194,-0.15205 2.032353,-0.22578 -0.335139,-1.03963 -0.667103,-2.08103 -1.008239,-3.12067 -0.337961,1.11196 -0.693561,2.22673 -1.024114,3.34645 m 2.467328,1.0608 c -0.966259,0.10054 -1.934986,0.20602 -2.893836,0.31539 -0.215195,0.69426 -0.42545,1.38888 -0.633589,2.08738 -0.542925,0.0631 -1.077384,0.12771 -1.614664,0.18909 0.901347,-2.90618 1.815747,-5.80637 2.713919,-8.70761 0.652992,-0.0723 1.313745,-0.14147 1.965325,-0.21202 0.900995,2.69875 1.80587,5.41267 2.707217,8.11883 -0.536575,0.0526 -1.071386,0.10548 -1.606903,0.16545 -0.221897,-0.65546 -0.425803,-1.30704 -0.637469,-1.95651" style="fill:#ffffff;fill-opacity:1;fill-rule:nonzero;stroke:none;stroke-width:0.352778" id="path60-6"></path>
        <path d="m 101.14653,104.80716 c -0.44485,-0.0797 -0.87383,-0.12347 -1.274232,-0.13088 -0.400756,-0.0166 -0.77082,0 -1.12007,0.0208 -0.195086,0.0215 -0.383822,0.0427 -0.560211,0.0829 -0.182386,0.0303 -0.331611,0.0917 -0.471311,0.17744 -0.138289,0.0751 -0.242005,0.18451 -0.319969,0.30974 -0.08643,0.13194 -0.122414,0.30022 -0.122414,0.50906 -0.0078,0.19544 0.02575,0.34713 0.0889,0.46743 0.05468,0.11853 0.151341,0.21343 0.283633,0.28716 0.136172,0.0808 0.305153,0.14111 0.522464,0.18768 0.208139,0.0508 0.469547,0.0935 0.7747,0.1457 0.427214,0.0765 0.799394,0.16227 1.12536,0.25823 0.33267,0.0917 0.6036,0.22719 0.82444,0.39546 0.2159,0.16828 0.38488,0.3743 0.50236,0.62195 0.11042,0.25259 0.17674,0.56057 0.17674,0.92745 0,0.88512 -0.2734,1.55822 -0.81562,2.03624 -0.53658,0.47766 -1.289758,0.74189 -2.239083,0.81103 -0.414866,0.0229 -0.85478,0.0229 -1.322564,-0.009 -0.463902,-0.03 -0.921808,-0.0871 -1.366308,-0.18027 v -1.23542 c 0.513997,0.0561 0.986719,0.0903 1.418167,0.10371 0.423686,0.0258 0.841375,0.0166 1.26118,-0.0166 0.508353,-0.0448 0.889353,-0.17568 1.116895,-0.38417 0.242711,-0.21061 0.35313,-0.53693 0.35313,-0.97402 0,-0.16228 -0.03951,-0.29316 -0.106892,-0.39829 -0.06174,-0.10971 -0.161925,-0.19685 -0.298802,-0.26917 -0.129823,-0.0705 -0.307623,-0.12453 -0.509059,-0.16369 -0.200377,-0.042 -0.457905,-0.0857 -0.727075,-0.1277 -0.424391,-0.0674 -0.796925,-0.1517 -1.133827,-0.26282 -0.334786,-0.10689 -0.609953,-0.254 -0.837848,-0.43145 -0.230363,-0.17568 -0.390877,-0.39828 -0.517172,-0.66251 -0.107597,-0.25859 -0.179564,-0.58456 -0.179564,-0.97226 0,-0.71967 0.233539,-1.30598 0.710495,-1.75507 0.4699,-0.45085 1.214261,-0.71261 2.259894,-0.80398 0.366536,-0.0332 0.77082,-0.0346 1.194858,-0.0106 0.434975,0.024 0.871365,0.10195 1.308805,0.20143 z" style="fill:#ffffff;fill-opacity:1;fill-rule:nonzero;stroke:none;stroke-width:0.352778" id="path64-2"></path>
        <path d="m 103.33968,103.08945 c 1.89089,-0.13229 3.78636,-0.24624 5.68008,-0.35313 -0.005,0.44803 -0.005,0.89429 0,1.33914 -1.35855,0.0751 -2.72486,0.1517 -4.08306,0.24307 v 2.14594 c 1.3134,-0.0811 2.62644,-0.16086 3.94159,-0.23142 -0.17074,0.45544 -0.34889,0.9137 -0.52317,1.36737 -1.1363,0.0663 -2.28035,0.1277 -3.41842,0.20743 v 2.22427 c 1.3582,-0.0889 2.72451,-0.16687 4.08306,-0.23742 -0.005,0.44309 -0.005,0.89252 0,1.3402 -1.89372,0.0945 -3.78919,0.21484 -5.68008,0.34713 z" style="fill:#ffffff;fill-opacity:1;fill-rule:nonzero;stroke:none;stroke-width:0.352778" id="path68-8"></path>
        <path d="m 114.23635,109.57072 c 0.41839,-0.0106 0.7112,-0.12771 0.88053,-0.33055 0.17286,-0.21202 0.26353,-0.47943 0.26353,-0.83115 0,-0.39969 -0.0981,-0.68333 -0.3108,-0.85054 -0.20038,-0.16052 -0.48789,-0.2406 -0.83326,-0.22402 -0.60254,0.0229 -1.19662,0.0452 -1.79917,0.0649 v 2.24014 c 0.60255,-0.0222 1.19663,-0.0466 1.79917,-0.0688 m -0.23742,-3.55706 c 0.41875,-0.0166 0.71296,-0.12488 0.88935,-0.32914 0.16898,-0.19226 0.25541,-0.46567 0.25541,-0.79763 0,-0.39088 -0.0903,-0.67028 -0.29457,-0.82656 -0.19438,-0.16228 -0.47519,-0.23283 -0.85019,-0.22084 -0.5214,0.0208 -1.03681,0.0388 -1.56175,0.0632 v 2.16958 c 0.52494,-0.0212 1.04035,-0.0434 1.56175,-0.0586 m 0.0423,-3.5059 c 0.48155,-0.0162 0.89324,0.0212 1.24108,0.10265 0.33831,0.0808 0.62688,0.22367 0.84208,0.41275 0.20955,0.18839 0.37182,0.43004 0.46531,0.72779 0.0967,0.30021 0.14076,0.65475 0.14076,1.07103 0,0.37571 -0.0504,0.69885 -0.16157,0.96485 -0.11078,0.26423 -0.28223,0.49142 -0.50271,0.68368 0.28681,0.14111 0.50271,0.36512 0.65934,0.65229 0.15981,0.2868 0.24059,0.70026 0.24059,1.23507 0,0.45261 -0.0639,0.82338 -0.18908,1.14053 -0.12877,0.31433 -0.31398,0.56656 -0.55528,0.76976 -0.24765,0.20708 -0.54116,0.35737 -0.89076,0.46249 -0.34537,0.0977 -0.73519,0.15628 -1.16134,0.17004 -1.09079,0.042 -2.18264,0.0885 -3.26637,0.13794 v -8.394 c 1.04598,-0.0554 2.08562,-0.0945 3.13795,-0.13687" style="fill:#ffffff;fill-opacity:1;fill-rule:nonzero;stroke:none;stroke-width:0.352778" id="path72-7"></path>
        <path d="m 120.90675,107.37203 c 0.6798,-0.0116 1.35925,-0.0222 2.04717,-0.0332 -0.34643,-1.0728 -0.67839,-2.14418 -1.02553,-3.22016 -0.34184,1.08515 -0.68791,2.16712 -1.02164,3.25332 m 2.4705,1.29081 c -0.96555,0.0106 -1.93181,0.0286 -2.90689,0.0378 -0.21096,0.68051 -0.42333,1.36137 -0.63394,2.03765 -0.54257,0.009 -1.08514,0.0222 -1.61995,0.0332 0.90628,-2.81623 1.82386,-5.62928 2.73085,-8.45114 0.65475,-0.008 1.31445,-0.0152 1.96603,-0.0243 0.90981,2.79046 1.80904,5.58129 2.72486,8.37917 -0.54117,0 -1.08374,0 -1.62666,0.006 -0.20849,-0.67452 -0.41663,-1.34515 -0.6343,-2.01825" style="fill:#ffffff;fill-opacity:1;fill-rule:nonzero;stroke:none;stroke-width:0.352778" id="path76-6"></path>
        <path d="m 126.95188,110.6752 v -8.40316 c 0.53164,0 1.06574,0.012 1.60302,0.012 v 7.0552 c 1.27459,0.006 2.54177,0.0272 3.822,0.0497 -0.17886,0.43886 -0.35172,0.88477 -0.52282,1.32821 -1.63336,-0.0254 -3.26461,-0.042 -4.9022,-0.042" style="fill:#ffffff;fill-opacity:1;fill-rule:nonzero;stroke:none;stroke-width:0.352778" id="path80-0"></path>
        <path d="m 133.78864,110.7472 v -8.39399 c 0.53022,0.018 1.05551,0.03 1.59138,0.048 v 7.0492 c 1.27811,0.0346 2.54917,0.0797 3.81882,0.12629 -0.17004,0.4445 -0.34043,0.88054 -0.51611,1.31939 -1.63195,-0.054 -3.2692,-0.1083 -4.89409,-0.14887" style="fill:#ffffff;fill-opacity:1;fill-rule:nonzero;stroke:none;stroke-width:0.352778" id="path84-1"></path>
        <path d="m 150.05882,111.14545 c -0.43356,0.10231 -0.87454,0.17286 -1.2954,0.21943 -0.42898,0.0526 -0.84737,0.06 -1.24566,0.0377 -0.60713,-0.0423 -1.11478,-0.17462 -1.54164,-0.41345 -0.42615,-0.24342 -0.76552,-0.55633 -1.03258,-0.94968 -0.26211,-0.40005 -0.45755,-0.85795 -0.57679,-1.3843 -0.12135,-0.52246 -0.18344,-1.09502 -0.18344,-1.72332 0,-0.65369 0.0621,-1.24742 0.18344,-1.76389 0.11924,-0.52317 0.30939,-0.95567 0.57679,-1.31515 0.26706,-0.34996 0.60643,-0.61772 1.03258,-0.78564 0.42686,-0.17145 0.94792,-0.23918 1.54164,-0.20179 0.44556,0.0303 0.8703,0.0935 1.2693,0.18345 0.39193,0.0903 0.82444,0.22683 1.27176,0.40428 v 1.2065 c -0.248,-0.0628 -0.46814,-0.12594 -0.66992,-0.18133 -0.20462,-0.0469 -0.39829,-0.0949 -0.58174,-0.13229 -0.17885,-0.0318 -0.36053,-0.0575 -0.53798,-0.0797 -0.17815,-0.0166 -0.37042,-0.0391 -0.56727,-0.0497 -0.67627,-0.0406 -1.1691,0.18345 -1.45626,0.67028 -0.29457,0.49742 -0.43886,1.20685 -0.43886,2.13677 0,0.44627 0.0272,0.85337 0.10548,1.21568 0.0639,0.36653 0.17321,0.6865 0.33338,0.94227 0.15733,0.26881 0.35701,0.47448 0.59972,0.63112 0.23601,0.1531 0.52211,0.24165 0.86642,0.25999 0.18697,0.0134 0.37077,0.0134 0.53693,0.0134 0.18062,0 0.35489,0 0.54469,-0.0134 0.18132,-0.0183 0.37147,-0.0363 0.58173,-0.0603 0.20214,-0.0222 0.43568,-0.0522 0.68368,-0.10231 z" style="fill:#ffffff;fill-opacity:1;fill-rule:nonzero;stroke:none;stroke-width:0.352778" id="path88-8"></path>
        <path d="m 151.72968,111.63983 v -8.39541 c 0.52176,0.0388 1.04775,0.0825 1.59244,0.12736 v 7.05414 c 1.26506,0.10619 2.53788,0.21625 3.81141,0.3302 -0.18098,0.43004 -0.35101,0.86395 -0.52211,1.29082 -1.63195,-0.1517 -3.26567,-0.28364 -4.88174,-0.40711" style="fill:#ffffff;fill-opacity:1;fill-rule:nonzero;stroke:none;stroke-width:0.352778" id="path92-0"></path>
        <path d="m 160.19084,109.65027 c 0,0.53058 0.14252,0.91687 0.4258,1.15852 0.28434,0.25259 0.64629,0.39829 1.10984,0.44027 0.48331,0.0554 0.86184,-0.009 1.14265,-0.19403 0.28116,-0.1845 0.42086,-0.54222 0.42086,-1.07421 v -5.6455 c 0.53481,0.0572 1.06786,0.12136 1.61467,0.18803 v 5.65432 c 0,0.50342 -0.0825,0.93028 -0.21026,1.27 -0.14393,0.33796 -0.3489,0.60078 -0.6163,0.79481 -0.2734,0.19509 -0.61242,0.31397 -0.99977,0.36971 -0.39194,0.0628 -0.84244,0.0628 -1.35185,0.003 -0.50341,-0.0511 -0.95567,-0.14887 -1.34585,-0.2868 -0.37853,-0.14147 -0.71366,-0.33514 -0.97437,-0.58597 -0.2607,-0.25259 -0.47201,-0.56233 -0.60043,-0.93345 -0.12982,-0.36054 -0.20425,-0.80221 -0.20425,-1.31057 v -5.65291 c 0.52952,0.0526 1.06539,0.10231 1.58926,0.15487 z" style="fill:#ffffff;fill-opacity:1;fill-rule:nonzero;stroke:none;stroke-width:0.352778" id="path96-6"></path>
        <path d="m 170.30011,112.2634 c 0.40993,0.0526 0.70626,-0.006 0.87489,-0.18344 0.17392,-0.17428 0.26352,-0.43886 0.26352,-0.78282 0,-0.40111 -0.10301,-0.70308 -0.30797,-0.9017 -0.21132,-0.19967 -0.48542,-0.32279 -0.83044,-0.37112 -0.59514,-0.0825 -1.19627,-0.1591 -1.79211,-0.23601 v 2.23908 c 0.59584,0.0737 1.19697,0.15946 1.79211,0.23601 m -0.23389,-3.60045 c 0.40957,0.0572 0.70943,0 0.87595,-0.17251 0.17427,-0.16404 0.26035,-0.41486 0.26035,-0.762 0.006,-0.38946 -0.0924,-0.68086 -0.28787,-0.8763 -0.19756,-0.18626 -0.47696,-0.30938 -0.84843,-0.3563 -0.52282,-0.072 -1.03823,-0.13935 -1.55822,-0.2025 v 2.171 c 0.51999,0.0663 1.0354,0.13405 1.55822,0.19861 m 0.036,-3.49497 c 0.48613,0.0706 0.89041,0.17251 1.23755,0.31538 0.33866,0.1397 0.6223,0.33056 0.83043,0.54998 0.20814,0.22543 0.37113,0.49742 0.46497,0.80998 0.097,0.3168 0.14146,0.68369 0.14781,1.09538 0,0.37853 -0.0649,0.68968 -0.16757,0.93627 -0.11642,0.24624 -0.27799,0.44909 -0.50236,0.59478 0.28611,0.20144 0.50236,0.45226 0.66358,0.768 0.14993,0.31715 0.22648,0.73942 0.22648,1.28199 0,0.4445 -0.06,0.80963 -0.18168,1.10138 -0.12841,0.28998 -0.31256,0.51258 -0.55139,0.67909 -0.24483,0.16687 -0.5394,0.27058 -0.88582,0.30516 -0.33902,0.042 -0.73096,0.0346 -1.1557,-0.0258 -1.0788,-0.14252 -2.16077,-0.28363 -3.24944,-0.41592 v -8.394 c 1.0414,0.12771 2.08492,0.26282 3.12314,0.39829" style="fill:#ffffff;fill-opacity:1;fill-rule:nonzero;stroke:none;stroke-width:0.352778" id="path100-5"></path>
        <path style="fill:#ffffff;fill-opacity:1" d="m 4.5872661,49.653246 -6.5844647,-8.699684 10.818441,0.04498 z" id="path1083"></path>
        <path style="fill:#ffffff;fill-opacity:1" d="m 12.21272,59.909662 1.163751,1.5376 3.154587,-0.152721 0.148203,-4.256665 z" id="path1089"></path>
        <path style="fill:#ffffff;fill-opacity:1" d="m 25.710099,96.497497 -0.01346,8.341593 c 2.144746,-0.45087 12.865717,-3.16044 15.477071,-3.72106 l 15.220898,-3.659463 0.101164,-42.306881 -2.977626,2.80747 -5.61495,0.17016 -0.595525,34.96583 -2.359859,4.348556 -12.589715,3.345728 z" id="path1125"></path>
        <path style="fill:#ffffff;fill-opacity:1" d="m 200.10945,67.997386 -0.18247,3.10201 -2.37212,3.10201 -1.2773,1.45977 0.72988,2.5546 h 1.09483 l 1.2773,-1.82472 4.01437,-3.28448 7.11638,1.2773 6.56896,3.10201 0.91236,2.18966 v 4.01436 l 2.00718,0.18248 0.36494,-6.93391 -15.51005,-7.48132 -2.73707,-2.18966 z" id="path1133"></path>
        <path style="fill:#ffffff;fill-opacity:1" d="m 243.99682,41.030535 10.84855,-1e-5 -6.63826,8.55518 z" id="path1135"></path>
        <path style="fill:#ffffff;fill-opacity:1" d="m 242.05948,57.507174 -20.9552,1.38152 0.31498,0.73496 12.39142,8.52327 z" id="path1137"></path>
      </g>
      <path style="fill:#ffffff;fill-opacity:1" d="m 230.18999,106.14517 -31.96226,-8.686605 -5.29178,-4.614605 6.44051,1.91475 3.11054,-3.43228 4.20032,3.78041 3.13322,2.08882 4.5087,1.15909 5.32805,1.44582 z" id="path1092"></path>
    </g>
    <path style="fill:#ffffff;fill-opacity:1" d="m 242.87308,95.666231 c -0.47368,-2.1373 2.34383,11.787179 -12.68309,11.415739 -4.38868,-1.45085 -6.88938,-4.52107 -10.5327,-6.3446 l 14.15708,2.91128 c 3.11137,-2.37744 4.76166,-1.55442 9.05871,-7.982419 z" id="path1003"></path>
    <path style="fill:#ffffff;fill-opacity:1" d="m 124.99277,189.12132 6.82057,-0.0173 -3.42904,2.44623 z" id="path999"></path>
    <path style="fill:#ffffff;fill-opacity:1" d="m 60.789174,143.38585 -3.300663,-2.36386 -1e-6,-50.910819 5.437524,5.10968 -3.989748,6.159619 0.419973,26.38834 3.219795,4.47972 -3.079804,2.44984 z" id="path1004"></path>
    <path style="fill:#ffffff;fill-opacity:1" d="m 57.48851,45.601875 1.124418,-2.18268 4.738006,-0.10648 -5.057424,-6.01567 0.425889,-30.9834 4.299245,-6.30634995 h -5.530133 z" id="path1014"></path>
    <path style="fill:#ffffff;fill-opacity:1" d="m 196.21262,143.22104 3.1122,-2.2202 v -13.66097 l -2.8233,0.56466 -2.38292,0.009 -1.0857,1.36255 3.30729,4.83994 1.37132,3.30729 z" id="path1018"></path>
    <path style="fill:#ffffff;fill-opacity:1" d="m 199.32482,98.033411 -1.9546,-0.2482 1.9546,2.630949 z" id="path1020"></path>
    <path style="fill:#ffffff;fill-opacity:1" d="m 193.20044,0.00729505 h 6.12438 V 46.059915 l -6.12438,-1.53885 -0.0496,-2.23382 4.9144,-4.41799 -0.14897,-31.5713 -5.06332,-5.36115995 z" id="path1022"></path>
    <path style="fill:#ffffff;fill-opacity:1" d="m 54.855424,41.935805 h 4.105603 l -1.596624,2.566 z" id="path1026"></path>
    <path style="fill:#ffffff;fill-opacity:1;fill-rule:nonzero;stroke:none;stroke-width:0.389441" d="m 133.01896,29.501119 c 0,0.09969 0.0312,0.157367 0.089,0.157367 0.0473,-0.0054 0.0892,-0.02628 0.12584,-0.05244 l 16.34294,-10.609712 c 0.27614,-0.193099 0.60695,-0.292365 0.94374,-0.28318 h 3.5916 c 0.55046,0 0.92275,0.367113 0.92275,0.917755 v 6.859841 c 0,0.828657 -0.18352,1.311186 -0.91751,1.751655 l -4.35705,2.622292 c -0.0434,0.03012 -0.094,0.04825 -0.1468,0.05245 -0.0525,0 -0.10487,-0.04195 -0.10487,-0.194015 v -8.003168 c 0,-0.09438 -0.0264,-0.157364 -0.0891,-0.157364 -0.0461,0.0055 -0.0895,0.02341 -0.12591,0.05245 l -11.94384,7.761946 c -0.27269,0.183516 -0.59251,0.283182 -0.9176,0.277937 h -7.91717 c -0.55573,0 -0.92274,-0.367112 -0.92274,-0.923085 v -9.885887 c 0,-0.07342 -0.0314,-0.141624 -0.0943,-0.141624 -0.046,0.0054 -0.0893,0.02396 -0.12579,0.05245 l -7.88049,4.730582 c -0.0785,0.05243 -0.0995,0.0892 -0.0995,0.125813 0,0.03147 0.0159,0.06292 0.0682,0.120647 l 5.63117,5.627429 c 0.0733,0.07331 0.12583,0.131058 0.12583,0.194015 0,0.05243 -0.0838,0.09439 -0.18352,0.09439 h -5.08586 c -0.39853,0 -0.70787,-0.05774 -0.92286,-0.272694 l -3.41333,-3.408986 c -0.0263,-0.03134 -0.0641,-0.05035 -0.10486,-0.05244 -0.0371,0.0022 -0.073,0.01259 -0.10483,0.03146 l -5.70456,3.42997 c -0.34606,0.20975 -0.58203,0.267452 -0.92284,0.267452 h -5.24842 c -0.56096,0.0054 -0.92801,-0.367123 -0.92801,-0.917841 v -6.728731 c 0,-0.833909 0.18352,-1.311182 0.92275,-1.751663 l 4.38332,-2.632779 c 0.0345,-0.02251 0.0743,-0.03521 0.11539,-0.03675 0.0682,0 0.10486,0.06822 0.10486,0.220234 v 9.010182 c 0,0.09439 0.0209,0.136304 0.0891,0.136304 0.0472,-0.0054 0.0891,-0.02628 0.13106,-0.05244 l 14.80661,-8.910432 c 0.28321,-0.194093 0.62926,-0.288435 0.97529,-0.272692 h 7.96958 c 0.55055,0 0.92285,0.367114 0.92285,0.917754 l -0.005,9.875478 z m 0,0" id="path121-6-6-4"></path>
  </g>
</svg>