
<svg xmlns="http://www.w3.org/2000/svg" width="93.534309mm" height="68.77375mm" viewBox="0 0 93.534309 68.77375" version="1.1" id="svg1569">
  <defs id="defs1563"></defs>
  
  
  <g id="layer1" transform="translate(-271.48849,-23.065505)">
    <path style="fill:#570514;fill-opacity:1;fill-rule:nonzero;stroke:none;stroke-width:0.352777" d="m 318.47434,23.065505 c -18.99075,0 -34.38618,15.395444 -34.38618,34.387568 0,18.990741 15.39543,34.386184 34.38618,34.386184 18.99075,0 34.38619,-15.395443 34.38619,-34.386184 0,-18.992124 -15.39544,-34.387568 -34.38619,-34.387568" id="path318"></path>
    <path style="fill:#7d0521;fill-opacity:1;fill-rule:nonzero;stroke:none;stroke-width:0.352777" d="m 318.47434,90.579729 c -18.29621,0 -33.12803,-14.829068 -33.12803,-33.128037 0,-18.294836 14.83182,-33.128037 33.12803,-33.128037 18.29759,0 33.12942,14.833201 33.12942,33.128037 0,18.298969 -14.83183,33.128037 -33.12942,33.128037" id="path320"></path>
    <path style="fill:#ffffff;fill-opacity:1;fill-rule:nonzero;stroke:none;stroke-width:0.352777" d="m 296.39266,42.384222 -3.34312,-2.532835 0.59531,-0.784101 1.33669,1.012857 0.007,-0.0096 -0.89848,-1.591635 0.60772,-0.802019 0.93431,1.831414 2.44188,0.655945 -0.62838,0.829581 -1.49104,-0.449241 0.2067,0.429948 0.82407,0.624251 z m 0,0" id="path322"></path>
    <path style="fill:#ffffff;fill-opacity:1;fill-rule:nonzero;stroke:none;stroke-width:0.352777" d="m 299.12255,39.050748 -2.98483,-2.944866 0.6904,-0.701421 2.98483,2.944866 z m 0,0" id="path324"></path>
    <path style="fill:#ffffff;fill-opacity:1;fill-rule:nonzero;stroke:none;stroke-width:0.352777" d="m 302.49461,34.49771 0.01,-0.0055 -1.50895,-2.543859 0.74827,-0.55535 1.94304,3.779961 -0.88746,0.660079 -2.00504,-2.186947 -0.008,0.0069 1.50206,2.560394 -0.87506,0.651814 -3.06751,-2.94349 0.76206,-0.566374 1.99677,2.185567 0.001,-0.01654 -1.43454,-2.589332 0.76344,-0.569133 z m 0,0" id="path326"></path>
    <path style="fill:#ffffff;fill-opacity:1;fill-rule:nonzero;stroke:none;stroke-width:0.352777" d="m 305.67099,30.673655 c -0.0276,-0.0565 -0.0593,-0.114378 -0.0937,-0.170878 -0.0345,-0.05925 -0.0744,-0.107485 -0.11851,-0.144692 -0.0427,-0.03996 -0.0937,-0.06477 -0.15159,-0.07441 -0.0579,-0.01242 -0.12264,0.0014 -0.19568,0.03583 -0.0717,0.03447 -0.11989,0.07993 -0.14469,0.130915 -0.0262,0.05236 -0.0386,0.108864 -0.0358,0.16812 0.001,0.05926 0.0138,0.119888 0.0372,0.184658 0.0234,0.06063 0.0482,0.122644 0.0772,0.180524 l 0.76205,1.543402 c 0.0248,0.05236 0.0579,0.108864 0.0965,0.169496 0.0372,0.06063 0.0799,0.111622 0.12816,0.15434 0.0482,0.04272 0.10197,0.07166 0.16398,0.08406 0.0606,0.01379 0.12541,0.0041 0.19568,-0.0303 0.0703,-0.03447 0.11714,-0.08131 0.14194,-0.136426 0.0248,-0.0565 0.0331,-0.114378 0.0275,-0.177768 -0.005,-0.06339 -0.0234,-0.128157 -0.0482,-0.194303 -0.0275,-0.06752 -0.0537,-0.125402 -0.0799,-0.180524 z m 1.60679,1.03215 c 0.10473,0.210841 0.17639,0.407899 0.21635,0.588423 0.04,0.181899 0.0386,0.350022 -10e-4,0.502983 -0.0413,0.152961 -0.12265,0.293522 -0.24667,0.423058 -0.12265,0.130913 -0.29628,0.250804 -0.51952,0.361047 -0.22462,0.110244 -0.42581,0.17501 -0.60496,0.194303 -0.17914,0.02067 -0.34313,0 -0.49058,-0.05788 -0.14883,-0.06064 -0.28387,-0.161234 -0.40514,-0.30317 -0.12127,-0.140561 -0.23427,-0.318326 -0.339,-0.527788 l -0.75381,-1.52824 c -0.18052,-0.365181 -0.2136,-0.694531 -0.10197,-0.989432 0.11299,-0.293522 0.3638,-0.536056 0.74965,-0.727604 0.38722,-0.191548 0.73036,-0.23978 1.02801,-0.14883 0.29766,0.09371 0.53468,0.321084 0.71383,0.684886 z m 0,0" id="path328"></path>
    <path style="fill:#ffffff;fill-opacity:1;fill-rule:nonzero;stroke:none;stroke-width:0.352777" d="m 310.06417,28.985557 c -0.0193,-0.05926 -0.04,-0.122643 -0.0661,-0.184655 -0.0248,-0.06202 -0.0551,-0.115757 -0.0923,-0.159854 -0.0386,-0.04548 -0.0841,-0.07855 -0.13918,-0.09922 -0.0551,-0.02067 -0.12126,-0.01792 -0.19981,0.0069 -0.0744,0.02342 -0.12954,0.05788 -0.16399,0.104733 -0.0331,0.04823 -0.0537,0.101974 -0.0606,0.15985 -0.008,0.05926 -0.005,0.121268 0.007,0.187414 0.0124,0.06752 0.0289,0.129536 0.0469,0.190168 l 0.50712,1.64538 c 0.0179,0.05788 0.0413,0.118509 0.0689,0.184655 0.0275,0.06477 0.062,0.122647 0.10197,0.170878 0.0413,0.05099 0.0909,0.08819 0.14883,0.111623 0.0579,0.02342 0.12403,0.02342 0.19844,0 0.0758,-0.02205 0.12816,-0.06063 0.16261,-0.111623 0.0317,-0.05099 0.051,-0.107487 0.0551,-0.170878 0.003,-0.06477 -0.003,-0.130913 -0.0179,-0.201193 -0.0152,-0.0689 -0.0317,-0.132291 -0.0496,-0.188789 z m 1.42214,1.276064 c 0.0703,0.223241 0.10886,0.429948 0.11989,0.614606 0.01,0.187413 -0.0179,0.351398 -0.0813,0.496094 -0.0648,0.144692 -0.16813,0.271473 -0.31006,0.378961 -0.14194,0.107484 -0.33211,0.198437 -0.57189,0.272848 -0.2384,0.07304 -0.44786,0.106113 -0.62701,0.09646 -0.18052,-0.0096 -0.339,-0.05512 -0.47542,-0.136426 -0.13643,-0.08268 -0.25494,-0.203948 -0.3514,-0.363802 -0.0978,-0.158475 -0.1819,-0.350019 -0.2508,-0.573264 l -0.50161,-1.630218 c -0.11989,-0.388606 -0.1006,-0.717959 0.0565,-0.990808 0.15847,-0.272852 0.44373,-0.474045 0.85576,-0.600826 0.41341,-0.126778 0.7593,-0.121268 1.03766,0.01654 0.27975,0.139181 0.47818,0.402385 0.59807,0.790991 z m 0,0" id="path330"></path>
    <path style="fill:#ffffff;fill-opacity:1;fill-rule:nonzero;stroke:none;stroke-width:0.352777" d="m 313.44726,31.155969 -0.48783,-4.164432 1.37666,-0.16123 0.79375,2.401919 0.011,-0.0028 0.23427,-2.520431 1.36563,-0.159854 0.48783,4.163053 -0.93293,0.110243 -0.2825,-3.276974 -0.011,0.0014 -0.30593,3.345875 -0.7276,0.08544 -1.0542,-3.186024 h -0.011 l 0.47129,3.254925 z m 0,0" id="path332"></path>
    <path style="fill:#ffffff;fill-opacity:1;fill-rule:nonzero;stroke:none;stroke-width:0.352777" d="m 321.42885,30.881737 0.66422,-4.139624 0.97151,0.155716 -0.25493,1.588879 0.67386,0.108864 0.25494,-1.590256 0.97151,0.15572 -0.66421,4.139625 -0.97152,-0.155716 0.27561,-1.722551 -0.67248,-0.107484 -0.27699,1.722547 z m 0,0" id="path334"></path>
    <path style="fill:#ffffff;fill-opacity:1;fill-rule:nonzero;stroke:none;stroke-width:0.352777" d="m 325.6236,31.693402 1.29122,-3.986665 2.14285,0.693156 -0.25907,0.797884 -1.20716,-0.391364 -0.23702,0.734494 1.16996,0.378961 -0.25908,0.796505 -1.16996,-0.378961 -0.27836,0.861275 1.27055,0.412034 -0.25631,0.797884 z m 0,0" id="path336"></path>
    <path style="fill:#ffffff;fill-opacity:1;fill-rule:nonzero;stroke:none;stroke-width:0.352777" d="m 331.27218,31.297906 0.29766,0.150206 c 0.0634,0.03306 0.12264,0.04548 0.17914,0.03996 0.0537,-0.0055 0.10336,-0.0248 0.14883,-0.0565 0.0455,-0.0303 0.0868,-0.07304 0.12402,-0.125402 0.0358,-0.05099 0.0689,-0.106109 0.0965,-0.162609 0.0565,-0.110244 0.0882,-0.202573 0.0965,-0.276987 0.01,-0.07441 -0.004,-0.140558 -0.04,-0.195679 -0.0345,-0.0565 -0.0896,-0.104733 -0.16536,-0.14883 -0.0744,-0.0441 -0.16674,-0.09095 -0.27423,-0.143316 z m -1.08727,2.151119 -0.87781,-0.443731 1.88929,-3.74275 1.28157,0.646299 c 0.36381,0.183279 0.59394,0.398255 0.69178,0.6463 0.0992,0.249424 0.0537,0.559484 -0.13367,0.931555 -0.10197,0.199814 -0.22049,0.355533 -0.35416,0.465776 -0.13642,0.111623 -0.31557,0.16123 -0.54156,0.152961 l -0.004,0.01101 c 0.10886,0.08819 0.18328,0.194303 0.22186,0.31695 0.0358,0.124022 0.0262,0.25218 -0.0317,0.385851 -0.0331,0.07993 -0.0744,0.175009 -0.12402,0.288011 -0.051,0.111618 -0.10198,0.225996 -0.15434,0.341753 -0.0524,0.117133 -0.1006,0.225997 -0.14608,0.333485 -0.0455,0.106108 -0.0758,0.192923 -0.0937,0.259069 -0.004,0.0689 0.003,0.126781 0.0207,0.173634 l -0.0262,0.04961 -0.95911,-0.483694 c 0.007,-0.04272 0.0124,-0.08406 0.022,-0.124022 0.01,-0.03858 0.022,-0.07717 0.0386,-0.115754 0.0758,-0.169499 0.15434,-0.327974 0.23151,-0.474045 0.0772,-0.146074 0.14056,-0.281121 0.18466,-0.405144 0.0469,-0.122646 0.0648,-0.230134 0.0606,-0.321084 -0.007,-0.08957 -0.0606,-0.165365 -0.15985,-0.223241 l -0.28942,-0.146071 z m 0,0" id="path338"></path>
    <path style="fill:#ffffff;fill-opacity:1;fill-rule:nonzero;stroke:none;stroke-width:0.352777" d="m 336.12976,33.597851 c 0.0372,-0.05237 0.073,-0.106108 0.10749,-0.163985 0.0358,-0.05788 0.0593,-0.114378 0.073,-0.170879 0.0124,-0.05788 0.0124,-0.114377 -0.005,-0.170875 -0.0165,-0.05512 -0.0593,-0.107487 -0.1254,-0.155719 -0.0634,-0.04547 -0.12402,-0.06752 -0.1819,-0.06752 -0.0593,0.0028 -0.11438,0.01792 -0.16674,0.04685 -0.0496,0.0303 -0.0978,0.07028 -0.14332,0.119888 -0.0455,0.04961 -0.0868,0.100598 -0.12402,0.151585 l -1.00872,1.395952 c -0.0345,0.04823 -0.0703,0.103353 -0.10611,0.165364 -0.0358,0.06064 -0.0606,0.122647 -0.0758,0.186034 -0.0152,0.06339 -0.0138,0.124026 0.003,0.184658 0.0152,0.05926 0.0565,0.112998 0.11989,0.158475 0.062,0.04548 0.12402,0.06615 0.18465,0.06201 0.0606,-0.0055 0.11714,-0.0248 0.17088,-0.06063 0.0537,-0.03306 0.10198,-0.07855 0.14883,-0.132292 0.0455,-0.05512 0.0868,-0.104733 0.12127,-0.154341 z m -0.1626,1.90307 c -0.13781,0.190172 -0.27837,0.345888 -0.4203,0.467156 -0.14194,0.118512 -0.28801,0.197061 -0.44373,0.23289 -0.15572,0.03583 -0.31833,0.02893 -0.48921,-0.02067 -0.17225,-0.04685 -0.35966,-0.146071 -0.56224,-0.290763 -0.20257,-0.147451 -0.35415,-0.296281 -0.45613,-0.443731 -0.10059,-0.150206 -0.15985,-0.303167 -0.17501,-0.463021 -0.0165,-0.157095 0.01,-0.323839 0.0758,-0.497469 0.0689,-0.175014 0.17363,-0.356913 0.31006,-0.547081 l 0.99908,-1.382173 c 0.2384,-0.329353 0.51263,-0.512632 0.82544,-0.549839 0.31419,-0.03858 0.64492,0.0689 0.99495,0.322463 0.35139,0.253559 0.55397,0.533298 0.61184,0.837847 0.0579,0.305922 -0.0331,0.624251 -0.27147,0.953601 z m 0,0" id="path340"></path>
    <path style="fill:#ffffff;fill-opacity:1;fill-rule:nonzero;stroke:none;stroke-width:0.352777" d="m 336.41088,37.642395 2.94349,-2.986211 1.60404,1.58199 -0.58842,0.596688 -0.90399,-0.891589 -0.54157,0.549836 0.87643,0.862654 -0.5898,0.598068 -0.87505,-0.86403 -0.63666,0.64492 0.95085,0.938445 -0.58705,0.598068 z m 0,0" id="path342"></path>
    <path style="fill:#ffffff;fill-opacity:1;fill-rule:nonzero;stroke:none;stroke-width:0.352777" d="m 340.69658,40.244131 -0.23564,0.177765 c -0.0469,0.03583 -0.0896,0.07442 -0.1254,0.117133 -0.0372,0.03996 -0.0634,0.08544 -0.0799,0.13505 -0.0165,0.04961 -0.0193,0.10335 -0.007,0.157096 0.01,0.05374 0.0386,0.112998 0.0868,0.176389 0.0689,0.09095 0.15296,0.132291 0.25356,0.122643 0.1006,-0.0096 0.19292,-0.04685 0.27836,-0.112999 0.073,-0.05374 0.12265,-0.111618 0.15296,-0.177764 0.0303,-0.06339 0.051,-0.132292 0.0579,-0.202572 0.007,-0.07028 0.006,-0.144696 -0.005,-0.217731 -0.008,-0.07442 -0.0152,-0.150206 -0.0207,-0.226 -0.0234,-0.172254 -0.0386,-0.33624 -0.0455,-0.486446 -0.007,-0.151585 0.005,-0.297656 0.0358,-0.435461 0.0331,-0.137802 0.0868,-0.26596 0.16123,-0.385851 0.0758,-0.119888 0.18742,-0.235645 0.33762,-0.347264 0.31557,-0.237024 0.61736,-0.329353 0.91089,-0.272852 0.29076,0.05512 0.55259,0.237024 0.78272,0.542946 0.12816,0.169499 0.2136,0.340378 0.25769,0.509877 0.0441,0.169495 0.0482,0.332105 0.0138,0.487824 -0.0331,0.157096 -0.10059,0.304546 -0.20395,0.443728 -0.10472,0.137805 -0.2384,0.261828 -0.40376,0.372071 l -0.54295,-0.72347 c 0.0441,-0.03859 0.0937,-0.07993 0.14607,-0.125402 0.0537,-0.0441 0.0992,-0.09095 0.13368,-0.14194 0.0372,-0.04961 0.0565,-0.106108 0.0634,-0.163985 0.005,-0.05788 -0.0138,-0.119888 -0.0565,-0.190168 -0.0551,-0.08544 -0.1199,-0.136426 -0.19431,-0.151586 -0.0758,-0.01654 -0.15296,0 -0.23427,0.04685 -0.11024,0.06339 -0.17776,0.14194 -0.20257,0.23289 -0.0248,0.09095 -0.0344,0.195682 -0.0303,0.311436 0.0165,0.221865 0.04,0.418923 0.0648,0.593936 0.0262,0.17501 0.0303,0.338995 0.0138,0.496094 -0.0165,0.157095 -0.0675,0.307301 -0.14883,0.449238 -0.0827,0.140561 -0.22737,0.288011 -0.43132,0.443731 -0.32522,0.24391 -0.63803,0.344508 -0.93845,0.301787 -0.30178,-0.04547 -0.57602,-0.23151 -0.82131,-0.559481 -0.13504,-0.177768 -0.22737,-0.348643 -0.27974,-0.512632 -0.0524,-0.163985 -0.0703,-0.318325 -0.0537,-0.461641 0.0165,-0.143316 0.0606,-0.271474 0.13229,-0.385851 0.073,-0.114378 0.16399,-0.213596 0.27423,-0.29628 l 0.35691,-0.270094 z m 0,0" id="path344"></path>
    <path style="fill:#ffffff;fill-opacity:1;fill-rule:nonzero;stroke:none;stroke-width:0.352777" d="m 293.92184,71.725412 c 0.23702,-0.132292 0.45613,-0.283877 0.30179,-0.551214 -0.0923,-0.163989 -0.21911,-0.231511 -0.39688,-0.132292 -0.19982,0.114377 -0.20533,0.283874 -0.21497,0.493334 -0.01,0.219112 -0.0358,0.628386 -0.0923,0.839227 -0.0689,0.261829 -0.19706,0.405146 -0.42306,0.53468 -0.49747,0.282499 -0.94258,0.100595 -1.21543,-0.380338 -0.33349,-0.587044 -0.12402,-0.983919 0.34451,-1.249881 l 0.19154,-0.110244 0.27837,0.490582 -0.15434,0.08682 c -0.26045,0.135049 -0.40239,0.31695 -0.26458,0.559486 0.11713,0.205327 0.28112,0.241154 0.47955,0.129537 0.15572,-0.08958 0.21911,-0.217731 0.23565,-0.394121 0.0537,-0.369316 0.0165,-0.768945 0.16536,-1.116211 0.073,-0.150209 0.19017,-0.276987 0.33073,-0.355536 0.44786,-0.253558 0.83509,-0.141936 1.12999,0.376206 0.44373,0.77997 -0.16949,1.101053 -0.42719,1.251257 z m 0,0" id="path346"></path>
    <path style="fill:#ffffff;fill-opacity:1;fill-rule:nonzero;stroke:none;stroke-width:0.352777" d="m 292.91724,74.109419 2.48461,-1.710148 0.89848,1.303626 -0.3638,0.253561 -0.58016,-0.841983 -0.62563,0.429948 0.53331,0.775837 -0.36381,0.250799 -0.5333,-0.777211 -0.76619,0.529167 0.58015,0.840602 -0.3638,0.249425 z m 0,0" id="path348"></path>
    <path style="fill:#ffffff;fill-opacity:1;fill-rule:nonzero;stroke:none;stroke-width:0.352777" d="m 295.54241,75.942209 c -0.19293,0.161229 -0.49196,0.435459 -0.24667,0.731737 0.25769,0.31006 0.57877,0.04961 0.80202,-0.135046 l 0.59531,-0.494718 c 0.18465,-0.152961 0.60496,-0.485069 0.33762,-0.807529 -0.2825,-0.340374 -0.66421,0.02479 -0.84474,0.172254 z m 0.17776,-0.89848 c 0.60634,-0.47267 1.0859,-0.790996 1.66054,-0.09784 0.57602,0.693155 0.17363,1.105188 -0.40239,1.615062 l -0.33073,0.274227 c -0.62011,0.512633 -1.1107,0.841984 -1.70049,0.129537 -0.59118,-0.71107 -0.17777,-1.134123 0.44097,-1.646756 z m 0,0" id="path350"></path>
    <path style="fill:#ffffff;fill-opacity:1;fill-rule:nonzero;stroke:none;stroke-width:0.352777" d="m 299.41745,77.24583 0.40101,0.398256 -1.48139,1.493795 c -0.46991,0.475419 -0.84749,0.548455 -1.37115,0.02893 -0.52917,-0.522277 -0.46026,-0.898483 0.011,-1.375283 l 1.48002,-1.495171 0.401,0.395496 -1.44694,1.460723 c -0.20395,0.206703 -0.39411,0.424434 -0.12127,0.695907 0.25908,0.257693 0.47818,0.06477 0.68213,-0.140558 z m 0,0" id="path352"></path>
    <path style="fill:#ffffff;fill-opacity:1;fill-rule:nonzero;stroke:none;stroke-width:0.352777" d="m 298.4859,80.492489 1.92374,-2.324748 0.4327,0.359667 -1.63986,1.982996 0.80477,0.666973 -0.28112,0.340373 z m 0,0" id="path354"></path>
    <path style="fill:#ffffff;fill-opacity:1;fill-rule:nonzero;stroke:none;stroke-width:0.352777" d="m 301.65814,82.909569 1.58474,-2.565908 0.47818,0.2949 -0.627,1.016992 0.6711,0.413414 0.62701,-1.015617 0.47956,0.294902 -1.58475,2.568663 -0.47955,-0.297657 0.72485,-1.17271 -0.67111,-0.413411 -0.72485,1.172713 z m 0,0" id="path356"></path>
    <path style="fill:#ffffff;fill-opacity:1;fill-rule:nonzero;stroke:none;stroke-width:0.352777" d="m 304.19924,84.413008 1.3491,-2.698199 1.418,0.708313 -0.19705,0.396875 -0.91365,-0.457509 -0.34175,0.679373 0.84336,0.421677 -0.19843,0.396875 -0.84199,-0.421677 -0.41479,0.832337 0.91364,0.456131 -0.19844,0.395494 z m 0,0" id="path358"></path>
    <path style="fill:#ffffff;fill-opacity:1;fill-rule:nonzero;stroke:none;stroke-width:0.352777" d="m 307.63745,84.093304 0.41341,0.16123 c 0.17639,0.0565 0.35553,-0.0041 0.4644,-0.285253 0.12264,-0.315571 0.0124,-0.418923 -0.18466,-0.498848 l -0.38998,-0.151585 z m -0.16123,0.412033 -0.47129,1.211295 -0.52504,-0.206703 1.09693,-2.808444 0.99356,0.388607 c 0.45338,0.175008 0.73725,0.467156 0.53468,0.985298 -0.11989,0.305924 -0.32522,0.598066 -0.69591,0.509873 l -0.003,0.0069 c 0.29352,0.16261 0.31143,0.398253 0.20533,0.666972 -0.0455,0.117134 -0.32935,0.80064 -0.23427,0.932932 l -0.0207,0.05099 -0.5774,-0.22462 c 0.007,-0.205327 0.15297,-0.545703 0.22187,-0.733116 0.0648,-0.175014 0.15985,-0.409278 0,-0.533302 -0.12678,-0.09508 -0.28112,-0.151585 -0.43133,-0.20946 z m 0,0" id="path360"></path>
    <path style="fill:#ffffff;fill-opacity:1;fill-rule:nonzero;stroke:none;stroke-width:0.352777" d="m 310.1,85.702852 c -0.0689,0.239779 -0.15985,0.636654 0.21222,0.740008 0.38861,0.108863 0.50299,-0.288012 0.58153,-0.566375 l 0.20946,-0.744141 c 0.0661,-0.23151 0.22187,-0.74414 -0.18052,-0.855763 -0.42581,-0.121266 -0.5333,0.3955 -0.59669,0.620118 z m -0.36518,-0.841981 c 0.23151,-0.734494 0.44373,-1.267796 1.3119,-1.021127 0.86678,0.242535 0.77032,0.80891 0.58428,1.554427 l -0.11575,0.413414 c -0.21773,0.774456 -0.43546,1.324292 -1.32567,1.073489 -0.89159,-0.250802 -0.78962,-0.832335 -0.57189,-1.606791 z m 0,0" id="path362"></path>
    <path style="fill:#ffffff;fill-opacity:1;fill-rule:nonzero;stroke:none;stroke-width:0.352777" d="m 312.14777,87.297242 0.54846,-2.966913 1.55994,0.288007 -0.0813,0.434083 -1.00459,-0.186034 -0.13918,0.748274 0.92604,0.172254 -0.0799,0.434081 -0.92466,-0.170874 -0.1695,0.913638 1.00459,0.186034 -0.0799,0.434081 z m 0,0" id="path364"></path>
    <path style="fill:#ffffff;fill-opacity:1;fill-rule:nonzero;stroke:none;stroke-width:0.352777" d="m 315.99525,85.738679 c 0.0303,-0.265959 0.0317,-0.533299 -0.27699,-0.563615 -0.18741,-0.01654 -0.31557,0.04685 -0.33486,0.250801 -0.022,0.22738 0.113,0.330729 0.27836,0.458891 0.17364,0.133667 0.49058,0.391361 0.63253,0.558104 0.17363,0.206703 0.21772,0.391361 0.19154,0.654569 -0.0551,0.56775 -0.46026,0.826823 -1.00734,0.774456 -0.67386,-0.06615 -0.87781,-0.464399 -0.82545,-1.001837 l 0.022,-0.220485 0.55949,0.05374 -0.0165,0.177766 c -0.04,0.28939 0.0276,0.512632 0.30316,0.537434 0.23565,0.02342 0.36105,-0.08957 0.3831,-0.318325 0.0165,-0.175011 -0.0524,-0.304546 -0.18604,-0.417547 -0.27009,-0.257691 -0.61874,-0.456128 -0.81855,-0.778592 -0.0786,-0.14469 -0.11438,-0.315569 -0.0992,-0.474043 0.0496,-0.514009 0.36518,-0.764813 0.95774,-0.708311 0.89296,0.08819 0.80201,0.774456 0.77721,1.069356 z m 0,0" id="path366"></path>
    <path style="fill:#ffffff;fill-opacity:1;fill-rule:nonzero;stroke:none;stroke-width:0.352777" d="m 319.50649,87.484654 c 0.11713,-0.0041 0.23702,0.0028 0.33624,-0.04547 0.15021,-0.07304 0.16261,-0.271478 0.15572,-0.425818 -0.0124,-0.325215 -0.0813,-0.460261 -0.43132,-0.445103 l -0.21774,0.0083 0.0358,0.913641 z m -0.0703,-1.354608 c 0.13643,-0.0041 0.31282,-0.0041 0.39825,-0.119893 0.0496,-0.07854 0.0524,-0.184653 0.0469,-0.329349 -0.008,-0.225996 -0.0606,-0.334864 -0.31832,-0.33211 l -0.26045,0.0097 0.0289,0.775836 z m -0.59669,1.823143 -0.11851,-3.015149 0.90813,-0.03583 c 0.24253,-0.01101 0.47956,-0.0028 0.64905,0.195684 0.13505,0.161229 0.16124,0.332105 0.1695,0.537432 0.01,0.26045 -0.0345,0.520901 -0.33624,0.644922 v 0.0083 c 0.31833,0.03168 0.45062,0.292142 0.46578,0.682127 0.004,0.126783 0.003,0.249426 -0.0262,0.370692 -0.10473,0.387231 -0.31695,0.556731 -0.71796,0.573265 z m 0,0" id="path368"></path>
    <path style="fill:#ffffff;fill-opacity:1;fill-rule:nonzero;stroke:none;stroke-width:0.352777" d="m 322.04346,86.522785 0.47818,-0.06201 -0.26045,-0.82958 c -0.0455,-0.136424 -0.0758,-0.270097 -0.11024,-0.407897 -0.0138,-0.06753 -0.0289,-0.133673 -0.0469,-0.197062 l -0.007,0.0013 c 0,0.06477 0,0.133667 0.006,0.202573 10e-4,0.140557 0.007,0.278363 -0.003,0.421677 z m -0.67937,1.306378 0.32659,-3.085425 0.75379,-0.09784 1.0666,2.904903 -0.59945,0.07579 -0.24529,-0.737253 -0.65457,0.08406 -0.0482,0.777216 z m 0,0" id="path370"></path>
    <path style="fill:#ffffff;fill-opacity:1;fill-rule:nonzero;stroke:none;stroke-width:0.352777" d="m 324.98557,85.096515 c -0.0537,-0.263203 -0.13642,-0.516763 -0.43822,-0.450618 -0.18465,0.04134 -0.28525,0.141939 -0.24115,0.341755 0.0496,0.22462 0.21084,0.279741 0.40789,0.351398 0.20534,0.07304 0.58981,0.219107 0.77584,0.333484 0.22876,0.143316 0.32797,0.307305 0.38448,0.562239 0.12402,0.558107 -0.18053,0.930177 -0.71796,1.050068 -0.66146,0.147447 -0.97841,-0.169497 -1.09554,-0.69591 l -0.0482,-0.217731 0.54984,-0.119888 0.0386,0.172255 c 0.0524,0.288012 0.18465,0.4768 0.45613,0.417544 0.23151,-0.05236 0.31419,-0.197059 0.26458,-0.423058 -0.0372,-0.170876 -0.14331,-0.272849 -0.30592,-0.338995 -0.33762,-0.159853 -0.73036,-0.239779 -1.02113,-0.48645 -0.11989,-0.112998 -0.20533,-0.263202 -0.24115,-0.418922 -0.11025,-0.502984 0.11024,-0.840603 0.69039,-0.97014 0.87643,-0.195681 1.00321,0.485071 1.07211,0.774456 z m 0,0" id="path372"></path>
    <path style="fill:#ffffff;fill-opacity:1;fill-rule:nonzero;stroke:none;stroke-width:0.352777" d="m 326.97132,86.754296 -0.91088,-2.877344 1.50895,-0.478179 0.13505,0.423058 -0.97427,0.308679 0.22875,0.72485 0.89848,-0.286631 0.13367,0.424434 -0.89848,0.283877 0.28112,0.886079 0.97565,-0.308682 0.13229,0.42168 z m 0,0" id="path374"></path>
    <path style="fill:#ffffff;fill-opacity:1;fill-rule:nonzero;stroke:none;stroke-width:0.352777" d="m 329.82937,85.283929 c 0.10749,-0.04548 0.22325,-0.07992 0.29904,-0.15985 0.11438,-0.121269 0.0579,-0.312817 0,-0.451998 -0.1254,-0.30179 -0.23702,-0.402389 -0.56086,-0.268717 l -0.2012,0.08268 0.3514,0.843362 z m -0.53467,-1.247126 c 0.12677,-0.05099 0.29214,-0.110244 0.33073,-0.249426 0.0193,-0.09095 -0.0124,-0.191547 -0.0689,-0.325215 -0.0854,-0.20946 -0.17364,-0.293521 -0.41479,-0.20257 l -0.24116,0.101973 0.29765,0.716579 z m 0.0717,1.918229 -1.15618,-2.786391 0.83923,-0.348644 c 0.22324,-0.09371 0.44924,-0.169497 0.67662,-0.04134 0.18052,0.10473 0.26595,0.254934 0.34588,0.443727 0.1006,0.241155 0.14745,0.502984 -0.0923,0.722093 l 0.003,0.0069 c 0.31144,-0.07993 0.52228,0.119888 0.67386,0.478181 0.0482,0.115753 0.0882,0.235641 0.10473,0.356907 0.0358,0.40101 -0.10335,0.632521 -0.47542,0.788241 z m 0,0" id="path376"></path>
    <path style="fill:#ffffff;fill-opacity:1;fill-rule:nonzero;stroke:none;stroke-width:0.352777" d="m 331.87025,83.503506 0.42719,-0.226002 -0.53468,-0.684884 c -0.0896,-0.11162 -0.1626,-0.228754 -0.24391,-0.344509 -0.0345,-0.05788 -0.0744,-0.115755 -0.11024,-0.168122 l -0.008,0.0028 c 0.022,0.06063 0.0482,0.125402 0.0758,0.187413 0.051,0.132291 0.10473,0.259074 0.14607,0.395499 z m -0.1819,1.459338 -0.76619,-3.0055 0.67248,-0.354155 2.0078,2.353688 -0.53468,0.278363 -0.48644,-0.606337 -0.58429,0.308681 0.22324,0.744143 z m 0,0" id="path378"></path>
    <path style="fill:#ffffff;fill-opacity:1;fill-rule:nonzero;stroke:none;stroke-width:0.352777" d="m 334.30662,83.526929 -1.6316,-2.536965 0.47405,-0.305927 1.39044,2.167655 0.88057,-0.564994 0.23977,0.372067 z m 0,0" id="path380"></path>
    <path style="fill:#ffffff;fill-opacity:1;fill-rule:nonzero;stroke:none;stroke-width:0.352777" d="m 336.39986,82.132356 -1.83141,-2.396408 0.44648,-0.343133 1.5627,2.047766 0.83233,-0.636656 0.26734,0.351404 z m 0,0" id="path382"></path>
    <path style="fill:#ffffff;fill-opacity:1;fill-rule:nonzero;stroke:none;stroke-width:0.352777" d="m 339.96347,77.565536 c 0.0358,0.0441 0.0772,0.08819 0.113,0.130916 0.37069,0.407898 0.54019,0.839221 0.0965,1.281573 -0.65457,0.657325 -1.11346,0.285253 -1.68121,-0.283877 l -0.30593,-0.304546 c -0.52641,-0.559482 -0.88883,-1.005967 -0.25356,-1.643996 0.36243,-0.351401 0.74414,-0.367938 1.13689,-0.03305 0.0593,0.04823 0.11851,0.09646 0.17088,0.15434 l -0.39275,0.392739 c -0.15296,-0.11989 -0.3955,-0.389985 -0.59255,-0.191547 -0.31144,0.312816 0.0868,0.660079 0.2508,0.824068 l 0.59393,0.591177 c 0.17501,0.175011 0.47818,0.447863 0.75103,0.17363 0.21911,-0.219106 -0.15985,-0.544322 -0.28801,-0.690395 z m 0,0" id="path384"></path>
    <path style="fill:#ffffff;fill-opacity:1;fill-rule:nonzero;stroke:none;stroke-width:0.352777" d="m 341.36356,77.613767 -2.31097,-1.940277 0.36242,-0.432702 1.97197,1.6564 0.67248,-0.799261 0.339,0.283877 z m 0,0" id="path386"></path>
    <path style="fill:#ffffff;fill-opacity:1;fill-rule:nonzero;stroke:none;stroke-width:0.352777" d="m 341.25607,72.818194 0.32246,-0.46164 1.72668,1.205783 c 0.54708,0.381717 0.68351,0.740006 0.26321,1.346341 -0.42582,0.609097 -0.81029,0.607716 -1.35875,0.22462 l -1.72806,-1.204404 0.32384,-0.46164 1.68672,1.175465 c 0.23702,0.165364 0.48645,0.315571 0.70555,0.0013 0.20947,-0.300413 -0.0165,-0.480935 -0.25493,-0.649054 z m 0,0" id="path388"></path>
    <path style="fill:#ffffff;fill-opacity:1;fill-rule:nonzero;stroke:none;stroke-width:0.352777" d="m 344.5606,72.379981 c 0.0579,-0.101976 0.12678,-0.199816 0.14056,-0.31006 0.0138,-0.166743 -0.14745,-0.282496 -0.27974,-0.356913 -0.28525,-0.161229 -0.43546,-0.170873 -0.60771,0.132292 l -0.10611,0.190169 0.79512,0.449242 z m -1.18787,-0.654569 c 0.0689,-0.118512 0.16261,-0.26734 0.10749,-0.399632 -0.0413,-0.08544 -0.12816,-0.141938 -0.25356,-0.213593 -0.19568,-0.111622 -0.31833,-0.126783 -0.45062,0.09646 l -0.12953,0.226 0.67524,0.383095 z m 1.23748,1.467609 -2.62654,-1.484145 0.44786,-0.792372 c 0.11852,-0.209463 0.25081,-0.409279 0.50712,-0.446487 0.20808,-0.03168 0.36794,0.03583 0.54571,0.135051 0.22875,0.129532 0.42443,0.304546 0.37069,0.627007 l 0.008,0.0041 c 0.19431,-0.256315 0.48507,-0.228756 0.82407,-0.03721 0.11024,0.06201 0.21497,0.129538 0.30317,0.217731 0.27285,0.292143 0.3073,0.56224 0.10748,0.91226 z m 0,0" id="path390"></path>
    <path style="fill:#570514;fill-opacity:1;fill-rule:nonzero;stroke:none;stroke-width:0.352777" d="m 318.47434,82.186098 c -13.66049,0 -24.73303,-11.073911 -24.73303,-24.734406 0,-13.659114 11.07254,-24.73303 24.73303,-24.73303 13.66049,0 24.73441,11.073916 24.73441,24.73303 0,13.660495 -11.07392,24.734406 -24.73441,24.734406" id="path392"></path>
    <path style="fill:#ffffff;fill-opacity:1;fill-rule:nonzero;stroke:none;stroke-width:0.352777" d="m 327.45502,79.119963 c -11.97378,4.958181 -25.69904,-0.726225 -30.6586,-12.7 -4.95818,-11.971017 0.72623,-25.697655 12.69862,-30.657214 11.9724,-4.956802 25.69904,0.726225 30.65584,12.698621 4.96094,11.973774 -0.72347,25.699034 -12.69586,30.658593" id="path394"></path>
    <path style="fill:#7d0521;fill-opacity:1;fill-rule:nonzero;stroke:none;stroke-width:0.352777" d="m 298.30813,47.476076 c 0.0537,-0.198438 0.21222,-0.383096 0.35002,-0.417548 0.0978,-0.02342 0.15985,0.03583 0.17088,0.140561 0.003,0.04685 -0.003,0.101974 -0.0165,0.163985 -0.15986,0.556729 -0.48507,2.312349 -0.48507,2.312349 0,0 -0.93431,0.978408 -1.37666,1.422136 -0.11438,0.114377 -0.23841,0.07855 -0.27561,-0.07855 -0.0358,-0.158472 0.0303,-0.383093 0.14469,-0.501605 0.34864,-0.355534 0.70418,-0.719336 1.07074,-1.112075 0.0992,-0.653193 0.23978,-1.298113 0.41754,-1.929253" id="path396"></path>
    <path style="fill:#7d0521;fill-opacity:1;fill-rule:nonzero;stroke:none;stroke-width:0.352777" d="m 299.19834,47.888106 c 0.0345,-0.206703 0.19844,-0.418924 0.36105,-0.472666 0.12953,-0.04272 0.22048,0.02067 0.23978,0.146071 0.005,0.03996 0.004,0.08406 -0.004,0.130916 -0.10474,0.592554 -0.23427,2.414323 -0.23427,2.414323 0,0 -1.00597,1.171331 -1.48966,1.696363 -0.12816,0.137805 -0.28663,0.124023 -0.35002,-0.03447 -0.0648,-0.159851 -0.0165,-0.399632 0.11162,-0.540192 0.37483,-0.413409 0.76068,-0.859896 1.15479,-1.322917 0.0234,-0.676613 0.0923,-1.34634 0.21084,-2.017447" id="path398"></path>
    <path style="fill:#7d0521;fill-opacity:1;fill-rule:nonzero;stroke:none;stroke-width:0.352777" d="m 300.45649,48.20368 c 0.011,-0.208086 0.17088,-0.439597 0.35829,-0.522277 0.16399,-0.06615 0.29215,-0.0041 0.32108,0.143316 0.006,0.02893 0.008,0.05788 0.007,0.09095 -0.0289,0.589798 0.0813,2.430857 0.0813,2.430857 0,0 -1.04731,1.338074 -1.55994,1.967841 -0.13366,0.165365 -0.32521,0.179144 -0.42994,0.03168 -0.0992,-0.14745 -0.0744,-0.401011 0.0593,-0.567751 0.40514,-0.505741 0.80615,-1.007346 1.21129,-1.536512 -0.0662,-0.683507 -0.0799,-1.368393 -0.0482,-2.038117" id="path400"></path>
    <path style="fill:#7d0521;fill-opacity:1;fill-rule:nonzero;stroke:none;stroke-width:0.352777" d="m 302.00954,48.309788 c -0.0165,-0.208086 0.1378,-0.463021 0.34727,-0.566374 0.1943,-0.09646 0.36793,-0.03306 0.41065,0.139182 0.004,0.01654 0.007,0.03305 0.011,0.04961 0.0537,0.596692 0.44373,2.412947 0.44373,2.412947 0,0 -1.05833,1.517219 -1.59301,2.228286 -0.13919,0.190172 -0.36794,0.230135 -0.50574,0.09371 -0.13643,-0.135046 -0.13367,-0.399629 0.004,-0.588423 0.40928,-0.55535 0.82131,-1.142394 1.23059,-1.737706 -0.1695,-0.673862 -0.28802,-1.350479 -0.34865,-2.031227" id="path402"></path>
    <path style="fill:#7d0521;fill-opacity:1;fill-rule:nonzero;stroke:none;stroke-width:0.352777" d="m 303.92915,48.484798 c -0.0276,-0.09233 -0.0524,-0.186034 -0.0758,-0.281118 -0.0551,-0.199817 0.0854,-0.472669 0.31557,-0.600827 0.23014,-0.136426 0.4644,-0.07717 0.51814,0.125402 0.0248,0.0937 0.051,0.184658 0.0786,0.274229 0.14332,0.479559 0.78962,2.051899 0.78962,2.051899 0,0 -1.03353,1.668804 -1.5627,2.483224 -0.13918,0.214976 -0.39963,0.293523 -0.58429,0.179144 -0.17914,-0.115753 -0.21359,-0.383091 -0.0758,-0.600822 0.41617,-0.650435 0.82131,-1.28571 1.21819,-1.943033 -0.24942,-0.559486 -0.45613,-1.127238 -0.62149,-1.688098" id="path404"></path>
    <path style="fill:#7d0521;fill-opacity:1;fill-rule:nonzero;stroke:none;stroke-width:0.352777" d="m 307.0504,49.712629 c -0.4203,-0.61047 -0.7841,-1.231966 -1.08175,-1.865862 -0.0923,-0.194303 0.0331,-0.474045 0.27284,-0.629764 0.24805,-0.152961 0.51953,-0.126778 0.61461,0.06614 0.26458,0.548461 1.31878,2.196592 1.31878,2.196592 0,0 -0.94257,1.805231 -1.45796,2.687175 -0.13781,0.235646 -0.42995,0.348644 -0.65182,0.25356 -0.22048,-0.09646 -0.29076,-0.365183 -0.15433,-0.602202 0.39687,-0.687641 0.77583,-1.397333 1.13963,-2.105644" id="path406"></path>
    <path style="fill:#7d0521;fill-opacity:1;fill-rule:nonzero;stroke:none;stroke-width:0.352777" d="m 309.79959,48.964357 c -0.55397,-0.564998 -1.04731,-1.129993 -1.48001,-1.711526 -0.13092,-0.176389 -0.04,-0.465776 0.20808,-0.642165 0.25081,-0.177768 0.56224,-0.179144 0.69591,-0.0014 0.38034,0.497473 1.78042,2.000914 1.78042,2.000914 0,0 -0.79788,1.882399 -1.25125,2.833245 -0.1254,0.256315 -0.43409,0.4079 -0.69453,0.340373 -0.26045,-0.06752 -0.37207,-0.327969 -0.25494,-0.581527 0.35691,-0.756547 0.68902,-1.497931 0.99632,-2.237934" id="path408"></path>
    <path style="fill:#7d0521;fill-opacity:1;fill-rule:nonzero;stroke:none;stroke-width:0.352777" d="m 311.91901,50.237663 c 0.29077,-0.778592 0.54984,-1.543403 0.77446,-2.299946 -0.67248,-0.487825 -1.29811,-1.004591 -1.85622,-1.514464 -0.17225,-0.16123 -0.11713,-0.447862 0.12541,-0.643545 0.23977,-0.195682 0.58291,-0.225996 0.75654,-0.06615 0.49196,0.440972 2.2021,1.526868 2.2021,1.526868 0,0 -0.57602,2.163519 -0.94671,3.143303 -0.0992,0.265962 -0.41617,0.446485 -0.70831,0.407898 -0.28801,-0.03996 -0.44649,-0.288007 -0.34727,-0.553969" id="path410"></path>
    <path style="fill:#7d0521;fill-opacity:1;fill-rule:nonzero;stroke:none;stroke-width:0.352777" d="m 315.54739,49.496279 c -0.3073,-0.01655 -0.50161,-0.24529 -0.42995,-0.514008 0.20257,-0.764812 0.36105,-1.543403 0.48645,-2.29168 -0.7717,-0.423058 -1.49655,-0.841982 -2.18281,-1.303623 -0.20671,-0.139181 -0.19431,-0.417544 0.0358,-0.620116 0.22875,-0.203952 0.58015,-0.259073 0.78823,-0.121268 0.59394,0.388606 2.55213,1.333941 2.55213,1.333941 0,0 -0.29903,2.080839 -0.5581,3.059243 -0.0744,0.268718 -0.38034,0.469911 -0.69178,0.457511" id="path412"></path>
    <path style="fill:#7d0521;fill-opacity:1;fill-rule:nonzero;stroke:none;stroke-width:0.352777" d="m 318.24283,47.51328 c 0.0854,-0.786857 0.14607,-1.515841 0.15434,-2.23242 -0.84749,-0.341754 -1.66605,-0.708311 -2.4281,-1.067979 -0.2384,-0.115757 -0.27286,-0.378961 -0.0758,-0.588423 0.1943,-0.209461 0.55121,-0.286631 0.79099,-0.173633 0.66008,0.30868 2.80844,1.117589 2.80844,1.117589 0,0 -0.01,1.933388 -0.113,2.898013 -0.0303,0.261828 -0.3073,0.483694 -0.62011,0.496094 -0.31282,0.01517 -0.54571,-0.187413 -0.51677,-0.449241" id="path414"></path>
    <path style="fill:#7d0521;fill-opacity:1;fill-rule:nonzero;stroke:none;stroke-width:0.352777" d="m 321.12844,45.859634 c -0.0193,-0.720711 -0.0951,-1.422136 -0.20532,-2.093239 -0.88057,-0.265963 -1.74323,-0.545701 -2.58107,-0.846116 -0.26183,-0.09233 -0.339,-0.33624 -0.17363,-0.544326 0.16398,-0.203948 0.50298,-0.296277 0.76205,-0.203948 0.71521,0.254939 2.96692,0.915018 2.96692,0.915018 0,0 0.29628,1.765268 0.32521,2.669261 0.004,0.249424 -0.23151,0.472666 -0.53467,0.501604 -0.30317,0.0303 -0.55397,-0.148826 -0.55949,-0.398254" id="path416"></path>
    <path style="fill:#7d0521;fill-opacity:1;fill-rule:nonzero;stroke:none;stroke-width:0.352777" d="m 323.64336,44.148111 c -0.14607,-0.679372 -0.32246,-1.318782 -0.54432,-1.925118 -0.88884,-0.203948 -1.76803,-0.41479 -2.62654,-0.635276 -0.27147,-0.07166 -0.39964,-0.289387 -0.27561,-0.489204 0.11713,-0.197058 0.4327,-0.303166 0.70004,-0.23151 0.7345,0.186034 3.02342,0.722094 3.02342,0.722094 0,0 0.54984,1.554427 0.73311,2.39365 0.051,0.230134 -0.13367,0.453376 -0.41065,0.500228 -0.27974,0.0441 -0.54984,-0.103353 -0.59945,-0.334864" id="path418"></path>
    <path style="fill:#7d0521;fill-opacity:1;fill-rule:nonzero;stroke:none;stroke-width:0.352777" d="m 325.69526,42.418675 c -0.13505,-0.347268 -0.28801,-0.689021 -0.45475,-1.018371 -0.12127,-0.242535 -0.25081,-0.47818 -0.38723,-0.711069 -0.85852,-0.136423 -1.71979,-0.285253 -2.58658,-0.445104 -0.27561,-0.05099 -0.43546,-0.245293 -0.35829,-0.434082 0.0772,-0.184658 0.35692,-0.296281 0.62563,-0.242535 0.74001,0.139181 2.97932,0.531922 2.97932,0.531922 0,0 0.42306,0.705555 0.61185,1.079003 0.17225,0.337619 0.32935,0.687641 0.47129,1.047309 0.0841,0.205327 -0.051,0.418923 -0.29766,0.472669 -0.24804,0.05374 -0.51952,-0.06891 -0.60358,-0.279742" id="path420"></path>
    <path style="fill:#7d0521;fill-opacity:1;fill-rule:nonzero;stroke:none;stroke-width:0.352777" d="m 327.27449,40.752625 c -0.339,-0.54846 -0.69729,-1.052819 -1.09003,-1.529623 -0.81717,-0.08819 -1.644,-0.183279 -2.47358,-0.285253 -0.26595,-0.03447 -0.45888,-0.199816 -0.42581,-0.373447 0.0303,-0.170878 0.2701,-0.281121 0.53193,-0.250803 0.71106,0.08957 2.8484,0.345888 2.8484,0.345888 0,0 0.96325,1.200269 1.37942,1.871376 0.007,0.0083 0.01,0.01517 0.0138,0.0248 0.0923,0.176389 0.011,0.358288 -0.18879,0.418923 -0.2136,0.06339 -0.48232,-0.03583 -0.59531,-0.221865" id="path422"></path>
    <path style="fill:#7d0521;fill-opacity:1;fill-rule:nonzero;stroke:none;stroke-width:0.352777" d="m 328.36728,39.163749 c -0.38861,-0.469914 -0.81994,-0.912262 -1.27194,-1.325675 -0.75102,-0.03996 -1.52273,-0.08957 -2.31785,-0.14745 -0.25218,-0.01792 -0.46578,-0.161231 -0.47129,-0.319705 -0.01,-0.155716 0.19154,-0.267339 0.44097,-0.24529 0.68075,0.04961 2.66926,0.190168 2.66926,0.190168 0,0 1.1107,1.037664 1.59852,1.623332 0.0152,0.01792 0.0289,0.03583 0.0386,0.05374 0.0854,0.144695 0.0413,0.296277 -0.11575,0.351398 -0.1819,0.06064 -0.43409,-0.01654 -0.57051,-0.18052" id="path424"></path>
    <path style="fill:#7d0521;fill-opacity:1;fill-rule:nonzero;stroke:none;stroke-width:0.352777" d="m 329.03976,37.697517 c -0.46026,-0.414793 -0.92329,-0.789619 -1.41387,-1.138262 -0.68351,-0.0069 -1.39595,-0.0193 -2.11942,-0.03447 -0.23978,-0.0028 -0.46854,-0.122647 -0.51263,-0.264583 -0.0413,-0.139181 0.11438,-0.245293 0.35002,-0.241159 0.6215,0.01517 2.45153,0.05512 2.45153,0.05512 0,0 1.2044,0.880568 1.76389,1.387686 0.0276,0.02618 0.0537,0.05512 0.0717,0.08268 0.0758,0.114377 0.0634,0.23151 -0.0524,0.286632 -0.1447,0.06614 -0.38585,0.0055 -0.53882,-0.133668" id="path426"></path>
    <path style="fill:#7d0521;fill-opacity:1;fill-rule:nonzero;stroke:none;stroke-width:0.352777" d="m 338.64193,67.408021 c -0.0551,0.197056 -0.21222,0.38309 -0.3514,0.417544 -0.0965,0.02204 -0.15848,-0.03583 -0.1695,-0.140563 -0.003,-0.04685 0.003,-0.101973 0.0165,-0.163983 0.15847,-0.55535 0.48507,-2.313728 0.48507,-2.313728 0,0 0.93431,-0.978406 1.37666,-1.419379 0.113,-0.118512 0.2384,-0.0813 0.27561,0.07855 0.0358,0.157099 -0.0289,0.381717 -0.1447,0.498853 -0.35002,0.356907 -0.70418,0.720709 -1.07211,1.113454 -0.0992,0.650433 -0.23978,1.29811 -0.41617,1.929255" id="path428"></path>
    <path style="fill:#7d0521;fill-opacity:1;fill-rule:nonzero;stroke:none;stroke-width:0.352777" d="m 337.75172,66.995985 c -0.0345,0.205327 -0.19844,0.418925 -0.36243,0.471286 -0.12816,0.04272 -0.2191,-0.01929 -0.23978,-0.14469 -0.004,-0.03996 -0.003,-0.08268 0.005,-0.132291 0.10336,-0.592558 0.23289,-2.414323 0.23289,-2.414323 0,0 1.00735,-1.171332 1.49104,-1.696368 0.12954,-0.139182 0.28525,-0.122643 0.35002,0.03583 0.0634,0.158475 0.0165,0.39963 -0.113,0.540189 -0.37345,0.412036 -0.7593,0.858518 -1.15342,1.321539 -0.0234,0.676616 -0.0923,1.347721 -0.21083,2.018826" id="path430"></path>
    <path style="fill:#7d0521;fill-opacity:1;fill-rule:nonzero;stroke:none;stroke-width:0.352777" d="m 336.49357,66.680416 c -0.011,0.206704 -0.17088,0.439592 -0.35829,0.522272 -0.16399,0.06615 -0.29215,0.0041 -0.32108,-0.14469 -0.007,-0.02755 -0.008,-0.05788 -0.007,-0.09095 0.0289,-0.589802 -0.0813,-2.432241 -0.0813,-2.432241 0,0 1.04731,-1.336696 1.55993,-1.965082 0.13368,-0.16674 0.32384,-0.180522 0.42995,-0.03168 0.0978,0.146071 0.0744,0.399629 -0.0593,0.566372 -0.40514,0.50436 -0.80753,1.007348 -1.21267,1.537891 0.0675,0.68213 0.0813,1.369769 0.0496,2.03812" id="path432"></path>
    <path style="fill:#7d0521;fill-opacity:1;fill-rule:nonzero;stroke:none;stroke-width:0.352777" d="m 334.94052,66.572927 c 0.0152,0.209463 -0.1378,0.463021 -0.34865,0.567751 -0.19292,0.09646 -0.36793,0.03171 -0.41065,-0.137803 -0.003,-0.01791 -0.005,-0.03583 -0.01,-0.05237 -0.0538,-0.596691 -0.44511,-2.412941 -0.44511,-2.412941 0,0 1.05972,-1.517222 1.59301,-2.228289 0.14056,-0.19017 0.36932,-0.230132 0.50575,-0.09233 0.1378,0.135046 0.13366,0.398253 -0.004,0.588422 -0.40791,0.55535 -0.81994,1.141016 -1.23059,1.736328 0.17087,0.67386 0.28938,1.350476 0.35002,2.031228" id="path434"></path>
    <path style="fill:#7d0521;fill-opacity:1;fill-rule:nonzero;stroke:none;stroke-width:0.352777" d="m 333.02091,66.397916 c 0.0275,0.09371 0.0524,0.187412 0.0758,0.2825 0.0537,0.199814 -0.0854,0.472665 -0.31557,0.600822 -0.23151,0.133672 -0.4644,0.07579 -0.51814,-0.126778 -0.0262,-0.09095 -0.051,-0.183282 -0.0786,-0.27423 -0.1447,-0.478182 -0.78962,-2.051897 -0.78962,-2.051897 0,0 1.03215,-1.668806 1.5627,-2.48185 0.13918,-0.214974 0.39825,-0.294899 0.58428,-0.179144 0.17777,0.11438 0.21222,0.383093 0.0744,0.599448 -0.41617,0.650433 -0.81993,1.287084 -1.21818,1.943034 0.24942,0.558104 0.4575,1.127233 0.62287,1.688095" id="path436"></path>
    <path style="fill:#7d0521;fill-opacity:1;fill-rule:nonzero;stroke:none;stroke-width:0.352777" d="m 329.89828,65.171461 c 0.42168,0.610473 0.78548,1.230587 1.08176,1.865863 0.0923,0.192928 -0.0331,0.47267 -0.27285,0.629766 -0.24805,0.154339 -0.51953,0.124021 -0.61323,-0.06753 -0.26596,-0.548455 -1.31741,-2.196592 -1.31741,-2.196592 0,0 0.93983,-1.80385 1.45659,-2.687174 0.1378,-0.235641 0.42857,-0.35002 0.65181,-0.25218 0.21911,0.09508 0.29077,0.365181 0.15434,0.600826 -0.39687,0.689018 -0.77445,1.397328 -1.14101,2.107018" id="path438"></path>
    <path style="fill:#7d0521;fill-opacity:1;fill-rule:nonzero;stroke:none;stroke-width:0.352777" d="m 327.15185,65.918358 c 0.55121,0.564997 1.04455,1.131369 1.47863,1.711524 0.12954,0.177768 0.04,0.464399 -0.20946,0.642165 -0.24942,0.179146 -0.56086,0.181903 -0.69453,0.0028 -0.38034,-0.498854 -1.78043,-2.000914 -1.78043,-2.000914 0,0 0.79651,-1.881021 1.25126,-2.836003 0.12403,-0.254937 0.43409,-0.406519 0.69453,-0.338997 0.26045,0.06752 0.3707,0.329353 0.25356,0.581533 -0.35691,0.756541 -0.68764,1.499306 -0.99356,2.237933" id="path440"></path>
    <path style="fill:#7d0521;fill-opacity:1;fill-rule:nonzero;stroke:none;stroke-width:0.352777" d="m 325.02967,64.643675 c -0.28939,0.781346 -0.54846,1.546156 -0.77446,2.301325 0.67386,0.487823 1.29949,1.004586 1.8576,1.51584 0.17087,0.159853 0.11851,0.445106 -0.12541,0.640789 -0.23977,0.197057 -0.5829,0.227375 -0.75792,0.06752 -0.49196,-0.440973 -2.20072,-1.524111 -2.20072,-1.524111 0,0 0.57464,-2.164898 0.94533,-3.14606 0.0992,-0.26734 0.41617,-0.446485 0.70969,-0.406522 0.28663,0.04134 0.44511,0.286634 0.34589,0.551217" id="path442"></path>
    <path style="fill:#7d0521;fill-opacity:1;fill-rule:nonzero;stroke:none;stroke-width:0.352777" d="m 321.40129,65.389192 c 0.30869,0.01378 0.50299,0.243914 0.42995,0.509873 -0.20257,0.767567 -0.36105,1.546159 -0.48645,2.294435 0.77446,0.421679 1.49793,0.840602 2.18281,1.302245 0.20809,0.139184 0.19569,0.417546 -0.0358,0.621495 -0.22737,0.202573 -0.58015,0.256318 -0.78823,0.119891 -0.59394,-0.38861 -2.55075,-1.332564 -2.55075,-1.332564 0,0 0.29765,-2.080836 0.55811,-3.060623 0.0744,-0.267337 0.38033,-0.46991 0.69039,-0.454752" id="path444"></path>
    <path style="fill:#7d0521;fill-opacity:1;fill-rule:nonzero;stroke:none;stroke-width:0.352777" d="m 318.70585,67.370812 c -0.0854,0.785482 -0.14607,1.515841 -0.15296,2.231044 0.84887,0.341754 1.66605,0.709686 2.4281,1.069358 0.23702,0.114374 0.27147,0.376203 0.0758,0.58842 -0.1943,0.208085 -0.55121,0.286631 -0.79237,0.173633 -0.6587,-0.311436 -2.80844,-1.117589 -2.80844,-1.117589 0,0 0.011,-1.933387 0.11575,-2.899392 0.0289,-0.259069 0.30455,-0.482311 0.61736,-0.494715 0.31557,-0.01654 0.54708,0.186034 0.51676,0.449241" id="path446"></path>
    <path style="fill:#7d0521;fill-opacity:1;fill-rule:nonzero;stroke:none;stroke-width:0.352777" d="m 315.82162,69.024458 c 0.0207,0.719336 0.0937,1.422136 0.20395,2.090484 0.88194,0.267337 1.74321,0.54846 2.58106,0.847492 0.26183,0.09233 0.34038,0.338997 0.17639,0.542946 -0.16536,0.208087 -0.50436,0.299035 -0.76343,0.208087 -0.7152,-0.256315 -2.96554,-0.916398 -2.96554,-0.916398 0,0 -0.29766,-1.765265 -0.32797,-2.672016 -0.004,-0.248045 0.23289,-0.471287 0.53468,-0.501605 0.30316,-0.02755 0.55535,0.150206 0.56086,0.40101" id="path448"></path>
    <path style="fill:#7d0521;fill-opacity:1;fill-rule:nonzero;stroke:none;stroke-width:0.352777" d="m 313.30532,70.7346 c 0.14607,0.682133 0.32384,1.318784 0.54571,1.9265 0.88745,0.205328 1.76664,0.414788 2.62654,0.6339 0.27147,0.07165 0.39962,0.290761 0.2756,0.489199 -0.11851,0.198437 -0.43133,0.30317 -0.70142,0.232891 -0.73449,-0.187415 -3.02342,-0.72209 -3.02342,-0.72209 0,0 -0.54846,-1.554427 -0.73173,-2.393654 -0.0524,-0.230132 0.13229,-0.453377 0.41065,-0.498851 0.27974,-0.04686 0.54984,0.100595 0.59807,0.332105" id="path450"></path>
    <path style="fill:#7d0521;fill-opacity:1;fill-rule:nonzero;stroke:none;stroke-width:0.352777" d="m 311.25342,72.465417 c 0.13642,0.347269 0.28939,0.687642 0.45476,1.018371 0.12264,0.242536 0.25218,0.478179 0.38722,0.709689 0.85852,0.137806 1.72117,0.285253 2.58796,0.446487 0.27423,0.04961 0.43408,0.243912 0.35829,0.434078 -0.0772,0.183282 -0.35691,0.294902 -0.62701,0.24116 -0.74,-0.136427 -2.97794,-0.531921 -2.97794,-0.531921 0,0 -0.42306,-0.704181 -0.61185,-1.079008 -0.17225,-0.337619 -0.33073,-0.687641 -0.47266,-1.045929 -0.0827,-0.206706 0.051,-0.420302 0.29765,-0.474044 0.24942,-0.05237 0.5209,0.07028 0.60358,0.281117" id="path452"></path>
    <path style="fill:#7d0521;fill-opacity:1;fill-rule:nonzero;stroke:none;stroke-width:0.352777" d="m 309.67557,74.130088 c 0.339,0.54846 0.69729,1.051444 1.09002,1.531001 0.81718,0.08681 1.64401,0.181901 2.47221,0.283874 0.26596,0.03305 0.45888,0.199816 0.42719,0.373449 -0.0303,0.172254 -0.2701,0.283877 -0.5333,0.25218 -0.7097,-0.09095 -2.84841,-0.345887 -2.84841,-0.345887 0,0 -0.96324,-1.200269 -1.37941,-1.872753 -0.007,-0.0083 -0.01,-0.01516 -0.0124,-0.02479 -0.0923,-0.175014 -0.0124,-0.358291 0.18741,-0.418923 0.21498,-0.06201 0.48369,0.03721 0.59669,0.221861" id="path454"></path>
    <path style="fill:#7d0521;fill-opacity:1;fill-rule:nonzero;stroke:none;stroke-width:0.352777" d="m 308.58278,75.718967 c 0.38861,0.46991 0.81994,0.913638 1.27055,1.325671 0.75104,0.04134 1.52274,0.08957 2.31924,0.147449 0.25356,0.01791 0.46578,0.161232 0.47267,0.319707 0.007,0.157094 -0.19293,0.267338 -0.44097,0.246668 -0.68213,-0.05237 -2.67202,-0.191547 -2.67202,-0.191547 0,0 -1.10932,-1.037664 -1.59715,-1.623328 -0.0152,-0.01791 -0.0289,-0.03447 -0.04,-0.05374 -0.0854,-0.143317 -0.04,-0.2949 0.11714,-0.351399 0.1819,-0.05926 0.43408,0.01929 0.57051,0.180523" id="path456"></path>
    <path style="fill:#7d0521;fill-opacity:1;fill-rule:nonzero;stroke:none;stroke-width:0.352777" d="m 307.9103,77.186579 c 0.45889,0.414787 0.92329,0.789614 1.41249,1.135502 0.68351,0.0083 1.39733,0.02066 2.1208,0.03721 0.23978,0.0028 0.46716,0.122645 0.51125,0.264584 0.0413,0.137805 -0.113,0.245292 -0.34726,0.239778 -0.62288,-0.01516 -2.45291,-0.05512 -2.45291,-0.05512 0,0 -1.20441,-0.87919 -1.76389,-1.387684 -0.0289,-0.02755 -0.0537,-0.05512 -0.073,-0.07993 -0.0758,-0.117136 -0.0606,-0.23427 0.0537,-0.288012 0.14332,-0.06477 0.38585,-0.0069 0.53881,0.133673" id="path458"></path>
    <path style="fill:#570514;fill-opacity:1;fill-rule:nonzero;stroke:none;stroke-width:0.352777" d="m 355.25969,45.768684 -0.062,0.0055 -2.99034,3.316937 -0.51125,-2.997232 -7.4731,0.687642 -0.40239,0.832333 c -0.61874,-0.374826 -1.37804,-0.571884 -2.20624,-0.571884 -0.16537,0 -0.33349,0.0096 -0.49885,0.02342 l -4.70462,0.431327 c -1.51584,0.140561 -3.22737,0.920528 -4.60817,2.091865 -0.7717,-0.975654 -2.10288,-1.475883 -3.60494,-1.336701 l -4.706,0.431327 0.001,-0.0014 -26.2034,2.408813 2.91455,-3.228743 -13.12857,1.20716 -0.76205,1.572341 -7.52271,0.68902 -3.36239,6.914998 1.55994,-0.141936 -5.49967,11.270965 8.52317,-0.781347 1.72806,-3.541559 2.08221,6.146049 8.00503,-0.734494 -0.96876,-2.86494 2.96002,-0.271473 3.70279,-7.58748 -0.36242,7.278801 6.84747,-0.628385 0.073,-0.0069 1.07349,-1.586124 -0.073,1.492414 6.84472,-0.628385 0.073,-0.0055 1.65089,-2.43775 c 0.0496,0.101974 0.10336,0.199816 0.16261,0.2949 0.74139,1.185111 2.10289,1.780423 3.80752,1.624708 l 4.67155,-0.425818 c 1.53238,-0.141935 3.25492,-0.92466 4.6371,-2.102882 0.68902,0.886079 1.77767,1.36977 3.09369,1.36977 0.16675,0 0.339,-0.0083 0.51539,-0.02479 l 4.67155,-0.428572 c 0.93155,-0.08543 1.91134,-0.391361 2.8553,-0.886079 l -0.31833,0.654569 8.52316,-0.782725 0.46991,-0.959115 0.50575,2.962783 2.05741,-2.280653 7.59023,-0.698664 8.1318,-16.66186 z m 0,0" id="path460"></path>
    <path style="fill:#eb008a;fill-opacity:1;fill-rule:nonzero;stroke:none;stroke-width:0.352777" d="m 285.56403,54.420008 0.99219,-0.09233 -2.07395,2.298571 z m 2.93109,9.356882 -1.20027,-3.544316 6.38307,-7.07485 z m 36.50837,-10.021094 -2.51079,5.14559 -1.67983,0.154342 2.50941,-5.145593 z m 12.91772,-1.185117 -2.51216,5.146977 -1.67845,0.152961 2.50941,-5.145596 z m 17.86765,-6.031669 -0.0593,0.0069 -4.22782,4.683951 -0.7221,-4.231955 -5.83461,0.537433 -0.82544,1.703257 c -0.0386,-0.08681 -0.0841,-0.170879 -0.13505,-0.250804 -0.45475,-0.72898 -1.2926,-1.131369 -2.35644,-1.131369 -0.1323,0 -0.27286,0.0069 -0.41204,0.0193 l -4.70462,0.432703 c -1.80247,0.163985 -3.83233,1.36426 -5.09737,2.971054 -0.0262,-0.407901 -0.14193,-0.777217 -0.34726,-1.106567 -0.45476,-0.728983 -1.2926,-1.129993 -2.3592,-1.129993 -0.13229,0 -0.27148,0.0069 -0.40928,0.01792 l -4.706,0.434082 c -0.9095,0.08268 -1.9265,0.447861 -2.87459,1.023883 l 0.54984,-0.811667 -6.13089,0.56362 -2.9931,4.419367 0.20808,-4.165809 -5.13457,0.474046 -2.99172,4.416611 0.20671,-4.163052 -9.85435,0.908126 2.91455,-3.22874 -9.6945,0.891588 -0.76481,1.570961 -7.52271,0.689023 -2.2338,4.597135 1.56407,-0.141938 -5.49975,11.269596 5.95175,-0.545705 2.63205,-5.395019 2.66237,7.864465 5.74642,-0.529167 -0.97152,-2.86494 3.73586,-0.341754 4.75699,-9.744107 0.93431,-0.08819 -0.4644,9.349986 5.13319,-0.471289 2.99035,-4.415234 -0.20395,4.157543 5.13181,-0.469913 4.24022,-6.261806 -0.78823,1.617818 c -0.54708,1.121723 -0.57602,2.175923 -0.0799,2.968292 0.45613,0.728985 1.2926,1.13275 2.35369,1.13275 0.13505,0 0.27423,-0.0083 0.41479,-0.02066 l 4.67292,-0.428572 c 1.82728,-0.16674 3.87229,-1.373902 5.13044,-2.990342 0.0234,0.413414 0.13918,0.789617 0.34727,1.121725 0.51263,0.821309 1.50757,1.227833 2.76847,1.112075 l 4.67156,-0.428569 c 2.25033,-0.206706 4.81073,-2.006423 5.8291,-4.096906 l 2.93522,-6.01376 0.48093,-0.0441 -4.75561,9.742731 5.95175,-0.544325 1.7005,-3.478167 0.69867,4.092773 3.83645,-4.251248 -1.56407,3.208073 5.95175,-0.547082 6.99905,-14.341244 z m 0,0" id="path462"></path>
    <path style="fill:#ffffff;fill-opacity:1;fill-rule:nonzero;stroke:none;stroke-width:0.352777" d="m 295.68572,49.835277 -7.40833,0.682127 -1.48277,3.050977 1.56683,-0.141939 -6.19428,6.864007 2.93109,8.654081 4.24022,-0.388607 -2.87872,-8.495604 z m 0,0" id="path464"></path>
    <path style="fill:#ffffff;fill-opacity:1;fill-rule:nonzero;stroke:none;stroke-width:0.352777" d="m 356.08238,47.251455 -5.04913,5.596211 -0.86265,-5.05602 -4.74596,0.436838 -1.47451,3.052352 1.63573,-0.15434 -4.75561,9.748242 4.23885,-0.389982 2.52319,-5.152485 0.82544,4.845179 6.31555,-6.997679 -3.27973,6.719316 4.23884,-0.388604 6.24527,-12.796464 z m 0,0" id="path466"></path>
    <path style="fill:#ffffff;fill-opacity:1;fill-rule:nonzero;stroke:none;stroke-width:0.352777" d="m 294.62464,52.89314 -6.2439,12.796465 4.23885,-0.388607 6.24664,-12.79784 z m 0,0" id="path468"></path>
    <path style="fill:#ffffff;fill-opacity:1;fill-rule:nonzero;stroke:none;stroke-width:0.352777" d="m 279.98987,52.778766 -1.48277,3.050974 1.56683,-0.141936 -5.49975,11.268218 4.23884,-0.387228 6.98941,-14.32333 z m 0,0" id="path470"></path>
    <path style="fill:#ffffff;fill-opacity:1;fill-rule:nonzero;stroke:none;stroke-width:0.352777" d="m 322.97226,59.595917 -3.39273,0.311441 3.26457,-6.691754 3.39135,-0.31006 z m 5.39364,-9.801981 -4.706,0.431323 c -1.87689,0.172257 -4.05419,1.656403 -5.05602,3.378952 l -3.11575,6.388581 c -0.90399,1.853465 -0.0248,3.209454 1.96095,3.026175 l 4.67293,-0.42857 c 1.98851,-0.183282 4.33255,-1.832792 5.23654,-3.686251 l 2.9683,-6.084041 c 0.90537,-1.854838 0.0276,-3.208073 -1.96095,-3.026169" id="path472"></path>
    <path style="fill:#ffffff;fill-opacity:1;fill-rule:nonzero;stroke:none;stroke-width:0.352777" d="m 335.88861,58.410806 -3.39273,0.311436 3.26595,-6.690373 3.39135,-0.311436 z m 5.39502,-9.803362 -4.706,0.432704 c -1.87551,0.172254 -4.05419,1.655025 -5.05602,3.378946 l -3.11575,6.389968 c -0.90399,1.852084 -0.0248,3.205314 1.96233,3.024791 l 4.67155,-0.428569 c 1.98713,-0.18328 4.33255,-1.83279 5.23654,-3.686252 l 2.9683,-6.085417 c 0.90537,-1.853459 0.0276,-3.208073 -1.96095,-3.026171" id="path474"></path>
    <path style="fill:#ffffff;fill-opacity:1;fill-rule:nonzero;stroke:none;stroke-width:0.352777" d="m 315.55014,50.970781 -4.27054,6.305902 0.29628,-5.9421 -3.94532,0.362421 -4.26916,6.305905 0.2949,-5.940722 -4.24987,0.394116 -1.48415,3.050976 1.644,-0.152961 -0.4644,9.348613 3.94257,-0.361048 4.2664,-6.301769 -0.29076,5.937967 3.94394,-0.363802 8.82496,-13.033483 z m 0,0" id="path476"></path>
    <path style="fill:#d1d1d1;fill-opacity:1;fill-rule:nonzero;stroke:none;stroke-width:0.352777" d="m 280.07393,55.687804 2.86494,-1.721172 -3.68901,0.337619 -0.74276,1.525489 z m 0,0" id="path478"></path>
    <path style="fill:#d1d1d1;fill-opacity:1;fill-rule:nonzero;stroke:none;stroke-width:0.352777" d="m 288.36145,53.426442 3.76067,-1.796962 -4.58611,0.413414 -0.74139,1.525487 z m 0,0" id="path480"></path>
    <path style="fill:#d1d1d1;fill-opacity:1;fill-rule:nonzero;stroke:none;stroke-width:0.352777" d="m 295.68572,49.835277 -3.5636,1.794203 -7.78179,8.625141 2.87873,8.496986 -2.1208,0.192923 4.24022,-0.388607 -2.87872,-8.495604 z m 0,0" id="path482"></path>
    <path style="fill:#d1d1d1;fill-opacity:1;fill-rule:nonzero;stroke:none;stroke-width:0.352777" d="m 347.06726,52.266133 -3.37344,6.890192 -2.86357,1.718413 4.23885,-0.389982 2.52319,-5.152485 z m 0,0" id="path484"></path>
    <path style="fill:#d1d1d1;fill-opacity:1;fill-rule:nonzero;stroke:none;stroke-width:0.352777" d="m 349.22251,54.855468 1.81074,-2.007802 -0.86265,-5.05602 -1.91685,1.394573 z m 0,0" id="path486"></path>
    <path style="fill:#d1d1d1;fill-opacity:1;fill-rule:nonzero;stroke:none;stroke-width:0.352777" d="m 359.07272,48.43519 -4.75423,9.745487 -2.86494,1.719792 4.23884,-0.389986 6.24527,-12.796464 z m 0,0" id="path488"></path>
    <path style="fill:#d1d1d1;fill-opacity:1;fill-rule:nonzero;stroke:none;stroke-width:0.352777" d="m 357.0222,48.487553 -7.32978,8.118022 -1.27469,3.571875 6.31555,-6.997679 z m 0,0" id="path490"></path>
    <path style="fill:#d1d1d1;fill-opacity:1;fill-rule:nonzero;stroke:none;stroke-width:0.352777" d="m 295.99165,54.243619 -4.7501,9.731708 -2.86081,1.714278 4.23885,-0.388607 6.24664,-12.79784 z m 0,0" id="path492"></path>
    <path style="fill:#d1d1d1;fill-opacity:1;fill-rule:nonzero;stroke:none;stroke-width:0.352777" d="m 282.93887,53.966632 -5.49975,11.266842 -2.86494,1.722548 4.23884,-0.387228 6.98941,-14.32333 z m 0,0" id="path494"></path>
    <path style="fill:#d1d1d1;fill-opacity:1;fill-rule:nonzero;stroke:none;stroke-width:0.352777" d="m 309.0017,60.640471 2.2779,-3.363788 0.29628,-5.9421 -2.19521,1.66329 z m 0,0" id="path496"></path>
    <path style="fill:#d1d1d1;fill-opacity:1;fill-rule:nonzero;stroke:none;stroke-width:0.352777" d="m 307.46519,54.874761 -5.49148,8.111133 -2.87183,1.717037 3.94257,-0.361048 4.2664,-6.301769 z m 0,0" id="path498"></path>
    <path style="fill:#d1d1d1;fill-opacity:1;fill-rule:nonzero;stroke:none;stroke-width:0.352777" d="m 316.61537,52.332279 -6.72207,9.927389 -2.87321,1.717035 3.94394,-0.362424 8.82496,-13.033483 z m 0,0" id="path500"></path>
    <path style="fill:#d1d1d1;fill-opacity:1;fill-rule:nonzero;stroke:none;stroke-width:0.352777" d="m 299.56628,55.354318 1.89756,-1.630219 -2.7988,0.254936 -0.74276,1.528244 z m 0,0" id="path502"></path>
    <path style="fill:#d1d1d1;fill-opacity:1;fill-rule:nonzero;stroke:none;stroke-width:0.352777" d="m 345.58586,51.126496 2.66789,-1.940277 -3.4644,0.318329 -0.84749,1.776288 z m 0,0" id="path504"></path>
    <path style="fill:#d1d1d1;fill-opacity:1;fill-rule:nonzero;stroke:none;stroke-width:0.352777" d="m 301.08212,61.366699 2.27928,-3.36379 0.2949,-5.940722 -2.19246,1.661912 z m 0,0" id="path506"></path>
    <path style="fill:#d1d1d1;fill-opacity:1;fill-rule:nonzero;stroke:none;stroke-width:0.352777" d="m 323.58686,51.692871 -2.86356,1.717035 -4.01147,8.222753 2.8677,-1.723925 3.26457,-6.69313 3.39135,-0.31006 2.86356,-1.718413 z m 0,0" id="path508"></path>
    <path style="fill:#d1d1d1;fill-opacity:1;fill-rule:nonzero;stroke:none;stroke-width:0.352777" d="m 330.35303,50.434719 -1.25402,0.752412 -4.01422,8.225509 -2.84703,1.714281 -5.52593,0.505738 -1.24437,0.751033 c 0.37758,0.472665 1.05971,0.720714 1.98162,0.635275 l 4.67293,-0.42857 c 0.0965,-0.0083 0.19706,-0.02479 0.29628,-0.03997 1.91823,-0.308681 4.08037,-1.883778 4.94026,-3.646286 l 2.9683,-6.084036 c 0.48369,-0.992188 0.45751,-1.838301 0.0262,-2.385386" id="path510"></path>
    <path style="fill:#d1d1d1;fill-opacity:1;fill-rule:nonzero;stroke:none;stroke-width:0.352777" d="m 336.50597,50.50776 -2.86356,1.717032 -4.01147,8.222756 2.86494,-1.725306 3.26595,-6.690373 3.39135,-0.311436 2.86495,-1.719792 z m 0,0" id="path512"></path>
    <path style="fill:#d1d1d1;fill-opacity:1;fill-rule:nonzero;stroke:none;stroke-width:0.352777" d="m 343.27214,49.249609 -1.25401,0.752408 -4.01561,8.225512 -2.84565,1.714278 -5.52593,0.505741 -1.24437,0.75103 c 0.37758,0.472667 1.05971,0.717957 1.98162,0.635275 l 4.67155,-0.428569 c 0.0978,-0.0083 0.19706,-0.02479 0.29627,-0.03996 1.91823,-0.3073 4.08038,-1.883778 4.94027,-3.646289 l 2.9683,-6.085417 c 0.48507,-0.990809 0.4575,-1.838304 0.0276,-2.384006" id="path514"></path>
  </g>
</svg>
