


<svg version="1.1" id="Layer_1" xmlns="http://www.w3.org/2000/svg" xmlns:xlink="http://www.w3.org/1999/xlink" x="0px" y="0px" width="181.607px" height="164.419px" viewBox="0 0 181.607 164.419" enable-background="new 0 0 181.607 164.419" xml:space="preserve">
<g>
	<path fill="#E2E3E4" d="M163.989,95.142l17.618-29.33h-28.994c2.449-8.487,5.899-16.484,10.538-23.441
		c-25.739-0.817-53.165-6.999-72.347-26.271C71.621,35.372,44.196,41.554,18.456,42.371c4.639,6.957,8.089,14.954,10.539,23.441H0
		l17.619,29.33L5.776,118.266h27.162c-0.643,5.839-1.617,11.384-2.868,16.44c0,0,35.183,6.531,60.734,29.713
		c25.55-23.182,60.734-29.713,60.734-29.713c-1.251-5.057-2.226-10.602-2.87-16.44h27.163L163.989,95.142z"></path>
	<path d="M157.066,95.142l11.576-22.381h-27.886c1.562-8.625,4.021-16.648,7.583-23.127c-18.003-0.192-45.535-8.059-57.535-21.103
		c-12,13.044-39.531,20.911-57.535,21.103c3.561,6.479,6.02,14.502,7.582,23.127H12.965l11.577,22.381l-10.105,18.846h27.905
		c-0.563,6.051-1.445,11.641-2.57,16.391c0,0,25.251,5.703,51.032,28.283c25.781-22.58,51.032-28.283,51.032-28.283
		c-1.126-4.75-2.008-10.34-2.57-16.391h27.904L157.066,95.142z"></path>
	<path fill="#E2E3E4" d="M90.804,131.569c-9.784,0.006-18.217,5.77-22.104,14.083l22.104,14.819l22.104-14.819
		C109.02,137.339,100.587,131.575,90.804,131.569"></path>
	<path fill="#FFFFFF" d="M53.219,107.97l-10.94-12.557l9.393-10.377h-6.803l-7.447,8.088V77.88h-8.89
		c1.68,1.418,3.107,3.298,3.107,5.832v24.258h5.783v-9.707l8.588,9.707H53.219z"></path>
	<path fill="#FFFFFF" d="M128.147,85.036v22.934h-5.782V90.869c0-2.533-1.428-4.412-3.109-5.833H128.147z"></path>
	<polygon fill="#FFFFFF" points="152.429,103.136 155.196,107.97 132.454,107.97 144.142,89.869 133.228,89.869 133.228,85.036 
		154.7,85.036 142.025,103.136 	"></polygon>
	<path fill="#FFFFFF" d="M64.155,101.354V89.869h4.061l2.769-4.833h-6.83V77.88l-5.781,3.309v3.848h-4.26v4.833h4.26v11.8
		c0,3.479,2.82,6.301,6.3,6.301h4.585v-4.834h-3.322C64.952,103.136,64.155,102.338,64.155,101.354"></path>
	<path fill="#FFFFFF" d="M110.449,85.036l-5.737,12.08l-6.667-12.682l-6.671,12.684l-5.735-12.082h-8.997
		c2.043,1.148,4.365,3.082,5.762,5.918s8.69,17.566,8.69,17.566l6.95-13.276l6.949,13.276l11.669-23.484H110.449z"></path>
	<path fill="#E2E3E4" d="M131.159,59.501c-6.704-3.351-9.58-6.542-9.58-6.542C113.492,4.988,55.893-6.739,30.166,3.327
		c16.357,4.203,30.947,10.242,40.852,21.086c-13.705-3.467-32.542-4.244-43.573-0.834c13.802,1.798,34.562,11.162,47.175,28.965
		c9.776,13.8,15.205,19.688,26.002,25.686c6.867-2.641,12.745-9.154,14.667-13.905C120.91,64.573,127.801,62.195,131.159,59.501"></path>
	<path fill="#ED1B23" d="M127.53,59.637c-26.607-5.382-28.299-33.374-71.979-33.374c24.464,13.438,24.733,36.7,45.416,48.566
		c0,0,2.344-2.459,4.595-7.845l3.858,0.914c0.712-4.773-0.167-9.571-0.167-9.571C111.925,59.401,119.902,62.096,127.53,59.637"></path>
	<path d="M78.588,26.485c16.618,5.177,29.377,13.898,37.073,21.504C109.404,16.705,70.499-2.768,37.384,3.161
		C37.384,3.161,63.182,6.837,78.588,26.485"></path>
	<path fill="#FFFFFF" d="M96.237,58.973c-0.523-4.048-3.392-8.655-7.477-12.005c4.404,1.55,8.216,0.804,9.937-1.95
		c0.523,4.049,3.392,8.655,7.477,12.005C101.771,55.472,97.958,56.221,96.237,58.973"></path>
	<path fill="#E2E3E4" d="M116.7,114.634c-1.226,0-2.228,0.469-2.871,1.281l-0.315-1.071h-3.067c0.64,0.54,1.182,1.255,1.182,2.221
		v6.507h2.2v-5.246c0.252-0.814,1.271-1.797,2.291-1.797c1.164,0,1.735,1.053,1.735,2.309v4.734h2.199v-4.985
		C120.054,115.822,118.298,114.634,116.7,114.634"></path>
	<path fill="#E2E3E4" d="M78.657,119.552c0,1.443-0.611,2.371-1.896,2.371s-1.897-0.928-1.897-2.371v-4.725H71.48
		c0.639,0.543,1.183,1.258,1.183,2.223v2.879h0.013c0,3.034,2.596,3.852,4.085,3.852c1.487,0,4.085-0.817,4.085-3.852v-5.102h-2.189
		V119.552z"></path>
	<path fill="#E2E3E4" d="M95.347,114.844l-2.182,4.664l-2.538-4.962l-2.538,4.964l-2.183-4.666h-3.424
		c0.778,0.438,1.661,1.173,2.193,2.253c0.531,1.078,3.307,6.818,3.307,6.818l2.644-5.255l2.645,5.255l4.441-9.071H95.347z"></path>
	<path fill="#E2E3E4" d="M103.943,114.591c-2.694,0-4.831,1.912-4.831,4.616c0,2.703,2.137,4.616,4.831,4.616
		c2.695,0,4.83-1.913,4.83-4.616C108.773,116.503,106.638,114.591,103.943,114.591 M103.943,122.05c-1.386,0-2.51-1.192-2.51-2.843
		c0-1.647,1.124-2.843,2.51-2.843c1.386,0,2.51,1.195,2.51,2.843C106.453,120.857,105.329,122.05,103.943,122.05"></path>
	<path fill="#E2E3E4" d="M65.279,122.052c-1.355,0-2.542-0.949-2.618-1.617l-1.109,2.285c0.739,0.641,2.102,1.066,3.8,1.066
		c2.642,0,4.211-1.153,4.211-2.74c-0.024-1.299-0.785-2.109-2.96-2.686c-1.532-0.398-2.416-0.554-2.416-1.112
		c0-0.62,0.766-0.946,1.748-0.946c0.826,0,1.609,0.196,2.317,0.666l0.859-1.536c-0.52-0.431-2.107-0.805-3.152-0.805
		c-2.555,0-4.121,1.271-4.121,2.821c-0.024,1.028,0.712,1.902,3.059,2.499c1.484,0.378,2.309,0.558,2.309,1.153
		C67.207,121.748,66.412,122.052,65.279,122.052"></path>
	<path fill="#ED1B23" d="M102.941,145.724c-0.393-0.352-0.558-1.262-0.345-1.98l0.003-0.007c0,0-0.001,0.001-0.002,0.001
		l-0.001,0.002c-0.319,0.4-0.884,0.645-1.264,0.635c-0.312-0.008-2.321-0.035-2.321-0.035c-0.334-0.004-0.609,0.262-0.613,0.596
		c-0.005,0.334,0.261,0.608,0.594,0.613c0,0,1.778,0.033,2.059,0.03c0.334,0,0.773-0.19,0.992-0.458l0.123-0.309
		c-0.083,0.215-0.162,0.432-0.241,0.648c-0.118,0.564,0.018,0.877,0.451,1.245c0.458,0.399,1.153,1,1.153,1h0.001
		c0.232,0.2,0.583,0.175,0.783-0.058c0.2-0.231,0.175-0.581-0.058-0.783C104.255,146.864,103.155,145.915,102.941,145.724"></path>
	<path fill="#ED1B23" d="M104.347,142.445c-0.35-0.394-0.412-1.317-0.119-2.007l0.004-0.007c0,0-0.002,0.001-0.003,0.002
		l-0.001,0.001c-0.362,0.363-0.951,0.539-1.327,0.486c-0.308-0.041-2.303-0.296-2.303-0.296c-0.331-0.043-0.633,0.191-0.676,0.522
		c-0.042,0.331,0.191,0.634,0.522,0.677c0,0,1.762,0.233,2.042,0.264c0.331,0.037,0.79-0.103,1.036-0.343l0.158-0.294
		c-0.104,0.2-0.204,0.401-0.304,0.601c-0.194,0.531-0.087,0.887,0.299,1.304c0.411,0.448,1.033,1.124,1.033,1.124h0.001
		c0.207,0.226,0.558,0.24,0.784,0.032c0.225-0.208,0.239-0.558,0.032-0.784C105.525,143.728,104.538,142.659,104.347,142.445"></path>
	<path fill="#ED1B23" d="M100.061,154.456c-0.167,0.483-0.62,0.901-0.98,1.021c-0.296,0.096-2.201,0.739-2.201,0.739
		c-0.315,0.107-0.486,0.449-0.379,0.766s0.449,0.486,0.765,0.38c0,0,1.688-0.562,1.952-0.655c0.314-0.113,0.747-0.459,0.781-0.763
		l0.063-1.483v-0.006L100.061,154.456z"></path>
	<path fill="#ED1B23" d="M107.139,140.753c0,0-0.859-1.172-1.025-1.406c-0.304-0.432-0.26-1.355,0.109-2.008l0.004-0.008
		l-0.002,0.002l-0.001,0.002c-0.4,0.319-1.006,0.428-1.375,0.334c-0.302-0.077-2.254-0.555-2.254-0.555
		c-0.323-0.08-0.651,0.117-0.73,0.441c-0.08,0.324,0.117,0.652,0.441,0.731c0,0,1.726,0.432,1.999,0.493
		c0.326,0.074,0.797-0.014,1.069-0.224l0.189-0.271c-0.124,0.185-0.245,0.369-0.365,0.554c-0.242,0.48-0.189,0.878,0.146,1.336
		c0.357,0.491,0.899,1.233,0.899,1.233c0.181,0.248,0.529,0.302,0.776,0.121S107.321,141.001,107.139,140.753"></path>
	<path fill="#ED1B23" d="M102.819,153.469c0,0-1.288-0.679-1.538-0.817c-0.462-0.254-0.828-1.104-0.781-1.852l0.001-0.008
		l-0.001,0.001v0.001l-0.001,0.002c-0.22,0.462-0.718,0.826-1.089,0.902c-0.305,0.062-2.269,0.486-2.269,0.486
		c-0.326,0.07-0.535,0.393-0.465,0.719c0.071,0.326,0.392,0.533,0.718,0.463v0.001c0,0,1.74-0.368,2.013-0.432
		c0.325-0.076,0.711-0.361,0.862-0.669l0.052-0.333c-0.032,0.224-0.059,0.448-0.087,0.671c0.019,0.556,0.214,0.865,0.716,1.131
		c0.537,0.285,1.349,0.714,1.349,0.714c0.271,0.144,0.607,0.041,0.751-0.23C103.193,153.948,103.09,153.612,102.819,153.469"></path>
	<path fill="#ED1B23" d="M101.915,149.142c-0.431-0.306-0.696-1.191-0.566-1.93l0.002-0.009l-0.002,0.003l-0.001,0.002
		c-0.272,0.436-0.807,0.739-1.185,0.773c-0.31,0.028-2.31,0.229-2.31,0.229c-0.332,0.033-0.574,0.328-0.542,0.66
		c0.033,0.332,0.329,0.574,0.661,0.541h0.001c0,0,1.769-0.168,2.048-0.2c0.331-0.039,0.747-0.278,0.933-0.567l0.088-0.322
		c-0.057,0.221-0.11,0.443-0.164,0.664c-0.061,0.527,0.117,0.875,0.586,1.194c0.502,0.344,1.26,0.862,1.26,0.862
		c0.252,0.174,0.599,0.108,0.772-0.145c0.172-0.253,0.107-0.599-0.145-0.771C103.351,150.126,102.148,149.307,101.915,149.142"></path>
	<path fill="#ED1B23" d="M78.665,145.724c0.393-0.352,0.558-1.262,0.345-1.98l-0.003-0.007c0,0,0.001,0.001,0.002,0.001l0.001,0.002
		c0.319,0.4,0.884,0.645,1.264,0.635c0.312-0.008,2.321-0.035,2.321-0.035c0.334-0.004,0.609,0.262,0.613,0.596
		c0.005,0.334-0.261,0.608-0.594,0.613c0,0-1.778,0.033-2.059,0.03c-0.334,0-0.773-0.19-0.992-0.458l-0.123-0.309
		c0.082,0.215,0.162,0.432,0.24,0.648c0.12,0.564-0.017,0.877-0.45,1.245c-0.458,0.399-1.153,1-1.153,1h-0.001
		c-0.231,0.2-0.583,0.175-0.783-0.058c-0.2-0.231-0.175-0.581,0.058-0.783C77.351,146.864,78.451,145.915,78.665,145.724"></path>
	<path fill="#ED1B23" d="M77.259,142.445c0.351-0.394,0.412-1.317,0.119-2.007l-0.004-0.007c0.001,0,0.002,0.001,0.003,0.002v0.001
		c0.363,0.363,0.952,0.539,1.329,0.486c0.308-0.041,2.302-0.296,2.302-0.296c0.331-0.043,0.634,0.191,0.677,0.522
		c0.041,0.331-0.191,0.634-0.523,0.677c0,0-1.762,0.233-2.043,0.264c-0.33,0.037-0.789-0.103-1.035-0.343l-0.158-0.294
		c0.104,0.2,0.204,0.401,0.305,0.601c0.193,0.531,0.085,0.887-0.3,1.304c-0.411,0.448-1.033,1.124-1.033,1.124
		c-0.207,0.226-0.558,0.24-0.785,0.032c-0.224-0.208-0.239-0.558-0.032-0.784C76.081,143.728,77.069,142.659,77.259,142.445"></path>
	<path fill="#ED1B23" d="M81.545,154.456c0.167,0.483,0.62,0.901,0.98,1.021c0.296,0.096,2.201,0.739,2.201,0.739
		c0.316,0.107,0.486,0.449,0.38,0.766c-0.107,0.316-0.45,0.486-0.766,0.38c0,0-1.688-0.562-1.952-0.655
		c-0.314-0.113-0.747-0.459-0.781-0.763l-0.063-1.483v-0.006L81.545,154.456z"></path>
	<path fill="#ED1B23" d="M74.467,140.753c0,0,0.859-1.172,1.024-1.406c0.304-0.432,0.261-1.355-0.108-2.008l-0.004-0.008
		l0.001,0.002l0.002,0.002c0.4,0.319,1.005,0.428,1.375,0.334c0.302-0.077,2.253-0.555,2.253-0.555
		c0.324-0.08,0.652,0.117,0.731,0.441c0.08,0.324-0.117,0.652-0.441,0.731c0,0-1.726,0.432-2,0.493
		c-0.326,0.074-0.796-0.014-1.068-0.224l-0.189-0.271c0.124,0.185,0.243,0.369,0.365,0.554c0.241,0.48,0.188,0.878-0.146,1.336
		c-0.358,0.491-0.9,1.233-0.9,1.233c-0.181,0.248-0.528,0.302-0.775,0.121S74.285,141.001,74.467,140.753"></path>
	<path fill="#ED1B23" d="M78.787,153.469c0,0,1.288-0.679,1.538-0.817c0.463-0.254,0.828-1.104,0.781-1.852l-0.001-0.008
		l0.001,0.001v0.001l0.002,0.002c0.219,0.462,0.717,0.826,1.089,0.902c0.304,0.062,2.268,0.486,2.268,0.486
		c0.326,0.07,0.535,0.393,0.465,0.719c-0.071,0.326-0.392,0.533-0.718,0.463v0.001c0,0-1.74-0.368-2.013-0.432
		c-0.325-0.076-0.711-0.361-0.861-0.669l-0.053-0.333c0.031,0.224,0.059,0.448,0.086,0.671c-0.018,0.556-0.212,0.865-0.715,1.131
		c-0.536,0.285-1.349,0.714-1.349,0.714c-0.271,0.144-0.607,0.041-0.751-0.23C78.414,153.948,78.516,153.612,78.787,153.469"></path>
	<path fill="#ED1B23" d="M79.692,149.142c0.43-0.306,0.696-1.191,0.566-1.93l-0.002-0.009l0.002,0.003l0.001,0.002
		c0.271,0.436,0.806,0.739,1.185,0.773c0.31,0.028,2.31,0.229,2.31,0.229c0.331,0.033,0.573,0.328,0.542,0.66
		c-0.034,0.332-0.329,0.574-0.661,0.541h-0.001c0,0-1.77-0.168-2.048-0.2c-0.331-0.039-0.747-0.278-0.933-0.567l-0.089-0.322
		c0.057,0.221,0.11,0.443,0.164,0.664c0.061,0.527-0.117,0.875-0.585,1.194c-0.502,0.344-1.261,0.862-1.261,0.862
		c-0.252,0.174-0.598,0.108-0.771-0.145c-0.172-0.253-0.108-0.599,0.145-0.771C78.256,150.126,79.458,149.307,79.692,149.142"></path>
</g>
</svg>
