
<svg xmlns="http://www.w3.org/2000/svg" width="896.97101" height="713.13098" viewBox="0 0 237.32357 188.68258">
  <g id="layer1">
    <path style="fill:#ffffff;fill-opacity:1" d="m 106.47486,142.72999 27.36565,-0.51454 -13.7636,19.93654 c -4.50675,-6.50243 -8.58558,-13.29837 -13.60205,-19.422 z" id="path1184"></path>
    <path id="path961-9" style="fill:#ffffff;fill-opacity:1;stroke-width:1;stroke-miterlimit:4;stroke-dasharray:none" d="m 126.37748,9.2140324 c -0.29353,-0.001 -0.57875,0.004 -0.85473,0.0155 -15.04483,0.64587 -46.111698,8.0370076 -57.223898,15.0755576 -16.57566,10.49916 -3.71943,2.976152 -45.857085,34.950608 l 6.563307,9.43871 -4.249303,0.005 45.675251,60.900152 98.079288,-0.0837 40.10505,-57.321552 3.14815,-4.34246 6.4435,-9.32223 c 0.32546,-0.13018 -7.59119,-2.28025 -13.00126,-11.150338 C 197.56992,34.85982 144.87004,9.2868824 126.37748,9.2140424 Z"></path>
    <path d="m 26.437131,59.320268 h 16.12582 l -4.24391,-5.37528 c 0,0 28.289251,-37.907738 81.755889,-37.907738 V 3.3065624 c 0,0 -57.709498,-4.24321005 -98.163589,49.5070656 z" style="fill:#c30452;fill-opacity:1;fill-rule:nonzero;stroke:#ffffff;stroke-width:6.48229;stroke-miterlimit:0;stroke-dasharray:none;stroke-opacity:1" id="path20-9-5"></path>
    <path d="m 213.71354,59.320268 h -16.12618 l 4.24498,-5.37528 c 0,0 -28.2896,-37.907738 -81.75766,-37.907738 V 3.3065624 c 0,0 57.71056,-4.24321005 98.165,49.5070656 z" style="fill:#231815;fill-opacity:1;fill-rule:nonzero;stroke:#ffffff;stroke-width:6.48229;stroke-miterlimit:0;stroke-dasharray:none;stroke-opacity:1" id="path24-4-8"></path>
    <path d="M 46.240731,67.241218 H 27.800965 3.2409999 v 10.46691 H 18.234051 v 39.039812 h 12.7307 V 77.708128 h 15.27598 z" style="fill:#c30452;fill-opacity:1;fill-rule:nonzero;stroke:#ffffff;stroke-width:6.482;stroke-miterlimit:0;stroke-dasharray:none;stroke-opacity:1" id="path28-0-3"></path>
    <path d="M 133.93624,116.74808 H 121.20731 V 67.241358 h 12.72893 z" style="fill:#c30452;fill-opacity:1;fill-rule:nonzero;stroke:none;stroke-width:2.5;stroke-miterlimit:0;stroke-dasharray:none;stroke-opacity:1" id="path30-9-3"></path>
    <path d="m 98.858172,67.241218 v 30.2701 l -5.09093,7.071432 -5.37598,-7.071432 v -30.2701 h -12.73034 v 30.2701 l -5.93902,7.071432 -4.81118,-7.071432 v -30.2701 h -12.72998 v 32.53247 l 12.72998,16.974252 h 10.7502 l 6.36517,-8.48748 6.22335,8.48748 h 10.60873 L 111.58814,99.773688 v -32.53247 z" style="fill:none;fill-opacity:1;fill-rule:nonzero;stroke:#ffffff;stroke-width:6.482;stroke-miterlimit:0;stroke-dasharray:none;stroke-opacity:1" id="path34-3-8"></path>
    <path d="m 175.52292,67.241218 v 26.62202 l -20.65091,-26.62202 h -14.70942 l 3.95923,5.23381 V 116.74794 H 156.8518 V 89.216098 l 20.93348,27.531842 h 10.46692 v -5.23417 -1.27317 -42.999382 z" style="fill:#000000;fill-opacity:1;fill-rule:nonzero;stroke:#ffffff;stroke-width:6.48229;stroke-miterlimit:0;stroke-dasharray:none;stroke-opacity:1" id="path38-0-4"></path>
    <path d="m 234.0823,77.708278 v -10.46692 h -36.77602 v 7.63764 2.82928 8.76899 l 23.48018,15.842552 v 4.66831 h -23.48018 v 10.46692 h 36.77602 v -10.46692 -9.476672 l -23.76346,-15.8429 v -3.96028 z" style="fill:#241c1c;fill-opacity:1;fill-rule:nonzero;stroke:#ffffff;stroke-width:6.48229;stroke-miterlimit:0;stroke-dasharray:none;stroke-opacity:1" id="path42-2-2"></path>
    <path d="m 88.392172,141.07634 31.684728,42.1513 v -21.07565 l -14.42862,-21.07565 z" style="fill:#c30452;fill-opacity:1;fill-rule:nonzero;stroke:#ffffff;stroke-width:6.48229;stroke-miterlimit:0;stroke-dasharray:none;stroke-opacity:1" id="path46-8-8"></path>
    <path d="m 151.76005,141.07634 -31.68509,42.1513 v -21.07565 l 14.42897,-21.07565 z" style="fill:#231815;fill-opacity:1;fill-rule:nonzero;stroke:#ffffff;stroke-width:6.48229;stroke-miterlimit:0;stroke-dasharray:none;stroke-opacity:1" id="path50-7-5"></path>
    <path d="M 73.681452,142.77408 58.970612,125.23362 H 181.18235 l -14.14568,17.54046 z" style="fill:#7d7d7d;fill-opacity:1;fill-rule:nonzero;stroke:#ffffff;stroke-width:6.48229;stroke-miterlimit:0;stroke-dasharray:none;stroke-opacity:1" id="path54-5-0"></path>
    <path d="m 26.436881,59.320268 h 16.12583 l -4.24392,-5.37528 c 0,0 28.289251,-37.907738 81.755879,-37.907738 V 3.3065624 c 0,0 -57.709488,-4.24321005 -98.163579,49.5070656 z" style="fill:#be0737;fill-opacity:1;fill-rule:nonzero;stroke:none;stroke-width:0.352778" id="path20-5-5-1"></path>
    <path d="m 213.7133,59.320268 h -16.12618 l 4.24498,-5.37528 c 0,0 -28.2896,-37.907738 -81.75767,-37.907738 V 3.3065624 c 0,0 57.71057,-4.24321005 98.16501,49.5070656 z" style="fill:#1d1d1b;fill-opacity:1;fill-rule:nonzero;stroke:none;stroke-width:0.352778" id="path24-9-9-7"></path>
    <path d="M 46.240491,67.241218 H 3.2407499 v 10.46691 H 18.233811 v 39.039812 h 12.73069 V 77.708128 h 15.27599 z" style="fill:#be0737;fill-opacity:1;fill-rule:nonzero;stroke:none;stroke-width:0.352778" id="path28-7-3-1"></path>
    <path d="M 133.93599,116.74808 H 121.20705 V 67.241358 h 12.72894 z" style="fill:#be0737;fill-opacity:1;fill-rule:nonzero;stroke:none;stroke-width:0.352778" id="path30-3-2-9"></path>
    <path d="m 98.857932,67.241218 v 30.2701 l -5.09094,7.071432 -5.37598,-7.071432 v -30.2701 h -12.73034 v 30.2701 l -5.93901,7.071432 -4.81119,-7.071432 v -30.2701 h -12.72998 v 32.53247 l 12.72998,16.974252 h 10.7502 l 6.36517,-8.48748 6.22335,8.48748 h 10.60874 L 111.58791,99.773688 v -32.53247 z" style="fill:#be0737;fill-opacity:1;fill-rule:nonzero;stroke:none;stroke-width:0.352778" id="path34-1-3-0"></path>
    <path d="m 175.52267,67.241218 v 26.62202 l -20.65091,-26.62202 h -14.70942 l 3.95923,5.23381 v 44.272912 h 12.72998 V 89.216098 l 20.93348,27.531842 h 10.46692 v -5.23417 -1.27317 -42.999382 z" style="fill:#be0737;fill-opacity:1;fill-rule:nonzero;stroke:none;stroke-width:0.352778" id="path38-3-4-2"></path>
    <path d="m 234.08205,77.708278 v -10.46692 h -36.77602 v 7.63764 2.82928 8.76899 l 23.48018,15.842552 v 4.66831 h -23.48018 v 10.46692 h 36.77602 v -10.46692 -9.476672 l -23.76346,-15.8429 v -3.96028 z" style="fill:#be0737;fill-opacity:1;fill-rule:nonzero;stroke:none;stroke-width:0.352778" id="path42-9-3-4"></path>
    <path d="m 151.75981,141.07634 -31.68509,42.1513 v -21.07565 l 14.42897,-21.07565 z" style="fill:#1d1d1b;fill-opacity:1;fill-rule:nonzero;stroke:none;stroke-width:0.352778" id="path50-0-3-1"></path>
    <path style="fill:#ffffff;fill-opacity:1" d="m 172.00026,120.70688 2.93981,-3.66455 2.84521,-0.29439 h 10.46691 l 1.83923,-29.782192 7.2146,-0.48848 0.92643,2.74988 20.12642,13.568382 0.45228,1.80912 -21.50513,2.38348 -2.01338,8.47122 2.80239,5.24753" id="path1009-0-3"></path>
    <path style="fill:#ffffff;fill-opacity:1" d="m 233.99814,63.992128 h 3.31342 v 16.95344 h -3.25825 l 1.63661,-2.98746 -0.3414,-11.18078 z" id="path1017-0-7"></path>
    <path style="fill:#ffffff;fill-opacity:1" d="m 235.58241,94.640418 1.72915,1.18429 v 2.10517 z" id="path1021-9-7"></path>
    <path style="fill:#ffffff;fill-opacity:1" d="m 233.50799,120.65897 3.80357,0.0479 v -3.91477 z" id="path1023-5-9"></path>
    <path style="fill:#ffffff;fill-opacity:1" d="m 117.17159,184.76185 2.74105,-0.86084 2.95046,0.99941 -2.85636,3.78204 z" id="path1035-2-7"></path>
    <path style="fill:#ffffff;fill-opacity:1" d="m 169.63464,144.71855 -2.73873,1.30377 1.6715,-0.0248 z" id="path1043-5-3"></path>
    <path style="fill:#ffffff;fill-opacity:1" d="m 70.833802,144.41046 1.33826,1.60339 h 2.80849 l -4.17292,-1.63475" id="path1047-0-4"></path>
    <path style="fill:#ffffff;fill-opacity:1" d="m 59.545452,121.98706 h -7.49902 l 4.74398,5.68383 z" id="path1051-0-2"></path>
    <path style="fill:#ffffff;fill-opacity:1" d="m 180.80273,121.98345 h 7.13043 l -4.33102,5.42496 z" id="path1059-9-5"></path>
    <path style="fill:#ffffff;fill-opacity:1" d="m 19.527341,50.573502 -1.63983,2.166386 1.71929,2.43884 z" id="path1065-6-3"></path>
    <path style="fill:#ffffff;fill-opacity:1" d="m 220.69495,50.695162 1.63155,1.902576 -1.60379,2.29217 z" id="path1067-4-5"></path>
    <path style="fill:#ffffff;fill-opacity:1" d="M 4.2592699,64.000938 H 3.9093706e-4 v 16.94696 H 4.4573999 L 3.9093706e-4,77.531078 V 67.414658 L 4.2592699,64.000938" id="path1077-0-5"></path>
    <path style="fill:#ffffff;fill-opacity:1" d="m 14.990481,116.59103 3.43221,3.39944 h -3.43221 z" id="path1079-5-7"></path>
    <path style="fill:#ffffff;fill-opacity:1" d="m 30.799951,119.99047 3.40464,-3.3264 v 3.3264 z" id="path1081-6-7"></path>
    <path style="fill:#ffffff;fill-opacity:1" d="m 181.70201,129.6838 8.54991,-10.65236 -19.8653,-0.21393 2.10361,4.70669 8.3125,-1.54075 c -0.0244,1.94002 -0.30287,3.91499 2.79941,5.42496" id="path1022-3-2"></path>
    <path style="fill:#ffffff;fill-opacity:1" d="m 92.604172,141.95107 -6.50959,0.20998 16.378968,22.46858 h 5.24967 z" id="path1097"></path>
    <path d="m 88.392002,141.07636 31.684718,42.1513 v -21.07565 l -14.42861,-21.07565 z" style="fill:#be0737;fill-opacity:1;fill-rule:nonzero;stroke:none;stroke-width:0.352778" id="path46-6-4-7-3"></path>
    <path d="M 73.681162,142.7741 58.970332,125.23364 H 181.18207 l -14.14569,17.54046 z" style="fill:#706e6f;fill-opacity:1;fill-rule:nonzero;stroke:none;stroke-width:0.352778" id="path54-9-3-9-7"></path>
    <path d="m 97.088322,137.44695 c 0.60854,0 1.05022,-0.1076 1.32362,-0.32314 0.27305,-0.21661 0.41098,-0.48895 0.41098,-0.81527 v -0.145 c 0,-0.3884 -0.14393,-0.67803 -0.43074,-0.86712 -0.28681,-0.19015 -0.70379,-0.34608 -1.2513,-0.47131 -0.39723,-0.0875 -0.79692,-0.18027 -1.19803,-0.27693 -0.40217,-0.097 -0.76412,-0.24272 -1.08585,-0.4378 -0.32174,-0.19297 -0.58456,-0.45579 -0.78776,-0.78705 -0.20284,-0.33126 -0.30409,-0.7747 -0.30409,-1.33032 v -0.17216 c 0,-0.29245 0.0568,-0.59372 0.1718,-0.9077 0.11466,-0.31221 0.30445,-0.60184 0.56903,-0.86712 0.26494,-0.26529 0.61595,-0.48402 1.05269,-0.65476 0.43674,-0.17145 0.9779,-0.25823 1.62172,-0.25823 0.53023,0 1.03752,0.055 1.5233,0.16545 0.48507,0.11042 0.97084,0.31962 1.456248,0.629 l -0.794798,1.31057 c -0.38876,-0.2473 -0.75035,-0.40852 -1.08585,-0.48366 -0.33478,-0.0741 -0.6925,-0.11218 -1.07209,-0.11218 -0.30021,0 -0.56056,0.0353 -0.78105,0.10583 -0.22084,0.0713 -0.40358,0.16369 -0.54963,0.27764 -0.14534,0.11465 -0.254,0.23848 -0.3242,0.37112 -0.0709,0.13159 -0.10618,0.26494 -0.10618,0.39758 v 0.1591 c 0,0.2286 0.055,0.41487 0.16545,0.55563 0.11007,0.14041 0.25823,0.25753 0.44379,0.35031 0.18556,0.0928 0.40393,0.16792 0.65511,0.22542 0.25153,0.0582 0.51858,0.11713 0.80151,0.17886 0.5648,0.12277 1.03893,0.27693 1.42311,0.45685 0.38347,0.18062 0.69285,0.38664 0.92639,0.61595 0.233878,0.22966 0.402158,0.48366 0.503758,0.76129 0.10125,0.27799 0.15205,0.57997 0.15205,0.90664 v 0.17145 c 0,0.53023 -0.0949,0.97332 -0.2847,1.33138 -0.18979,0.35737 -0.447658,0.64418 -0.774688,0.86114 -0.32631,0.21625 -0.70132,0.37041 -1.12536,0.46178 -0.42333,0.0938 -0.86501,0.139 -1.32397,0.139 -0.34467,0 -0.68157,-0.0272 -1.01318,-0.0847 -0.3309,-0.0571 -0.64205,-0.13547 -0.93345,-0.23319 -0.29104,-0.0963 -0.56197,-0.21272 -0.81386,-0.35031 -0.25188,-0.13652 -0.47025,-0.27975 -0.65546,-0.42933 l 0.82056,-1.35113 c 0.2914,0.24835 0.66675,0.4639 1.12572,0.64875 0.45896,0.18627 0.97578,0.27764 1.5494,0.27764" style="fill:#ffffff;fill-opacity:1;fill-rule:nonzero;stroke:none;stroke-width:0.352778" id="path58-9-2-6-4"></path>
    <path d="m 112.80432,129.27933 v 1.40264 h -4.4623 v 2.56858 h 4.18396 v 1.37654 h -4.18396 v 2.79329 h 4.55508 v 1.40476 h -6.23641 v -9.54581 z" style="fill:#ffffff;fill-opacity:1;fill-rule:nonzero;stroke:none;stroke-width:0.352778" id="path62-3-0-9-9"></path>
    <path d="m 122.7741,137.42042 c 0.32702,0 0.63111,-0.0413 0.91369,-0.12453 0.28223,-0.0854 0.53023,-0.23283 0.74048,-0.44379 0.21308,-0.21132 0.37783,-0.49848 0.49742,-0.86078 0.11924,-0.36231 0.17851,-0.81704 0.17851,-1.36419 v -1.15147 c 0,-0.54751 -0.0593,-1.00118 -0.17851,-1.36419 -0.11959,-0.36125 -0.28434,-0.64876 -0.49742,-0.86113 -0.21025,-0.21096 -0.45825,-0.35878 -0.74048,-0.44344 -0.28258,-0.0829 -0.58667,-0.12524 -0.91369,-0.12524 -0.31786,0 -0.61771,0.0423 -0.90029,0.12524 -0.28293,0.0847 -0.53022,0.23248 -0.74118,0.44344 -0.21238,0.21237 -0.37995,0.49988 -0.50377,0.86113 -0.12383,0.36301 -0.1845,0.81668 -0.1845,1.36419 v 1.15147 c 0,0.54715 0.0607,1.00188 0.1845,1.36419 0.12381,0.3623 0.29139,0.64946 0.50377,0.86078 0.21096,0.21096 0.45825,0.35842 0.74118,0.44379 0.28258,0.0833 0.58244,0.12453 0.90029,0.12453 m 0,-8.28746 c 0.53834,0 1.05198,0.0773 1.5434,0.23107 0.4886,0.15523 0.91934,0.39758 1.29046,0.72814 0.37041,0.33196 0.66392,0.75741 0.88054,1.27811 0.2159,0.52176 0.32384,1.15112 0.32384,1.89336 v 1.57586 c 0,0.75071 -0.10795,1.38677 -0.32384,1.91311 -0.21662,0.52564 -0.50731,0.95215 -0.87454,1.27741 -0.36583,0.32597 -0.79445,0.56444 -1.28411,0.71649 -0.48966,0.14923 -1.00859,0.22296 -1.55575,0.22296 -0.54717,0 -1.06539,-0.0737 -1.55541,-0.22296 -0.49035,-0.15205 -0.91827,-0.39052 -1.2848,-0.71649 -0.36654,-0.32526 -0.65723,-0.75177 -0.87383,-1.27741 -0.21696,-0.52634 -0.32421,-1.1624 -0.32421,-1.91311 v -1.57586 c 0,-0.74224 0.10725,-1.3716 0.32421,-1.89336 0.2166,-0.5207 0.51011,-0.94615 0.88123,-1.27811 0.36972,-0.33056 0.80081,-0.57291 1.29047,-0.72814 0.48965,-0.15381 1.00435,-0.23107 1.54234,-0.23107" style="fill:#ffffff;fill-opacity:1;fill-rule:nonzero;stroke:none;stroke-width:0.352778" id="path66-7-0-9-1"></path>
    <path d="m 136.51726,137.43523 c 0.34396,0 0.64417,-0.0427 0.90029,-0.12665 0.25541,-0.0832 0.46602,-0.22472 0.62935,-0.42368 0.16299,-0.19862 0.28364,-0.45897 0.36372,-0.7807 0.0797,-0.32314 0.11924,-0.71755 0.11924,-1.18569 v -5.63915 h 1.69439 v 5.61375 c 0,0.78493 -0.0808,1.43828 -0.24483,1.95898 -0.16298,0.52035 -0.40111,0.93803 -0.71543,1.25095 -0.31292,0.31326 -0.69921,0.53657 -1.15817,0.66816 -0.45932,0.13335 -0.98954,0.19826 -1.58856,0.19826 -0.60007,0 -1.1303,-0.0649 -1.58891,-0.19826 -0.46038,-0.13159 -0.84561,-0.3549 -1.15817,-0.66816 -0.31433,-0.31292 -0.5521,-0.7306 -0.71473,-1.25095 -0.16333,-0.5207 -0.24588,-1.17405 -0.24588,-1.95898 v -5.61375 h 1.69474 v 5.63915 c 0,0.46814 0.0388,0.86255 0.11853,1.18569 0.0801,0.32173 0.20179,0.58208 0.36513,0.7807 0.16369,0.19896 0.37253,0.34043 0.62794,0.42368 0.25718,0.084 0.55669,0.12665 0.90135,0.12665" style="fill:#ffffff;fill-opacity:1;fill-rule:nonzero;stroke:none;stroke-width:0.352778" id="path70-1-6-1-7"></path>
    <path d="m 148.26194,129.27933 v 8.11601 h 4.35575 v 1.4298 h -6.05049 v -9.54581 z" style="fill:#ffffff;fill-opacity:1;fill-rule:nonzero;stroke:none;stroke-width:0.352778" id="path74-3-7-8-3"></path>
    <polygon fill="#6b6b6b" points="741.082,361.43 741.082,305.979 604.796,305.979 604.796,76.667 539.002,76.667 539.002,361.43 " id="polygon1266" style="fill:#706e6f;fill-opacity:1" transform="matrix(0.07915464,0,0,0.07915464,59.492972,26.710779)"></polygon>
    <path fill="#6b6b6b" d="m 129.60957,46.728352 h 4.23921 v 3.941033 c -0.78086,0.298883 -2.30428,0.596663 -3.75494,0.596663 -4.68809,0 -6.25045,-2.382627 -6.25045,-7.216922 0,-4.612338 1.48748,-7.328135 6.17446,-7.328135 2.60522,0 4.09166,0.818456 5.31864,2.38121 l 3.23805,-2.975978 c -1.97324,-2.825586 -5.43254,-3.681957 -8.66877,-3.681957 -7.28967,0 -11.1217,3.979418 -11.1217,11.567263 0,7.552069 3.45929,11.643249 11.08497,11.643249 3.4965,0 6.9193,-0.8931 8.77849,-2.19408 V 42.524687 h -9.03796 z" id="path1268" style="fill:#706e6f;fill-opacity:1;stroke-width:0.0791546"></path>
  </g>
</svg>