
<svg xmlns="http://www.w3.org/2000/svg" version="1.1" id="svg10" xml:space="preserve" width="513.5" height="377.29999" viewBox="0 0 513.50002 377.29999"><defs id="defs14"><clipPath clipPathUnits="userSpaceOnUse" id="clipPath26"><path d="M 0,841.89 H 595.28 V 0 H 0 Z" id="path24"></path></clipPath><clipPath clipPathUnits="userSpaceOnUse" id="clipPath42"><path d="m 237.957,417.108 c 0,-31.849 25.818,-57.666 57.665,-57.666 v 0 c 31.847,0 57.665,25.817 57.665,57.666 v 0 c 0,31.846 -25.818,57.664 -57.665,57.664 v 0 c -31.847,0 -57.665,-25.818 -57.665,-57.664" id="path40"></path></clipPath><radialGradient fx="0" fy="0" cx="0" cy="0" r="1" gradientUnits="userSpaceOnUse" gradientTransform="matrix(80.044724,0,0,-80.044724,277.79053,431.78857)" spreadMethod="pad" id="radialGradient54"><stop style="stop-opacity:1;stop-color:#ffffff" offset="0" id="stop48"></stop><stop style="stop-opacity:1;stop-color:#ffffff" offset="0.55253867" id="stop50"></stop><stop style="stop-opacity:1;stop-color:#cdcccd" offset="1" id="stop52"></stop></radialGradient><clipPath clipPathUnits="userSpaceOnUse" id="clipPath64"><path d="m 235.208,417.108 c 0,-33.368 27.047,-60.416 60.414,-60.416 v 0 c 33.368,0 60.416,27.048 60.416,60.416 v 0 c 0,33.365 -27.048,60.414 -60.416,60.414 v 0 c -33.367,0 -60.414,-27.049 -60.414,-60.414 m 56.542,57.411 c 1.225,0.077 2.628,0.163 3.872,0.163 v 0 c 0.496,0 0.99,-0.005 1.482,-0.017 v 0 c -0.07,-0.152 -0.141,-0.292 -0.202,-0.392 v 0 c -0.352,-0.574 -2.53,-3.521 -2.53,-3.521 v 0 l 1.385,-1.232 c 0,0 1.301,1.809 1.927,2.652 v 0 c 0.418,0.563 0.484,1.054 0.484,1.054 v 0 c 0,0 0.527,-0.194 1.208,-0.114 v 0 c 0.66,0.078 3.271,0.313 3.271,0.313 v 0 l -0.287,0.977 c 28.484,-3.511 50.927,-27.95 50.927,-57.383 v 0 c 0,-27.239 -18.886,-50.063 -44.277,-56.1 v 0 c -0.08,-0.021 -0.237,-0.069 -0.234,-0.043 v 0 c 0.057,0.578 0.003,1.121 0.003,1.121 v 0 l -1.721,0.133 -0.053,-1.651 c -1.02,-0.204 -2.053,-0.38 -3.092,-0.529 v 0 c -0.003,0.031 -0.068,0.027 -0.132,0.023 v 0 c -0.062,-0.004 -0.126,-0.008 -0.126,0.023 v 0 c -0.02,0.689 -0.091,3.53 -0.091,3.53 v 0 l -1.621,0.168 c 0,0 0.017,-2.055 0.03,-3.128 v 0 c 0.007,-0.515 0.116,-0.601 0.116,-0.601 v 0 c 0,0 -0.156,0.076 -0.52,-0.255 v 0 c -0.02,-0.019 -0.043,-0.039 -0.067,-0.061 v 0 c -1.68,-0.169 -3.384,-0.264 -5.103,-0.285 v 0 c 0.459,0.394 0.695,0.45 1.127,0.751 v 0 c 0.393,0.276 0.941,0.402 0.941,0.402 v 0 c 0,0 -0.116,0.501 -0.128,0.9 v 0 c -0.021,0.688 -0.003,3.872 -0.003,3.872 v 0 l -1.62,0.168 c 0,0 0.018,-2.057 0.031,-3.128 v 0 c 0.006,-0.515 0.131,-0.935 0.131,-0.935 v 0 c 0,0 -0.506,-0.076 -0.869,-0.405 v 0 c -0.447,-0.406 -1.661,-1.302 -2.028,-1.611 v 0 c -31.087,0.869 -56.024,26.341 -56.024,57.641 v 0 c 0,30.366 23.475,55.247 53.267,57.494 v 0 l 0.016,-0.245 z" id="path62"></path></clipPath><linearGradient x1="0" y1="0" x2="1" y2="0" gradientUnits="userSpaceOnUse" gradientTransform="matrix(78.780167,-87.297028,-87.297028,-78.780167,254.73828,462.41113)" spreadMethod="pad" id="linearGradient74"><stop style="stop-opacity:1;stop-color:#e6e6e7" offset="0" id="stop70"></stop><stop style="stop-opacity:1;stop-color:#99999a" offset="1" id="stop72"></stop></linearGradient><clipPath clipPathUnits="userSpaceOnUse" id="clipPath84"><path d="m 274.947,372.259 c -0.047,-0.513 0.035,-0.942 0.035,-0.942 v 0 c 0,0 -0.513,-0.024 -0.908,-0.315 v 0 c -0.557,-0.409 -2.572,-1.781 -2.572,-1.781 v 0 l 0.971,-1.311 c 0,0 1.798,1.389 3.021,2.067 v 0 c 0.419,0.233 0.978,0.304 0.978,0.304 v 0 c 0,0 -0.065,0.509 -0.035,0.907 v 0 c 0.05,0.687 0.395,3.852 0.395,3.852 v 0 l -1.594,0.333 c 0,0 -0.194,-2.047 -0.291,-3.114" id="path82"></path></clipPath><linearGradient x1="0" y1="0" x2="1" y2="0" gradientUnits="userSpaceOnUse" gradientTransform="matrix(78.77533,-87.291657,-87.291657,-78.775314,220.60498,431.36572)" spreadMethod="pad" id="linearGradient94"><stop style="stop-opacity:1;stop-color:#e6e6e7" offset="0" id="stop90"></stop><stop style="stop-opacity:1;stop-color:#99999a" offset="1" id="stop92"></stop></linearGradient><clipPath clipPathUnits="userSpaceOnUse" id="clipPath104"><path d="m 269.769,375.862 c -0.071,-0.509 -0.01,-0.942 -0.01,-0.942 v 0 c 0,0 -0.512,0 -0.922,-0.272 v 0 c -0.575,-0.382 -2.652,-1.656 -2.652,-1.656 v 0 l 0.908,-1.356 c 0,0 1.861,1.302 3.115,1.923 v 0 c 0.428,0.213 0.99,0.256 0.99,0.256 v 0 c 0,0 -0.041,0.512 0.008,0.909 v 0 c 0.083,0.683 0.576,3.828 0.576,3.828 v 0 l -1.577,0.409 c 0,0 -0.289,-2.037 -0.436,-3.099" id="path102"></path></clipPath><linearGradient x1="0" y1="0" x2="1" y2="0" gradientUnits="userSpaceOnUse" gradientTransform="matrix(78.788757,-87.306534,-87.306534,-78.788742,219.48828,430.44336)" spreadMethod="pad" id="linearGradient114"><stop style="stop-opacity:1;stop-color:#e6e6e7" offset="0" id="stop110"></stop><stop style="stop-opacity:1;stop-color:#99999a" offset="1" id="stop112"></stop></linearGradient><clipPath clipPathUnits="userSpaceOnUse" id="clipPath124"><path d="m 264.803,380.042 c -0.099,-0.505 -0.063,-0.941 -0.063,-0.941 v 0 c 0,0 -0.511,0.028 -0.935,-0.219 v 0 c -0.595,-0.35 -2.741,-1.504 -2.741,-1.504 v 0 l 0.829,-1.406 c 0,0 1.933,1.195 3.218,1.744 v 0 c 0.442,0.189 1.005,0.2 1.005,0.2 v 0 c 0,0 -0.012,0.513 0.058,0.907 v 0 c 0.122,0.678 0.792,3.79 0.792,3.79 v 0 l -1.551,0.497 c 0,0 -0.405,-2.017 -0.612,-3.068" id="path122"></path></clipPath><linearGradient x1="0" y1="0" x2="1" y2="0" gradientUnits="userSpaceOnUse" gradientTransform="matrix(78.776886,-87.293381,-87.293381,-78.776871,218.82227,429.83057)" spreadMethod="pad" id="linearGradient134"><stop style="stop-opacity:1;stop-color:#e6e6e7" offset="0" id="stop130"></stop><stop style="stop-opacity:1;stop-color:#99999a" offset="1" id="stop132"></stop></linearGradient><clipPath clipPathUnits="userSpaceOnUse" id="clipPath144"><path d="m 280.357,369.148 c -0.032,-0.514 0.061,-0.942 0.061,-0.942 v 0 c 0,0 -0.512,-0.038 -0.899,-0.339 v 0 c -0.545,-0.425 -2.522,-1.851 -2.522,-1.851 v 0 l 1.008,-1.284 c 0,0 1.759,1.437 2.961,2.149 v 0 c 0.413,0.246 0.97,0.331 0.97,0.331 v 0 c 0,0 -0.079,0.507 -0.061,0.906 v 0 c 0.032,0.688 0.289,3.862 0.289,3.862 v 0 l -1.603,0.29 c 0,0 -0.136,-2.053 -0.204,-3.122" id="path142"></path></clipPath><linearGradient x1="0" y1="0" x2="1" y2="0" gradientUnits="userSpaceOnUse" gradientTransform="matrix(78.791306,-87.309372,-87.309372,-78.791306,222.03467,432.68115)" spreadMethod="pad" id="linearGradient154"><stop style="stop-opacity:1;stop-color:#e6e6e7" offset="0" id="stop150"></stop><stop style="stop-opacity:1;stop-color:#99999a" offset="1" id="stop152"></stop></linearGradient><clipPath clipPathUnits="userSpaceOnUse" id="clipPath164"><path d="m 285.853,366.576 c -0.004,-0.514 0.113,-0.936 0.113,-0.936 v 0 c 0,0 -0.509,-0.065 -0.878,-0.389 v 0 c -0.521,-0.454 -2.414,-1.989 -2.414,-1.989 v 0 l 1.077,-1.225 c 0,0 1.676,1.533 2.838,2.313 v 0 c 0.398,0.266 0.948,0.383 0.948,0.383 v 0 c 0,0 -0.107,0.502 -0.11,0.902 v 0 c -0.008,0.688 0.071,3.871 0.071,3.871 v 0 l -1.617,0.199 c 0,0 -0.021,-2.057 -0.028,-3.129" id="path162"></path></clipPath><linearGradient x1="0" y1="0" x2="1" y2="0" gradientUnits="userSpaceOnUse" gradientTransform="matrix(78.770431,-87.28624,-87.28624,-78.770431,223.80713,434.27246)" spreadMethod="pad" id="linearGradient174"><stop style="stop-opacity:1;stop-color:#e6e6e7" offset="0" id="stop170"></stop><stop style="stop-opacity:1;stop-color:#99999a" offset="1" id="stop172"></stop></linearGradient><clipPath clipPathUnits="userSpaceOnUse" id="clipPath184"><path d="m 291.267,364.204 c 0.005,-0.515 0.13,-0.934 0.13,-0.934 v 0 c 0,0 -0.506,-0.077 -0.87,-0.406 v 0 c -0.511,-0.465 -2.375,-2.034 -2.375,-2.034 v 0 l 1.1,-1.205 c 0,0 1.646,1.566 2.793,2.366 v 0 c 0.393,0.274 0.941,0.401 0.941,0.401 v 0 c 0,0 -0.116,0.501 -0.128,0.899 v 0 c -0.021,0.69 -0.003,3.873 -0.003,3.873 v 0 l -1.619,0.168 c 0,0 0.017,-2.056 0.031,-3.128" id="path182"></path></clipPath><linearGradient x1="0" y1="0" x2="1" y2="0" gradientUnits="userSpaceOnUse" gradientTransform="matrix(78.787766,-87.30545,-87.30545,-78.787766,225.64551,435.86719)" spreadMethod="pad" id="linearGradient194"><stop style="stop-opacity:1;stop-color:#e6e6e7" offset="0" id="stop190"></stop><stop style="stop-opacity:1;stop-color:#99999a" offset="1" id="stop192"></stop></linearGradient><clipPath clipPathUnits="userSpaceOnUse" id="clipPath204"><path d="m 314.736,444.715 c -0.421,-0.545 -2.366,-2.554 -2.366,-2.554 v 0 l 0.901,-1.539 c 0,0 1.583,1.191 2.254,2.029 v 0 c 0.322,0.401 0.638,0.787 0.638,0.787 v 0 c 0,0 0.452,-0.301 1.164,-0.301 v 0 c 0.692,0 3.418,-0.074 3.418,-0.074 v 0 l -0.01,1.942 c 0,0 -2.501,-0.022 -3.896,0.085 v 0 c -0.477,0.038 -1.69,0.489 -1.69,0.489 v 0 c 0,0 -0.169,-0.549 -0.413,-0.864" id="path202"></path></clipPath><linearGradient x1="0" y1="0" x2="1" y2="0" gradientUnits="userSpaceOnUse" gradientTransform="matrix(78.78949,-87.307358,-87.307358,-78.78949,279.43506,484.44287)" spreadMethod="pad" id="linearGradient214"><stop style="stop-opacity:1;stop-color:#e6e6e7" offset="0" id="stop210"></stop><stop style="stop-opacity:1;stop-color:#99999a" offset="1" id="stop212"></stop></linearGradient><clipPath clipPathUnits="userSpaceOnUse" id="clipPath224"><path d="m 311.262,450.246 c -0.419,-0.546 -2.74,-2.893 -2.74,-2.893 v 0 l 1.314,-1.426 c 0,0 1.523,1.693 2.253,2.479 v 0 c 0.488,0.526 0.601,1.126 0.601,1.126 v 0 c 0,0 0.526,-0.263 1.239,-0.263 v 0 c 0.691,0 3.417,-0.075 3.417,-0.075 v 0 l -0.188,1.765 c 0,0 -2.216,0.075 -3.718,0.112 v 0 c -0.788,0.021 -1.512,0.311 -1.512,0.311 v 0 c 0,0 -0.421,-0.821 -0.666,-1.136" id="path222"></path></clipPath><linearGradient x1="0" y1="0" x2="1" y2="0" gradientUnits="userSpaceOnUse" gradientTransform="matrix(78.790299,-87.308243,-87.308243,-78.790299,280.31494,485.19727)" spreadMethod="pad" id="linearGradient234"><stop style="stop-opacity:1;stop-color:#e6e6e7" offset="0" id="stop230"></stop><stop style="stop-opacity:1;stop-color:#99999a" offset="1" id="stop232"></stop></linearGradient><clipPath clipPathUnits="userSpaceOnUse" id="clipPath244"><path d="m 307.905,456.372 c -0.422,-0.545 -2.742,-2.892 -2.742,-2.892 v 0 l 1.315,-1.426 c 0,0 1.523,1.692 2.253,2.478 v 0 c 0.487,0.526 0.6,1.126 0.6,1.126 v 0 c 0,0 0.527,-0.262 1.24,-0.262 v 0 c 0.69,0 3.416,-0.076 3.416,-0.076 v 0 l -0.186,1.765 c 0,0 -2.216,0.075 -3.718,0.113 v 0 c -0.789,0.02 -1.513,0.311 -1.513,0.311 v 0 c 0,0 -0.422,-0.823 -0.665,-1.137" id="path242"></path></clipPath><linearGradient x1="0" y1="0" x2="1" y2="0" gradientUnits="userSpaceOnUse" gradientTransform="matrix(78.77565,-87.292023,-87.292023,-78.77565,281.5415,486.24365)" spreadMethod="pad" id="linearGradient254"><stop style="stop-opacity:1;stop-color:#e6e6e7" offset="0" id="stop250"></stop><stop style="stop-opacity:1;stop-color:#99999a" offset="1" id="stop252"></stop></linearGradient><clipPath clipPathUnits="userSpaceOnUse" id="clipPath264"><path d="m 304.392,462.572 c -0.422,-0.544 -2.741,-2.892 -2.741,-2.892 v 0 l 1.314,-1.426 c 0,0 1.523,1.692 2.253,2.478 v 0 c 0.488,0.526 0.601,1.127 0.601,1.127 v 0 c 0,0 0.526,-0.263 1.238,-0.263 v 0 c 0.692,0 3.419,-0.075 3.419,-0.075 v 0 l -0.188,1.765 c 0,0 -2.217,0.075 -3.718,0.112 v 0 c -0.789,0.02 -1.512,0.311 -1.512,0.311 v 0 c 0,0 -0.422,-0.821 -0.666,-1.137" id="path262"></path></clipPath><linearGradient x1="0" y1="0" x2="1" y2="0" gradientUnits="userSpaceOnUse" gradientTransform="matrix(78.787842,-87.305527,-87.305527,-78.787827,282.63916,487.33594)" spreadMethod="pad" id="linearGradient274"><stop style="stop-opacity:1;stop-color:#e6e6e7" offset="0" id="stop270"></stop><stop style="stop-opacity:1;stop-color:#99999a" offset="1" id="stop272"></stop></linearGradient><clipPath clipPathUnits="userSpaceOnUse" id="clipPath284"><path d="m 300.559,468.261 c -0.394,-0.564 -2.508,-2.863 -2.508,-2.863 v 0 l 1.382,-1.361 c 0,0 1.349,1.606 2.041,2.426 v 0 c 0.461,0.549 0.544,1.154 0.544,1.154 v 0 c 0,0 0.539,-0.237 1.251,-0.203 v 0 c 0.691,0.033 3.418,0.09 3.418,0.09 v 0 l -0.272,1.754 c 0,0 -2.217,-0.032 -3.719,-0.066 v 0 c -0.789,-0.019 -1.535,0.228 -1.535,0.228 v 0 c 0,0 -0.373,-0.832 -0.602,-1.159" id="path282"></path></clipPath><linearGradient x1="0" y1="0" x2="1" y2="0" gradientUnits="userSpaceOnUse" gradientTransform="matrix(78.779495,-87.29628,-87.29628,-78.77948,283.43701,488.15576)" spreadMethod="pad" id="linearGradient294"><stop style="stop-opacity:1;stop-color:#e6e6e7" offset="0" id="stop290"></stop><stop style="stop-opacity:1;stop-color:#99999a" offset="1" id="stop292"></stop></linearGradient><clipPath clipPathUnits="userSpaceOnUse" id="clipPath304"><path d="M 0,841.89 H 595.28 V 0 H 0 Z" id="path302"></path></clipPath></defs><g id="g18" transform="matrix(0.57430971,0,0,-0.57430971,-3.7188364e-6,483.5056)"><g id="g20" transform="matrix(3.8069425,0,0,3.8069425,-664.93048,-1073.2198)"><g id="g22" clip-path="url(#clipPath26)"><g id="g28" transform="translate(381.3232,416.8262)"><path d="m 0,0 c 0,-47.624 -38.607,-86.231 -86.232,-86.231 -47.624,0 -86.231,38.607 -86.231,86.231 0,47.624 38.607,86.231 86.231,86.231 C -38.607,86.231 0,47.624 0,0" style="fill:#ffffff;fill-opacity:1;fill-rule:nonzero;stroke:none" id="path30"></path></g><g id="g32" transform="translate(295.6221,356.6914)"><path d="m 0,0 c -33.366,0 -60.415,27.049 -60.415,60.416 0,33.366 27.049,60.415 60.415,60.415 33.367,0 60.416,-27.049 60.416,-60.415 C 60.416,27.049 33.367,0 0,0 m 0,143.099 c -45.665,0 -82.683,-37.019 -82.683,-82.683 0,-45.665 37.018,-82.684 82.683,-82.684 45.665,0 82.684,37.019 82.684,82.684 0,45.664 -37.019,82.683 -82.684,82.683" style="fill:#042856;fill-opacity:1;fill-rule:nonzero;stroke:none" id="path34"></path></g></g></g><g id="g36" transform="matrix(3.8069425,0,0,3.8069425,-664.93048,-1073.2198)"><g id="g38" clip-path="url(#clipPath42)"><g id="g44"><g id="g46"><path d="m 237.957,417.108 c 0,-31.849 25.818,-57.666 57.665,-57.666 v 0 c 31.847,0 57.665,25.817 57.665,57.666 v 0 c 0,31.846 -25.818,57.664 -57.665,57.664 v 0 c -31.847,0 -57.665,-25.818 -57.665,-57.664" style="fill:url(#radialGradient54);stroke:none" id="path56"></path></g></g></g></g><g id="g58" transform="matrix(3.8069425,0,0,3.8069425,-664.93048,-1073.2198)"><g id="g60" clip-path="url(#clipPath64)"><g id="g66"><g id="g68"><path d="m 235.208,417.108 c 0,-33.368 27.047,-60.416 60.414,-60.416 v 0 c 33.368,0 60.416,27.048 60.416,60.416 v 0 c 0,33.365 -27.048,60.414 -60.416,60.414 v 0 c -33.367,0 -60.414,-27.049 -60.414,-60.414 m 56.542,57.411 c 1.225,0.077 2.628,0.163 3.872,0.163 v 0 c 0.496,0 0.99,-0.005 1.482,-0.017 v 0 c -0.07,-0.152 -0.141,-0.292 -0.202,-0.392 v 0 c -0.352,-0.574 -2.53,-3.521 -2.53,-3.521 v 0 l 1.385,-1.232 c 0,0 1.301,1.809 1.927,2.652 v 0 c 0.418,0.563 0.484,1.054 0.484,1.054 v 0 c 0,0 0.527,-0.194 1.208,-0.114 v 0 c 0.66,0.078 3.271,0.313 3.271,0.313 v 0 l -0.287,0.977 c 28.484,-3.511 50.927,-27.95 50.927,-57.383 v 0 c 0,-27.239 -18.886,-50.063 -44.277,-56.1 v 0 c -0.08,-0.021 -0.237,-0.069 -0.234,-0.043 v 0 c 0.057,0.578 0.003,1.121 0.003,1.121 v 0 l -1.721,0.133 -0.053,-1.651 c -1.02,-0.204 -2.053,-0.38 -3.092,-0.529 v 0 c -0.003,0.031 -0.068,0.027 -0.132,0.023 v 0 c -0.062,-0.004 -0.126,-0.008 -0.126,0.023 v 0 c -0.02,0.689 -0.091,3.53 -0.091,3.53 v 0 l -1.621,0.168 c 0,0 0.017,-2.055 0.03,-3.128 v 0 c 0.007,-0.515 0.116,-0.601 0.116,-0.601 v 0 c 0,0 -0.156,0.076 -0.52,-0.255 v 0 c -0.02,-0.019 -0.043,-0.039 -0.067,-0.061 v 0 c -1.68,-0.169 -3.384,-0.264 -5.103,-0.285 v 0 c 0.459,0.394 0.695,0.45 1.127,0.751 v 0 c 0.393,0.276 0.941,0.402 0.941,0.402 v 0 c 0,0 -0.116,0.501 -0.128,0.9 v 0 c -0.021,0.688 -0.003,3.872 -0.003,3.872 v 0 l -1.62,0.168 c 0,0 0.018,-2.057 0.031,-3.128 v 0 c 0.006,-0.515 0.131,-0.935 0.131,-0.935 v 0 c 0,0 -0.506,-0.076 -0.869,-0.405 v 0 c -0.447,-0.406 -1.661,-1.302 -2.028,-1.611 v 0 c -31.087,0.869 -56.024,26.341 -56.024,57.641 v 0 c 0,30.366 23.475,55.247 53.267,57.494 v 0 l 0.016,-0.245 z" style="fill:url(#linearGradient74);stroke:none" id="path76"></path></g></g></g></g><g id="g78" transform="matrix(3.8069425,0,0,3.8069425,-664.93048,-1073.2198)"><g id="g80" clip-path="url(#clipPath84)"><g id="g86"><g id="g88"><path d="m 274.947,372.259 c -0.047,-0.513 0.035,-0.942 0.035,-0.942 v 0 c 0,0 -0.513,-0.024 -0.908,-0.315 v 0 c -0.557,-0.409 -2.572,-1.781 -2.572,-1.781 v 0 l 0.971,-1.311 c 0,0 1.798,1.389 3.021,2.067 v 0 c 0.419,0.233 0.978,0.304 0.978,0.304 v 0 c 0,0 -0.065,0.509 -0.035,0.907 v 0 c 0.05,0.687 0.395,3.852 0.395,3.852 v 0 l -1.594,0.333 c 0,0 -0.194,-2.047 -0.291,-3.114" style="fill:url(#linearGradient94);stroke:none" id="path96"></path></g></g></g></g><g id="g98" transform="matrix(3.8069425,0,0,3.8069425,-664.93048,-1073.2198)"><g id="g100" clip-path="url(#clipPath104)"><g id="g106"><g id="g108"><path d="m 269.769,375.862 c -0.071,-0.509 -0.01,-0.942 -0.01,-0.942 v 0 c 0,0 -0.512,0 -0.922,-0.272 v 0 c -0.575,-0.382 -2.652,-1.656 -2.652,-1.656 v 0 l 0.908,-1.356 c 0,0 1.861,1.302 3.115,1.923 v 0 c 0.428,0.213 0.99,0.256 0.99,0.256 v 0 c 0,0 -0.041,0.512 0.008,0.909 v 0 c 0.083,0.683 0.576,3.828 0.576,3.828 v 0 l -1.577,0.409 c 0,0 -0.289,-2.037 -0.436,-3.099" style="fill:url(#linearGradient114);stroke:none" id="path116"></path></g></g></g></g><g id="g118" transform="matrix(3.8069425,0,0,3.8069425,-664.93048,-1073.2198)"><g id="g120" clip-path="url(#clipPath124)"><g id="g126"><g id="g128"><path d="m 264.803,380.042 c -0.099,-0.505 -0.063,-0.941 -0.063,-0.941 v 0 c 0,0 -0.511,0.028 -0.935,-0.219 v 0 c -0.595,-0.35 -2.741,-1.504 -2.741,-1.504 v 0 l 0.829,-1.406 c 0,0 1.933,1.195 3.218,1.744 v 0 c 0.442,0.189 1.005,0.2 1.005,0.2 v 0 c 0,0 -0.012,0.513 0.058,0.907 v 0 c 0.122,0.678 0.792,3.79 0.792,3.79 v 0 l -1.551,0.497 c 0,0 -0.405,-2.017 -0.612,-3.068" style="fill:url(#linearGradient134);stroke:none" id="path136"></path></g></g></g></g><g id="g138" transform="matrix(3.8069425,0,0,3.8069425,-664.93048,-1073.2198)"><g id="g140" clip-path="url(#clipPath144)"><g id="g146"><g id="g148"><path d="m 280.357,369.148 c -0.032,-0.514 0.061,-0.942 0.061,-0.942 v 0 c 0,0 -0.512,-0.038 -0.899,-0.339 v 0 c -0.545,-0.425 -2.522,-1.851 -2.522,-1.851 v 0 l 1.008,-1.284 c 0,0 1.759,1.437 2.961,2.149 v 0 c 0.413,0.246 0.97,0.331 0.97,0.331 v 0 c 0,0 -0.079,0.507 -0.061,0.906 v 0 c 0.032,0.688 0.289,3.862 0.289,3.862 v 0 l -1.603,0.29 c 0,0 -0.136,-2.053 -0.204,-3.122" style="fill:url(#linearGradient154);stroke:none" id="path156"></path></g></g></g></g><g id="g158" transform="matrix(3.8069425,0,0,3.8069425,-664.93048,-1073.2198)"><g id="g160" clip-path="url(#clipPath164)"><g id="g166"><g id="g168"><path d="m 285.853,366.576 c -0.004,-0.514 0.113,-0.936 0.113,-0.936 v 0 c 0,0 -0.509,-0.065 -0.878,-0.389 v 0 c -0.521,-0.454 -2.414,-1.989 -2.414,-1.989 v 0 l 1.077,-1.225 c 0,0 1.676,1.533 2.838,2.313 v 0 c 0.398,0.266 0.948,0.383 0.948,0.383 v 0 c 0,0 -0.107,0.502 -0.11,0.902 v 0 c -0.008,0.688 0.071,3.871 0.071,3.871 v 0 l -1.617,0.199 c 0,0 -0.021,-2.057 -0.028,-3.129" style="fill:url(#linearGradient174);stroke:none" id="path176"></path></g></g></g></g><g id="g178" transform="matrix(3.8069425,0,0,3.8069425,-664.93048,-1073.2198)"><g id="g180" clip-path="url(#clipPath184)"><g id="g186"><g id="g188"><path d="m 291.267,364.204 c 0.005,-0.515 0.13,-0.934 0.13,-0.934 v 0 c 0,0 -0.506,-0.077 -0.87,-0.406 v 0 c -0.511,-0.465 -2.375,-2.034 -2.375,-2.034 v 0 l 1.1,-1.205 c 0,0 1.646,1.566 2.793,2.366 v 0 c 0.393,0.274 0.941,0.401 0.941,0.401 v 0 c 0,0 -0.116,0.501 -0.128,0.899 v 0 c -0.021,0.69 -0.003,3.873 -0.003,3.873 v 0 l -1.619,0.168 c 0,0 0.017,-2.056 0.031,-3.128" style="fill:url(#linearGradient194);stroke:none" id="path196"></path></g></g></g></g><g id="g198" transform="matrix(3.8069425,0,0,3.8069425,-664.93048,-1073.2198)"><g id="g200" clip-path="url(#clipPath204)"><g id="g206"><g id="g208"><path d="m 314.736,444.715 c -0.421,-0.545 -2.366,-2.554 -2.366,-2.554 v 0 l 0.901,-1.539 c 0,0 1.583,1.191 2.254,2.029 v 0 c 0.322,0.401 0.638,0.787 0.638,0.787 v 0 c 0,0 0.452,-0.301 1.164,-0.301 v 0 c 0.692,0 3.418,-0.074 3.418,-0.074 v 0 l -0.01,1.942 c 0,0 -2.501,-0.022 -3.896,0.085 v 0 c -0.477,0.038 -1.69,0.489 -1.69,0.489 v 0 c 0,0 -0.169,-0.549 -0.413,-0.864" style="fill:url(#linearGradient214);stroke:none" id="path216"></path></g></g></g></g><g id="g218" transform="matrix(3.8069425,0,0,3.8069425,-664.93048,-1073.2198)"><g id="g220" clip-path="url(#clipPath224)"><g id="g226"><g id="g228"><path d="m 311.262,450.246 c -0.419,-0.546 -2.74,-2.893 -2.74,-2.893 v 0 l 1.314,-1.426 c 0,0 1.523,1.693 2.253,2.479 v 0 c 0.488,0.526 0.601,1.126 0.601,1.126 v 0 c 0,0 0.526,-0.263 1.239,-0.263 v 0 c 0.691,0 3.417,-0.075 3.417,-0.075 v 0 l -0.188,1.765 c 0,0 -2.216,0.075 -3.718,0.112 v 0 c -0.788,0.021 -1.512,0.311 -1.512,0.311 v 0 c 0,0 -0.421,-0.821 -0.666,-1.136" style="fill:url(#linearGradient234);stroke:none" id="path236"></path></g></g></g></g><g id="g238" transform="matrix(3.8069425,0,0,3.8069425,-664.93048,-1073.2198)"><g id="g240" clip-path="url(#clipPath244)"><g id="g246"><g id="g248"><path d="m 307.905,456.372 c -0.422,-0.545 -2.742,-2.892 -2.742,-2.892 v 0 l 1.315,-1.426 c 0,0 1.523,1.692 2.253,2.478 v 0 c 0.487,0.526 0.6,1.126 0.6,1.126 v 0 c 0,0 0.527,-0.262 1.24,-0.262 v 0 c 0.69,0 3.416,-0.076 3.416,-0.076 v 0 l -0.186,1.765 c 0,0 -2.216,0.075 -3.718,0.113 v 0 c -0.789,0.02 -1.513,0.311 -1.513,0.311 v 0 c 0,0 -0.422,-0.823 -0.665,-1.137" style="fill:url(#linearGradient254);stroke:none" id="path256"></path></g></g></g></g><g id="g258" transform="matrix(3.8069425,0,0,3.8069425,-664.93048,-1073.2198)"><g id="g260" clip-path="url(#clipPath264)"><g id="g266"><g id="g268"><path d="m 304.392,462.572 c -0.422,-0.544 -2.741,-2.892 -2.741,-2.892 v 0 l 1.314,-1.426 c 0,0 1.523,1.692 2.253,2.478 v 0 c 0.488,0.526 0.601,1.127 0.601,1.127 v 0 c 0,0 0.526,-0.263 1.238,-0.263 v 0 c 0.692,0 3.419,-0.075 3.419,-0.075 v 0 l -0.188,1.765 c 0,0 -2.217,0.075 -3.718,0.112 v 0 c -0.789,0.02 -1.512,0.311 -1.512,0.311 v 0 c 0,0 -0.422,-0.821 -0.666,-1.137" style="fill:url(#linearGradient274);stroke:none" id="path276"></path></g></g></g></g><g id="g278" transform="matrix(3.8069425,0,0,3.8069425,-664.93048,-1073.2198)"><g id="g280" clip-path="url(#clipPath284)"><g id="g286"><g id="g288"><path d="m 300.559,468.261 c -0.394,-0.564 -2.508,-2.863 -2.508,-2.863 v 0 l 1.382,-1.361 c 0,0 1.349,1.606 2.041,2.426 v 0 c 0.461,0.549 0.544,1.154 0.544,1.154 v 0 c 0,0 0.539,-0.237 1.251,-0.203 v 0 c 0.691,0.033 3.418,0.09 3.418,0.09 v 0 l -0.272,1.754 c 0,0 -2.217,-0.032 -3.719,-0.066 v 0 c -0.789,-0.019 -1.535,0.228 -1.535,0.228 v 0 c 0,0 -0.373,-0.832 -0.602,-1.159" style="fill:url(#linearGradient294);stroke:none" id="path296"></path></g></g></g></g><g id="g298" transform="matrix(3.8069425,0,0,3.8069425,-664.93048,-1073.2198)"><g id="g300" clip-path="url(#clipPath304)"><g id="g306" transform="translate(294.0459,494.0527)"><path d="M 0,0 H -4.028 V -1.28 H 0 v -9.693 H 3.152 V -1.28 H 7.18 V 0 H 3.152 Z" style="fill:#ffffff;fill-opacity:1;fill-rule:nonzero;stroke:none" id="path308"></path></g><g id="g310" transform="translate(308.1494,493.0967)"><path d="m 0,0 -3.972,0.673 -0.214,-1.262 3.971,-0.674 -1.619,-9.555 3.107,-0.527 1.62,9.556 3.972,-0.673 0.214,1.262 -3.972,0.673 z" style="fill:#ffffff;fill-opacity:1;fill-rule:nonzero;stroke:none" id="path312"></path></g><g id="g314" transform="translate(321.9639,488.1162)"><path d="M 0,0 5.32,-2.11 5.763,-0.994 -0.22,1.38 -1.893,2.043 C -2.525,2.295 -3.239,2.008 -3.529,1.401 L -3.533,1.403 -6.614,-6.359 -6.61,-6.36 c -0.204,-0.641 0.117,-1.339 0.752,-1.591 l 1.671,-0.663 5.983,-2.374 0.442,1.116 -5.308,2.106 c -0.371,0.151 -0.553,0.573 -0.405,0.945 l 1.103,2.778 5.981,-2.374 0.561,1.27 -5.983,2.374 0.881,2.36 C -0.785,-0.044 -0.371,0.138 0,0" style="fill:#ffffff;fill-opacity:1;fill-rule:nonzero;stroke:none" id="path316"></path></g><g id="g318" transform="translate(270.7524,479.7451)"><path d="m 0,0 c -0.401,-0.141 -0.84,0.056 -1.004,0.447 l -3.077,8.178 -2.95,-1.109 2.929,-7.787 0.488,-1.298 0.004,0.002 c 0.279,-0.612 0.987,-0.912 1.625,-0.672 l 1.743,0.656 5.454,2.051 -0.492,1.307 z" style="fill:#ffffff;fill-opacity:1;fill-rule:nonzero;stroke:none" id="path320"></path></g><g id="g322" transform="translate(283.2114,482.4766)"><path d="M 0,0 C -1.698,-0.279 -3.419,1.584 -3.845,4.163 -4.27,6.742 -3.238,9.06 -1.54,9.34 0.159,9.619 1.88,7.756 2.306,5.177 2.73,2.598 1.698,0.28 0,0 m -1.787,10.594 c -3.417,-0.563 -5.748,-3.675 -5.208,-6.95 0.54,-3.276 3.747,-5.475 7.163,-4.912 3.416,0.564 5.748,3.675 5.207,6.951 -0.539,3.275 -3.746,5.474 -7.162,4.911" style="fill:#ffffff;fill-opacity:1;fill-rule:nonzero;stroke:none" id="path324"></path></g><g id="g326" transform="translate(337.4365,357.0498)"><path d="M 0,0 C -0.35,0.546 -0.964,0.786 -1.641,0.352 L -1.927,0.168 c -0.677,-0.434 -0.774,-1.189 -0.417,-1.746 l 0.158,-0.221 c 0.382,-0.595 0.938,-0.661 1.589,-0.243 l 0.283,0.183 c 0.65,0.418 0.784,1.128 0.402,1.722 z M -2.515,3.799 C -2.824,4.281 -3.361,4.49 -4.116,4.006 L -4.445,3.799 C -5.201,3.314 -5.057,2.72 -4.738,2.224 l 0.181,-0.271 c 0.35,-0.545 0.881,-0.555 1.48,-0.171 l 0.428,0.281 c 0.598,0.384 0.647,0.944 0.297,1.489 z M 0.736,-3.582 0.58,-3.683 c -2.33,-1.494 -4.014,-1.255 -5.062,0.382 l -0.127,0.198 c -0.518,0.805 -0.686,1.707 -0.342,2.574 -0.874,0.016 -1.475,0.372 -1.999,1.19 l -0.144,0.224 c -1.041,1.624 -0.6,3.264 1.742,4.766 l 0.157,0.101 c 2.33,1.494 3.916,1.2 4.957,-0.423 L -0.096,5.106 C 0.429,4.288 0.604,3.61 0.256,2.81 1.188,2.76 1.833,2.214 2.35,1.408 L 2.477,1.21 C 3.525,-0.427 3.065,-2.089 0.736,-3.582" style="fill:#ffffff;fill-opacity:1;fill-rule:nonzero;stroke:none" id="path328"></path></g><g id="g330" transform="translate(345.2354,365.7607)"><path d="m 0,0 -0.465,-1.148 c -0.61,-1.332 -1.191,-2.527 -0.647,-3.166 l 0.477,-0.549 3.276,3.029 c 0.129,0.11 0.321,0.101 0.425,-0.023 L 4.15,-2.874 C 4.255,-2.997 4.235,-3.188 4.105,-3.299 l -4.96,-4.424 c -0.129,-0.11 -0.323,-0.1 -0.427,0.024 l -1.051,1.089 c -1.052,1.232 -1.61,2.306 -1.284,3.591 l 1.087,2.298 C -1.834,0.623 -2.445,1.043 -2.713,1.357 -3.02,1.715 -3.312,1.71 -4.24,0.917 -4.981,0.284 -5.553,-0.45 -6.233,-1.128 -6.245,-1.139 -6.245,-1.139 -6.258,-1.148 -6.375,-1.249 -6.555,-1.229 -6.66,-1.105 l -0.88,0.91 c -0.106,0.123 -0.062,0.273 0.042,0.403 0.592,0.745 1.572,1.643 2.463,2.565 1.711,1.773 3.154,1.191 4.314,-0.036 C 0.122,1.845 0.428,1.1 0,0" style="fill:#ffffff;fill-opacity:1;fill-rule:nonzero;stroke:none" id="path332"></path></g><g id="g334" transform="translate(326.1357,355.0918)"><path d="m 0,0 c -0.713,1.356 -1.338,1.166 -2.09,0.771 -0.576,-0.302 -1.096,-0.86 -0.514,-1.968 l 0.184,-0.244 c 0.479,-0.913 1.318,-0.465 2.016,-0.098 0.328,0.173 0.656,0.498 0.867,0.659 z M 2.736,-6.94 C 1.463,-7.609 0.162,-8.132 -0.584,-8.308 -0.865,-8.372 -0.967,-8.31 -1.049,-8.153 l -0.532,1.001 c -0.097,0.182 -0.048,0.324 0.102,0.402 0.028,0.015 0.041,0.022 0.069,0.037 0.691,0.246 1.718,0.724 2.546,1.105 1.381,0.635 1.454,1.551 0.464,3.128 L 1.559,-2.402 C 1.326,-2.591 0.566,-3.286 0.17,-3.494 -2.074,-4.674 -3.582,-4.74 -4.693,-2.847 l -0.391,0.685 c -1.068,2.033 -0.08,3.539 2.371,4.827 2.367,1.244 3.844,0.795 5.082,-1.564 l 1.663,-3.08 C 5.401,-4.586 4.872,-5.818 2.736,-6.94" style="fill:#ffffff;fill-opacity:1;fill-rule:nonzero;stroke:none" id="path336"></path></g><g id="g338" transform="translate(321.1133,344.9492)"><path d="m 0,0 -1.87,-0.733 c -0.16,-0.058 -0.336,0.018 -0.391,0.171 L -5.133,7.369 -6.159,6.745 C -6.217,6.695 -6.266,6.664 -6.306,6.649 -6.399,6.615 -6.458,6.651 -6.495,6.753 l -0.58,1.435 c -0.042,0.115 -0.021,0.18 0.082,0.275 l 3.106,1.731 c 0.148,0.054 0.292,-0.008 0.343,-0.149 L 0.175,0.377 C 0.23,0.225 0.159,0.059 0,0" style="fill:#ffffff;fill-opacity:1;fill-rule:nonzero;stroke:none" id="path340"></path></g><g id="g342" transform="translate(295.6455,350.2695)"><path d="M 0,0 2.002,0.103 C 2.223,0.115 2.391,0.086 2.506,0.014 2.621,-0.058 2.73,-0.169 2.834,-0.319 l 4.413,-6.563 -0.389,7.318 2.905,0.16 0.534,-9.093 c 0.014,-0.226 -0.035,-0.389 -0.146,-0.489 -0.11,-0.1 -0.303,-0.159 -0.576,-0.173 l -1.733,-0.2 C 7.621,-9.372 7.453,-9.343 7.338,-9.271 7.223,-9.199 7.113,-9.088 7.01,-8.938 l -4.863,6.88 0.413,-7.477 -2.859,-0.137 -0.424,9.01 c -0.011,0.225 0.037,0.389 0.148,0.489 C -0.465,-0.072 -0.273,-0.016 0,0" style="fill:#ffffff;fill-opacity:1;fill-rule:nonzero;stroke:none" id="path344"></path></g><g id="g346" transform="translate(254.9712,362.9443)"><path d="m 0,0 -1.658,-2.339 1.603,-1.142 c 0.527,-0.434 1.162,-0.796 1.556,-0.799 0.407,-0.004 0.94,0.391 1.17,0.816 C 3.15,-2.579 2.53,-1.742 1.89,-1.308 1.25,-0.873 0,0 0,0 m -2.303,-3.279 -1.753,-2.379 c -0.081,-0.115 -0.109,-0.214 -0.084,-0.298 0.025,-0.084 0.116,-0.181 0.271,-0.289 l 1.511,-1.143 c 0.649,-0.452 1.421,-0.815 1.971,-0.718 0.55,0.097 0.713,0.277 1.124,0.866 0.295,0.423 0.35,1.124 0.01,1.61 -0.161,0.229 -0.575,0.629 -1.282,1.114 -0.708,0.487 -1.768,1.237 -1.768,1.237 m 1.419,5.306 4.44,-3.114 C 4.472,-1.726 4.896,-2.254 5.195,-2.929 5.48,-3.571 5.388,-4.235 5.048,-4.938 4.741,-5.571 4.04,-5.927 3.628,-6.063 3.218,-6.2 2.561,-5.95 2.174,-5.748 2.776,-6.063 3.068,-6.702 3.169,-7.296 3.269,-7.889 3.117,-8.681 2.805,-9.128 2.134,-10.089 1.603,-10.28 0.682,-10.226 c -0.991,0.061 -1.511,0.388 -2.7,1.221 l -4.085,2.85 c -0.493,0.407 -0.574,0.492 -0.659,0.795 -0.085,0.301 -0.015,0.613 0.208,0.932 l 4.456,6.373 c 0.134,0.193 0.309,0.296 0.526,0.312 0.216,0.015 0.446,-0.062 0.688,-0.23" style="fill:#ffffff;fill-opacity:1;fill-rule:nonzero;stroke:none" id="path348"></path></g><g id="g350" transform="translate(262.5317,350.0195)"><path d="m 0,0 c 0.158,-0.302 0.642,-0.763 1.12,-0.983 0.479,-0.221 1.104,-0.349 1.441,-0.297 0.337,0.051 1.11,0.465 1.349,0.983 L 6.883,6.104 9.421,4.984 6.792,-0.961 C 6.311,-2.003 4.837,-2.777 3.865,-2.836 2.892,-2.894 2.022,-2.761 0.549,-2.081 -0.925,-1.401 -1.38,-0.824 -1.967,-0.046 -2.554,0.732 -2.95,2.173 -2.355,3.407 L 0.206,9.123 2.813,7.911 0.137,2.012 C -0.206,1.325 -0.274,0.525 0,0" style="fill:#ffffff;fill-opacity:1;fill-rule:nonzero;stroke:none" id="path352"></path></g><g id="g354" transform="translate(279.8882,349.8125)"><path d="M 0,0 C 0,0 -0.08,0.792 -0.297,1.121 -0.515,1.449 -1.104,1.955 -1.653,2.114 -2.311,2.307 -2.904,2.492 -3.705,2.333 -4.105,2.252 -4.607,1.79 -4.688,1.326 -4.782,0.648 -3.178,-0.137 -1.92,-0.594 -0.4,-1.146 0.675,-2.183 1.212,-2.767 1.749,-3.351 1.679,-4.43 1.555,-5.099 1.448,-5.66 1.054,-6.06 0.656,-6.386 0.258,-6.711 -0.155,-6.898 -0.732,-6.974 c -0.577,-0.076 -1.065,-0.165 -1.686,-0.1 -0.621,0.065 -1.314,0.111 -1.95,0.305 -1.02,0.306 -1.845,0.695 -2.515,1.189 -0.67,0.495 -1.33,1.169 -1.588,1.752 -0.379,0.855 -0.058,1.815 -0.058,1.815 l 2.492,-0.73 c 0,0 -0.252,-1.075 0.412,-1.853 0.462,-0.542 1.072,-0.825 1.6,-1.007 0.87,-0.296 1.873,-0.246 2.241,-0.114 0.368,0.133 0.595,0.377 0.68,0.735 0.062,0.273 -10e-4,0.575 -0.192,0.905 -0.19,0.33 -1.445,1.248 -2.065,1.425 -1.607,0.459 -2.806,1.288 -3.408,2.035 -0.602,0.747 -0.709,1.774 -0.503,2.584 0.213,0.84 1.137,1.52 2.172,1.762 1.036,0.239 2.357,0.013 3.912,-0.458 C 0.204,2.85 1.218,2.09 1.861,1.45 2.767,0.549 2.607,-0.754 2.607,-0.754 Z" style="fill:#ffffff;fill-opacity:1;fill-rule:nonzero;stroke:none" id="path356"></path></g><g id="g358" transform="translate(287.96,348.0752)"><path d="m 0,0 -2.287,-3.499 4.002,-0.365 -1.28,3.842 z M 0.412,2.744 1.711,2.68 C 1.932,2.655 2.085,2.603 2.171,2.522 2.258,2.442 2.319,2.326 2.355,2.173 l 3.43,-9.239 C 5.895,-7.424 5.729,-7.578 5.289,-7.529 L 3.27,-7.363 C 3.05,-7.339 2.895,-7.281 2.804,-7.188 2.714,-7.096 2.646,-6.969 2.6,-6.807 l -0.474,1.661 -5.099,0.458 -0.8,-1.281 c -0.053,-0.095 -0.104,-0.171 -0.152,-0.224 -0.049,-0.054 -0.128,-0.1 -0.238,-0.139 -0.11,-0.038 -0.25,-0.049 -0.417,-0.03 l -0.908,0.005 c -0.43,0.047 -0.559,0.222 -0.387,0.526 l 5.533,8.234 C -0.284,2.546 -0.204,2.645 -0.102,2.7 0,2.756 0.17,2.771 0.412,2.744" style="fill:#ffffff;fill-opacity:1;fill-rule:nonzero;stroke:none" id="path360"></path></g><g id="g362" transform="translate(408.9346,433.501)"><path d="m 0,0 c -1.223,3.377 -4.706,6.377 -8.875,7.643 -1.987,0.603 -4.869,0.949 -7.908,0.949 -4.072,0 -7.969,-0.623 -10.969,-1.756 C -28.139,6.69 -28.518,6.534 -28.895,6.373 -29.963,6.091 -30.82,5.822 -31.42,5.621 l -0.815,2.493 1.38725,4.552834 0.223417,0.665084 v 0 l -2.301044,-0.0066 -1.260623,0.07868 -1.211,2.959 1.102,4.069 0.729,2.686 h -2.784 -6.004 -1.062 l -0.64,-0.85 c -0.069,-0.092 -7.214,-9.439 -16.798,-12.015 l -1.183,-0.317 -0.32,-1.185 -1.14,-4.228 c -2.681,2.716 -6.646,4.201 -11.267,4.201 -0.388,0 -0.788,-0.011 -1.185,-0.033 -1.692,-0.09 -3.149,-0.304 -4.348,-0.552 l 0.111,0.425 h -2.761 -14.555 -1.637 l -0.424,-0.019 -2.753,0.019 c -0.074,0 -7.371,0.051 -9.248,0.051 -2.124,0 -3.664,-0.612 -4.665,-1.217 -1.296,0.579 -3.437,1.232 -6.486,1.232 h -0.102 -0.014 c -4.901,-0.027 -11.726,-1.066 -16.534,-5.825 l -4.911,-1.567 c 0.456,1.694 0.883,3.275 1.253,4.641 l 0.727,2.684 h -1.364 c 0.01,0.009 0.02,0.017 0.03,0.025 2.251,1.889 3.784,4.389 4.317,7.04 0.57,2.828 -0.045,5.491 -1.731,7.501 -1.63,1.944 -4.057,3.015 -6.833,3.015 v 0 c -2.789,0 -5.607,-1.077 -7.936,-3.031 -0.62,-0.519 -1.183,-1.087 -1.687,-1.69 l -0.068,0.096 -3.756,-5.549 c -0.186,1.196 -0.643,2.701 -1.683,4.232 -2.032,2.989 -5.557,5.08 -10.477,6.213 -3.155,0.728 -6.477,1.096 -9.874,1.096 -9.017,0 -17.792,-2.558 -24.708,-7.203 -5.426,-3.645 -10.044,-8.148 -13.353,-13.022 -3.617,-5.328 -5.613,-10.894 -5.931,-16.544 -0.327,-5.822 0.726,-10.803 3.131,-14.805 2.412,-4.013 6.113,-6.949 11.001,-8.726 5.515,-2.006 12.657,-2.305 16.423,-2.305 0.656,0 1.305,0.008 1.946,0.025 l 0.94,-3.683 c -2.194,-0.256 -4.247,-0.509 -6.143,-0.752 -14.552,-1.864 -23.433,-3.592 -23.522,-3.609 l -10.698,-2.096 10.701,-2.083 c 11.47,-2.234 19.749,-7.24 24.674,-11.047 5.361,-4.142 8.034,-7.809 8.061,-7.846 l 0.934,-1.295 1.507,0.532 c 0.078,0.027 7.944,2.808 20.095,5.896 11.196,2.847 28.425,6.545 46.925,7.999 13.307,1.047 30.857,1.293 46.271,1.396 17.311,0.115 38.219,0.873 45.659,1.656 7.72,0.813 13.412,3.606 19.027,9.34 5.899,6.023 6.027,12.938 6.03,13.23 l 0.04,4.574 c 1.194,2.909 1.457,5.86 0.527,8.263 -0.967,2.497 -3.011,4.519 -6.101,6.043 h 8.227 1.931 l 0.188,1.922 C 0.494,-5.912 0.804,-2.223 0,0" style="fill:#ffffff;fill-opacity:1;fill-rule:nonzero;stroke:none" id="path364"></path></g><g id="g366" transform="translate(257.3594,441.7354)"><path d="m 0,0 c 2.186,0 4.56,0.849 6.567,2.532 3.891,3.265 4.932,8.432 2.323,11.541 -1.263,1.506 -3.149,2.253 -5.202,2.253 -2.186,0 -4.56,-0.847 -6.567,-2.531 C -6.771,10.529 -7.81,5.363 -5.202,2.253 -3.939,0.747 -2.053,0 0,0" style="fill:#dc0827;fill-opacity:1;fill-rule:nonzero;stroke:none" id="path368"></path></g><g id="g370" transform="translate(196.4341,403.2598)"><path d="m 0,0 c 4.271,-1.554 10.181,-2.177 15.695,-2.177 5.872,0 11.297,0.707 13.826,1.753 0,0 2.125,-2.606 5.931,-2.606 0.322,0 0.656,0.018 1.002,0.059 0,0 4.669,19.618 7.31,23.674 2.64,4.056 4.904,6.65 4.904,6.65 0,0 -1.189,0.028 -3.034,0.028 -4.348,0 -12.34,-0.162 -17.009,-1.255 -6.649,-1.557 -11.271,-3.537 -13.628,-5.188 -2.358,-1.65 -8.206,-6.507 -8.206,-6.507 0,0 10.229,2.109 14.289,2.311 0.385,0.019 0.771,0.028 1.151,0.028 2.434,0 4.623,-0.359 4.791,-0.642 C 27.216,15.802 26.415,7.75 20.137,7.074 19.154,6.969 18.213,6.913 17.314,6.913 c -5.091,0 -8.804,1.762 -10.853,6.009 -2.594,5.376 -1.321,14.431 2.83,20.372 4.156,5.952 8.205,9.856 14.005,12.073 2.661,1.017 4.785,1.497 6.41,1.497 1.919,0 3.143,-0.671 3.73,-1.922 1.085,-2.31 -0.425,-5.564 -1.651,-6.696 -1.226,-1.132 -4.952,-4.763 -4.952,-4.763 0,0 5.244,0.41 10.706,1.226 5.989,0.896 11.176,4.433 11.601,10.14 0.136,1.836 -0.378,7.922 -10.611,10.28 -3.008,0.693 -6.181,1.041 -9.396,1.041 -8.211,0 -16.71,-2.267 -23.521,-6.842 C -4.618,42.458 -12.12,32.304 -12.733,21.41 -13.346,10.517 -8.818,3.207 0,0" style="fill:#dc0827;fill-opacity:1;fill-rule:nonzero;stroke:none" id="path372"></path></g><g id="g374" transform="translate(388.2119,412.1182)"><path d="m 0,0 c 0.012,-0.051 0.021,-0.103 0.027,-0.153 0.198,-1.436 -1.364,-3.312 -4.556,-3.312 -0.303,0 -0.621,0.018 -0.953,0.053 -3.961,0.427 -5.484,1.341 -6.459,2.863 -0.975,1.524 0.183,4.265 1.889,4.875 0,0 3.778,-1.219 5.849,-1.828 C -2.132,1.889 -0.365,1.584 0,0 m -99.468,17.15 c -0.053,-0.575 -0.178,-1.233 -0.386,-1.98 -1.248,-4.454 -2.633,-10.061 -3.537,-13.153 -0.231,-0.79 -0.491,-1.494 -0.788,-2.111 -0.88,-1.824 -2.085,-2.885 -3.813,-3.197 -0.357,-0.063 -0.735,-0.097 -1.138,-0.097 -0.25,0 -0.509,0.013 -0.777,0.037 -2.797,0.256 -1.825,5.436 -1.28,7.981 0.549,2.558 1.535,6.38 2.681,9.505 0.671,1.827 1.662,4.014 3.553,5.307 0.955,0.653 2.025,1.076 2.967,1.126 0.063,0.003 0.125,0.005 0.187,0.005 1.46,0 2.558,-0.955 2.331,-3.423 M 4.398,15.508 h 14.62 c 0,0 0.374,3.815 -0.307,5.698 -0.945,2.61 -3.836,5.22 -7.491,6.329 -1.699,0.516 -4.356,0.858 -7.29,0.858 -3.381,0 -7.131,-0.455 -10.217,-1.62 -5.738,-2.167 -10.785,-6.305 -11.439,-11.46 -0.652,-5.157 1.632,-7.572 1.632,-7.572 0,0 -4.177,-2.479 -5.025,-4.633 -0.848,-2.153 -1.436,-4.568 -3.264,-5.678 -0.629,-0.382 -1.242,-0.656 -1.728,-0.656 -0.927,0 -1.391,0.992 -0.621,4.115 1.175,4.764 6.201,23.364 6.201,23.364 h 5.09 l 2.088,7.832 h -5.221 l 2.937,10.833 h -6.004 c 0,0 -7.505,-9.985 -17.947,-12.791 l -1.566,-5.809 h 6.064 c 0,0 -5.019,-18.273 -6.326,-23.103 -1.305,-4.829 -3.002,-4.829 -4.307,-4.829 -1.304,0 -1.174,2.153 -0.521,4.634 0.652,2.479 2.545,9.528 3.458,12.792 0.914,3.262 1.37,7.831 -1.044,10.637 -2.234,2.596 -5.865,4.075 -10.221,4.075 -0.351,0 -0.709,-0.009 -1.07,-0.029 -4.828,-0.261 -7.49,-1.561 -7.49,-1.561 l 0.377,1.43 h -14.554 c 0,0 -6.005,-22.58 -7.049,-26.496 -1.003,-3.761 -2.487,-5.294 -4.106,-5.294 -0.067,0 -0.133,0.003 -0.202,0.007 -1.696,0.131 -1.5,1.894 -0.782,4.503 0.718,2.611 7.31,27.28 7.31,27.28 0,0 -7.342,0.052 -9.235,0.052 -3.086,0 -4.471,-1.617 -4.471,-1.617 0,0 -2.106,1.631 -6.679,1.632 -0.036,0 -0.071,-0.001 -0.107,-0.001 -5.107,-0.028 -11.111,-1.237 -15.142,-5.302 -3.675,-3.706 -6.015,-8.182 -7.571,-15.023 -1.723,-7.572 -2.896,-10.653 -5.808,-11.588 -0.201,-0.065 -0.376,-0.096 -0.528,-0.096 -1.431,0 -0.833,2.725 -0.125,5.969 0.476,2.181 6.918,25.974 6.918,25.974 h -9.593 c -2.807,0 -5.546,-1.404 -6.462,-5.481 -0.718,-3.198 -4.184,-16.07 -5.613,-21.537 -1.892,-7.244 1.05,-12.448 10.508,-12.858 0.27,-0.01 0.537,-0.016 0.798,-0.016 7.189,0 11.08,4.259 11.08,4.259 0,0 2.248,-3.66 10.05,-4.112 0.53,-0.03 1.042,-0.044 1.534,-0.044 6.957,0 10.279,2.851 10.279,2.851 0,0 2.079,-2.309 6.852,-2.807 0.868,-0.09 1.678,-0.127 2.424,-0.127 3.346,0 5.381,0.746 5.381,0.746 l -0.234,-0.75 h 14.684 c 0,0 5.482,20.95 6.331,24.475 0.848,3.524 3.132,6.983 6.264,7.309 0.709,0.074 1.328,0.144 1.844,0.144 1.765,0 2.336,-0.825 1.224,-5.169 -1.435,-5.613 -2.611,-9.789 -3.85,-14.358 -1.24,-4.569 -0.636,-10.638 7.243,-12.074 1.348,-0.245 2.615,-0.349 3.797,-0.349 6.826,0 10.822,3.482 10.822,3.482 0,0 2.351,-3.191 8.812,-3.393 0.289,-0.009 0.574,-0.014 0.851,-0.014 6.898,0 10.112,2.688 10.112,2.688 0,0 2.546,-2.153 8.55,-2.479 1.415,-0.077 2.923,-0.14 4.468,-0.14 5.008,0 10.418,0.656 14.459,3.599 5.285,3.851 8.223,10.312 6.656,14.357 -1.566,4.047 -6.721,5.809 -9.789,6.592 -3.068,0.783 -6.918,1.306 -7.637,3.264 -0.716,1.958 1.241,3.393 2.676,3.785 0.504,0.137 1.256,0.242 2.012,0.242 1.4,0 2.814,-0.361 2.687,-1.548 C 4.66,17.074 4.398,15.508 4.398,15.508" style="fill:#dc0827;fill-opacity:1;fill-rule:nonzero;stroke:none" id="path376"></path></g><g id="g378" transform="translate(380.2275,396.5996)"><path d="m 0,0 c -4.513,-0.148 -10.986,-0.206 -18.592,-0.206 -26.548,0 -66.893,0.699 -85.802,0.699 -3.328,0 -5.991,-0.021 -7.798,-0.072 -47.346,-1.334 -82.275,-8.176 -82.275,-8.176 23.152,-4.508 34.056,-19.739 34.056,-19.739 0,0 31.419,11.17 67.566,14.013 12.341,0.97 28.086,1.279 46.425,1.401 18.338,0.122 38.504,0.913 45.449,1.644 6.946,0.732 12.249,3.118 17.729,8.712 5.367,5.481 5.422,11.759 5.422,11.759 C 19.195,6.44 9.642,0.314 0,0" style="fill:#dc0827;fill-opacity:1;fill-rule:nonzero;stroke:none" id="path380"></path></g><g id="g382" transform="translate(252.9688,449.2813)"><path d="m 0,0 c 0.344,1.708 1.366,3.348 2.88,4.617 1.541,1.293 3.436,2.034 5.199,2.034 1.496,0 2.763,-0.53 3.57,-1.492 0.838,-0.998 1.129,-2.391 0.82,-3.924 C 12.126,-0.473 11.103,-2.113 9.59,-3.382 8.048,-4.676 6.153,-5.417 4.391,-5.417 2.896,-5.417 1.627,-4.887 0.82,-3.925 -0.017,-2.927 -0.309,-1.533 0,0 m 4.391,-7.546 c 2.185,0 4.56,0.849 6.567,2.532 3.891,3.265 4.931,8.432 2.323,11.541 C 12.018,8.033 10.131,8.78 8.079,8.78 5.893,8.78 3.519,7.933 1.511,6.249 -2.38,2.983 -3.419,-2.183 -0.812,-5.293 0.452,-6.799 2.338,-7.546 4.391,-7.546" style="fill:#042957;fill-opacity:1;fill-rule:nonzero;stroke:none" id="path384"></path></g><g id="g386" transform="translate(185.8271,424.5508)"><path d="m 0,0 c 0.274,4.868 2.024,9.71 5.202,14.391 3.006,4.427 7.226,8.536 12.204,11.879 6.221,4.178 14.153,6.48 22.334,6.48 3.075,0 6.076,-0.332 8.918,-0.987 3.84,-0.885 6.502,-2.385 7.911,-4.458 1.105,-1.625 1.086,-3.159 1.055,-3.59 -0.158,-2.111 -1.145,-3.922 -2.936,-5.381 -1.731,-1.409 -4.167,-2.407 -6.857,-2.81 -1.549,-0.232 -3.086,-0.43 -4.489,-0.596 0.191,0.18 0.359,0.338 0.494,0.463 1.835,1.694 3.651,5.932 2.134,9.166 -0.552,1.174 -2.02,3.145 -5.657,3.145 -1.94,0 -4.286,-0.535 -7.169,-1.637 C 27.385,23.865 22.902,20.024 18.152,13.223 13.553,6.639 12.235,-3.252 15.15,-9.294 c 2.309,-4.787 6.606,-7.213 12.771,-7.213 0.959,0 1.985,0.058 3.051,0.173 3.212,0.346 5.753,2.216 7.348,5.407 0.83,1.659 2.017,5.374 1.139,6.852 -0.546,0.92 -1.541,1.227 -3.074,1.446 -1.063,0.152 -2.323,0.236 -3.547,0.236 -0.427,0 -0.849,-0.009 -1.257,-0.03 -1.55,-0.077 -3.904,-0.409 -6.273,-0.8 0.584,0.449 1.107,0.84 1.516,1.126 2.475,1.732 7.295,3.549 12.894,4.859 4.03,0.943 10.796,1.162 15.203,1.194 C 54.217,2.992 53.42,1.854 52.586,0.574 50.194,-3.1 46.614,-17.129 45.38,-22.153 c -2.2,0.249 -3.478,1.644 -3.608,1.792 l -0.959,1.232 -1.498,-0.618 c -1.916,-0.793 -6.682,-1.592 -13.013,-1.592 -6.018,0 -11.334,0.728 -14.968,2.049 -3.946,1.436 -6.909,3.764 -8.806,6.918 C 0.572,-9.116 -0.279,-4.953 0,0 m 10.607,-21.291 c 4.271,-1.554 10.181,-2.177 15.695,-2.177 5.872,0 11.297,0.707 13.826,1.753 0,0 2.125,-2.606 5.931,-2.606 0.322,0 0.656,0.018 1.002,0.059 0,0 4.668,19.618 7.31,23.674 2.64,4.056 4.904,6.65 4.904,6.65 0,0 -1.19,0.028 -3.034,0.028 C 51.893,6.09 43.901,5.928 39.232,4.835 32.583,3.278 27.961,1.298 25.604,-0.353 23.246,-2.003 17.398,-6.86 17.398,-6.86 c 0,0 10.228,2.109 14.289,2.311 0.385,0.019 0.771,0.028 1.151,0.028 2.433,0 4.623,-0.359 4.791,-0.642 0.194,-0.326 -0.607,-8.378 -6.885,-9.054 -0.983,-0.105 -1.924,-0.161 -2.823,-0.161 -5.091,0 -8.804,1.762 -10.853,6.009 -2.594,5.376 -1.321,14.431 2.829,20.372 4.157,5.952 8.206,9.856 14.006,12.073 2.66,1.017 4.785,1.497 6.41,1.497 1.919,0 3.143,-0.671 3.729,-1.922 1.085,-2.31 -0.424,-5.564 -1.65,-6.696 -1.226,-1.132 -4.952,-4.763 -4.952,-4.763 0,0 5.244,0.41 10.706,1.226 5.989,0.896 11.176,4.433 11.601,10.14 0.136,1.836 -0.378,7.921 -10.611,10.28 -3.009,0.693 -6.181,1.041 -9.396,1.041 -8.211,0 -16.71,-2.267 -23.521,-6.842 C 5.989,21.167 -1.513,11.013 -2.126,0.119 -2.739,-10.774 1.789,-18.084 10.607,-21.291" style="fill:#042957;fill-opacity:1;fill-rule:nonzero;stroke:none" id="path388"></path></g><g id="g390" transform="translate(390.3799,434.6963)"><path d="m 0,0 c -0.895,0 -1.832,-0.115 -2.571,-0.317 -1.325,-0.362 -3.046,-1.336 -3.9,-2.991 -0.584,-1.132 -0.659,-2.371 -0.215,-3.582 0.993,-2.707 4.323,-3.476 7.544,-4.219 0.548,-0.127 1.067,-0.246 1.564,-0.373 4.559,-1.164 7.439,-2.997 8.331,-5.297 0.542,-1.403 0.284,-3.441 -0.708,-5.594 -1.106,-2.402 -2.959,-4.63 -5.217,-6.275 -2.988,-2.176 -7.183,-3.19 -13.205,-3.19 -1.275,0 -2.618,0.041 -4.352,0.136 -4.842,0.263 -7.084,1.829 -7.3,1.988 l -1.305,1.254 -1.417,-1.246 c -0.192,-0.146 -3.02,-2.202 -8.756,-2.202 -0.258,0 -0.522,0.004 -0.785,0.012 -5.009,0.158 -6.963,2.295 -7.172,2.542 l -1.286,1.955 -1.813,-1.622 c -0.152,-0.125 -3.659,-2.962 -9.429,-2.962 -1.117,0 -2.266,0.106 -3.414,0.315 -2.448,0.446 -4.162,1.421 -5.093,2.897 -1.368,2.169 -0.888,5.019 -0.479,6.524 0.299,1.101 0.594,2.179 0.89,3.261 0.922,3.368 1.875,6.851 2.969,11.128 0.751,2.934 0.99,5.045 -0.138,6.498 -1.03,1.328 -2.626,1.328 -3.149,1.328 -0.58,0 -1.207,-0.067 -1.871,-0.136 l -0.193,-0.02 c -4.515,-0.471 -7.194,-5.104 -8.114,-8.929 -0.697,-2.897 -4.609,-17.888 -5.904,-22.843 h -10.133 l 0.692,2.176 -4.091,-1.555 c -0.113,-0.038 -1.867,-0.618 -4.656,-0.618 -0.724,0 -1.465,0.039 -2.203,0.116 -3.642,0.38 -5.309,1.936 -5.498,2.123 l -1.326,1.652 -1.629,-1.463 c -0.224,-0.181 -3.055,-2.346 -8.898,-2.346 -0.462,0 -0.937,0.015 -1.412,0.042 -6.149,0.356 -8.15,2.822 -8.369,3.119 l -1.366,2.565 -2.006,-2.258 c -0.206,-0.217 -3.493,-3.571 -9.512,-3.571 -0.232,0 -0.47,0.006 -0.706,0.016 -3.888,0.168 -6.548,1.187 -7.907,3.026 -1.227,1.663 -1.44,4.074 -0.632,7.165 0.411,1.575 1.002,3.804 1.629,6.166 1.632,6.153 3.481,13.128 4.001,15.443 0.577,2.57 2.01,3.819 4.384,3.819 h 6.812 c -1.707,-6.32 -5.828,-21.608 -6.217,-23.391 l -0.005,-0.023 c -0.778,-3.566 -1.292,-5.922 -0.045,-7.472 0.55,-0.682 1.35,-1.057 2.255,-1.057 0.375,0 0.771,0.066 1.179,0.197 4.269,1.371 5.58,5.881 7.232,13.144 1.435,6.302 3.53,10.488 7.008,13.995 1.605,1.619 3.719,2.841 6.282,3.63 2.2,0.677 4.676,1.028 7.36,1.043 h 0.095 c 3.435,0 5.168,-1.053 5.385,-1.196 l 1.558,-1.479 1.334,1.764 c 0.157,0.145 1.048,0.896 2.873,0.896 1.116,0 4.176,-0.018 6.466,-0.032 -1.724,-6.451 -6.027,-22.544 -6.594,-24.605 -0.57,-2.072 -1.036,-4.226 0.06,-5.784 0.41,-0.582 1.194,-1.298 2.612,-1.406 0.122,-0.01 0.246,-0.015 0.365,-0.015 1.976,0 4.648,1.194 6.164,6.875 0.87,3.266 5.244,19.71 6.628,24.916 h 10.149 l -0.893,-3.343 4.213,2.125 c 0.134,0.062 2.515,1.127 6.676,1.352 0.32,0.018 0.643,0.026 0.955,0.026 3.7,0 6.756,-1.184 8.607,-3.336 2.126,-2.469 1.003,-7.263 0.608,-8.674 -0.912,-3.254 -2.795,-10.265 -3.468,-12.824 -0.798,-3.033 -0.733,-4.93 0.209,-6.154 0.573,-0.742 1.415,-1.15 2.372,-1.15 2.407,0 4.842,0.775 6.364,6.402 1.289,4.771 6.273,22.912 6.323,23.095 l 0.74,2.693 h -2.794 -3.285 l 0.533,1.976 c 8.702,2.799 15.172,9.895 17.225,12.366 h 2.197 l -2.209,-8.148 -0.728,-2.686 h 2.783 2.45 l -0.953,-3.573 h -3.454 -1.631 L -24.756,2.23 c -0.205,-0.76 -5.044,-18.676 -6.211,-23.409 -0.687,-2.787 -0.596,-4.467 0.307,-5.62 0.574,-0.731 1.419,-1.135 2.381,-1.135 0.849,0 1.75,0.307 2.834,0.966 2.152,1.306 2.994,3.609 3.736,5.641 0.137,0.375 0.268,0.73 0.403,1.076 0.34,0.863 2.451,2.582 4.131,3.583 l 2.29,1.36 -1.83,1.935 c -0.015,0.017 -1.569,1.861 -1.066,5.84 0.242,1.917 1.336,3.844 3.164,5.572 1.786,1.691 4.178,3.131 6.914,4.164 2.531,0.956 5.892,1.483 9.465,1.483 2.597,0 5.092,-0.288 6.672,-0.766 3.312,-1.007 5.488,-3.306 6.106,-5.017 0.218,-0.601 0.291,-1.736 0.283,-2.844 H 4.684 c 0.042,0.33 0.082,0.678 0.121,1.038 0.099,0.936 -0.182,1.827 -0.794,2.508 C 3.18,-0.469 1.829,0 0,0 m 2.23,-7.07 h 14.62 c 0,0 0.374,3.815 -0.307,5.698 -0.945,2.61 -3.836,5.22 -7.491,6.329 C 7.354,5.473 4.696,5.814 1.762,5.814 -1.619,5.814 -5.369,5.36 -8.455,4.195 -14.193,2.028 -19.24,-2.11 -19.894,-7.266 c -0.652,-5.156 1.632,-7.571 1.632,-7.571 0,0 -4.176,-2.479 -5.025,-4.633 -0.848,-2.153 -1.436,-4.568 -3.264,-5.678 -0.629,-0.382 -1.242,-0.656 -1.728,-0.656 -0.927,0 -1.391,0.991 -0.621,4.115 1.175,4.764 6.201,23.364 6.201,23.364 h 5.09 l 2.088,7.832 h -5.221 l 2.937,10.833 h -6.004 c 0,0 -7.505,-9.986 -17.947,-12.791 L -43.322,1.74 h 6.064 c 0,0 -5.019,-18.273 -6.326,-23.103 -1.305,-4.829 -3.002,-4.829 -4.307,-4.829 -1.304,0 -1.174,2.153 -0.521,4.633 0.652,2.48 2.545,9.529 3.458,12.792 0.914,3.263 1.37,7.831 -1.044,10.638 -2.234,2.596 -5.865,4.075 -10.221,4.075 -0.351,0 -0.709,-0.009 -1.07,-0.029 -4.828,-0.261 -7.49,-1.562 -7.49,-1.562 l 0.377,1.431 h -14.554 c 0,0 -6.005,-22.58 -7.049,-26.496 -1.003,-3.761 -2.487,-5.294 -4.106,-5.294 -0.067,0 -0.133,0.003 -0.202,0.007 -1.696,0.131 -1.5,1.893 -0.782,4.503 0.718,2.611 7.31,27.28 7.31,27.28 0,0 -7.342,0.052 -9.235,0.052 -3.085,0 -4.471,-1.617 -4.471,-1.617 0,0 -2.106,1.631 -6.679,1.632 -0.036,0 -0.071,-10e-4 -0.107,-10e-4 -5.107,-0.028 -11.111,-1.237 -15.142,-5.302 -3.675,-3.706 -6.015,-8.182 -7.571,-15.023 -1.723,-7.572 -2.896,-10.653 -5.808,-11.589 -0.201,-0.064 -0.376,-0.095 -0.528,-0.095 -1.431,0 -0.833,2.724 -0.125,5.969 0.476,2.181 6.918,25.974 6.918,25.974 h -9.593 c -2.807,0 -5.546,-1.404 -6.462,-5.481 -0.718,-3.199 -4.184,-16.071 -5.613,-21.537 -1.892,-7.245 1.05,-12.448 10.508,-12.858 0.27,-0.011 0.537,-0.016 0.798,-0.016 7.189,0 11.08,4.259 11.08,4.259 0,0 2.248,-3.66 10.05,-4.112 0.53,-0.03 1.042,-0.044 1.535,-0.044 6.956,0 10.278,2.851 10.278,2.851 0,0 2.079,-2.309 6.852,-2.807 0.868,-0.09 1.678,-0.127 2.424,-0.127 3.346,0 5.381,0.746 5.381,0.746 l -0.234,-0.75 h 14.684 c 0,0 5.482,20.95 6.331,24.475 0.848,3.524 3.132,6.983 6.264,7.309 0.709,0.074 1.328,0.144 1.844,0.144 1.765,0 2.336,-0.825 1.224,-5.169 -1.435,-5.613 -2.611,-9.789 -3.85,-14.358 -1.24,-4.569 -0.636,-10.638 7.243,-12.074 1.348,-0.245 2.615,-0.349 3.797,-0.349 6.826,0 10.822,3.482 10.822,3.482 0,0 2.351,-3.191 8.812,-3.393 0.289,-0.009 0.574,-0.014 0.851,-0.014 6.898,0 10.112,2.688 10.112,2.688 0,0 2.546,-2.153 8.55,-2.479 1.415,-0.077 2.923,-0.14 4.468,-0.14 5.008,0 10.418,0.655 14.459,3.599 5.285,3.85 8.223,10.311 6.656,14.357 -1.566,4.047 -6.721,5.809 -9.789,6.592 -3.068,0.783 -6.918,1.306 -7.637,3.264 -0.716,1.958 1.241,3.393 2.676,3.785 0.504,0.137 1.256,0.242 2.012,0.242 1.4,0 2.814,-0.361 2.688,-1.548 C 2.492,-5.504 2.23,-7.07 2.23,-7.07" style="fill:#042957;fill-opacity:1;fill-rule:nonzero;stroke:none" id="path392"></path></g><g id="g394" transform="translate(284.8213,414.1348)"><path d="m 0,0 c -0.231,-0.79 -0.491,-1.493 -0.789,-2.11 -0.879,-1.825 -2.085,-2.886 -3.813,-3.198 -0.356,-0.063 -0.734,-0.096 -1.137,-0.096 -0.25,0 -0.509,0.012 -0.778,0.037 -2.796,0.256 -1.824,5.435 -1.279,7.98 0.548,2.559 1.535,6.38 2.681,9.505 0.67,1.827 1.662,4.015 3.552,5.308 0.956,0.652 2.026,1.075 2.967,1.126 0.064,0.003 0.126,0.005 0.187,0.005 1.46,0 2.558,-0.955 2.331,-3.423 C 3.87,14.559 3.745,13.9 3.536,13.153 2.289,8.699 0.904,3.093 0,0 m 1.591,20.686 v 0 c -0.011,0 -0.023,-0.001 -0.034,-0.001 -1.383,-0.009 -2.916,-0.54 -4.321,-1.501 -2.4,-1.641 -3.585,-4.246 -4.35,-6.332 -1.18,-3.219 -2.201,-7.168 -2.764,-9.792 -0.696,-3.247 -1.196,-6.853 0.37,-8.982 0.675,-0.919 1.643,-1.461 2.798,-1.565 0.331,-0.031 0.658,-0.046 0.971,-0.046 0.159,0 0.317,0.006 0.473,0.013 0.042,0.002 0.083,0.004 0.124,0.008 0.125,0.008 0.249,0.019 0.371,0.032 0.029,0.003 0.059,0.005 0.087,0.009 0.154,0.019 0.305,0.041 0.454,0.068 0.001,10e-4 0.003,10e-4 0.004,10e-4 0.146,0.026 0.29,0.057 0.433,0.092 0.014,0.003 0.028,0.007 0.042,0.011 1.188,0.294 2.227,0.866 3.1,1.715 0.102,0.1 0.202,0.204 0.3,0.312 0.006,0.005 0.011,0.011 0.017,0.018 0.057,0.064 0.115,0.128 0.171,0.195 0.043,0.051 0.086,0.102 0.128,0.155 0.006,0.006 0.011,0.013 0.016,0.019 1.264,1.56 1.802,3.397 2.063,4.287 0.385,1.318 0.853,3.076 1.357,4.99 0.123,0.467 0.248,0.943 0.374,1.425 0.484,1.842 0.98,3.734 1.465,5.509 0.116,0.425 0.232,0.845 0.346,1.253 0.79,2.821 0.628,4.992 -0.48,6.453 -0.809,1.067 -2.057,1.654 -3.515,1.654" style="fill:#042957;fill-opacity:1;fill-rule:nonzero;stroke:none" id="path396"></path></g><g id="g398" transform="translate(388.2119,412.1182)"><path d="m 0,0 c 0.012,-0.051 0.021,-0.103 0.027,-0.153 0.198,-1.436 -1.364,-3.312 -4.556,-3.312 -0.303,0 -0.621,0.018 -0.953,0.053 -3.961,0.427 -5.484,1.341 -6.459,2.863 -0.975,1.524 0.183,4.265 1.889,4.875 0,0 3.778,-1.219 5.849,-1.828 C -2.132,1.889 -0.365,1.584 0,0 M -9.226,6.296 C -9.305,6.322 -9.36,6.34 -9.385,6.348 -9.393,6.351 -9.397,6.352 -9.398,6.353 l -0.689,0.221 -0.681,-0.243 c -0.466,-0.166 -0.907,-0.413 -1.312,-0.727 -0.892,-0.689 -1.608,-1.703 -2.016,-2.897 -0.543,-1.591 -0.412,-3.195 0.362,-4.402 1.101,-1.722 2.642,-2.756 5.16,-3.363 0.84,-0.201 1.787,-0.355 2.863,-0.47 0.4,-0.044 0.798,-0.066 1.182,-0.066 0.449,0 0.887,0.031 1.31,0.091 1.833,0.259 3.383,1.067 4.365,2.303 0.658,0.825 1.012,1.786 1.028,2.737 0.006,0.317 -0.028,0.633 -0.1,0.942 -0.435,1.89 -1.814,2.776 -3.283,3.33 -0.574,0.216 -1.162,0.382 -1.713,0.538 -0.222,0.061 -0.449,0.126 -0.681,0.194 -0.103,0.03 -0.212,0.063 -0.325,0.097 -1.79,0.534 -4.546,1.418 -5.283,1.654 -0.005,0.002 -0.01,0.003 -0.015,0.004" style="fill:#042957;fill-opacity:1;fill-rule:nonzero;stroke:none" id="path400"></path></g><g id="g402" transform="translate(395.5146,396.416)"><path d="m 0,0 c -5.342,-5.107 -10.117,-7.465 -16.48,-8.135 -6.528,-0.686 -26.264,-1.507 -45.242,-1.633 -15.489,-0.102 -33.135,-0.35 -46.577,-1.408 -18.823,-1.479 -36.327,-5.238 -47.696,-8.131 -9.408,-2.393 -16.158,-4.559 -18.972,-5.503 -1.299,1.544 -3.867,4.324 -7.77,7.359 -3.853,2.998 -9.61,6.678 -17.205,9.393 3.692,0.578 8.379,1.263 13.889,1.969 13.309,1.703 34.285,3.879 58.634,4.565 1.712,0.048 4.244,0.071 7.738,0.071 8.642,0 21.945,-0.148 36.031,-0.304 16.575,-0.185 35.362,-0.394 49.772,-0.394 8.317,0 14.421,0.067 18.66,0.206 C -8.497,-1.726 -0.785,0.969 3.964,5.63 3.26,4.212 1.498,1.432 0,0 m -15.287,0.184 c -4.513,-0.149 -10.986,-0.206 -18.592,-0.206 -26.548,0 -66.893,0.699 -85.802,0.699 -3.328,0 -5.991,-0.022 -7.798,-0.073 -47.346,-1.333 -82.275,-8.175 -82.275,-8.175 23.151,-4.508 34.056,-19.74 34.056,-19.74 0,0 31.419,11.17 67.566,14.013 12.341,0.971 28.086,1.279 46.425,1.402 18.338,0.122 38.504,0.913 45.449,1.644 6.945,0.731 12.249,3.117 17.729,8.712 C 6.838,3.94 6.893,10.219 6.893,10.219 3.908,6.624 -5.646,0.498 -15.287,0.184" style="fill:#042957;fill-opacity:1;fill-rule:nonzero;stroke:none" id="path404"></path></g></g></g></g></svg>