
<svg xmlns="http://www.w3.org/2000/svg" version="1.1" xml:space="preserve" width="1001" height="675" viewBox="0 0 1001 675"><defs id="defs925"><clipPath clipPathUnits="userSpaceOnUse" id="clipPath937"><path d="M 0,687.588 H 1000 V 0 H 0 Z" id="path935"></path></clipPath></defs><g id="g929" transform="matrix(1.3333333,0,0,-1.3333333,0,916.784)"><g id="g931" transform="matrix(0.75000448,0,0,0.74999969,-0.00216999,176.79038)"><g id="g933" clip-path="url(#clipPath937)"><g id="g939" transform="translate(756.5879,343.7969)"><path d="m 0,0 c 0,-129.08 -104.639,-233.724 -233.716,-233.724 -129.079,0 -233.726,104.644 -233.726,233.724 0,129.086 104.647,233.73 233.726,233.73 C -104.639,233.73 0,129.086 0,0" style="fill:#ffffff;fill-opacity:1;fill-rule:nonzero;stroke:none" id="path941"></path></g><g id="g943" transform="translate(632.4678,437.3531)"><path d="m 0,0 c 0,0 12.741,4.233 18.483,2.838 l 1.73,4.533 C 15.279,9.771 2.901,6.884 2.901,6.884 c 0,0 -5.889,10.751 -10.117,11.695 L -9.293,13.45 C -3.4,10.065 0,0 0,0" style="fill:#c7a079;fill-opacity:1;fill-rule:nonzero;stroke:none" id="path945"></path></g><g id="g947" transform="translate(584.2803,135.5318)"><path d="M 0,0 C 0,0 -5.192,7.174 -8.448,7.841 L -9.976,4.053 c 4.567,-2.856 7.477,-8.845 7.477,-8.845 0,0 11.455,2.369 16.004,1.028 l 1.633,3.704 C 11.259,2.033 0,0 0,0" style="fill:#c7a079;fill-opacity:1;fill-rule:nonzero;stroke:none" id="path949"></path></g><g id="g951" transform="translate(607.5439,192.4566)"><path d="m 0,0 c 0,0 -9.999,9.801 -14.175,9.585 l -0.571,-5.237 c 6.502,-1.991 13.272,-11.202 13.272,-11.202 0,0 11.868,8.315 17.751,8.219 l 0.86,5.196 C 11.779,7.793 0,0 0,0" style="fill:#c7a079;fill-opacity:1;fill-rule:nonzero;stroke:none" id="path953"></path></g><g id="g955" transform="translate(641.1562,454.0386)"><path d="m 0,0 c 0,0 12.688,2.002 18.521,1.227 l 2.632,5.261 C 15.997,8.346 2.845,6.271 2.845,6.271 c 0,0 -5.616,10.283 -9.895,10.782 L -9.134,11.959 C -2.946,9.188 0,0 0,0" style="fill:#c7a079;fill-opacity:1;fill-rule:nonzero;stroke:none" id="path957"></path></g><g id="g959" transform="translate(651.3936,470.5264)"><path d="m 0,0 c 0,0 10.012,0.499 15.738,-0.625 l 2.984,5.122 C 13.742,6.674 3.409,6.355 3.409,6.355 c 0,0 -6.668,8.328 -10.558,9.898 l -2.387,-4.57 C -3.578,8.586 0,0 0,0" style="fill:#c7a079;fill-opacity:1;fill-rule:nonzero;stroke:none" id="path961"></path></g><g id="g963" transform="translate(660.5098,485.5108)"><path d="m 0,0 c 0,0 9.578,1.01 15.186,-0.505 l 3.412,5.303 C 13.814,7.251 3.833,6.121 3.833,6.121 c 0,0 -5.321,9.121 -9.455,10.15 L -8.115,12.092 C -2.421,8.61 0,0 0,0" style="fill:#c7a079;fill-opacity:1;fill-rule:nonzero;stroke:none" id="path965"></path></g><g id="g967" transform="translate(670.0459,499.5928)"><path d="M 0,0 C 0,0 8.447,-0.691 13.908,-2.556 L 16.995,1.54 C 12.384,4.341 3.153,4.823 3.153,4.823 c 0,0 -4.747,8.844 -8.793,10.149 L -8.234,11.148 C -2.793,7.336 0,0 0,0" style="fill:#c7a079;fill-opacity:1;fill-rule:nonzero;stroke:none" id="path969"></path></g><g id="g971" transform="translate(578.0859,124.4439)"><path d="m 0,0 c 0,0 -5.261,7.065 -8.273,7.739 l -1.405,-3.77 c 4.228,-2.863 7.364,-8.785 7.364,-8.785 0,0 10.212,2.309 14.446,0.956 l 1.494,3.716 C 10.054,1.943 0,0 0,0" style="fill:#c7a079;fill-opacity:1;fill-rule:nonzero;stroke:none" id="path973"></path></g><g id="g975" transform="translate(590.4375,147.7862)"><path d="m 0,0 c 0,0 -7.165,9.068 -10.953,9.597 l -1.399,-4.763 c 5.506,-3.06 9.941,-10.913 9.941,-10.913 0,0 12.345,4.468 17.672,3.229 l 1.536,4.697 C 12.17,4.011 0,0 0,0" style="fill:#c7a079;fill-opacity:1;fill-rule:nonzero;stroke:none" id="path977"></path></g><g id="g979" transform="translate(597.0547,160.504)"><path d="m 0,0 c 0,0 -8.915,10.445 -13.075,10.564 l -0.969,-5.2 c 6.263,-2.635 12.105,-12.129 12.105,-12.129 0,0 12.558,7.535 18.415,6.879 l 1.163,5.147 C 12.435,7.011 0,0 0,0" style="fill:#c7a079;fill-opacity:1;fill-rule:nonzero;stroke:none" id="path981"></path></g><g id="g983" transform="translate(602.7607,176.8829)"><path d="m 0,0 c 0,0 -9.414,10.192 -13.571,10.162 l -0.8,-5.213 c 6.365,-2.339 12.66,-11.731 12.66,-11.731 0,0 12.258,7.877 18.129,7.468 l 1.014,5.195 C 12.164,7.39 0,0 0,0" style="fill:#c7a079;fill-opacity:1;fill-rule:nonzero;stroke:none" id="path985"></path></g><g id="g987" transform="translate(419.6328,512.232)"><path d="m 0,0 4.323,3.692 c -3.622,2.068 -7.458,14.047 -7.458,14.047 0,0 -8.38,0.252 -12.207,1.425 l -5.516,-3.957 13.207,-1.545 C -7.651,13.662 -4.576,2.309 0,0" style="fill:#c7a079;fill-opacity:1;fill-rule:nonzero;stroke:none" id="path989"></path></g><g id="g991" transform="translate(434.5508,522.8028)"><path d="m 0,0 4.537,3.439 c -4.597,2.316 -7.694,13.776 -7.694,13.776 0,0 -8.61,0.848 -11.821,2.724 l -4.456,-3.428 c 2.925,-2.279 11.924,-3.21 11.924,-3.21 0,0 2.757,-11.299 7.51,-13.301" style="fill:#c7a079;fill-opacity:1;fill-rule:nonzero;stroke:none" id="path993"></path></g><g id="g995" transform="translate(405.3521,500.2422)"><path d="m 0,0 c 1.191,1.19 2.585,2.52 3.947,3.704 -4.188,5.231 -5.649,15.123 -5.649,15.123 0,0 -9.782,0.421 -14.476,0.703 -1.44,-1.292 -3.475,-3.812 -3.475,-3.812 L -6.78,14.209 c 0,0 2.583,-9.453 6.78,-14.209" style="fill:#c7a079;fill-opacity:1;fill-rule:nonzero;stroke:none" id="path997"></path></g><g id="g999" transform="translate(393.4526,486.9717)"><path d="m 0,0 c 1.169,1.184 2.531,2.699 3.917,3.896 -4.2,5.256 -6.256,15.947 -6.256,15.947 0,0 -9.404,0.408 -14.053,0.715 -1.484,-1.305 -2.747,-2.375 -3.49,-3.836 L -7.264,15.333 C -7.264,15.333 -4.222,4.732 0,0" style="fill:#c7a079;fill-opacity:1;fill-rule:nonzero;stroke:none" id="path1001"></path></g><g id="g1003" transform="translate(448.9971,533.4156)"><path d="m 0,0 4.841,3.187 c -5.653,1.161 -8.497,13.529 -8.497,13.529 0,0 -7.585,0.09 -10.119,1.762 -1.949,-1.052 -3.994,-1.78 -5.95,-3.048 2.877,-1.384 11.365,-2.039 11.365,-2.039 0,0 4.031,-11.467 8.36,-13.391" style="fill:#c7a079;fill-opacity:1;fill-rule:nonzero;stroke:none" id="path1005"></path></g><g id="g1007" transform="translate(384.3159,477.0259)"><path d="m 0,0 c -3.954,4.312 -7.438,15.345 -7.438,15.345 0,0 -8.884,-0.439 -13.581,-0.324 l -4.127,-4.378 c 4.66,-0.77 13.147,-0.355 13.147,-0.355 0,0 2.895,-9.578 8.292,-15.117 z" style="fill:#c7a079;fill-opacity:1;fill-rule:nonzero;stroke:none" id="path1009"></path></g><g id="g1011" transform="translate(462.8516,544.7623)"><path d="m 0,0 c 1.235,0.908 4.476,2.657 4.476,2.657 -5.18,2.009 -5.532,11.016 -5.532,11.016 0,0 -11.377,0.187 -14.028,1.431 -1.62,-1.07 -3.355,-1.647 -4.906,-2.964 C -17.82,10.3 -6.299,9.783 -6.299,9.783 -6.299,9.783 -5.1,1.076 0,0" style="fill:#c7a079;fill-opacity:1;fill-rule:nonzero;stroke:none" id="path1013"></path></g><g id="g1015" transform="translate(352.417,476.5992)"><path d="M 0,0 C -1.332,-1.81 -2.336,-2.958 -3.614,-4.756 L 8.472,-5.339 c 0,0 2.562,-11.113 6.638,-15.063 l 3.398,5.027 C 15.054,-11.31 12.844,0.048 12.844,0.048 12.844,0.048 4.062,-0.319 0,0" style="fill:#c7a079;fill-opacity:1;fill-rule:nonzero;stroke:none" id="path1017"></path></g><g id="g1019" transform="translate(352.2759,459.7325)"><path d="m 0,0 c 0,0 -7.687,-1.064 -11.695,-0.096 l -3.428,-4.233 c 3.169,-1.149 11.611,-1.166 11.611,-1.166 0,0 4.384,-14.546 7.835,-16.332 l 3.136,5.454 C 3.027,-12.723 0,0 0,0" style="fill:#c7a079;fill-opacity:1;fill-rule:nonzero;stroke:none" id="path1021"></path></g><g id="g1023" transform="translate(330.1812,441.4473)"><path d="m 0,0 -3.145,-4.942 11.32,0.011 c 0,0 2.729,-11.905 7.651,-15.681 l 2.967,5.255 c -3.268,3.482 -6.665,15.64 -6.665,15.64 z" style="fill:#c7a079;fill-opacity:1;fill-rule:nonzero;stroke:none" id="path1025"></path></g><g id="g1027" transform="translate(320.1934,422.2183)"><path d="m 0,0 -2.342,-5.268 11.058,0.59 c 0,0 4.398,-10.896 8.493,-14.708 1.098,1.81 1.642,4.281 2.628,6.055 -4.837,4.69 -7.922,13.89 -7.922,13.89 z" style="fill:#c7a079;fill-opacity:1;fill-rule:nonzero;stroke:none" id="path1029"></path></g><g id="g1031" transform="translate(470.2383,563.0235)"><path d="m 0,0 c 0.531,-4.678 5.3,-9.506 5.3,-9.506 l 4.058,2.724 C 5.697,-3.704 4.218,2.796 4.218,2.796 L -3.145,3.62 C -6.84,3.824 -14.678,1.095 -14.678,1.095 -11.004,1.221 0,0 0,0" style="fill:#c7a079;fill-opacity:1;fill-rule:nonzero;stroke:none" id="path1033"></path></g><g id="g1035" transform="translate(892.5557,323.1607)"><path d="m 0,0 -0.526,-2.85 c -0.4,-2.081 -23.463,-6.188 -46.52,-10.974 0.731,6.939 1.209,13.95 1.497,21.003 C -21.905,3.458 0,0 0,0 m -195.38,46.089 -8.474,-69.636 c -0.69,-4.269 -2.189,-9.597 -5.821,-10.643 l -23.042,-2.429 8.472,69.618 c 0.643,4.341 2.198,9.639 5.791,10.679 z m -174.315,-264.642 c -71.867,0.006 -136.284,31.737 -180.131,81.92 2.628,0.265 4.588,0.482 5.605,0.584 0.562,0.048 0.877,0.468 0.971,1.22 2.029,16.638 25.561,209.516 25.606,209.895 0.009,0.409 -0.475,0.565 -0.836,0.498 -0.349,-0.054 -12.802,-2.314 -24.442,-4.515 -6.612,-1.275 -13.139,-3.602 -19.411,-6.752 0.067,0.27 0.129,0.535 0.19,0.739 -4.853,4.624 -5.739,15.027 -5.739,15.027 l -13.328,-1.918 -1.596,-5.136 10.609,1.539 c 0,0 0.632,-7.197 4.826,-13.012 -17.985,-10.588 -33.294,-28.068 -41.334,-47.803 -0.066,2.304 -0.174,4.594 -0.174,6.915 0,132.111 107.088,239.172 239.184,239.196 98.519,0 183.091,-59.571 219.746,-144.648 -37.244,-3.926 -82.104,-8.67 -82.104,-8.67 -5.631,-0.59 -11.144,-1.871 -16.514,-3.62 l 0.64,1.875 c -5.029,2.057 -17.233,-1.683 -17.233,-1.683 0,0 -6.836,10.547 -11.075,11.202 l -1.88,-5.147 c 6.041,-2.988 10.363,-12.934 10.363,-12.934 0,0 5.073,1.978 10.24,3.157 -5.997,-2.748 -11.704,-6.151 -17.019,-10.156 -2.631,2.947 -6.197,6.41 -8.622,6.62 l -1.645,-5.201 c 2.194,-0.92 4.266,-2.772 6.036,-4.763 -17.467,-14.773 -29.905,-35.915 -32.691,-58.848 0,0 -16.452,-135.171 -16.545,-136.152 -0.114,-0.98 -0.172,-1.809 1.187,-1.731 0.409,0.03 13.497,1.407 31.235,3.277 l -0.072,-1.431 c 6.604,-1.546 14.073,-10.421 14.073,-10.421 0,0 11.31,8.9 17.181,9.23 l 0.593,5.196 c -5.415,0.889 -16.713,-7.529 -16.713,-7.529 0,0 -3.718,3.199 -7.625,5.742 38.556,4.06 92.053,9.729 92.053,9.729 15.994,1.678 31.178,8.431 43.97,18.479 -0.962,-1.961 -1.738,-3.723 -2.354,-5.22 -38.781,-79.768 -120.575,-134.744 -215.225,-134.75 m 476.148,362.347 c -1.163,-0.132 -127.175,-13.403 -127.175,-13.403 -13.843,-1.455 -27.072,-6.728 -38.69,-14.612 -40.662,132.784 -164.177,229.353 -310.299,229.353 -143.511,0 -265.177,-93.207 -307.983,-222.366 -35.104,-3.553 -123.973,-12.849 -123.973,-12.849 -64.675,-6.819 -82.994,-57.105 -88.134,-86.509 -4.441,-25.2 -2.237,-42.98 -1.972,-47.965 0.032,-0.848 0.357,-1.882 0.913,-2.057 0.767,-0.24 1.801,0.157 3.133,1.684 1.431,1.641 25.546,31.502 29.109,35.447 3.554,3.938 18.962,22.361 49.033,25.512 l 101.892,10.746 c -0.207,-2.159 -13.375,-117.277 -13.375,-117.277 -2.283,-15.165 -12.285,-24.569 -30.95,-27.912 0,0 16.001,139.35 16.016,139.579 0.066,0.234 0,0.523 -0.381,0.451 -0.406,-0.078 -23.069,-3.945 -23.069,-3.945 -35.717,-7.691 -65.999,-40.966 -70.412,-77.345 l -7.772,-67.663 c -21.478,-2.189 -35.546,-0.211 -44.364,0.462 -2.982,0.21 -5.781,0.584 -8.171,0.866 -0.992,0.12 -1.753,-0.812 -1.2,-1.636 3.632,-5.645 12.315,-20.99 23.541,-32.842 15.159,-16.079 37.287,-24.058 64.745,-24.058 l 68.292,6.17 c 40.804,4.305 65.228,12.71 80.174,23.642 55.06,-100.771 161.997,-169.132 284.908,-169.132 143.593,0 265.299,93.297 308.06,222.54 41.299,4.341 80.529,8.484 80.529,8.484 62.925,6.632 65.33,36.294 66.629,52.222 0.13,1.497 3.094,27.42 3.478,34.695 1.243,19.29 -12.897,36.637 -33.518,41.195 -8.362,1.858 -42.35,7.769 -64.141,11.509 0.523,0.396 1.026,0.577 1.32,0.649 l 61.278,6.536 c 21.319,2.243 37.902,17.895 45.572,42.957 l 7.938,25.94 c 0,0 0.165,1.076 -0.981,0.932" style="fill:#c7a079;fill-opacity:1;fill-rule:nonzero;stroke:none" id="path1037"></path></g><g id="g1039" transform="translate(582.4971,419.9991)"><path d="m 0,0 c -0.975,-0.096 -130.659,-13.746 -130.659,-13.746 -39.631,-4.214 -74.507,-39.138 -79.449,-79.551 0,0 -16.65,-136.885 -16.698,-137.198 -0.033,-0.312 0.283,-0.631 0.722,-0.571 0.355,0.036 76.824,7.956 85.949,8.876 0.565,0.059 0.902,0.678 0.989,1.064 0.057,0.397 16.533,136.121 16.533,136.121 0.772,3.241 2.284,7.365 5.165,8.28 l 23.447,2.465 c 0,0 -17.145,-140.932 -17.416,-142.994 -0.153,-1.142 0.424,-1.84 1.569,-1.738 12.38,1.311 84.254,8.888 84.615,8.935 0.369,0.024 1.22,0.433 1.262,1.083 C -22.095,-193.828 1.224,-2.441 1.283,-1.371 1.437,-0.258 1.076,0.126 0,0" style="fill:#c7a079;fill-opacity:1;fill-rule:nonzero;stroke:none" id="path1041"></path></g><g id="g1043" transform="translate(260.4663,426.2047)"><path d="m 0,0 c -9.446,9.747 -22.68,14.292 -37.957,12.664 l -131.29,-13.878 c -45.809,-4.799 -70.814,-36.475 -78.324,-62.144 -4.666,-16.055 -5.562,-25.856 -6.107,-32.392 0,0 -0.907,-14.985 -0.699,-19.657 0,-0.656 -0.034,-0.949 0.345,-1.136 0.217,-0.096 0.535,-0.024 0.989,0.463 2.441,2.718 8.586,11.244 10.06,13.114 5.027,6.23 14.275,18.014 20.38,23.282 7.622,6.56 23.518,17.919 44.848,20.156 l 106.015,11.16 c 1.888,0.24 3.109,-0.132 3.243,-0.361 1.63,-1.671 0.698,-4.841 0.698,-4.841 l -13.505,-120.643 c -2.925,-19.819 -17.967,-31.683 -46.36,-35.333 0,0 15.351,137.715 15.412,138.256 0.047,0.668 -0.322,1.04 -1.038,0.89 -0.733,-0.132 -12.925,-2.663 -12.925,-2.663 -32.404,-6.963 -59.832,-37.088 -63.872,-70.027 l -6.746,-59.005 -1.949,-14.901 -3.848,-0.433 c -7.778,-0.811 -17.642,-1.389 -37.341,0 -3.421,0.241 -5.141,0.637 -5.538,0.126 -0.285,-0.505 -0.123,-1.124 0.86,-2.777 0.4,-0.704 8.169,-15.393 25.014,-27.762 10.478,-7.661 27.067,-11.954 48.037,-11.954 11.518,0 23.716,1.107 35.24,2.338 l 17.614,1.859 c 81.981,8.653 106.956,19.537 114.139,75.138 L 12.063,-39.577 C 13.978,-23.979 9.699,-9.939 0,0" style="fill:#071d3d;fill-opacity:1;fill-rule:nonzero;stroke:none" id="path1045"></path></g><g id="g1047" transform="translate(222.9126,431.2071)"><path d="m 0,0 -131.311,-13.86 c -66.981,-7.047 -75.207,-70.297 -75.64,-72.853 -0.478,-2.555 -1.563,-12.777 -1.632,-13.541 -0.142,-0.727 0.156,-1.028 0.733,-0.283 0.601,0.807 8.246,10.854 8.246,10.854 0.172,0.276 21.834,28.339 58.985,32.247 l 106.059,11.179 c 4.039,0.427 7.126,-0.361 9.104,-2.466 3.957,-4.173 2.703,-12.417 1.471,-21.142 -0.322,-2.116 -12.432,-110.313 -12.432,-110.313 -5.09,-35.416 -44.252,-39.559 -57.156,-40.901 l -3.711,-0.402 c 0,0 14.895,136.897 14.922,137.492 0.032,0.602 -0.541,0.83 -1.119,0.704 -0.541,-0.127 -4.188,-0.902 -4.188,-0.902 -29.779,-6.434 -55,-34.064 -58.665,-64.279 l -9.939,-79.214 c -7.294,-0.686 -15.337,-1.335 -22.225,-1.335 -4.173,0 -17.209,0.902 -18.201,0.998 -0.931,0.09 -1.187,-0.421 -0.61,-1.089 0.574,-0.691 4.705,-5.88 4.705,-5.88 13.547,-16.073 33.601,-24.395 57.25,-23.222 23.627,1.136 40.906,3.553 57.82,5.033 49.189,4.365 95.591,9.314 103.246,67.85 L 42.341,-44.31 C 43.97,-30.984 40.335,-18.989 32.196,-10.63 24.343,-2.531 12.654,1.359 0,0" style="fill:#1d467d;fill-opacity:1;fill-rule:nonzero;stroke:none" id="path1049"></path></g><g id="g1051" transform="translate(884.209,398.0284)"><path d="m 0,0 61.997,6.578 c 15.562,1.647 29.807,14.641 35.639,29.229 2.237,5.646 6.338,20.227 7.276,23.589 0.113,0.462 -0.241,0.649 -0.782,0.625 C 103.583,59.906 -12.068,47.46 -12.068,47.46 -47.379,43.732 -79.711,11.388 -84.066,-24.624 c 0,0 -3.025,-26.583 -3.058,-26.854 0,-0.252 0.102,-0.397 0.282,-0.42 0.12,-0.025 103.829,-17.619 103.829,-17.619 0,0 -0.769,-4.353 -1.758,-11.033 -1.053,-6.644 -45.852,-11.996 -63.96,-17.185 -27.377,-7.823 -54.887,-14.63 -80.4,-45.049 -3.881,-4.678 -6.854,-11.245 -8.448,-13.746 -0.325,-0.541 -0.12,-1.208 0.671,-1.148 0.856,0.066 166.519,17.726 166.519,17.726 34.012,3.577 52.728,16.494 55.587,38.362 l 0.333,2.664 c 1.251,9.14 3.497,26.193 4.128,37.798 0.947,15.387 -11.066,29.854 -27.938,33.63 -10.199,2.231 -58.775,10.577 -73.365,13.054 C -9.81,-6.29 -5.806,-1.419 0,0" style="fill:#071d3d;fill-opacity:1;fill-rule:nonzero;stroke:none" id="path1053"></path></g><g id="g1055" transform="translate(883.5117,405.0328)"><path d="m 0,0 62.321,6.626 c 19.94,2.129 28.492,20.667 31.854,31.497 0,0 1.419,4.797 1.488,5.255 0.094,0.463 -0.24,0.607 -0.881,0.553 C 94.163,43.876 -10.946,32.777 -10.946,32.777 -42.917,29.427 -72.077,0.121 -76.067,-32.572 c 0,0 -2.405,-20.456 -2.419,-20.697 0,-0.234 0.11,-0.403 0.318,-0.451 0.225,-0.011 103.783,-18.381 103.783,-18.381 -0.045,-0.632 -0.146,-1.485 -0.214,-2.045 L 24.176,-84.2 c -2.307,-14.148 -12.4,-16.06 -54.379,-23.888 -9.892,-1.847 -68.016,-14.997 -88.231,-40.696 -2.159,-2.827 -3.692,-4.997 -4.512,-6.332 -0.56,-0.902 -0.334,-1.323 0.594,-1.251 10.785,1.215 126.588,13.68 142.273,15.339 36.571,3.848 54.691,10.06 58.732,35.116 2.3,14.449 3.779,27.088 4.383,37.545 0.725,11.996 -8.947,23.258 -22.543,26.294 -11.682,2.586 -77.173,13.752 -77.805,13.83 -0.564,0.084 -1.86,0.764 -1.757,2.063 C -17.008,-7.612 -7.63,-1.677 0,0" style="fill:#1d467d;fill-opacity:1;fill-rule:nonzero;stroke:none" id="path1057"></path></g><g id="g1059" transform="translate(877.6816,428.8565)"><path d="m 0,0 94.067,9.939 c 0.803,2.008 1.489,3.927 1.985,5.562 L -4.642,4.87 C -34.839,1.708 -62.426,-26.006 -66.136,-56.847 l -2,-17.251 5.133,-0.926 1.536,13.331 C -57.447,-29.103 -30.16,-3.175 0,0" style="fill:#ffffff;fill-opacity:1;fill-rule:nonzero;stroke:none" id="path1061"></path></g><g id="g1063" transform="translate(870.1963,367.8487)"><path d="m 0,0 c 6.807,-1.124 66.765,-11.364 77.621,-13.775 4.176,-0.915 7.922,-2.742 10.962,-5.166 -3.455,4.835 -8.956,8.755 -15.64,10.066 C 61.516,-6.68 2.11,3.722 -4.702,4.913 -4.831,4.913 -4.961,4.967 -5.027,4.985 -4.598,2.333 -2.366,0.421 0,0" style="fill:#ffffff;fill-opacity:1;fill-rule:nonzero;stroke:none" id="path1065"></path></g><g id="g1067" transform="translate(916.4209,315.3077)"><path d="m 0,0 1.154,9.302 c 0.394,3.127 1.191,6.674 -1.842,7.258 l -2.523,0.462 C -3.28,16.084 -4.685,4.882 -4.685,4.882 c -2.997,-18.285 -10.516,-18.754 -57.687,-27.269 -18.079,-3.3 -73.642,-20.63 -85.456,-38.885 3.393,0.367 6.743,0.68 10.008,1.028 18.171,16.007 64.008,30.058 80.14,32.969 C -10.457,-18.785 -2.974,-18.243 0,0" style="fill:#ffffff;fill-opacity:1;fill-rule:nonzero;stroke:none" id="path1069"></path></g><g id="g1071" transform="translate(343.4277,384.2823)"><path d="m 0,0 c -27.864,-8.22 -53.759,-38.777 -57.445,-69.035 0,0 -15.384,-126.374 -15.477,-127.439 -0.045,-1.076 0.667,-1.322 1.338,-1.292 0.61,0.096 64.071,6.77 70.045,7.401 0.273,0.061 0.46,0.241 0.505,0.554 C 0.349,-178.675 22.609,4.582 22.63,5.021 22.645,5.357 22.26,5.785 21.728,5.628 21.238,5.526 11.066,3.271 0,0" style="fill:#071d3d;fill-opacity:1;fill-rule:nonzero;stroke:none" id="path1073"></path></g><g id="g1075" transform="translate(351.9326,378.7325)"><path d="m 0,0 c -29.739,-6.416 -54.925,-34.034 -58.617,-64.291 0,0 -14.353,-118.22 -14.434,-118.912 -0.166,-0.734 0.06,-1.125 1.148,-1.034 0.987,0.144 50.359,5.351 55.341,5.857 0.286,0.047 0.399,0.204 0.439,0.474 C -14.917,-168.116 5.533,0.102 5.56,0.463 5.64,0.824 5.352,1.16 4.892,1.064 4.429,0.95 0,0 0,0" style="fill:#1d467d;fill-opacity:1;fill-rule:nonzero;stroke:none" id="path1077"></path></g><g id="g1079" transform="translate(352.0742,368.3839)"><path d="m 0,0 0.782,6.362 c -27.883,-6.068 -51.958,-32.26 -55.425,-60.797 l -14.001,-114.95 5.36,0.565 13.301,109.544 C -46.813,-30.498 -25.477,-8.021 0,0" style="fill:#ffffff;fill-opacity:1;fill-rule:nonzero;stroke:none" id="path1081"></path></g><g id="g1083" transform="translate(452.127,398.1661)"><path d="m 0,0 c -35.359,-3.734 -67.682,-36.102 -72.089,-72.174 0,0 -15.538,-127.709 -15.571,-128.088 -0.06,-0.439 0.12,-0.757 0.619,-0.703 0.49,0.054 62.887,6.608 70.535,7.474 0.515,0.006 0.815,0.535 0.875,0.932 0.033,0.349 15.799,129.916 15.799,129.916 1.936,8.653 5.989,13.758 11.726,15.177 l 33.296,3.535 c 0,0 -17.169,-141.894 -17.455,-143.108 -0.253,-1.161 0.336,-1.816 1.398,-1.695 10.544,1.111 69.197,7.335 69.595,7.365 0.387,0 0.793,0.319 0.817,0.8 1.601,12.861 23.33,190.707 23.33,191.849 0.072,1.209 -0.953,1.588 -1.705,1.504 C 120.397,12.669 0,0 0,0" style="fill:#071d3d;fill-opacity:1;fill-rule:nonzero;stroke:none" id="path1085"></path></g><g id="g1087" transform="translate(452.5029,390.5059)"><path d="m 0,0 c -31.914,-3.385 -61.14,-32.68 -65.087,-65.319 0,0 -14.455,-118.684 -14.513,-119.267 -0.054,-0.547 0.036,-0.788 0.508,-0.734 0.476,0.054 48.94,5.177 55.644,5.881 0.541,0.06 0.836,0.439 0.926,0.92 0.021,0.289 15.053,124.161 15.053,124.161 3.473,15.929 12.853,20.367 18.262,21.587 l 40.232,4.281 c 0.401,0 0.945,0 1.477,-0.481 0.394,-0.397 0.526,-0.932 0.415,-1.545 0,0 -17.122,-139.976 -17.122,-141.028 -0.078,-1.022 0.379,-1.624 1.516,-1.492 9.466,0.987 53.866,5.695 54.296,5.707 0.755,0.048 1.043,0.764 1.095,1.172 1.344,11.082 21.46,176.848 21.625,177.365 0.01,0.517 -0.402,0.788 -0.845,0.752 C 112.975,11.899 0,0 0,0" style="fill:#1d467d;fill-opacity:1;fill-rule:nonzero;stroke:none" id="path1089"></path></g><g id="g1091" transform="translate(457.6504,381.5464)"><path d="m 0,0 103.892,10.925 0.613,5.424 L -4.693,4.859 C -34.912,1.666 -62.427,-25.982 -66.188,-56.859 l -13.951,-114.955 5.347,0.577 13.342,109.495 C -57.737,-30.882 -30.165,-3.181 0,0" style="fill:#ffffff;fill-opacity:1;fill-rule:nonzero;stroke:none" id="path1093"></path></g><g id="g1095" transform="translate(512.6172,359.5089)"><path d="m 0,0 c -0.79,0.878 -1.931,1.431 -3.12,1.618 0.068,-0.524 0.087,-1.089 0.03,-1.642 l -16.785,-137.588 5.366,0.571 L 1.588,-4.937 C 1.828,-3.048 1.224,-1.281 0,0" style="fill:#ffffff;fill-opacity:1;fill-rule:nonzero;stroke:none" id="path1097"></path></g><g id="g1099" transform="translate(75.0117,194.898)"><path d="m 0,0 10.318,82.456 c 3.284,26.751 24.588,51.38 50.203,59.354 0.448,4.281 0.589,6.29 0.589,6.29 C 33.204,142.092 9.131,115.87 5.611,87.345 L -4.677,4.876 C -18.559,3.47 -33.167,3.217 -41.57,3.975 c 1.728,-2.057 4.422,-4.606 4.681,-4.883 C -28.104,-2.459 -13.833,-1.371 0,0" style="fill:#ffffff;fill-opacity:1;fill-rule:nonzero;stroke:none" id="path1101"></path></g><g id="g1103" transform="translate(96.728,408.4063)"><path d="m 0,0 131.329,13.836 c 10.303,1.088 19.572,-1.498 26.49,-7.282 -0.719,0.95 -1.521,1.888 -2.378,2.76 -7.074,7.258 -17.311,10.606 -28.769,9.404 L -4.702,4.846 c -64.474,-6.801 -71.981,-69.227 -71.981,-69.227 0,0 2.724,3.59 7.931,8.448 C -62.547,-37.142 -45.419,-4.792 0,0" style="fill:#ffffff;fill-opacity:1;fill-rule:nonzero;stroke:none" id="path1105"></path></g><g id="g1107" transform="translate(134.4863,201.1636)"><path d="m 0,0 c 13.336,1.413 55.181,5.796 60.761,44.399 0,0 12.089,108.228 12.438,110.261 1.431,9.758 2.736,19.018 -2.547,24.605 -0.832,0.853 -1.761,1.568 -2.781,2.14 2.985,-5.664 1.837,-13.535 0.662,-21.833 C 68.163,157.479 56.068,49.264 56.068,49.264 50.512,10.643 8.691,6.271 -4.714,4.883 L -8.743,4.527 -9.389,-0.932 Z" style="fill:#ffffff;fill-opacity:1;fill-rule:nonzero;stroke:none" id="path1109"></path></g><g id="g1111" transform="translate(684.0352,281.0215)"><path d="m 0,0 -32.931,-3.475 9.571,78.848 c 1.069,7.035 4.083,15.856 12.323,17.804 L 21.94,96.652 12.287,17.871 C 11.263,10.788 8.21,1.954 0,0 m -23.231,140.619 c -35.317,-3.716 -67.662,-36.083 -72.044,-72.167 0,0 -15.452,-127.144 -15.487,-127.703 -0.069,-0.554 0.144,-1.161 0.913,-1.059 0.759,0.072 122.094,12.862 122.094,12.862 35.245,3.74 67.592,36.114 72.002,72.179 0,0 15.424,126.91 15.52,127.644 0.051,0.793 -0.706,1.16 -1.335,1.063 -0.712,-0.047 -121.663,-12.819 -121.663,-12.819" style="fill:#071d3d;fill-opacity:1;fill-rule:nonzero;stroke:none" id="path1113"></path></g><g id="g1115" transform="translate(703.7451,298.441)"><path d="m 0,0 -0.12,-0.631 c -2.489,-17.245 -11.524,-22.831 -18.713,-24.443 l -39.974,-4.215 c -0.421,-0.054 -0.928,-0.036 -1.469,0.511 -0.388,0.367 -0.527,0.908 -0.449,1.54 l 10.397,85.552 c 2.547,17.419 11.674,22.939 18.764,24.473 l 0.543,0.066 39.376,4.173 c 0.605,0.048 1.122,-0.132 1.506,-0.487 0.373,-0.391 0.53,-0.944 0.443,-1.588 z M 70.887,127.493 C 70.472,127.445 -42.544,115.54 -42.544,115.54 c -31.902,-3.374 -61.185,-32.699 -65.076,-65.332 0,0 -14.428,-118.208 -14.47,-118.828 -0.078,-0.655 0.602,-1.148 1.163,-1.088 0.542,0.036 113.014,11.894 113.014,11.894 31.935,3.385 61.194,32.674 65.198,65.349 0,0 14.323,118.732 14.444,119.267 0.06,0.541 -0.421,0.751 -0.842,0.691" style="fill:#1d467d;fill-opacity:1;fill-rule:nonzero;stroke:none" id="path1117"></path></g><g id="g1119" transform="translate(718.1553,382.9356)"><path d="m 0,0 -10.43,-85.703 c -3.048,-20.793 -15.209,-26.415 -22.199,-27.912 l -40.2,-4.263 c -0.559,-0.06 -1.139,-0.012 -1.681,0.126 0.198,-1.239 0.707,-2.387 1.571,-3.283 1.232,-1.275 3.03,-1.906 4.864,-1.719 l 40.163,4.238 c 6.966,1.48 19.1,7.138 22.161,27.925 L 4.682,-4.859 C 4.97,-3.043 4.351,-1.245 3.061,0.042 2.24,0.896 1.155,1.449 -0.033,1.671 0,1.112 0.063,0.541 0,0" style="fill:#ffffff;fill-opacity:1;fill-rule:nonzero;stroke:none" id="path1121"></path></g><g id="g1123" transform="translate(666.3271,404.9971)"><path d="m 0,0 103.85,10.949 0.661,5.418 L -4.687,4.888 C -34.866,1.726 -62.424,-25.964 -66.146,-56.853 l -13.98,-114.931 5.357,0.571 13.304,109.514 C -57.734,-30.858 -30.129,-3.163 0,0" style="fill:#ffffff;fill-opacity:1;fill-rule:nonzero;stroke:none" id="path1125"></path></g><g id="g1127" transform="translate(859.7754,328.3316)"><path d="M 0,0 C -4.115,0.644 -8.412,1.323 -12.769,2.008 V 2.002 c -0.108,-2.646 -0.266,-5.261 -0.435,-7.877 -0.156,-2.483 -0.349,-4.955 -0.566,-7.425 -0.165,-1.895 -0.296,-3.801 -0.496,-5.695 4.429,0.926 8.855,1.816 13.13,2.676 C -0.634,-10.901 -0.243,-5.459 0,0" style="fill:#071d3d;fill-opacity:1;fill-rule:nonzero;stroke:none" id="path1129"></path></g><g id="g1131" transform="translate(214.8613,445.9268)"><path d="m 0,0 c 5.325,16.061 11.867,31.562 19.524,46.409 0.067,0.126 0.133,0.258 0.199,0.384 1.888,3.638 3.839,7.252 5.856,10.817 0.045,0.079 0.091,0.151 0.129,0.229 8.058,14.184 17.144,27.69 27.173,40.437 0.394,0.499 0.779,0.998 1.173,1.497 2.276,2.851 4.591,5.67 6.957,8.449 0.477,0.559 0.965,1.112 1.446,1.665 7.564,8.761 15.571,17.095 24.016,25.002 0.366,0.342 0.724,0.692 1.091,1.04 2.36,2.189 4.774,4.312 7.197,6.428 1.089,0.956 2.174,1.9 3.272,2.838 2.291,1.949 4.605,3.861 6.95,5.742 1.275,1.029 2.574,2.039 3.873,3.037 2.315,1.81 4.633,3.62 6.996,5.358 1.259,0.926 2.552,1.822 3.83,2.724 4.167,2.97 8.409,5.857 12.72,8.634 1.781,1.155 3.545,2.315 5.346,3.428 2.102,1.299 4.236,2.537 6.368,3.794 1.993,1.172 3.995,2.327 6.016,3.457 2.074,1.161 4.155,2.292 6.253,3.403 2.231,1.185 4.489,2.328 6.753,3.458 1.954,0.975 3.899,1.973 5.878,2.904 3.211,1.539 6.466,2.983 9.738,4.408 1.99,0.866 3.989,1.714 6,2.538 3.319,1.364 6.65,2.693 10.018,3.95 1.774,0.661 3.569,1.275 5.357,1.906 2.833,0.999 5.683,1.973 8.554,2.893 1.849,0.588 3.695,1.171 5.553,1.731 3.025,0.914 6.067,1.762 9.124,2.591 1.669,0.452 3.326,0.915 5.003,1.342 4.552,1.148 9.134,2.218 13.761,3.174 0.451,0.096 0.901,0.181 1.356,0.265 4.51,0.907 9.059,1.714 13.631,2.441 1.6,0.247 3.205,0.451 4.811,0.679 3.391,0.488 6.798,0.927 10.219,1.3 1.765,0.192 3.536,0.378 5.309,0.546 3.488,0.326 6.987,0.578 10.498,0.794 1.588,0.097 3.166,0.217 4.76,0.283 5.063,0.24 10.153,0.391 15.275,0.391 5.157,0 10.278,-0.151 15.37,-0.391 1.612,-0.072 3.211,-0.192 4.817,-0.295 3.509,-0.21 7.002,-0.463 10.48,-0.793 1.819,-0.175 3.635,-0.367 5.445,-0.566 3.345,-0.373 6.675,-0.8 9.985,-1.269 1.713,-0.246 3.433,-0.474 5.137,-0.745 3.837,-0.614 7.643,-1.293 11.434,-2.038 1.091,-0.217 2.201,-0.397 3.292,-0.62 4.826,-0.998 9.612,-2.104 14.356,-3.319 1.317,-0.337 2.613,-0.709 3.921,-1.064 3.452,-0.933 6.884,-1.889 10.285,-2.922 1.717,-0.524 3.418,-1.071 5.123,-1.624 3.006,-0.974 5.998,-1.985 8.965,-3.037 1.738,-0.613 3.469,-1.232 5.196,-1.881 3.066,-1.149 6.103,-2.358 9.124,-3.596 1.488,-0.614 2.997,-1.197 4.48,-1.829 4.362,-1.863 8.679,-3.806 12.946,-5.85 0.92,-0.439 1.819,-0.938 2.732,-1.383 3.389,-1.672 6.753,-3.373 10.073,-5.153 1.643,-0.884 3.258,-1.81 4.881,-2.712 2.575,-1.443 5.133,-2.91 7.664,-4.407 1.729,-1.035 3.44,-2.075 5.148,-3.133 2.429,-1.504 4.834,-3.054 7.224,-4.63 1.644,-1.083 3.301,-2.152 4.921,-3.265 2.682,-1.84 5.31,-3.728 7.928,-5.634 1.242,-0.908 2.511,-1.774 3.737,-2.7 3.618,-2.712 7.165,-5.514 10.656,-8.37 1.569,-1.287 3.091,-2.616 4.639,-3.932 2.062,-1.756 4.121,-3.506 6.135,-5.316 1.667,-1.479 3.305,-3 4.935,-4.516 1.842,-1.719 3.661,-3.457 5.466,-5.213 1.634,-1.587 3.258,-3.187 4.861,-4.805 1.776,-1.809 3.512,-3.661 5.246,-5.507 1.519,-1.618 3.058,-3.223 4.546,-4.877 2.625,-2.911 5.183,-5.874 7.696,-8.875 1.747,-2.104 3.444,-4.227 5.139,-6.362 1.515,-1.9 3.036,-3.794 4.503,-5.737 1.495,-1.959 2.938,-3.95 4.386,-5.952 1.321,-1.821 2.634,-3.656 3.917,-5.514 1.436,-2.068 2.848,-4.149 4.237,-6.253 1.215,-1.834 2.393,-3.698 3.575,-5.569 1.359,-2.158 2.728,-4.305 4.035,-6.493 1.124,-1.888 2.194,-3.806 3.283,-5.719 2.327,-4.064 4.564,-8.195 6.716,-12.386 0.978,-1.883 1.979,-3.758 2.913,-5.682 1.161,-2.369 2.255,-4.781 3.362,-7.18 0.883,-1.924 1.77,-3.849 2.619,-5.797 1.057,-2.429 2.083,-4.888 3.088,-7.353 0.796,-1.961 1.569,-3.921 2.329,-5.905 0.957,-2.501 1.906,-4.997 2.808,-7.516 0.703,-1.991 1.36,-3.999 2.03,-6.007 0.85,-2.549 1.728,-5.081 2.515,-7.654 3.639,2.459 7.44,4.635 11.357,6.553 -3.16,9.988 -6.753,19.861 -10.867,29.584 -16.992,40.179 -41.293,76.251 -72.266,107.211 -30.99,30.967 -67.05,55.319 -107.211,72.282 -41.601,17.588 -85.802,26.487 -131.312,26.487 -45.511,0 -89.673,-8.899 -131.274,-26.487 C 136.557,191.687 100.477,167.335 69.498,136.368 38.534,105.408 14.218,69.336 -2.781,29.157 -7.026,19.11 -10.742,8.905 -13.974,-1.431 -8.76,-0.896 -4.016,-0.415 0,0" style="fill:#071d3d;fill-opacity:1;fill-rule:nonzero;stroke:none" id="path1133"></path></g><g id="g1135" transform="translate(830.9043,241.8355)"><path d="m 0,0 v 0 c -5.31,-16.049 -11.833,-31.532 -19.467,-46.354 -0.096,-0.181 -0.186,-0.361 -0.276,-0.547 -1.877,-3.626 -3.813,-7.203 -5.818,-10.745 -0.048,-0.084 -0.099,-0.175 -0.15,-0.259 -8.043,-14.173 -17.11,-27.666 -27.122,-40.407 -0.408,-0.523 -0.823,-1.052 -1.244,-1.576 -2.261,-2.85 -4.567,-5.657 -6.918,-8.418 -0.484,-0.565 -0.981,-1.131 -1.47,-1.701 -7.492,-8.665 -15.427,-16.945 -23.785,-24.78 -0.454,-0.427 -0.89,-0.866 -1.35,-1.286 -2.339,-2.165 -4.729,-4.276 -7.125,-6.374 -1.113,-0.969 -2.218,-1.942 -3.343,-2.892 -2.28,-1.937 -4.576,-3.843 -6.909,-5.713 -1.293,-1.046 -2.61,-2.069 -3.923,-3.084 -2.3,-1.793 -4.6,-3.59 -6.952,-5.322 -1.295,-0.956 -2.627,-1.858 -3.932,-2.796 -4.11,-2.929 -8.282,-5.767 -12.528,-8.515 -1.825,-1.172 -3.631,-2.369 -5.484,-3.511 -2.083,-1.281 -4.2,-2.526 -6.313,-3.758 -2.015,-1.185 -4.029,-2.358 -6.074,-3.494 -2.059,-1.148 -4.13,-2.285 -6.216,-3.385 -2.252,-1.19 -4.52,-2.345 -6.798,-3.476 -1.943,-0.98 -3.873,-1.96 -5.836,-2.898 -3.301,-1.569 -6.648,-3.066 -10.008,-4.515 -1.913,-0.837 -3.828,-1.642 -5.758,-2.436 -3.313,-1.359 -6.647,-2.699 -10.02,-3.95 -1.772,-0.656 -3.566,-1.269 -5.346,-1.894 -2.845,-1.017 -5.694,-1.991 -8.565,-2.904 -1.846,-0.596 -3.687,-1.174 -5.544,-1.726 -3.032,-0.914 -6.092,-1.774 -9.162,-2.598 -1.656,-0.451 -3.303,-0.92 -4.972,-1.34 -4.576,-1.161 -9.188,-2.232 -13.845,-3.2 -0.464,-0.096 -0.926,-0.168 -1.387,-0.264 -4.478,-0.897 -8.988,-1.702 -13.528,-2.417 -1.603,-0.253 -3.214,-0.464 -4.819,-0.686 -3.392,-0.487 -6.789,-0.925 -10.213,-1.299 -1.772,-0.192 -3.539,-0.372 -5.316,-0.547 -3.484,-0.318 -6.984,-0.577 -10.493,-0.787 -1.587,-0.097 -3.175,-0.217 -4.767,-0.295 -5.067,-0.228 -10.154,-0.391 -15.284,-0.391 -4.98,0 -9.932,0.163 -14.863,0.379 -1.299,0.066 -2.595,0.126 -3.89,0.198 -4.363,0.253 -8.704,0.578 -13.015,0.992 -0.596,0.06 -1.197,0.096 -1.789,0.157 -4.805,0.499 -9.575,1.112 -14.317,1.822 -1.239,0.186 -2.477,0.39 -3.716,0.583 -3.956,0.631 -7.895,1.335 -11.804,2.104 -0.913,0.187 -1.83,0.343 -2.738,0.535 -4.616,0.957 -9.189,2.015 -13.725,3.169 -1.154,0.283 -2.291,0.601 -3.437,0.902 -3.695,0.98 -7.362,2.027 -11.003,3.133 -1.086,0.325 -2.18,0.644 -3.253,0.98 -4.411,1.383 -8.782,2.862 -13.103,4.432 -1.016,0.373 -2.014,0.769 -3.024,1.142 -3.512,1.311 -6.99,2.682 -10.442,4.113 -1.181,0.487 -2.368,0.974 -3.538,1.48 -4.182,1.791 -8.322,3.649 -12.408,5.609 -0.838,0.403 -1.654,0.824 -2.489,1.246 -3.379,1.647 -6.735,3.372 -10.053,5.146 -1.228,0.655 -2.457,1.305 -3.672,1.985 -3.932,2.158 -7.828,4.383 -11.661,6.698 -0.563,0.342 -1.11,0.703 -1.672,1.047 -3.358,2.074 -6.678,4.209 -9.955,6.391 -1.229,0.818 -2.454,1.647 -3.674,2.484 -3.13,2.14 -6.229,4.346 -9.281,6.596 -0.659,0.492 -1.329,0.944 -1.978,1.437 -3.5,2.627 -6.919,5.34 -10.307,8.099 -1.193,0.968 -2.368,1.954 -3.544,2.946 -2.613,2.189 -5.189,4.426 -7.733,6.699 -0.91,0.811 -1.836,1.605 -2.738,2.435 -3.173,2.898 -6.279,5.869 -9.327,8.888 -1.106,1.093 -2.188,2.206 -3.283,3.318 -2.249,2.285 -4.458,4.606 -6.641,6.97 -0.995,1.076 -2.006,2.133 -2.985,3.229 -2.842,3.144 -5.626,6.349 -8.338,9.62 -0.989,1.185 -1.948,2.399 -2.919,3.596 -1.963,2.423 -3.89,4.882 -5.781,7.36 -0.983,1.292 -1.969,2.561 -2.934,3.866 -2.511,3.403 -4.967,6.837 -7.348,10.33 -0.825,1.221 -1.615,2.46 -2.42,3.68 -1.736,2.622 -3.437,5.273 -5.097,7.949 -0.899,1.45 -1.798,2.899 -2.67,4.359 -2.179,3.638 -4.305,7.306 -6.343,11.028 -3.187,-2.333 -6.84,-4.545 -10.962,-6.632 15.339,-28.002 34.536,-53.648 57.385,-76.515 30.979,-30.972 67.059,-55.283 107.211,-72.263 41.601,-17.588 85.763,-26.494 131.274,-26.494 45.51,0 89.711,8.906 131.312,26.494 40.161,16.974 76.221,41.291 107.211,72.263 30.974,30.991 55.274,67.057 72.266,107.217 4.285,10.12 8.026,20.409 11.276,30.811 C 9.398,0.992 4.718,0.499 0,0" style="fill:#071d3d;fill-opacity:1;fill-rule:nonzero;stroke:none" id="path1137"></path></g><g id="g1139" transform="translate(330.4668,556.6553)"><path d="M 0,0 -1.918,2.093 C -3.193,3.458 -4.369,4.312 -5.457,4.63 -6.566,4.961 -7.504,4.769 -8.262,4.083 -9.38,3.019 -9.907,2.057 -9.828,1.113 -9.726,0.163 -9.164,-0.89 -8.096,-2.068 L 6.759,-18.255 c 0.874,-0.944 1.776,-1.503 2.66,-1.569 0.893,-0.114 1.822,0.295 2.772,1.178 0.62,0.547 0.989,1.143 1.119,1.816 0.111,0.662 0.057,1.293 -0.175,1.894 -0.225,0.649 -0.532,1.239 -0.968,1.822 -0.43,0.571 -0.905,1.179 -1.464,1.75 l -2.754,3.007 7.685,7.047 3.692,-3.999 c 2.726,-2.964 3.965,-6.145 3.746,-9.488 -0.229,-3.368 -2.246,-6.807 -6.016,-10.265 -3.446,-3.157 -6.744,-4.563 -9.912,-4.238 -3.173,0.33 -6.344,2.2 -9.514,5.627 l -12.343,13.434 c -3.278,3.541 -4.832,6.926 -4.739,10.167 0.126,3.235 1.924,6.5 5.424,9.712 3.367,3.12 6.68,4.726 9.873,4.87 3.214,0.12 6.314,-1.431 9.299,-4.709 l 2.54,-2.723 z" style="fill:#071d3d;fill-opacity:1;fill-rule:nonzero;stroke:none" id="path1141"></path></g><g id="g1143" transform="translate(372.9272,554.0884)"><path d="m 0,0 -23.691,37.593 8.812,5.562 9.107,-14.437 6.133,3.848 -9.122,14.432 8.842,5.579 L 23.757,14.948 14.942,9.422 5.06,25.056 -1.049,21.219 8.821,5.562 Z" style="fill:#071d3d;fill-opacity:1;fill-rule:nonzero;stroke:none" id="path1145"></path></g><g id="g1147" transform="translate(413.3555,616.7432)"><path d="m 0,0 -0.108,-0.048 4.537,-19.626 5.637,2.249 z m -1.419,-39.74 -7.405,44.893 11.677,4.624 25.422,-37.701 -9.815,-3.885 -4.564,7.469 -7.604,-3.025 2.041,-8.49 z" style="fill:#071d3d;fill-opacity:1;fill-rule:nonzero;stroke:none" id="path1149"></path></g><g id="g1151" transform="translate(462.3467,619.7139)"><path d="m 0,0 -0.091,-0.132 5.725,-24.118 -9.696,-1.913 -8.593,43.607 10.513,2.062 12.7,-22.801 0.193,0.024 -5.788,24.178 9.678,1.924 8.604,-43.606 -10.466,-2.075 z" style="fill:#071d3d;fill-opacity:1;fill-rule:nonzero;stroke:none" id="path1153"></path></g><g id="g1155" transform="translate(525.5244,601.1153)"><path d="M 0,0 -0.484,3.933 H -0.623 C -1.684,2.075 -2.854,0.77 -4.167,0.019 c -1.311,-0.74 -3.121,-1.113 -5.399,-1.143 -2.118,-0.006 -3.957,0.282 -5.466,0.962 -1.503,0.667 -2.722,1.66 -3.662,2.922 -0.953,1.275 -1.627,2.742 -2.066,4.444 -0.406,1.72 -0.616,3.577 -0.65,5.7 l -0.216,18.238 c -0.045,4.822 1.025,8.381 3.28,10.733 2.252,2.338 5.758,3.529 10.54,3.589 4.592,0.073 8.098,-0.944 10.563,-2.976 2.456,-2.045 3.701,-5.291 3.77,-9.711 l 0.035,-3.313 -10.45,-0.132 -0.036,2.459 c 0,2.026 -0.243,3.5 -0.685,4.383 -0.452,0.83 -1.32,1.257 -2.621,1.311 -1.546,-0.054 -2.605,-0.421 -3.161,-1.172 -0.55,-0.752 -0.838,-1.936 -0.799,-3.512 l 0.249,-21.977 c 0.015,-1.305 0.337,-2.273 0.953,-2.941 0.662,-0.685 1.633,-1.016 2.934,-0.992 0.827,0.025 1.495,0.181 2.03,0.499 0.494,0.319 0.857,0.758 1.1,1.239 0.214,0.554 0.373,1.119 0.421,1.713 0.042,0.632 0.069,1.384 0.069,2.292 l -0.033,3.505 -3.74,-0.054 -0.117,8.003 14.17,0.156 0.276,-24.166 z" style="fill:#071d3d;fill-opacity:1;fill-rule:nonzero;stroke:none" id="path1157"></path></g><g id="g1159" transform="translate(583.7627,607.4776)"><path d="m 0,0 0.139,-0.03 9.223,29.914 9.681,-1.906 -15.829,-42.163 -11.518,2.285 2.899,31.286 -0.106,0.035 -9.431,-30.034 -11.326,2.243 1.247,45.025 9.898,-1.937 -2.955,-31.243 0.139,0.12 10.137,29.698 9.879,-1.954 z" style="fill:#071d3d;fill-opacity:1;fill-rule:nonzero;stroke:none" id="path1161"></path></g><g id="g1163" transform="translate(639.2803,607.9224)"><path d="m 0,0 c 0.346,0.787 0.631,1.491 0.803,2.135 0.189,0.637 0.259,1.244 0.259,1.839 0,0.608 -0.148,1.173 -0.46,1.714 C 0.268,6.2 -0.249,6.59 -1.025,6.927 -1.756,7.257 -2.399,7.33 -3.03,7.209 -3.641,7.065 -4.151,6.818 -4.6,6.38 -5.039,5.929 -5.451,5.436 -5.796,4.853 -6.147,4.275 -6.487,3.626 -6.812,2.898 l -7.156,-16.788 c -0.277,-0.667 -0.541,-1.365 -0.752,-2.05 -0.172,-0.716 -0.282,-1.413 -0.301,-2.075 0,-0.685 0.157,-1.293 0.476,-1.87 0.318,-0.577 0.842,-1.004 1.542,-1.317 0.739,-0.3 1.419,-0.384 2.048,-0.234 0.631,0.168 1.172,0.493 1.584,0.974 0.451,0.487 0.863,1.034 1.19,1.617 0.343,0.601 0.68,1.281 1.013,2.045 z m 2.766,-20.083 c -2.05,-4.787 -4.539,-7.895 -7.468,-9.321 -2.929,-1.467 -6.74,-1.159 -11.44,0.842 -4.693,2.039 -7.6,4.606 -8.604,7.757 -1.004,3.133 -0.499,7.096 1.527,11.851 l 7.098,16.596 c 1.678,3.945 4.116,6.446 7.285,7.589 3.169,1.155 6.821,0.83 11.007,-0.98 4.187,-1.762 6.942,-4.185 8.232,-7.252 1.32,-3.042 1.139,-6.536 -0.52,-10.469 z" style="fill:#071d3d;fill-opacity:1;fill-rule:nonzero;stroke:none" id="path1165"></path></g><g id="g1167" transform="translate(674.6426,581.3692)"><path d="M 0,0 -0.159,-0.03 -13.097,-21.16 -21.343,-15.7 3.298,21.286 12.213,15.363 5.162,-9.771 5.301,-9.886 18.234,11.34 26.479,5.839 1.828,-31.135 l -8.863,5.934 z" style="fill:#071d3d;fill-opacity:1;fill-rule:nonzero;stroke:none" id="path1169"></path></g><g id="g1171" transform="translate(301.1206,531.7383)"><path d="m 0,0 3.586,-10.403 9.188,6.013 -3.941,-10.252 10.917,-1.305 -9.633,-5.327 7.534,-8.009 -10.791,2.104 0.605,-10.98 -6.915,8.563 -6.593,-8.791 0.213,10.997 -10.7,-2.543 7.21,8.304 -9.819,4.973 10.871,1.707 -4.32,10.096 9.422,-5.67 z" style="fill:#071d3d;fill-opacity:1;fill-rule:nonzero;stroke:none" id="path1173"></path></g><g id="g1175" transform="translate(715.3379,564.2442)"><path d="m 0,0 3.566,-10.402 9.208,6.006 -3.947,-10.246 10.914,-1.304 -9.627,-5.34 7.529,-7.997 -10.799,2.098 0.619,-10.973 -6.927,8.562 -6.572,-8.803 0.198,10.986 -10.694,-2.514 7.207,8.299 -9.802,4.96 10.868,1.732 -4.338,10.09 9.405,-5.676 z" style="fill:#071d3d;fill-opacity:1;fill-rule:nonzero;stroke:none" id="path1177"></path></g><g id="g1179" transform="translate(375.3052,105.0762)"><path d="m 0,0 9.648,5.339 -10.943,1.318 3.956,10.258 -9.188,-6.038 -3.565,10.391 -3.194,-10.487 -9.413,5.664 4.332,-10.119 -10.864,-1.72 9.8,-4.948 -7.209,-8.304 10.697,2.519 -0.199,-10.998 6.573,8.809 6.923,-8.55 -0.607,10.973 10.793,-2.098 z" style="fill:#071d3d;fill-opacity:1;fill-rule:nonzero;stroke:none" id="path1181"></path></g><g id="g1183" transform="translate(729.9375,148.3399)"><path d="m 0,0 3.98,10.234 -9.223,-6.013 -3.584,10.403 -3.168,-10.523 -9.399,5.694 4.324,-10.126 -10.869,-1.726 9.793,-4.948 -7.216,-8.274 10.697,2.508 -0.189,-10.993 6.586,8.797 6.91,-8.55 -0.602,10.98 10.781,-2.111 -7.521,8.01 9.629,5.327 z" style="fill:#071d3d;fill-opacity:1;fill-rule:nonzero;stroke:none" id="path1185"></path></g><g id="g1187" transform="translate(407.7539,109.9224)"><path d="m 0,0 23.595,-10.083 -3.616,-8.472 -13.223,5.639 -2.904,-6.8 12.387,-5.292 -3.482,-8.141 -12.387,5.291 -3.376,-7.925 13.718,-5.862 -3.616,-8.479 -24.097,10.301 z" style="fill:#071d3d;fill-opacity:1;fill-rule:nonzero;stroke:none" id="path1189"></path></g><g id="g1191" transform="translate(457.8604,79.1964)"><path d="M 0,0 0.25,1.011 C 0.869,3.476 0.382,5.785 -1.734,6.32 -4.092,6.909 -5.607,5.346 -6.079,3.464 -8.153,-4.84 10.757,-5.255 6.912,-20.624 c -2.243,-8.954 -8.484,-11.636 -18.139,-9.224 -9.064,2.273 -13.348,6.656 -11.169,15.375 l 0.371,1.467 10.594,-2.652 -0.249,-0.991 c -0.899,-3.597 0.249,-5.268 2.368,-5.797 2.238,-0.559 3.975,0.884 4.549,3.181 2.078,8.304 -16.147,8.484 -12.416,23.378 2.122,8.478 7.82,12.002 17.062,9.687 9.539,-2.393 12.615,-7.347 10.36,-16.361 z" style="fill:#071d3d;fill-opacity:1;fill-rule:nonzero;stroke:none" id="path1193"></path></g><g id="g1195" transform="translate(490.2285,76.4424)"><path d="m 0,0 -8.458,0.788 0.885,9.543 28.152,-2.598 -0.878,-9.549 -8.463,0.782 -3.106,-33.594 -11.241,1.034 z" style="fill:#071d3d;fill-opacity:1;fill-rule:nonzero;stroke:none" id="path1197"></path></g><g id="g1199" transform="translate(517.9844,52.98)"><path d="m 0,0 10.2,0.168 0.199,-12.02 -10.201,-0.162 z" style="fill:#071d3d;fill-opacity:1;fill-rule:nonzero;stroke:none" id="path1201"></path></g><g id="g1203" transform="translate(555.9385,71.2476)"><path d="m 0,0 c -0.729,4.365 -0.834,7.979 0.748,10.859 1.581,2.875 4.777,4.931 10.517,5.965 11.096,2.002 14.536,-2.742 15.678,-9.067 1.035,-5.731 -0.393,-9.748 -2.985,-13.482 l -5.418,-7.57 c -0.785,-1.13 -1.93,-2.628 -2.12,-3.956 l 14.564,2.627 1.509,-8.364 -27.819,-5.009 c -1.049,5.845 -0.526,11.491 3.409,17.311 l 6.047,8.864 c 1.759,2.531 2.312,4.294 1.731,7.456 -0.646,3.578 -1.981,4.51 -3.71,4.197 C 10.6,9.554 9.196,8.442 10.057,3.662 l 0.327,-1.786 z" style="fill:#071d3d;fill-opacity:1;fill-rule:nonzero;stroke:none" id="path1205"></path></g><g id="g1207" transform="translate(613.1299,69.9971)"><path d="m 0,0 c 2.026,-5.785 3.481,-7.005 5.713,-6.224 2.242,0.776 2.609,2.646 0.586,8.431 L 1.605,15.603 c -2.023,5.785 -3.481,7.011 -5.711,6.23 -2.237,-0.782 -2.611,-2.646 -0.587,-8.431 z m -6.431,28.477 c 9.498,3.331 15.294,0.535 21.034,-15.838 5.733,-16.385 2.946,-22.181 -6.564,-25.514 -9.5,-3.324 -15.297,-0.528 -21.033,15.845 -5.736,16.379 -2.944,22.176 6.563,25.507" style="fill:#071d3d;fill-opacity:1;fill-rule:nonzero;stroke:none" id="path1209"></path></g><g id="g1211" transform="translate(660.2354,74.879)"><path d="m 0,0 -13.884,25.748 -7.155,-3.867 -3.341,6.206 c 6.062,3.337 7.965,5.947 6.769,11.232 l 7.155,3.854 L 9.939,5.352 Z" style="fill:#071d3d;fill-opacity:1;fill-rule:nonzero;stroke:none" id="path1213"></path></g><g id="g1215" transform="translate(695.1855,96.1412)"><path d="m 0,0 -17.218,23.643 -6.569,-4.786 -4.146,5.688 c 5.556,4.119 7.092,6.969 5.199,12.038 l 6.569,4.792 L 9.131,6.65 Z" style="fill:#071d3d;fill-opacity:1;fill-rule:nonzero;stroke:none" id="path1217"></path></g><g id="g1219" transform="translate(740.4395,244.5772)"><path d="m 0,0 c -2.862,-2.243 -5.859,-4.3 -8.941,-6.2 -9.497,-18.759 -21.443,-36.071 -35.429,-51.5 -2.585,-2.844 -5.228,-5.635 -7.945,-8.358 -2.409,-2.4 -4.886,-4.739 -7.391,-7.042 -0.243,-0.228 -0.475,-0.457 -0.722,-0.679 -0.775,-0.716 -1.598,-1.371 -2.386,-2.069 -41.225,-36.474 -95.39,-58.656 -154.756,-58.656 h -0.006 c -64.562,0 -122.956,26.163 -165.278,68.446 -2.938,2.94 -5.77,5.976 -8.545,9.067 -0.168,-0.265 -0.385,-0.445 -0.706,-0.475 -1.017,-0.102 -2.977,-0.319 -5.598,-0.583 0.003,-0.012 0.015,-0.025 0.021,-0.036 19.124,-21.876 42.163,-40.246 68.024,-54.009 0.319,-0.162 0.647,-0.324 0.966,-0.487 3.238,-1.707 6.511,-3.337 9.837,-4.9 0.781,-0.367 1.578,-0.704 2.359,-1.059 2.881,-1.316 5.791,-2.579 8.731,-3.782 1.077,-0.439 2.165,-0.854 3.248,-1.281 2.696,-1.052 5.409,-2.062 8.147,-3.018 1.271,-0.445 2.55,-0.872 3.834,-1.299 2.592,-0.854 5.207,-1.659 7.844,-2.429 1.416,-0.415 2.832,-0.83 4.262,-1.214 2.543,-0.692 5.109,-1.33 7.682,-1.937 1.524,-0.361 3.04,-0.722 4.57,-1.052 2.543,-0.553 5.111,-1.034 7.682,-1.503 1.575,-0.283 3.144,-0.59 4.728,-0.842 2.622,-0.415 5.262,-0.758 7.908,-1.089 1.56,-0.204 3.105,-0.432 4.669,-0.6 2.859,-0.302 5.748,-0.518 8.634,-0.71 1.371,-0.103 2.724,-0.241 4.101,-0.319 4.264,-0.228 8.557,-0.355 12.877,-0.355 3.689,0 7.35,0.12 11.001,0.283 1.028,0.042 2.05,0.102 3.072,0.162 2.887,0.174 5.761,0.391 8.614,0.661 0.832,0.073 1.668,0.133 2.496,0.223 3.55,0.373 7.08,0.824 10.583,1.347 0.801,0.121 1.598,0.265 2.398,0.391 2.796,0.45 5.574,0.95 8.334,1.485 1.022,0.21 2.035,0.409 3.049,0.619 3.226,0.679 6.43,1.407 9.605,2.213 0.247,0.06 0.5,0.114 0.743,0.186 3.368,0.86 6.689,1.828 10.002,2.833 1.004,0.312 1.999,0.625 3.007,0.95 2.507,0.805 5.006,1.654 7.481,2.531 0.892,0.325 1.792,0.626 2.674,0.956 3.17,1.172 6.308,2.405 9.411,3.716 0.818,0.331 1.618,0.704 2.433,1.052 2.387,1.035 4.752,2.105 7.101,3.211 1.037,0.493 2.074,0.986 3.102,1.485 2.541,1.251 5.058,2.532 7.547,3.873 0.547,0.289 1.104,0.559 1.645,0.854 2.88,1.569 5.715,3.217 8.52,4.9 1.022,0.614 2.032,1.245 3.042,1.864 1.988,1.239 3.96,2.508 5.911,3.794 0.962,0.644 1.93,1.257 2.877,1.906 2.649,1.805 5.259,3.662 7.826,5.562 0.872,0.644 1.719,1.324 2.58,1.985 1.834,1.401 3.65,2.826 5.442,4.281 1.036,0.83 2.067,1.672 3.09,2.538 1.813,1.521 3.605,3.078 5.376,4.66 0.856,0.757 1.728,1.509 2.573,2.284 2.201,2.015 4.348,4.078 6.47,6.176 0.983,0.968 1.948,1.954 2.917,2.94 1.437,1.467 2.846,2.959 4.248,4.45 0.934,1.022 1.885,2.02 2.807,3.048 2.048,2.279 4.059,4.6 6.02,6.958 0.826,0.991 1.617,2.002 2.426,3.011 1.299,1.613 2.577,3.236 3.83,4.877 0.908,1.191 1.807,2.393 2.694,3.602 1.224,1.672 2.42,3.361 3.602,5.057 0.884,1.275 1.77,2.538 2.631,3.83 1.539,2.303 3.036,4.654 4.503,7.017 0.788,1.287 1.554,2.592 2.324,3.89 0.968,1.642 1.918,3.29 2.853,4.955 0.74,1.329 1.486,2.652 2.198,3.987 1.353,2.532 2.664,5.087 3.932,7.679 0.075,0.156 0.157,0.307 0.235,0.468 C -1.737,-3.722 -0.962,-1.96 0,0" style="fill:#071d3d;fill-opacity:1;fill-rule:nonzero;stroke:none" id="path1221"></path></g><g id="g1223" transform="translate(295.1523,396.3443)"><path d="m 0,0 c 9.976,43.432 31.974,82.257 62.433,112.725 21.159,21.16 46.345,38.26 74.305,50.082 27.963,11.834 58.707,18.376 90.979,18.376 95.648,0 177.827,-57.49 213.995,-139.772 1.931,0.205 3.849,0.403 5.742,0.602 -1.935,4.491 -4.025,8.886 -6.217,13.228 -0.613,1.197 -1.217,2.399 -1.842,3.59 -0.932,1.761 -1.879,3.511 -2.854,5.243 -0.655,1.179 -1.335,2.345 -2.015,3.506 -2.191,3.764 -4.479,7.48 -6.869,11.124 -0.259,0.397 -0.511,0.812 -0.778,1.208 -1.071,1.618 -2.192,3.193 -3.308,4.787 -0.814,1.166 -1.633,2.326 -2.47,3.475 -1.12,1.539 -2.262,3.061 -3.416,4.576 -0.903,1.178 -1.826,2.339 -2.748,3.487 -1.606,2.027 -3.239,4.023 -4.907,5.99 -1.413,1.659 -2.829,3.325 -4.284,4.948 -1.184,1.305 -2.391,2.586 -3.6,3.872 -1.111,1.185 -2.224,2.364 -3.36,3.524 -1.221,1.251 -2.45,2.489 -3.695,3.71 -1.256,1.233 -2.531,2.435 -3.816,3.632 -1.213,1.148 -2.42,2.297 -3.658,3.415 -2.198,1.972 -4.434,3.909 -6.702,5.809 -1.193,0.986 -2.404,1.948 -3.607,2.916 -1.477,1.178 -2.955,2.351 -4.456,3.5 -1.233,0.944 -2.462,1.87 -3.713,2.79 -1.723,1.274 -3.473,2.501 -5.222,3.716 -1.028,0.715 -2.036,1.443 -3.075,2.146 -2.638,1.774 -5.317,3.476 -8.03,5.148 -1.137,0.696 -2.295,1.364 -3.447,2.05 -1.854,1.106 -3.731,2.177 -5.616,3.229 -1.187,0.661 -2.381,1.322 -3.581,1.966 -2.245,1.196 -4.519,2.351 -6.803,3.482 -0.8,0.396 -1.579,0.805 -2.382,1.19 -2.997,1.443 -6.036,2.802 -9.096,4.119 -1.08,0.457 -2.171,0.896 -3.254,1.347 -2.222,0.908 -4.452,1.791 -6.698,2.633 -1.13,0.427 -2.255,0.854 -3.395,1.263 -2.783,0.998 -5.583,1.948 -8.415,2.844 -0.511,0.163 -1.022,0.343 -1.53,0.511 -3.31,1.023 -6.654,1.954 -10.021,2.839 -1.04,0.276 -2.086,0.522 -3.136,0.781 -2.504,0.625 -5.02,1.208 -7.558,1.75 -1.091,0.234 -2.173,0.463 -3.268,0.685 -3.264,0.65 -6.548,1.245 -9.855,1.756 -0.247,0.042 -0.482,0.09 -0.728,0.126 -3.538,0.542 -7.113,0.974 -10.703,1.359 -1.06,0.12 -2.122,0.198 -3.18,0.307 -2.692,0.252 -5.394,0.457 -8.115,0.607 -1.082,0.073 -2.171,0.138 -3.257,0.193 -3.67,0.162 -7.356,0.27 -11.066,0.27 C 95.613,186.636 -11.476,79.575 -11.476,-52.535 c 0,-2.321 0.109,-4.612 0.175,-6.916 1.527,3.753 3.394,7.39 5.418,10.951 C -5.592,-31.856 -3.59,-15.628 0,0" style="fill:#071d3d;fill-opacity:1;fill-rule:nonzero;stroke:none" id="path1225"></path></g><g id="g1227" transform="translate(548.8359,497.8492)"><path d="m 0,0 43.255,4.73 c 1.109,0.122 2.12,1.138 2.258,2.271 l 3,24.64 c 0.137,1.133 -0.649,1.953 -1.759,1.832 L -9.825,27.286 c -0.878,-0.097 -1.763,-0.557 -2.447,-1.273 L -30.131,7.334 -43.861,22.559 c -0.527,0.584 -1.322,0.859 -2.2,0.764 l -52.35,-5.725 c -0.88,-0.096 -1.767,-0.557 -2.451,-1.276 l -16.854,-17.673 c -0.639,-0.671 -1.053,-1.513 -1.156,-2.352 l -8.417,-69.131 c -0.137,-1.133 0.649,-1.954 1.759,-1.832 l 24.119,2.638 c 1.108,0.121 2.12,1.137 2.258,2.271 l 6.809,55.93 c 0.228,1.869 1.895,3.546 3.725,3.746 l 25.695,2.81 c 1.829,0.2 3.128,-1.153 2.901,-3.022 l -6.811,-55.93 c -0.138,-1.133 0.649,-1.953 1.759,-1.832 l 24.118,2.638 c 1.109,0.121 2.12,1.138 2.258,2.271 l 1.933,15.88 13.722,-15.19 c 0.526,-0.583 1.321,-0.858 2.199,-0.762 l 56.58,6.187 c 1.109,0.121 2.12,1.138 2.258,2.271 l 3,24.64 c 0.138,1.133 -0.649,1.953 -1.759,1.832 l -43.254,-4.73 c -1.829,-0.2 -3.128,1.153 -2.901,3.022 l 3.196,26.249 C -3.497,-1.877 -1.829,-0.2 0,0" style="fill:#071d3d;fill-opacity:1;fill-rule:nonzero;stroke:none" id="path1229"></path></g></g></g></g></svg>