
<svg xmlns="http://www.w3.org/2000/svg" version="1.1" id="Layer_1" x="0px" y="0px" width="311.736px" height="234.561px" viewBox="0 0 311.736 234.561" enable-background="new 0 0 311.736 234.561" xml:space="preserve">
<path fill="#ffffff" d="M 48.380232,84.799788 C 66.303516,23.447067 130.59801,-11.781962 191.99199,6.1560596 253.36387,24.076394 288.57522,88.359084 270.65341,149.73392 252.72127,211.09106 188.42384,246.29945 127.0387,228.38207 65.678611,210.44699 30.448108,146.17756 48.380232,84.799788 Z" id="path179-2"></path><g id="g689" transform="translate(0,2.5573117e-4)">
	<path fill="#bec0c2" d="m 286.27,130.274 c 0,-8.07 -4.043,-14.909 -9.657,-17.378 C 274.273,49.605 221.596,-0.785 157.88,0.009 93.228,0.902 41.31,54.206 42.144,118.833 c 0.043,3.183 0.218,6.334 0.512,9.449 -4.766,2.976 -8.059,9.248 -8.059,16.529 0,10.147 6.383,18.375 14.257,18.375 0.863,0 1.704,-0.115 2.526,-0.306 18.051,42.603 60.547,72.314 109.574,71.67 53.274,-0.721 97.885,-37.02 111.479,-85.929 7.677,-0.288 13.837,-8.382 13.837,-18.347 z M 43.971,118.809 C 43.148,55.189 94.259,2.714 157.903,1.835 c 62.481,-0.778 114.178,48.443 116.851,110.411 -0.833,-0.209 -1.693,-0.322 -2.57,-0.335 C 269.345,51.407 218.992,3.629 157.936,4.389 95.575,5.25 45.721,56.44 46.527,118.777 c 0.035,2.64 0.168,5.256 0.382,7.85 -0.861,0.152 -1.7,0.393 -2.505,0.733 -0.247,-2.822 -0.395,-5.673 -0.433,-8.551 z M 160.93,232.724 c -48.197,0.631 -89.984,-28.537 -107.796,-70.385 0.778,-0.315 1.523,-0.725 2.237,-1.199 17.335,41.065 58.228,69.653 105.524,69.03 51.208,-0.693 93.991,-35.346 107.2,-82.24 0.795,0.293 1.612,0.514 2.458,0.624 -13.522,47.934 -57.331,83.462 -109.623,84.17 z" id="path531"></path>
	<path fill="#ffffff" d="m 83.741,95.29 c 12.161,-41.628 55.785,-65.531 97.441,-53.36 41.641,12.159 65.532,55.775 53.372,97.418 -12.167,41.631 -55.793,65.52 -97.443,53.363 C 95.478,180.542 71.574,136.935 83.741,95.29 Z" id="path533"></path>
			<path fill="#bec0c2" d="m 201.214,64.185 2.315,-7.962 2.151,-0.938 -7.956,-4.174 c -0.728,-0.392 -1.302,-0.146 -1.499,0.236 l -0.237,0.504 c -0.21,0.409 0.027,1.047 0.674,1.384 l 6.183,3.261 -2.111,0.933 -1.726,6.083 c -0.215,0.705 0.069,1.309 0.515,1.458 l 0.508,0.154 c 0.403,0.121 0.966,-0.142 1.183,-0.939 z" id="path535"></path>
			<path fill="#bec0c2" d="m 193.085,66.982 2.843,-7.761 2.2,-0.775 -7.646,-4.746 c -0.703,-0.438 -1.289,-0.237 -1.514,0.13 l -0.271,0.468 c -0.232,0.41 -0.048,1.055 0.577,1.438 l 5.946,3.696 -2.161,0.776 -2.156,5.937 c -0.252,0.7 -0.012,1.325 0.412,1.498 l 0.506,0.189 c 0.4,0.153 0.98,-0.074 1.264,-0.85 z" id="path537"></path>
			<path fill="#bec0c2" d="m 184.767,69.178 3.36,-7.527 2.262,-0.623 -7.315,-5.281 c -0.666,-0.482 -1.268,-0.337 -1.515,0.019 l -0.313,0.463 c -0.251,0.379 -0.109,1.035 0.485,1.464 l 5.678,4.117 -2.204,0.621 -2.555,5.765 c -0.299,0.678 -0.097,1.316 0.311,1.524 l 0.491,0.224 c 0.393,0.181 0.988,-0.004 1.315,-0.766 z" id="path539"></path>
			<path fill="#bec0c2" d="m 176.318,70.784 3.869,-7.276 2.291,-0.458 -6.937,-5.789 c -0.62,-0.544 -1.234,-0.424 -1.511,-0.081 l -0.339,0.424 c -0.288,0.357 -0.182,1.031 0.384,1.495 l 5.392,4.515 -2.252,0.467 -2.94,5.569 c -0.344,0.638 -0.189,1.299 0.212,1.519 l 0.475,0.281 c 0.373,0.197 0.976,0.07 1.356,-0.666 z" id="path541"></path>
			<path fill="#bec0c2" d="m 167.781,71.762 4.363,-6.977 2.317,-0.281 -6.542,-6.286 c -0.584,-0.581 -1.193,-0.514 -1.492,-0.194 l -0.367,0.403 c -0.309,0.346 -0.246,1.013 0.275,1.521 l 5.074,4.895 -2.275,0.302 -3.304,5.328 c -0.392,0.637 -0.281,1.303 0.087,1.554 l 0.467,0.295 c 0.355,0.237 0.966,0.14 1.397,-0.56 z" id="path543"></path>
			<path fill="#bec0c2" d="m 159.206,72.113 4.81,-6.637 2.349,-0.106 -6.099,-6.74 c -0.544,-0.617 -1.18,-0.603 -1.483,-0.308 l -0.401,0.377 c -0.321,0.32 -0.313,0.998 0.178,1.533 l 4.729,5.26 -2.283,0.13 -3.672,5.082 c -0.43,0.59 -0.362,1.259 0,1.543 l 0.431,0.335 c 0.337,0.253 0.958,0.212 1.441,-0.469 z" id="path545"></path>
			<path fill="#bec0c2" d="m 150.612,71.859 5.259,-6.272 2.345,0.049 -5.621,-7.158 c -0.506,-0.66 -1.134,-0.679 -1.461,-0.41 l -0.417,0.35 c -0.353,0.294 -0.389,0.971 0.067,1.541 l 4.352,5.586 -2.295,-0.038 -3.988,4.805 c -0.475,0.554 -0.459,1.229 -0.122,1.542 l 0.413,0.362 c 0.312,0.283 0.936,0.279 1.468,-0.357 z" id="path547"></path>
			<path fill="#bec0c2" d="m 142.058,70.975 5.675,-5.874 2.336,0.215 -5.126,-7.543 c -0.453,-0.689 -1.07,-0.757 -1.413,-0.516 l -0.449,0.318 c -0.378,0.262 -0.461,0.943 -0.034,1.544 l 3.956,5.875 -2.275,-0.194 -4.322,4.494 c -0.512,0.525 -0.537,1.209 -0.217,1.549 l 0.381,0.371 c 0.305,0.312 0.918,0.361 1.488,-0.239 z" id="path549"></path>
			<path fill="#bec0c2" d="m 133.578,69.475 6.063,-5.439 2.317,0.383 -4.595,-7.898 c -0.41,-0.723 -1.023,-0.837 -1.387,-0.614 l -0.472,0.273 c -0.383,0.25 -0.501,0.913 -0.131,1.545 l 3.553,6.151 -2.269,-0.366 -4.614,4.184 c -0.539,0.477 -0.612,1.148 -0.316,1.497 l 0.356,0.425 c 0.278,0.325 0.897,0.417 1.495,-0.141 z" id="path551"></path>
			<path fill="#bec0c2" d="m 125.229,67.366 6.419,-4.992 2.276,0.551 -4.05,-8.201 c -0.345,-0.763 -0.959,-0.913 -1.336,-0.722 l -0.48,0.249 c -0.399,0.216 -0.566,0.86 -0.24,1.525 l 3.13,6.396 -2.241,-0.539 -4.888,3.837 c -0.578,0.444 -0.688,1.112 -0.422,1.48 l 0.327,0.444 c 0.254,0.356 0.873,0.488 1.505,-0.028 z" id="path553"></path>
			<path fill="#bec0c2" d="m 117.041,64.666 6.742,-4.52 2.24,0.723 -3.48,-8.489 c -0.309,-0.768 -0.9,-0.969 -1.292,-0.804 l -0.497,0.208 c -0.41,0.185 -0.637,0.82 -0.343,1.508 l 2.681,6.593 -2.181,-0.684 -5.149,3.472 c -0.607,0.396 -0.779,1.051 -0.524,1.451 l 0.296,0.453 c 0.228,0.365 0.834,0.546 1.507,0.089 z" id="path555"></path>
			<path fill="#bec0c2" d="m 109.047,61.369 7.041,-4.024 2.178,0.889 -2.895,-8.706 c -0.25,-0.801 -0.822,-1.049 -1.236,-0.909 l -0.503,0.178 c -0.426,0.157 -0.691,0.776 -0.449,1.471 l 2.229,6.782 -2.144,-0.853 -5.354,3.094 c -0.632,0.352 -0.837,0.994 -0.63,1.395 l 0.266,0.485 c 0.208,0.393 0.796,0.607 1.497,0.198 z" id="path557"></path>
		</g>
	
	<g id="g593">
		<g id="g591">
			<path fill="#bec0c2" d="m 112.499,172.164 -1.193,7.608 -1.928,1.161 8.051,2.777 c 0.731,0.264 1.249,-0.033 1.382,-0.419 l 0.172,-0.483 c 0.14,-0.403 -0.152,-0.947 -0.81,-1.185 l -6.26,-2.183 1.874,-1.139 0.898,-5.808 c 0.106,-0.682 -0.239,-1.203 -0.668,-1.271 l -0.507,-0.082 c -0.403,-0.057 -0.907,0.265 -1.011,1.024 z" id="path563"></path>
			<path fill="#bec0c2" d="m 119.861,168.523 -1.739,7.515 -1.991,1.009 7.831,3.342 c 0.716,0.316 1.25,0.056 1.416,-0.317 l 0.197,-0.477 c 0.177,-0.395 -0.087,-0.965 -0.723,-1.238 l -6.093,-2.618 1.962,-0.999 1.285,-5.734 c 0.166,-0.666 -0.142,-1.21 -0.579,-1.319 l -0.492,-0.107 c -0.389,-0.092 -0.912,0.192 -1.074,0.943 z" id="path565"></path>
			<path fill="#bec0c2" d="m 127.451,165.408 -2.256,7.366 -2.054,0.858 7.58,3.894 c 0.691,0.365 1.238,0.14 1.433,-0.215 l 0.229,-0.45 c 0.2,-0.395 -0.016,-0.979 -0.631,-1.292 l -5.894,-3.037 2.019,-0.858 1.7,-5.631 c 0.202,-0.664 -0.065,-1.227 -0.479,-1.356 l -0.492,-0.143 c -0.391,-0.12 -0.937,0.128 -1.155,0.864 z" id="path567"></path>
			<path fill="#bec0c2" d="m 135.252,162.839 -2.756,7.182 -2.124,0.726 7.293,4.409 c 0.66,0.403 1.224,0.229 1.437,-0.11 l 0.271,-0.451 c 0.221,-0.368 0.043,-0.964 -0.547,-1.325 l -5.658,-3.441 2.063,-0.719 2.092,-5.496 c 0.249,-0.646 0.02,-1.225 -0.379,-1.392 l -0.486,-0.172 c -0.38,-0.145 -0.94,0.063 -1.206,0.789 z" id="path569"></path>
			<path fill="#bec0c2" d="m 143.213,160.809 -3.255,6.979 -2.159,0.573 6.954,4.903 c 0.628,0.467 1.207,0.319 1.446,-0.018 l 0.297,-0.413 c 0.252,-0.348 0.113,-0.966 -0.453,-1.358 l -5.411,-3.829 2.12,-0.574 2.475,-5.349 c 0.287,-0.608 0.107,-1.213 -0.288,-1.391 l -0.471,-0.227 c -0.366,-0.162 -0.938,-10e-4 -1.255,0.704 z" id="path571"></path>
			<path fill="#bec0c2" d="m 151.296,159.349 -3.745,6.735 -2.191,0.413 6.603,5.391 c 0.596,0.5 1.174,0.403 1.438,0.08 l 0.325,-0.395 c 0.276,-0.338 0.178,-0.948 -0.354,-1.392 l -5.125,-4.202 2.152,-0.417 2.835,-5.146 c 0.334,-0.611 0.19,-1.222 -0.176,-1.431 l -0.46,-0.241 c -0.357,-0.198 -0.932,-0.071 -1.302,0.605 z" id="path573"></path>
			<path fill="#bec0c2" d="m 159.456,158.466 -4.195,6.455 -2.235,0.254 6.215,5.838 c 0.556,0.539 1.159,0.481 1.436,0.19 l 0.356,-0.373 c 0.288,-0.315 0.242,-0.949 -0.259,-1.409 l -4.818,-4.561 2.164,-0.269 3.202,-4.934 c 0.375,-0.575 0.273,-1.195 -0.089,-1.43 l -0.429,-0.286 c -0.344,-0.211 -0.928,-0.127 -1.348,0.525 z" id="path575"></path>
			<path fill="#bec0c2" d="m 167.663,158.149 -4.642,6.146 -2.245,0.111 5.791,6.249 c 0.521,0.581 1.116,0.562 1.414,0.289 l 0.379,-0.353 c 0.316,-0.29 0.308,-0.919 -0.159,-1.42 l -4.479,-4.883 2.19,-0.117 3.524,-4.699 c 0.416,-0.54 0.358,-1.169 0.024,-1.438 l -0.418,-0.304 c -0.315,-0.248 -0.907,-0.203 -1.379,0.419 z" id="path577"></path>
			<path fill="#bec0c2" d="m 175.874,158.415 -5.063,5.802 -2.245,-0.045 5.337,6.649 c 0.475,0.604 1.069,0.629 1.379,0.383 l 0.414,-0.326 c 0.342,-0.263 0.379,-0.901 -0.061,-1.431 l -4.124,-5.184 2.184,0.04 3.856,-4.439 c 0.455,-0.517 0.438,-1.154 0.116,-1.447 l -0.389,-0.319 c -0.307,-0.268 -0.898,-0.274 -1.404,0.317 z" id="path579"></path>
			<path fill="#bec0c2" d="m 184.045,159.25 -5.452,5.428 -2.229,-0.202 4.84,7.011 c 0.437,0.642 1.025,0.706 1.363,0.475 l 0.434,-0.282 c 0.352,-0.253 0.424,-0.87 0.032,-1.435 l -3.755,-5.465 2.185,0.194 4.155,-4.166 c 0.483,-0.479 0.515,-1.104 0.215,-1.409 l -0.368,-0.366 c -0.282,-0.292 -0.877,-0.334 -1.42,0.217 z" id="path581"></path>
			<path fill="#bec0c2" d="m 192.136,160.669 -5.827,5.034 -2.203,-0.369 4.346,7.332 c 0.376,0.68 0.972,0.78 1.321,0.576 l 0.441,-0.259 c 0.37,-0.224 0.491,-0.832 0.141,-1.426 l -3.362,-5.712 2.167,0.349 4.435,-3.864 c 0.524,-0.444 0.592,-1.07 0.313,-1.399 l -0.336,-0.389 c -0.261,-0.311 -0.862,-0.391 -1.436,0.127 z" id="path583"></path>
			<path fill="#bec0c2" d="m 200.104,162.639 -6.168,4.617 -2.176,-0.528 3.827,7.628 c 0.337,0.692 0.919,0.845 1.277,0.665 l 0.462,-0.228 c 0.38,-0.199 0.557,-0.799 0.241,-1.413 l -2.952,-5.93 2.12,0.487 4.703,-3.543 c 0.56,-0.402 0.68,-1.02 0.417,-1.371 l -0.309,-0.405 c -0.236,-0.324 -0.827,-0.449 -1.442,0.021 z" id="path585"></path>
			<path fill="#bec0c2" d="m 207.918,165.171 -6.472,4.176 -2.133,-0.683 3.278,7.87 c 0.288,0.727 0.846,0.912 1.233,0.759 l 0.465,-0.195 c 0.4,-0.175 0.617,-0.759 0.345,-1.389 l -2.525,-6.131 2.095,0.646 4.924,-3.207 c 0.577,-0.365 0.739,-0.975 0.515,-1.332 l -0.28,-0.431 c -0.222,-0.35 -0.8,-0.507 -1.445,-0.083 z" id="path587"></path>
			<path fill="#bec0c2" d="m 215.538,168.248 -6.75,3.694 -2.082,-0.816 2.715,8.078 c 0.238,0.74 0.78,0.974 1.166,0.848 l 0.494,-0.168 c 0.407,-0.135 0.658,-0.711 0.438,-1.357 l -2.088,-6.289 2.034,0.792 5.151,-2.863 c 0.602,-0.322 0.807,-0.913 0.599,-1.291 l -0.244,-0.452 c -0.202,-0.356 -0.765,-0.562 -1.433,-0.176 z" id="path589"></path>
		</g>
	</g>
	<g id="g645">
		<g id="g609">
			<path fill="#a1a0a4" d="m 105.345,64.82 c -8.057,1.428 -14.737,8.169 -15.211,15.349 -0.02,0.278 -0.026,0.555 -0.026,0.826 0,3.208 1.26,6.091 3.601,8.19 2.92,2.615 7.195,3.658 11.727,2.854 8.052,-1.418 14.737,-8.157 15.216,-15.346 0.23,-3.544 -1.034,-6.744 -3.573,-9.019 -2.925,-2.619 -7.198,-3.658 -11.734,-2.854 z" id="path595"></path>
			<path fill="#a1a0a4" d="M 27.558,85.206 23.98,99.089 c 0,0 2.736,-0.734 4.657,-1.252 -2.376,10.59 -14.604,65.182 -14.685,65.549 -0.633,2.068 -3.344,3.59 -5.69,4.332 l -1.994,0.63 -6.268,20.75 7.728,-3.21 c 25.302,-10.503 63.139,-20.642 63.52,-20.741 l 1.998,-0.534 8.771,-24.223 -9.46,2.229 c -1.284,0.3 -2.086,0.848 -2.607,1.47 -1.185,1.451 -5.012,5.428 -8.61,6.607 -0.269,0.073 -16.479,4.539 -16.659,4.588 -0.029,0.008 -0.054,0.013 -0.08,0.02 0.08,-0.357 18.986,-82.8 18.986,-82.8 z" id="path597"></path>
			<path fill="#a1a0a4" d="m 85.294,98.069 -3.444,13.476 c 0,0 2.076,-0.541 3.964,-1.039 -2.222,8.492 -7.088,27.12 -7.088,27.12 -0.551,2.25 -0.818,4.432 -0.818,6.489 0,4.538 1.309,8.477 3.837,11.278 2.38,2.637 6.975,5.543 15.35,4.391 6.496,-0.886 12.528,-4.028 17.939,-9.349 l 3.651,-3.589 -11.23,-6.741 -2.187,2.085 c -0.159,0.155 -0.322,0.286 -0.477,0.416 0.063,-0.485 0.16,-1.057 0.317,-1.718 -0.011,0.032 11.593,-47.494 11.593,-47.494 l 1.741,-7.136 z" id="path599"></path>
			<path fill="#a1a0a4" d="m 158.586,73.99 c -19.143,2.358 -33.57,13.783 -37.639,29.811 -0.006,0.026 -5.7,23.063 -5.7,23.063 l 0.022,-0.097 c -2.021,7.364 -1.236,13.179 2.336,17.285 4.126,4.736 11.332,6.469 21.423,5.151 19.236,-2.514 33.478,-12.986 37.177,-27.337 0.002,-0.016 6.445,-25.518 6.445,-25.518 1.81,-7.429 0.897,-13.222 -2.689,-17.26 -4.126,-4.623 -11.315,-6.343 -21.375,-5.098 z m -2.464,15.404 c 0.469,-0.053 0.972,-0.059 1.443,-0.033 -2.235,9.037 -10.156,41.053 -10.156,41.053 -0.389,1.503 -2.685,2.804 -5.332,2.99 -0.112,0.008 -0.228,-0.021 -0.348,-0.05 0.531,-2.107 10.504,-41.937 10.556,-42.149 0.374,-0.574 2.273,-1.635 3.837,-1.811 z" id="path601"></path>
			<path fill="#a1a0a4" d="m 237.48,57.568 v 0 c -3.969,0.642 -8.589,2.26 -12.766,4.327 0.36,-1.435 0.751,-2.974 0.751,-2.974 L 192.004,71.363 188.8,84.75 c 0,0 2.069,-0.624 3.975,-1.199 -2.532,10.369 -13.359,54.713 -13.359,54.713 l 28.256,-6.915 11.436,-47.322 c 0.647,-2.798 2.042,-4.551 4.459,-5.607 -0.936,3.94 -6.777,28.521 -6.777,28.521 0.012,-0.038 -0.373,1.458 -0.373,1.458 -1.507,5.776 -3.565,13.691 0.776,18.577 2.398,2.701 6.119,3.729 11.059,3.054 8.736,-1.2 16.423,-5.754 22.853,-13.546 l 2.86,-3.461 c 0,0 -9.622,-6.102 -10.531,-6.674 2.142,-8.938 7.425,-31.007 7.425,-31.007 0.536,-2.189 0.811,-4.201 0.811,-6.036 0,-3.507 -0.993,-6.355 -2.964,-8.497 -2.58,-2.797 -6.669,-3.973 -11.226,-3.241 z" id="path603"></path>
			<path fill="#a1a0a4" d="m 21.728,204.127 -1.757,-5.054 5.957,-2.704 c 31.8,-13.574 75.656,-28.837 120.324,-41.88 45.82,-13.376 86.526,-22.595 111.687,-25.29 l 4.472,-0.481 -0.253,12.783 -3.146,0.61 c -21.704,4.188 -98.475,21.863 -175.035,73.535 l -2.135,1.439 -2.185,-1.368 C 63.05,205.325 39.854,203.9 27.508,203.972 c -1.83,-0.027 -5.78,0.155 -5.78,0.155 z" id="path605"></path>
			<path fill="#a1a0a4" d="m 279.387,50.139 v 0 c -16.191,3.397 -25.281,15.004 -24.932,31.857 0.207,10.086 6.473,18.405 12.533,26.45 5.2,6.899 10.111,13.419 10.274,19.973 0.299,12.177 -5.07,13.891 -6.852,14.294 -3.137,0.704 -5.457,-1.195 -6.11,-1.992 5.448,-2.542 10.923,-7.381 10.923,-14.324 0,-0.453 -0.023,-0.913 -0.069,-1.383 -0.454,-4.479 -2.621,-6.932 -4.356,-8.206 -3.864,-2.825 -8.443,-2.15 -9.753,-1.877 -9.533,1.985 -15.594,11.4 -13.799,21.436 2.906,16.248 18.094,21.258 30.978,19.028 9.324,-1.614 17.115,-6.303 21.933,-13.21 4.767,-6.843 6.378,-15.399 4.656,-24.74 -1.78,-9.675 -6.954,-17.302 -11.956,-24.685 -5.189,-7.656 -10.1,-14.894 -10.46,-23.58 -0.117,-2.771 0.686,-4.843 1.531,-5.665 0.329,-0.319 0.541,-0.337 0.742,-0.324 0.303,0.021 1.011,0.072 1.767,1.219 1.684,2.564 1.915,7.871 0.521,11.833 l -0.465,1.321 2.399,6.781 22.844,-10.683 -0.319,-2.821 c -0.748,-6.792 -4.139,-12.677 -9.531,-16.589 -6.102,-4.414 -14.089,-5.874 -22.499,-4.113 z" id="path607"></path>
		</g>
		<g id="g625">
			<path fill="#ffffff" d="m 105.84,67.622 c -6.707,1.187 -12.481,6.901 -12.864,12.737 -0.017,0.205 -0.021,0.416 -0.021,0.623 0,2.395 0.929,4.534 2.652,6.08 2.265,2.031 5.665,2.824 9.332,2.173 6.709,-1.182 12.483,-6.894 12.872,-12.733 0.174,-2.646 -0.762,-5.029 -2.635,-6.706 -2.264,-2.035 -5.665,-2.825 -9.336,-2.174 z" id="path611"></path>
			<path fill="#ffffff" d="m 29.937,87.385 -1.981,7.684 c 0,0 3.217,-0.863 4.488,-1.209 -0.765,3.423 -15.72,70.181 -15.746,70.29 -1.131,3.867 -5.677,5.685 -7.578,6.282 l -0.563,0.179 -4.091,13.548 2.173,-0.9 C 32.118,172.684 70.13,162.497 70.51,162.398 l 0.564,-0.155 6.472,-17.873 -3.388,0.794 c -1.456,0.344 -1.995,0.475 -2.165,0.918 -0.882,1.032 -5.165,5.835 -9.81,7.335 l -16.842,4.638 c -1.681,0.404 -2.912,0.343 -3.428,-0.179 -0.463,-0.474 -0.513,-1.537 -0.14,-3.006 0.009,-0.027 17.879,-77.958 17.879,-77.958 z" id="path613"></path>
			<path fill="#ffffff" d="m 87.674,100.237 -1.871,7.328 c 0,0 2.922,-0.764 3.995,-1.046 -0.862,3.289 -8.303,31.762 -8.303,31.762 -0.502,2.047 -0.744,4.014 -0.744,5.853 0,3.82 1.058,7.08 3.11,9.354 1.916,2.123 5.708,4.454 12.845,3.478 5.871,-0.805 11.369,-3.685 16.333,-8.562 l 1.029,-1.007 -6.221,-3.735 -0.609,0.589 c -1.329,1.263 -2.655,1.991 -3.952,2.165 -0.602,0.087 -0.798,-0.129 -0.885,-0.221 -0.54,-0.591 -0.877,-2.5 -0.063,-5.958 l 12.085,-49.525 z" id="path615"></path>
			<path fill="#ffffff" d="m 158.938,76.813 v 0 c -17.957,2.215 -31.458,12.821 -35.232,27.69 0,0.001 -5.693,23.043 -5.693,23.043 -1.75,6.362 -1.165,11.291 1.74,14.633 3.412,3.919 9.948,5.37 18.909,4.202 18.058,-2.363 31.388,-12.021 34.785,-25.227 l 6.448,-25.506 c 1.563,-6.442 0.873,-11.373 -2.063,-14.663 -3.462,-3.89 -9.823,-5.292 -18.894,-4.172 z m -9.387,13.584 c 0.485,-1.961 4.021,-3.577 6.248,-3.833 1.874,-0.211 4.445,0.076 5.068,0.786 0.063,0.067 0.097,0.124 0.058,0.292 l -10.753,43.456 c -0.711,2.747 -3.956,4.865 -7.896,5.146 -1.189,0.083 -2.488,-0.398 -3.175,-1.172 -0.292,-0.333 -0.431,-0.674 -0.431,-1.038 0,-0.093 0.011,-0.189 0.03,-0.291 0.02,-0.081 10.851,-43.346 10.851,-43.346 z" id="path617"></path>
			<path fill="#ffffff" d="m 237.938,60.377 v 0 c -5.6,0.905 -12.813,4.003 -17.659,7.407 0.275,-1.084 1.093,-4.301 1.093,-4.301 l -26.952,10.02 -1.699,7.091 c 0,0 2.934,-0.882 4.001,-1.206 -0.863,3.533 -13.429,54.995 -13.429,54.995 l 22.021,-5.386 11.029,-45.645 c 0.93,-4.041 3.274,-6.646 7.16,-7.972 1.507,-0.511 2.668,-0.295 3.15,0.15 0.109,0.1 0.442,0.407 0.231,1.227 -0.004,0.015 -7.327,30.839 -7.327,30.839 0.007,-0.009 -0.389,1.517 -0.389,1.517 -1.342,5.16 -3.178,12.224 0.146,15.971 1.732,1.951 4.605,2.661 8.548,2.121 8.005,-1.096 15.087,-5.313 21.045,-12.534 l 0.805,-0.973 -6.376,-4.044 -0.608,0.863 c -1.438,2.024 -3.056,2.931 -3.715,2.841 -0.028,-0.076 -0.051,-0.187 -0.051,-0.356 0,-0.187 0.025,-0.423 0.108,-0.685 l 0.014,-0.038 9,-37.601 c 0.488,-1.975 0.729,-3.768 0.729,-5.365 0,-2.778 -0.73,-4.98 -2.202,-6.576 -1.917,-2.076 -5.079,-2.939 -8.673,-2.36 z" id="path619"></path>
			<path fill="#ffffff" d="m 258.239,132.031 c -24.998,2.676 -65.521,11.86 -111.19,25.193 -44.561,13.009 -88.303,28.233 -120.002,41.763 l -1.189,0.516 0.462,1.597 1.169,0.027 c 12.658,-0.079 36.459,1.405 53.68,12.183 l 0.616,0.387 0.597,-0.407 c 77.01,-51.977 154.248,-69.761 176.088,-73.972 l 0.888,-0.172 0.142,-7.25 z" id="path621"></path>
			<path fill="#ffffff" d="m 279.972,52.928 v 0 c -14.94,3.132 -22.991,13.434 -22.671,29.011 0.188,9.168 6.175,17.112 11.963,24.793 5.483,7.275 10.661,14.152 10.841,21.621 0.236,9.579 -2.785,15.249 -8.981,16.851 -2.364,0.607 -5.384,0 -7.695,-1.562 -1.671,-1.126 -2.773,-2.657 -3.248,-4.366 5.226,-1.613 12.196,-6.138 12.196,-12.938 0,-0.344 -0.018,-0.685 -0.053,-1.034 -0.279,-2.759 -1.361,-4.846 -3.206,-6.199 -2.315,-1.692 -5.387,-1.827 -7.488,-1.387 -8.148,1.697 -13.127,9.498 -11.579,18.142 2.564,14.339 16.149,18.722 27.687,16.731 8.572,-1.481 15.702,-5.754 20.08,-12.035 4.329,-6.207 5.781,-14.016 4.196,-22.597 -1.673,-9.084 -6.674,-16.463 -11.515,-23.605 -5.426,-8 -10.557,-15.555 -10.948,-25.053 -0.138,-3.259 0.78,-6.258 2.389,-7.824 0.845,-0.821 1.832,-1.197 2.929,-1.123 1.604,0.114 2.932,0.949 3.946,2.492 2.18,3.325 2.539,9.487 0.827,14.343 l -0.128,0.37 1.016,2.877 18.15,-8.489 -0.089,-0.794 c -0.662,-5.982 -3.639,-11.162 -8.379,-14.593 -5.44,-3.939 -12.625,-5.23 -20.24,-3.632 z" id="path623"></path>
		</g>
		<g id="g643">
			<path fill="#0066b3" d="m 116.697,76.432 c -0.359,5.361 -5.709,10.608 -11.951,11.704 -6.246,1.109 -11.019,-2.346 -10.661,-7.705 0.354,-5.37 5.707,-10.611 11.951,-11.711 6.243,-1.109 11.015,2.346 10.661,7.712 z" id="path627"></path>
			<path fill="#0066b3" d="m 73.034,146.574 2.765,-0.651 -5.575,15.399 c 0,0 -38.165,10.179 -64.014,20.904 L 9.455,171.5 c 3.53,-1.115 7.26,-3.415 8.317,-7.05 L 33.935,92.304 29.513,93.5 30.863,88.236 58.116,78.63 40.698,154.595 c -1.02,3.99 0.731,5.541 4.943,4.533 l 16.888,-4.652 c 5.572,-1.803 10.505,-7.902 10.505,-7.902 z" id="path629"></path>
			<path fill="#0066b3" d="m 108.004,145.053 c -1.431,1.368 -2.959,2.252 -4.572,2.469 -2.82,0.398 -3.191,-3.218 -2.178,-7.54 l 11.6,-47.529 -24.246,8.64 -1.253,4.919 4.005,-1.055 -8.786,33.605 c -2.356,9.67 0.832,19.101 13.979,17.298 5.994,-0.823 11.226,-3.854 15.706,-8.251 z" id="path631"></path>
			<path fill="#0066b3" d="m 142.356,137.359 c -2.421,0.167 -5.223,-1.509 -4.749,-3.843 L 148.47,90.128 c 0.632,-2.566 4.697,-4.388 7.203,-4.671 2.187,-0.248 6.9,0.044 6.333,2.438 l -10.752,43.471 c -0.901,3.488 -4.797,5.7 -8.898,5.993 z m 36.457,-41.982 c 3.529,-14.529 -5.212,-19.253 -19.742,-17.46 -16.753,2.07 -30.455,11.778 -34.286,26.856 l -5.69,23.04 c -3.968,14.433 4.908,19.354 19.421,17.462 16.641,-2.175 30.376,-10.895 33.853,-24.396 z" id="path633"></path>
			<path fill="#0066b3" d="m 195.367,74.344 -1.11,4.62 4.008,-1.206 -13.455,55.107 19.581,-4.789 10.868,-44.984 c 1.127,-4.86 4.087,-7.472 7.884,-8.771 2.951,-1.003 5.465,0.186 4.823,2.71 l -7.325,30.822 c -1.667,6.704 -6.128,20.058 7.072,18.249 9.852,-1.349 16.401,-7.374 20.336,-12.143 l -4.413,-2.797 c -1.612,2.271 -3.719,3.653 -5.036,3.246 -0.781,-0.248 -0.908,-1.407 -0.589,-2.425 l 8.986,-37.567 c 2.816,-11.402 -3.454,-13.818 -8.884,-12.938 -6.733,1.084 -15.569,5.356 -19.723,9.238 l 1.384,-5.452 z" id="path635"></path>
			<g id="g641">
				<g id="g639">
					<path fill="#0066b3" d="m 278.438,69.341 c -0.228,-5.499 2.313,-10.389 6.509,-10.099 6.677,0.465 8.289,11.099 5.75,18.316 l 0.472,1.346 16.315,-7.624 c -1.37,-12.323 -12.871,-20.283 -27.288,-17.264 -15.525,3.253 -22.062,14.209 -21.783,27.896 0.359,17.264 22.415,30.428 22.809,46.408 0.294,11.93 -4.469,16.577 -9.819,17.963 -4.799,1.238 -11.788,-1.896 -12.562,-7.794 5.564,-1.348 13.085,-6.099 12.372,-13.075 -0.699,-6.904 -6.717,-7.159 -9.355,-6.609 -6.699,1.395 -11.53,7.643 -10.919,15.247 -55.729,7.74 -161.225,39.397 -223.455,65.962 17.471,-0.108 38.852,2.694 54.274,12.35 61.838,-41.733 127.851,-63.879 170.425,-72.9 3.853,10.271 14.833,13.848 25.367,12.03 15.813,-2.731 26.705,-15.212 23.368,-33.328 -3.466,-18.832 -21.705,-30.292 -22.48,-48.825 z" id="path637"></path>
				</g>
			</g>
		</g>
	</g>
	<g id="g661">
		<path fill="#0066b3" d="m 105.648,50.288 c -3.964,3.064 -6.509,1.304 -8.386,-1.477 l 3.201,-2.474 c 1.131,1.462 2.145,2.645 3.905,1.284 1.08,-0.836 1.07,-1.945 0.268,-2.983 -2.13,-2.757 -8.707,2.051 -12.229,-2.507 -1.852,-2.397 -2.181,-5.19 1.721,-8.204 3.118,-2.407 5.747,-2.203 8.01,1.162 l -3.119,2.408 c -0.885,-1.146 -1.975,-2.165 -3.27,-1.165 -1.038,0.802 -1.211,1.851 -0.394,2.91 2.246,2.905 8.495,-2.327 12.213,2.486 3.065,3.968 0.52,6.678 -1.92,8.56 z" id="path647"></path>
		<path fill="#0066b3" d="m 113.084,44.272 -3.808,-19.71 4.777,-2.37 13.308,14.989 -3.815,1.895 -2.865,-3.361 -4.944,2.454 0.925,4.327 z m 0.034,-17.457 -0.048,0.022 2.063,8.311 3.455,-1.716 z" id="path649"></path>
		<path fill="#0066b3" d="m 130.351,35.926 -4.249,-18.875 6.354,-1.427 5.843,12.17 0.051,-0.013 0.251,-13.541 6.143,-1.382 4.248,18.875 -3.843,0.864 -3.277,-14.563 -0.053,0.013 -0.357,15.379 -3.764,0.846 -6.728,-13.783 -0.053,0.011 3.277,14.561 z" id="path651"></path>
		<path fill="#0066b3" d="m 158.954,32.009 c -5.012,-0.031 -5.93,-2.985 -5.696,-6.334 l 4.047,0.027 c -0.011,1.849 0.061,3.401 2.283,3.418 1.366,0.008 2.041,-0.872 2.051,-2.187 0.02,-3.481 -8.123,-3.749 -8.087,-9.509 0.018,-3.028 1.48,-5.431 6.41,-5.399 3.938,0.024 5.884,1.807 5.592,5.851 l -3.938,-0.027 c 0.009,-1.445 -0.224,-2.922 -1.857,-2.93 -1.315,-0.009 -2.096,0.709 -2.104,2.049 -0.023,3.671 8.125,3.4 8.087,9.482 -0.031,5.013 -3.707,5.579 -6.788,5.559 z" id="path653"></path>
		<path fill="#0066b3" d="m 186.662,15.837 -2.766,13.437 c -0.585,2.834 -2.802,5.497 -7.63,4.503 -4.358,-0.897 -5.992,-3.588 -5.257,-7.156 l 2.766,-13.437 3.962,0.816 -2.711,13.174 c -0.482,2.337 0.326,3.461 1.771,3.758 1.731,0.355 2.757,-0.636 3.189,-2.736 l 2.712,-13.174 z" id="path655"></path>
		<path fill="#0066b3" d="m 187.276,36.164 7.839,-17.686 4.997,2.214 -0.724,14.331 0.049,0.023 5.429,-12.247 3.453,1.53 -7.838,17.687 -4.876,-2.161 0.908,-15.072 -0.05,-0.021 -5.732,12.934 z" id="path657"></path>
		<path fill="#0066b3" d="m 219.602,38.834 c 1.077,-1.436 1.771,-2.888 0.037,-4.149 -2.037,-1.481 -4.039,1.271 -6.248,4.303 -3.563,4.896 -3.718,6.11 -1.853,7.466 0.541,0.395 1.221,0.689 1.845,0.88 l 2.522,-3.467 -1.776,-1.293 1.75,-2.405 5.048,3.675 -5.77,7.93 c -1.016,-0.475 -3.499,-1.752 -4.8,-2.697 -5.503,-4.006 -4.477,-6.738 -0.154,-12.672 2.87,-3.944 5.981,-7.811 11.332,-3.916 3.207,2.334 3.892,5.585 1.314,8.713 z" id="path659"></path>
	</g>
	<g id="g687">
		<path fill="#0066b3" d="m 123.177,214.533 4.377,-13.76 5.107,1.624 c 2.191,0.696 3.803,1.902 2.869,4.837 -0.503,1.583 -1.647,2.477 -3.308,2.285 l -0.012,0.038 c 1.948,0.935 2.063,2.419 1.464,4.307 -1.109,3.487 -4.188,2.675 -5.408,2.287 z m 3.552,-1.2 1.601,0.51 c 0.61,0.193 1.989,0.611 2.601,-1.313 0.388,-1.22 0.167,-2.109 -1.281,-2.57 l -1.678,-0.533 z m 1.915,-6.023 1.925,0.612 c 0.63,0.2 1.64,0.061 2.063,-1.274 0.321,-1.01 -0.129,-1.973 -1.101,-2.281 l -1.772,-0.563 z" id="path663"></path>
		<path fill="#0066b3" d="m 134.549,218.074 6.52,-13.49 3.915,0.713 1.273,14.907 -3.129,-0.569 -0.214,-3.291 -4.054,-0.738 -1.379,3.002 z m 7.812,-10.43 -0.039,-0.008 -2.475,5.893 2.834,0.516 z" id="path665"></path>
		<path fill="#0066b3" d="m 152.381,220.832 c -3.733,-0.215 -4.306,-2.451 -4.002,-4.938 l 3.015,0.174 c -0.079,1.378 -0.086,2.539 1.571,2.636 1.019,0.059 1.556,-0.572 1.612,-1.551 0.149,-2.595 -5.911,-3.105 -5.663,-7.397 0.129,-2.258 1.312,-3.991 4.985,-3.779 2.936,0.169 4.317,1.571 3.943,4.574 l -2.936,-0.169 c 0.063,-1.078 -0.054,-2.186 -1.271,-2.257 -0.979,-0.057 -1.589,0.449 -1.646,1.447 -0.158,2.735 5.926,2.847 5.664,7.379 -0.215,3.732 -2.975,4.013 -5.272,3.881 z" id="path667"></path>
		<path fill="#0066b3" d="m 160.396,220.84 -0.764,-14.419 7.869,-0.417 0.118,2.218 -4.854,0.256 0.188,3.556 4.474,-0.236 0.118,2.216 -4.475,0.237 0.224,4.214 5.013,-0.266 0.117,2.217 z" id="path669"></path>
		<path fill="#0066b3" d="m 171.21,220.136 -2.398,-14.239 5.285,-0.89 c 2.269,-0.381 4.252,-0.046 4.764,2.991 0.275,1.637 -0.334,2.956 -1.897,3.544 l 0.007,0.039 c 2.16,-0.059 2.941,1.208 3.27,3.162 0.609,3.609 -2.501,4.295 -3.764,4.507 z m 1.56,-8.922 1.992,-0.335 c 0.651,-0.11 1.485,-0.698 1.253,-2.077 -0.176,-1.045 -1.016,-1.695 -2.021,-1.525 l -1.835,0.309 z m 1.049,6.232 1.657,-0.278 c 0.631,-0.106 2.048,-0.365 1.712,-2.357 -0.213,-1.262 -0.815,-1.951 -2.314,-1.699 l -1.735,0.293 z" id="path671"></path>
		<path fill="#0066b3" d="m 182.932,218.091 -0.347,-14.979 3.811,-1.15 7.928,12.688 -3.044,0.92 -1.691,-2.831 -3.944,1.191 0.141,3.3 z m 2.199,-12.844 -0.038,0.012 0.483,6.372 2.758,-0.832 z" id="path673"></path>
		<path fill="#0066b3" d="m 196.38,213.738 -5.684,-13.273 2.776,-1.188 4.739,11.068 4.156,-1.779 0.943,2.206 z" id="path675"></path>
		<path fill="#0066b3" d="m 205.208,209.786 -6.916,-12.675 2.65,-1.446 5.768,10.569 3.968,-2.164 1.149,2.105 z" id="path677"></path>
		<path fill="#0066b3" d="m 213.499,196.497 c -2.332,-3.026 -4.553,-5.909 -0.608,-8.949 2.44,-1.879 4.46,-1.289 6.257,1.239 l -2.345,1.807 c -1.172,-1.521 -1.881,-1.883 -2.593,-1.334 -1.348,1.037 -0.545,2.438 1.713,5.369 2.259,2.932 3.41,4.064 4.757,3.027 1.108,-0.854 -0.038,-2.244 -0.702,-3.171 l 2.361,-1.82 c 2.355,3.058 1.893,4.98 -0.341,6.702 -3.945,3.04 -6.19,0.124 -8.499,-2.87 z" id="path679"></path>
		<path fill="#0066b3" d="m 227.312,194.673 -9.962,-10.455 2.187,-2.082 8.307,8.717 3.272,-3.119 1.655,1.739 z" id="path681"></path>
		<path fill="#0066b3" d="m 229.486,171.167 7.836,6.592 c 1.653,1.392 2.613,3.793 0.243,6.608 -2.137,2.54 -4.482,2.657 -6.564,0.906 l -7.836,-6.592 1.944,-2.311 7.683,6.463 c 1.362,1.146 2.387,1.016 3.096,0.173 0.85,-1.009 0.563,-2.036 -0.662,-3.065 l -7.683,-6.464 z" id="path683"></path>
		<path fill="#0066b3" d="m 242.493,177.806 -12.131,-7.836 2.907,-4.501 c 1.249,-1.932 2.833,-3.171 5.421,-1.498 1.395,0.9 1.958,2.24 1.337,3.791 l 0.033,0.021 c 1.413,-1.635 2.876,-1.355 4.54,-0.282 3.074,1.985 1.484,4.744 0.789,5.819 z m -5.536,-7.17 1.097,-1.696 c 0.357,-0.556 0.486,-1.566 -0.689,-2.326 -0.891,-0.575 -1.937,-0.395 -2.489,0.463 l -1.01,1.563 z m 5.31,3.429 0.911,-1.411 c 0.347,-0.537 1.112,-1.758 -0.585,-2.854 -1.076,-0.694 -1.991,-0.714 -2.816,0.563 l -0.955,1.478 z" id="path685"></path>
	</g>
</svg>